<svg xmlns="http://www.w3.org/2000/svg" xmlns:xlink="http://www.w3.org/1999/xlink" width="500" zoomAndPan="magnify" viewBox="0 0 375 374.999991" height="500" preserveAspectRatio="xMidYMid meet" version="1.0"><defs><clipPath id="cca709ced9"><path d="M 272 53 L 325.839844 53 L 325.839844 135 L 272 135 Z M 272 53 " clip-rule="nonzero"/></clipPath><clipPath id="b70b1291d5"><path d="M 271 52 L 325.839844 52 L 325.839844 136 L 271 136 Z M 271 52 " clip-rule="nonzero"/></clipPath><clipPath id="709754f2e0"><path d="M 265 46.195312 L 320 46.195312 L 320 129 L 265 129 Z M 265 46.195312 " clip-rule="nonzero"/></clipPath><clipPath id="d15383db05"><path d="M 27 255 L 84 255 L 84 322.195312 L 27 322.195312 Z M 27 255 " clip-rule="nonzero"/></clipPath></defs><rect x="-37.5" width="450" fill="#ffffff" y="-37.499999" height="449.999989" fill-opacity="1"/><rect x="-37.5" width="450" fill="#ffffff" y="-37.499999" height="449.999989" fill-opacity="1"/><rect x="-37.5" width="450" fill="#ffffff" y="-37.499999" height="449.999989" fill-opacity="1"/><path fill="#437db2" d="M 76.132812 83.699219 L 309.300781 83.699219 C 313.683594 83.699219 317.269531 87.289062 317.269531 91.675781 L 317.269531 304.402344 C 317.269531 308.789062 313.683594 312.382812 309.300781 312.382812 L 76.132812 312.382812 C 71.746094 312.382812 68.160156 308.789062 68.160156 304.402344 L 68.160156 91.675781 C 68.160156 87.289062 71.746094 83.699219 76.132812 83.699219 Z M 76.132812 83.699219 " fill-opacity="1" fill-rule="evenodd"/><path fill="#1d272a" d="M 318.066406 91.359375 L 318.066406 304.402344 C 318.066406 309.191406 314.164062 313.179688 309.300781 313.179688 L 76.132812 313.179688 C 71.507812 313.179688 67.679688 309.589844 67.363281 304.960938 C 67.921875 305.039062 68.398438 304.960938 68.957031 304.882812 C 69.195312 308.632812 72.382812 311.582031 76.132812 311.582031 L 309.300781 311.582031 C 313.207031 311.582031 316.472656 308.390625 316.472656 304.402344 L 316.472656 92.476562 C 317.113281 92.234375 317.667969 91.835938 318.066406 91.359375 Z M 318.066406 91.359375 " fill-opacity="1" fill-rule="nonzero"/><path fill="#eeeeee" d="M 69.277344 76.757812 L 302.445312 76.757812 C 306.828125 76.757812 310.414062 80.347656 310.414062 84.734375 L 310.414062 297.460938 C 310.414062 301.847656 306.828125 305.441406 302.445312 305.441406 L 69.277344 305.441406 C 64.890625 305.441406 61.304688 301.847656 61.304688 297.460938 L 61.304688 84.734375 C 61.304688 80.347656 64.890625 76.757812 69.277344 76.757812 Z M 69.277344 76.757812 " fill-opacity="1" fill-rule="evenodd"/><path fill="#1d272a" d="M 69.277344 75.957031 L 302.445312 75.957031 C 304.835938 75.957031 307.066406 76.914062 308.660156 78.511719 C 310.257812 80.109375 311.210938 82.261719 311.210938 84.734375 L 311.210938 297.460938 C 311.210938 299.855469 310.257812 302.089844 308.660156 303.683594 C 307.066406 305.28125 304.914062 306.238281 302.445312 306.238281 L 69.277344 306.238281 C 66.882812 306.238281 64.652344 305.28125 63.058594 303.683594 C 61.464844 302.089844 60.507812 299.933594 60.507812 297.460938 L 60.507812 84.734375 C 60.507812 82.339844 61.464844 80.109375 63.058594 78.511719 L 63.136719 78.433594 C 64.730469 76.914062 66.882812 75.957031 69.277344 75.957031 Z M 302.445312 77.554688 L 69.277344 77.554688 C 67.28125 77.554688 65.527344 78.351562 64.253906 79.628906 L 64.253906 79.707031 C 62.976562 80.984375 62.179688 82.820312 62.179688 84.816406 L 62.179688 297.539062 C 62.179688 299.535156 62.976562 301.289062 64.253906 302.648438 C 65.527344 303.921875 67.363281 304.722656 69.355469 304.722656 L 302.523438 304.722656 C 304.515625 304.722656 306.269531 303.921875 307.625 302.648438 C 308.902344 301.371094 309.699219 299.535156 309.699219 297.539062 L 309.699219 84.734375 C 309.699219 82.742188 308.902344 80.984375 307.625 79.628906 C 306.191406 78.351562 304.4375 77.554688 302.445312 77.554688 Z M 302.445312 77.554688 " fill-opacity="1" fill-rule="nonzero"/><path fill="#fe7c97" d="M 69.277344 76.757812 L 302.445312 76.757812 C 306.828125 76.757812 310.414062 80.347656 310.414062 84.734375 L 310.414062 122 L 61.304688 122 L 61.304688 84.734375 C 61.304688 80.347656 64.890625 76.757812 69.277344 76.757812 Z M 69.277344 76.757812 " fill-opacity="1" fill-rule="evenodd"/><path fill="#1d272a" d="M 69.277344 75.957031 L 302.445312 75.957031 C 304.835938 75.957031 307.066406 76.914062 308.660156 78.511719 C 310.257812 80.109375 311.210938 82.261719 311.210938 84.734375 L 311.210938 122 C 311.210938 122.476562 310.894531 122.796875 310.414062 122.796875 L 61.304688 122.796875 C 60.824219 122.796875 60.507812 122.476562 60.507812 122 L 60.507812 84.734375 C 60.507812 82.339844 61.464844 80.109375 63.058594 78.511719 L 63.136719 78.433594 C 64.730469 76.914062 66.882812 75.957031 69.277344 75.957031 Z M 302.445312 77.554688 L 69.277344 77.554688 C 67.28125 77.554688 65.527344 78.351562 64.253906 79.628906 L 64.253906 79.707031 C 62.976562 80.984375 62.179688 82.820312 62.179688 84.816406 L 62.179688 121.28125 L 309.699219 121.28125 L 309.699219 84.734375 C 309.699219 82.742188 308.902344 80.984375 307.625 79.628906 C 306.191406 78.351562 304.4375 77.554688 302.445312 77.554688 Z M 302.445312 77.554688 " fill-opacity="1" fill-rule="nonzero"/><path fill="#1d272a" d="M 93.90625 140.667969 L 281.71875 140.667969 C 283.871094 140.667969 285.863281 141.386719 287.296875 142.585938 C 288.734375 143.78125 289.691406 145.535156 289.691406 147.453125 L 289.691406 176.257812 C 289.691406 178.171875 288.8125 179.847656 287.296875 181.125 C 285.863281 182.320312 283.871094 183.039062 281.71875 183.039062 L 99.726562 183.039062 C 97.574219 183.039062 95.582031 182.320312 94.148438 181.125 C 92.710938 179.925781 91.753906 178.171875 91.753906 176.257812 L 91.753906 157.1875 C 91.199219 156.789062 90.640625 156.308594 90.082031 155.910156 C 87.847656 154.234375 85.617188 152.480469 84.421875 150.246094 C 83.941406 149.445312 83.703125 148.570312 83.625 147.691406 C 83.464844 146.496094 83.703125 145.296875 84.183594 144.261719 C 84.742188 143.222656 85.539062 142.265625 86.734375 141.628906 C 87.53125 141.148438 88.488281 140.910156 89.683594 140.75 C 90.878906 140.589844 92.074219 140.589844 93.429688 140.589844 Z M 103.234375 142.265625 L 93.429688 142.265625 C 92.152344 142.265625 90.957031 142.265625 89.84375 142.425781 C 88.886719 142.503906 88.167969 142.742188 87.53125 143.144531 C 86.652344 143.621094 86.015625 144.261719 85.617188 145.058594 C 85.21875 145.855469 85.058594 146.734375 85.21875 147.613281 C 85.296875 148.25 85.539062 148.96875 85.855469 149.605469 C 86.894531 151.519531 89.046875 153.195312 91.117188 154.714844 C 91.753906 155.191406 92.472656 155.75 93.109375 156.230469 C 93.351562 156.386719 93.429688 156.628906 93.429688 156.867188 L 93.429688 176.335938 C 93.429688 177.773438 94.148438 179.050781 95.261719 180.007812 C 96.378906 180.964844 98.054688 181.601562 99.808594 181.601562 L 281.796875 181.601562 C 283.550781 181.601562 285.144531 180.964844 286.339844 180.007812 C 287.457031 179.050781 288.175781 177.773438 288.175781 176.335938 L 288.175781 147.53125 C 288.175781 146.09375 287.457031 144.820312 286.339844 143.859375 C 285.226562 142.902344 283.550781 142.265625 281.796875 142.265625 Z M 103.234375 142.265625 " fill-opacity="1" fill-rule="nonzero"/><path fill="#1d272a" d="M 93.90625 190.378906 L 281.71875 190.378906 C 283.871094 190.378906 285.863281 191.097656 287.296875 192.292969 C 288.734375 193.492188 289.691406 195.246094 289.691406 197.164062 L 289.691406 225.96875 C 289.691406 227.882812 288.8125 229.558594 287.296875 230.835938 C 285.863281 232.03125 283.871094 232.75 281.71875 232.75 L 99.726562 232.75 C 97.574219 232.75 95.582031 232.03125 94.148438 230.835938 C 92.710938 229.636719 91.753906 227.882812 91.753906 225.96875 L 91.753906 206.898438 C 91.277344 206.496094 90.640625 206.019531 90.082031 205.621094 L 90 205.539062 C 87.847656 203.863281 85.539062 202.109375 84.421875 199.953125 C 83.941406 199.15625 83.703125 198.277344 83.625 197.402344 C 83.464844 196.203125 83.703125 195.007812 84.183594 193.96875 C 84.742188 192.933594 85.539062 191.976562 86.734375 191.335938 C 87.53125 190.859375 88.488281 190.621094 89.683594 190.460938 C 90.800781 190.300781 92.074219 190.300781 93.429688 190.300781 Z M 103.234375 191.976562 L 93.429688 191.976562 C 92.152344 191.976562 90.957031 191.976562 89.84375 192.136719 C 88.886719 192.214844 88.167969 192.453125 87.53125 192.851562 C 86.652344 193.332031 86.015625 193.96875 85.617188 194.769531 C 85.21875 195.566406 85.058594 196.445312 85.21875 197.320312 C 85.296875 197.960938 85.539062 198.679688 85.855469 199.316406 C 86.894531 201.230469 88.964844 202.828125 91.039062 204.421875 L 91.117188 204.421875 C 91.753906 204.902344 92.394531 205.460938 93.109375 205.9375 C 93.351562 206.097656 93.429688 206.339844 93.429688 206.578125 L 93.429688 226.046875 C 93.429688 227.484375 94.148438 228.757812 95.261719 229.71875 C 96.378906 230.675781 98.054688 231.3125 99.808594 231.3125 L 281.796875 231.3125 C 283.550781 231.3125 285.144531 230.675781 286.339844 229.71875 C 287.457031 228.757812 288.175781 227.484375 288.175781 226.046875 L 288.175781 197.242188 C 288.175781 195.804688 287.457031 194.527344 286.339844 193.570312 C 285.226562 192.613281 283.550781 191.976562 281.796875 191.976562 Z M 103.234375 191.976562 " fill-opacity="1" fill-rule="nonzero"/><path fill="#1d272a" d="M 93.90625 240.089844 L 281.71875 240.089844 C 283.871094 240.089844 285.863281 240.808594 287.296875 242.003906 C 288.734375 243.203125 289.691406 244.957031 289.691406 246.871094 L 289.691406 275.675781 C 289.691406 277.59375 288.8125 279.269531 287.296875 280.542969 C 285.863281 281.742188 283.871094 282.460938 281.71875 282.460938 L 99.726562 282.460938 C 97.574219 282.460938 95.582031 281.742188 94.148438 280.542969 C 92.710938 279.347656 91.753906 277.59375 91.753906 275.675781 L 91.753906 256.605469 C 91.199219 256.207031 90.640625 255.730469 90.082031 255.332031 C 87.847656 253.65625 85.617188 251.898438 84.421875 249.664062 C 83.941406 248.867188 83.703125 247.988281 83.625 247.113281 C 83.464844 245.914062 83.703125 244.71875 84.183594 243.679688 C 84.742188 242.644531 85.539062 241.6875 86.734375 241.046875 C 87.53125 240.570312 88.488281 240.328125 89.683594 240.171875 C 90.878906 240.011719 92.074219 240.011719 93.429688 240.011719 Z M 103.234375 241.6875 L 93.429688 241.6875 C 92.152344 241.6875 90.957031 241.6875 89.84375 241.84375 C 88.886719 241.925781 88.167969 242.164062 87.53125 242.5625 C 86.652344 243.042969 86.015625 243.679688 85.617188 244.480469 C 85.21875 245.277344 85.058594 246.15625 85.21875 247.03125 C 85.296875 247.671875 85.539062 248.386719 85.855469 249.027344 C 86.894531 250.941406 89.046875 252.617188 91.117188 254.132812 C 91.753906 254.613281 92.472656 255.171875 93.109375 255.648438 C 93.351562 255.808594 93.429688 256.046875 93.429688 256.289062 L 93.429688 275.757812 C 93.429688 277.191406 94.148438 278.46875 95.261719 279.425781 C 96.378906 280.386719 98.054688 281.023438 99.808594 281.023438 L 281.796875 281.023438 C 283.550781 281.023438 285.144531 280.386719 286.339844 279.425781 C 287.457031 278.46875 288.175781 277.191406 288.175781 275.757812 L 288.175781 246.953125 C 288.175781 245.515625 287.457031 244.238281 286.339844 243.28125 C 285.226562 242.324219 283.550781 241.6875 281.796875 241.6875 Z M 103.234375 241.6875 " fill-opacity="1" fill-rule="nonzero"/><path fill="#fe7c97" d="M 110.96875 154.792969 C 108.972656 154.792969 107.21875 155.589844 105.945312 156.867188 C 104.667969 158.144531 103.871094 159.898438 103.871094 161.894531 C 103.871094 163.890625 104.667969 165.644531 105.945312 166.921875 C 107.21875 168.199219 108.972656 168.996094 110.96875 168.996094 C 112.960938 168.996094 114.714844 168.199219 115.988281 166.921875 C 117.265625 165.644531 118.0625 163.890625 118.0625 161.894531 C 118.0625 159.898438 117.265625 158.144531 115.988281 156.867188 C 114.632812 155.589844 112.878906 154.792969 110.96875 154.792969 Z M 104.828125 155.75 C 106.421875 154.15625 108.574219 153.195312 110.96875 153.195312 C 113.359375 153.195312 115.511719 154.15625 117.105469 155.75 C 118.699219 157.347656 119.65625 159.5 119.65625 161.894531 C 119.65625 164.289062 118.699219 166.441406 117.105469 168.039062 C 115.511719 169.632812 113.359375 170.589844 110.96875 170.589844 C 108.574219 170.589844 106.421875 169.632812 104.828125 168.039062 C 103.234375 166.441406 102.277344 164.289062 102.277344 161.894531 C 102.277344 159.5 103.234375 157.265625 104.828125 155.75 Z M 107.539062 159.582031 C 107.21875 159.261719 107.21875 158.78125 107.539062 158.464844 C 107.859375 158.144531 108.335938 158.144531 108.65625 158.464844 L 114.394531 164.207031 C 114.714844 164.527344 114.714844 165.007812 114.394531 165.324219 C 114.074219 165.644531 113.597656 165.644531 113.277344 165.324219 Z M 113.199219 158.464844 C 113.519531 158.144531 113.996094 158.144531 114.316406 158.464844 C 114.632812 158.78125 114.632812 159.261719 114.316406 159.582031 L 108.574219 165.324219 C 108.257812 165.644531 107.777344 165.644531 107.460938 165.324219 C 107.140625 165.007812 107.140625 164.527344 107.460938 164.207031 Z M 110.96875 254.773438 C 108.972656 254.773438 107.21875 255.570312 105.945312 256.847656 C 104.667969 258.125 103.871094 259.878906 103.871094 261.875 C 103.871094 263.867188 104.667969 265.625 105.945312 266.898438 C 107.21875 268.175781 108.972656 268.976562 110.96875 268.976562 C 112.960938 268.976562 114.714844 268.175781 115.988281 266.898438 C 117.265625 265.625 118.0625 263.867188 118.0625 261.875 C 118.0625 259.878906 117.265625 258.125 115.988281 256.847656 C 114.632812 255.570312 112.878906 254.773438 110.96875 254.773438 Z M 104.828125 255.730469 C 106.421875 254.132812 108.574219 253.175781 110.96875 253.175781 C 113.359375 253.175781 115.511719 254.132812 117.105469 255.730469 C 118.699219 257.324219 119.65625 259.480469 119.65625 261.875 C 119.65625 264.265625 118.699219 266.421875 117.105469 268.015625 C 115.511719 269.613281 113.359375 270.570312 110.96875 270.570312 C 108.574219 270.570312 106.421875 269.613281 104.828125 268.015625 C 103.234375 266.421875 102.277344 264.265625 102.277344 261.875 C 102.277344 259.480469 103.234375 257.246094 104.828125 255.730469 Z M 107.539062 259.558594 C 107.21875 259.238281 107.21875 258.761719 107.539062 258.441406 C 107.859375 258.125 108.335938 258.125 108.65625 258.441406 L 114.394531 264.1875 C 114.714844 264.507812 114.714844 264.984375 114.394531 265.304688 C 114.074219 265.625 113.597656 265.625 113.277344 265.304688 Z M 113.199219 258.441406 C 113.519531 258.125 113.996094 258.125 114.316406 258.441406 C 114.632812 258.761719 114.632812 259.238281 114.316406 259.558594 L 108.574219 265.304688 C 108.257812 265.625 107.777344 265.625 107.460938 265.304688 C 107.140625 264.984375 107.140625 264.507812 107.460938 264.1875 Z M 113.199219 258.441406 " fill-opacity="1" fill-rule="nonzero"/><path fill="#437db2" d="M 110.96875 204.503906 C 108.972656 204.503906 107.21875 205.300781 105.945312 206.578125 C 104.667969 207.855469 103.871094 209.609375 103.871094 211.605469 C 103.871094 213.597656 104.667969 215.355469 105.945312 216.632812 C 107.21875 217.90625 108.972656 218.707031 110.96875 218.707031 C 112.960938 218.707031 114.714844 217.90625 115.988281 216.632812 C 117.265625 215.355469 118.0625 213.597656 118.0625 211.605469 C 118.0625 209.609375 117.265625 207.855469 115.988281 206.578125 C 114.632812 205.300781 112.878906 204.503906 110.96875 204.503906 Z M 104.828125 205.460938 C 106.421875 203.863281 108.574219 202.90625 110.96875 202.90625 C 113.359375 202.90625 115.511719 203.863281 117.105469 205.460938 C 118.699219 207.054688 119.65625 209.210938 119.65625 211.605469 C 119.65625 214 118.699219 216.152344 117.105469 217.75 C 115.511719 219.34375 113.359375 220.300781 110.96875 220.300781 C 108.574219 220.300781 106.421875 219.34375 104.828125 217.75 C 103.234375 216.152344 102.277344 214 102.277344 211.605469 C 102.277344 209.210938 103.234375 206.976562 104.828125 205.460938 Z M 113.835938 208.414062 C 114.15625 208.09375 114.632812 208.09375 114.953125 208.414062 C 115.273438 208.730469 115.273438 209.210938 114.953125 209.53125 L 109.769531 214.714844 C 109.453125 215.035156 108.972656 215.035156 108.65625 214.714844 L 106.742188 212.800781 C 106.421875 212.480469 106.421875 212.003906 106.742188 211.683594 C 107.0625 211.363281 107.539062 211.363281 107.859375 211.683594 L 109.132812 212.960938 Z M 113.835938 208.414062 " fill-opacity="1" fill-rule="nonzero"/><g clip-path="url(#cca709ced9)"><path fill="#eeeeee" d="M 304.597656 113.9375 L 291.84375 113.9375 C 291.84375 111.945312 291.761719 110.746094 291.761719 110.269531 C 291.761719 105.800781 292.480469 102.050781 293.835938 99.179688 C 295.191406 96.304688 297.898438 93.035156 302.046875 89.363281 C 306.191406 85.773438 308.582031 83.378906 309.378906 82.261719 C 310.65625 80.507812 311.210938 78.511719 311.210938 76.355469 C 311.210938 73.40625 310.097656 70.851562 307.945312 68.777344 C 305.792969 66.621094 302.84375 65.585938 299.097656 65.585938 C 295.507812 65.585938 292.558594 66.703125 290.089844 68.9375 C 287.695312 71.171875 286.023438 74.523438 285.144531 79.070312 L 272.230469 77.316406 C 272.628906 70.773438 275.179688 65.265625 279.882812 60.71875 C 284.585938 56.171875 290.804688 53.9375 298.539062 53.9375 C 306.589844 53.9375 313.046875 56.25 317.828125 60.796875 C 322.613281 65.425781 325.003906 70.691406 325.003906 76.835938 C 325.003906 80.1875 324.125 83.378906 322.371094 86.410156 C 320.621094 89.441406 316.871094 93.511719 311.132812 98.699219 C 308.183594 101.410156 306.351562 103.566406 305.632812 105.164062 C 304.835938 106.835938 304.515625 109.789062 304.597656 113.9375 Z M 291.84375 134.527344 L 291.84375 119.207031 L 304.597656 119.207031 L 304.597656 134.445312 L 291.84375 134.445312 Z M 291.84375 134.527344 " fill-opacity="1" fill-rule="nonzero"/></g><g clip-path="url(#b70b1291d5)"><path fill="#1d272a" d="M 304.597656 114.738281 L 291.761719 114.738281 C 291.285156 114.738281 290.964844 114.417969 290.964844 113.9375 C 291.042969 112.742188 290.964844 111.464844 290.886719 110.269531 C 290.886719 107.953125 291.042969 105.878906 291.441406 103.964844 C 291.761719 102.050781 292.320312 100.292969 293.039062 98.777344 C 293.753906 97.261719 294.792969 95.667969 296.226562 93.992188 C 297.582031 92.316406 299.335938 90.558594 301.40625 88.726562 C 303.480469 86.890625 305.074219 85.375 306.269531 84.257812 C 307.464844 83.140625 308.261719 82.261719 308.582031 81.703125 C 309.140625 80.90625 309.617188 80.027344 309.859375 79.148438 C 310.175781 78.273438 310.257812 77.316406 310.257812 76.277344 C 310.257812 74.921875 310.015625 73.644531 309.539062 72.449219 C 309.058594 71.25 308.261719 70.214844 307.226562 69.253906 C 306.191406 68.296875 304.996094 67.582031 303.640625 67.023438 C 302.285156 66.542969 300.691406 66.304688 298.9375 66.304688 C 297.261719 66.304688 295.667969 66.542969 294.3125 67.101562 C 292.878906 67.582031 291.683594 68.378906 290.488281 69.414062 C 289.371094 70.453125 288.414062 71.808594 287.617188 73.324219 C 286.820312 74.921875 286.183594 76.835938 285.785156 79.070312 C 285.703125 79.46875 285.304688 79.789062 284.828125 79.707031 L 271.992188 77.953125 C 271.59375 77.875 271.273438 77.554688 271.273438 77.15625 C 271.433594 73.804688 272.230469 70.691406 273.507812 67.820312 C 274.78125 64.945312 276.695312 62.394531 279.167969 60 C 281.636719 57.6875 284.429688 55.851562 287.617188 54.734375 L 287.695312 54.734375 C 290.886719 53.535156 294.472656 52.976562 298.378906 52.976562 C 302.523438 52.976562 306.269531 53.535156 309.539062 54.734375 C 312.886719 55.929688 315.757812 57.6875 318.226562 60.078125 C 320.699219 62.472656 322.53125 65.027344 323.808594 67.738281 C 325.082031 70.53125 325.640625 73.484375 325.640625 76.675781 C 325.640625 78.433594 325.402344 80.109375 324.925781 81.863281 C 324.445312 83.539062 323.808594 85.132812 322.851562 86.730469 C 321.972656 88.246094 320.539062 90.082031 318.625 92.234375 C 316.714844 94.308594 314.402344 96.625 311.453125 99.257812 C 310.015625 100.535156 308.820312 101.730469 307.945312 102.769531 C 307.066406 103.804688 306.429688 104.683594 306.109375 105.402344 C 305.792969 106.121094 305.554688 107.238281 305.394531 108.59375 C 305.234375 110.03125 305.15625 111.785156 305.234375 113.859375 C 305.394531 114.417969 305.074219 114.738281 304.597656 114.738281 Z M 292.640625 113.140625 L 303.800781 113.140625 C 303.800781 111.304688 303.878906 109.789062 304.039062 108.511719 C 304.199219 106.996094 304.515625 105.722656 304.914062 104.84375 C 305.3125 103.964844 306.03125 102.929688 306.988281 101.8125 C 307.945312 100.695312 309.140625 99.496094 310.65625 98.140625 C 313.523438 95.585938 315.835938 93.273438 317.667969 91.199219 C 319.503906 89.203125 320.859375 87.449219 321.734375 86.011719 C 322.613281 84.574219 323.25 83.058594 323.648438 81.542969 C 324.046875 80.027344 324.285156 78.433594 324.285156 76.835938 C 324.285156 73.882812 323.726562 71.171875 322.53125 68.539062 C 321.417969 65.984375 319.664062 63.589844 317.351562 61.355469 C 315.039062 59.121094 312.328125 57.445312 309.21875 56.328125 C 306.109375 55.210938 302.523438 54.652344 298.617188 54.652344 C 294.871094 54.652344 291.523438 55.210938 288.492188 56.328125 C 285.464844 57.445312 282.832031 59.042969 280.601562 61.277344 C 278.289062 63.511719 276.535156 65.90625 275.339844 68.617188 C 274.226562 71.089844 273.507812 73.722656 273.269531 76.597656 L 284.667969 78.191406 C 285.144531 76.199219 285.703125 74.363281 286.5 72.765625 C 287.378906 71.011719 288.414062 69.574219 289.691406 68.378906 L 289.769531 68.296875 C 291.042969 67.101562 292.480469 66.222656 294.074219 65.664062 C 295.667969 65.105469 297.421875 64.789062 299.253906 64.789062 C 301.167969 64.789062 302.921875 65.105469 304.515625 65.664062 C 306.109375 66.222656 307.464844 67.101562 308.660156 68.21875 C 309.859375 69.335938 310.734375 70.613281 311.292969 71.96875 C 311.851562 73.324219 312.167969 74.839844 312.167969 76.4375 C 312.167969 77.554688 312.011719 78.671875 311.691406 79.789062 C 311.371094 80.824219 310.894531 81.863281 310.175781 82.820312 C 309.777344 83.457031 308.902344 84.335938 307.625 85.613281 C 306.351562 86.808594 304.753906 88.324219 302.683594 90.160156 C 300.691406 91.917969 299.015625 93.671875 297.660156 95.269531 C 296.304688 96.863281 295.347656 98.378906 294.710938 99.734375 C 294.074219 101.171875 293.515625 102.6875 293.195312 104.523438 C 292.878906 106.359375 292.71875 108.355469 292.71875 110.507812 L 292.71875 111.707031 Z M 291.042969 134.527344 L 291.042969 119.207031 C 291.042969 118.726562 291.363281 118.40625 291.84375 118.40625 L 304.597656 118.40625 C 305.074219 118.40625 305.394531 118.726562 305.394531 119.207031 L 305.394531 134.445312 C 305.394531 134.925781 305.074219 135.242188 304.597656 135.242188 L 291.84375 135.242188 C 291.363281 135.324219 291.042969 134.925781 291.042969 134.527344 Z M 292.640625 120.003906 L 292.640625 133.648438 L 303.800781 133.648438 L 303.800781 120.003906 Z M 292.640625 120.003906 " fill-opacity="1" fill-rule="nonzero"/></g><path fill="#fff458" d="M 298.699219 107.15625 L 285.863281 107.15625 C 285.863281 105.164062 285.785156 103.964844 285.785156 103.488281 C 285.785156 99.019531 286.5 95.269531 287.855469 92.394531 C 289.210938 89.523438 291.921875 86.25 296.066406 82.582031 C 300.210938 78.992188 302.601562 76.597656 303.402344 75.480469 C 304.675781 73.722656 305.234375 71.730469 305.234375 69.574219 C 305.234375 66.621094 304.117188 64.070312 301.964844 61.996094 C 299.8125 59.839844 296.863281 58.804688 293.117188 58.804688 C 289.53125 58.804688 286.582031 59.921875 284.109375 62.15625 C 281.71875 64.386719 280.042969 67.738281 279.167969 72.289062 L 266.253906 70.53125 C 266.652344 63.988281 269.203125 58.484375 273.90625 53.9375 C 278.769531 49.308594 284.984375 47.074219 292.640625 47.074219 C 300.691406 47.074219 307.148438 49.386719 311.929688 53.9375 C 316.714844 58.5625 319.105469 63.828125 319.105469 69.972656 C 319.105469 73.324219 318.226562 76.515625 316.472656 79.550781 C 314.71875 82.582031 310.972656 86.652344 305.234375 91.835938 C 302.285156 94.550781 300.449219 96.703125 299.734375 98.300781 C 299.015625 100.054688 298.617188 102.929688 298.699219 107.15625 Z M 285.941406 127.664062 L 285.941406 112.421875 L 298.777344 112.421875 L 298.777344 127.664062 Z M 285.941406 127.664062 " fill-opacity="1" fill-rule="nonzero"/><g clip-path="url(#709754f2e0)"><path fill="#1d272a" d="M 298.699219 107.953125 L 285.863281 107.953125 C 285.386719 107.953125 285.066406 107.636719 285.066406 107.15625 C 285.144531 105.960938 285.066406 104.683594 284.984375 103.488281 C 284.984375 101.171875 285.144531 99.097656 285.542969 97.183594 C 285.863281 95.269531 286.421875 93.511719 287.136719 91.996094 C 287.855469 90.480469 288.890625 88.882812 290.328125 87.210938 C 291.683594 85.535156 293.4375 83.777344 295.507812 81.941406 C 297.582031 80.109375 299.175781 78.589844 300.371094 77.472656 C 301.566406 76.355469 302.363281 75.480469 302.683594 74.921875 C 303.242188 74.125 303.71875 73.246094 303.957031 72.367188 C 304.277344 71.488281 304.355469 70.53125 304.355469 69.496094 C 304.355469 68.140625 304.117188 66.863281 303.640625 65.664062 C 303.160156 64.46875 302.363281 63.429688 301.328125 62.472656 C 300.292969 61.515625 299.097656 60.796875 297.742188 60.238281 C 296.386719 59.761719 294.792969 59.519531 293.039062 59.519531 C 291.363281 59.519531 289.769531 59.761719 288.414062 60.320312 C 286.980469 60.796875 285.785156 61.597656 284.585938 62.632812 C 283.472656 63.671875 282.515625 65.027344 281.71875 66.542969 C 280.921875 68.140625 280.28125 70.054688 279.882812 72.289062 C 279.804688 72.6875 279.40625 73.007812 278.929688 72.925781 L 266.09375 71.171875 C 265.695312 71.089844 265.375 70.773438 265.375 70.371094 C 265.535156 67.023438 266.332031 63.910156 267.609375 61.039062 C 268.882812 58.164062 270.796875 55.613281 273.269531 53.21875 C 275.738281 50.902344 278.53125 49.070312 281.71875 47.953125 L 281.796875 47.953125 C 284.984375 46.753906 288.574219 46.195312 292.480469 46.195312 C 296.625 46.195312 300.371094 46.753906 303.640625 47.953125 C 306.988281 49.148438 309.859375 50.902344 312.328125 53.296875 C 314.800781 55.691406 316.632812 58.246094 317.910156 60.957031 C 319.183594 63.75 319.742188 66.703125 319.742188 69.894531 C 319.742188 71.648438 319.503906 73.324219 319.023438 75.082031 C 318.546875 76.757812 317.910156 78.351562 316.953125 79.949219 C 316.074219 81.464844 314.640625 83.300781 312.726562 85.453125 C 310.8125 87.527344 308.503906 89.84375 305.554688 92.476562 C 304.117188 93.75 302.921875 94.949219 302.046875 95.984375 C 301.167969 97.023438 300.53125 97.902344 300.210938 98.621094 C 299.894531 99.335938 299.652344 100.453125 299.496094 101.8125 C 299.335938 103.246094 299.253906 105.003906 299.335938 107.078125 C 299.496094 107.636719 299.175781 107.953125 298.699219 107.953125 Z M 286.738281 106.359375 L 297.980469 106.359375 C 297.980469 104.523438 298.058594 103.007812 298.21875 101.730469 C 298.378906 100.214844 298.699219 98.9375 299.097656 98.0625 C 299.496094 97.183594 300.210938 96.144531 301.167969 95.027344 C 302.125 93.910156 303.320312 92.714844 304.835938 91.359375 C 307.707031 88.804688 310.015625 86.492188 311.851562 84.417969 C 313.683594 82.421875 315.039062 80.667969 315.914062 79.230469 C 316.792969 77.792969 317.429688 76.277344 317.828125 74.761719 C 318.226562 73.246094 318.46875 71.648438 318.46875 70.054688 C 318.46875 67.101562 317.910156 64.386719 316.714844 61.753906 C 315.597656 59.203125 313.84375 56.808594 311.53125 54.574219 C 309.21875 52.339844 306.507812 50.664062 303.402344 49.546875 C 300.132812 48.429688 296.546875 47.871094 292.640625 47.871094 C 288.890625 47.871094 285.542969 48.429688 282.515625 49.546875 C 279.484375 50.664062 276.855469 52.261719 274.625 54.496094 C 272.3125 56.730469 270.558594 59.121094 269.363281 61.835938 C 268.246094 64.308594 267.527344 66.941406 267.289062 69.8125 L 278.6875 71.410156 C 279.167969 69.414062 279.726562 67.582031 280.523438 65.984375 C 281.398438 64.230469 282.433594 62.792969 283.710938 61.597656 L 283.789062 61.515625 C 285.066406 60.320312 286.5 59.441406 288.09375 58.882812 C 289.691406 58.324219 291.441406 58.003906 293.277344 58.003906 C 295.191406 58.003906 296.945312 58.324219 298.539062 58.882812 C 300.132812 59.441406 301.488281 60.320312 302.683594 61.4375 C 303.878906 62.554688 304.753906 63.828125 305.3125 65.1875 C 305.871094 66.542969 306.191406 68.058594 306.191406 69.65625 C 306.191406 70.773438 306.03125 71.890625 305.710938 73.007812 C 305.394531 74.042969 304.914062 75.082031 304.199219 76.039062 C 303.800781 76.675781 302.921875 77.554688 301.648438 78.832031 C 300.371094 80.027344 298.777344 81.542969 296.703125 83.378906 C 294.710938 85.132812 293.039062 86.890625 291.683594 88.484375 C 290.328125 90.082031 289.371094 91.597656 288.734375 92.953125 C 288.09375 94.390625 287.539062 95.90625 287.21875 97.742188 C 286.898438 99.578125 286.738281 101.570312 286.738281 103.726562 Z M 285.144531 127.664062 L 285.144531 112.421875 C 285.144531 111.945312 285.464844 111.625 285.941406 111.625 L 298.777344 111.625 C 299.253906 111.625 299.574219 111.945312 299.574219 112.421875 L 299.574219 127.664062 C 299.574219 128.140625 299.253906 128.460938 298.777344 128.460938 L 285.941406 128.460938 C 285.464844 128.460938 285.144531 128.140625 285.144531 127.664062 Z M 286.738281 113.222656 L 286.738281 126.867188 L 297.980469 126.867188 L 297.980469 113.222656 Z M 286.738281 113.222656 " fill-opacity="1" fill-rule="nonzero"/></g><path fill="#fe7c97" d="M 70.550781 256.046875 C 72.542969 260.355469 73.183594 263.707031 72.542969 266.183594 C 74.933594 265.144531 78.363281 265.464844 82.988281 266.980469 C 79.558594 270.171875 76.53125 271.847656 73.980469 272.007812 C 75.652344 273.921875 76.449219 277.351562 76.449219 282.21875 C 72.304688 279.90625 69.832031 277.59375 68.878906 275.199219 C 67.523438 277.433594 64.574219 279.269531 59.949219 280.703125 C 60.90625 276.078125 62.339844 272.964844 64.253906 271.289062 C 61.703125 270.730469 59.070312 268.417969 56.28125 264.507812 C 60.984375 263.949219 64.414062 264.347656 66.566406 265.703125 C 66.328125 263.148438 67.679688 259.957031 70.550781 256.046875 Z M 65.527344 290.359375 C 69.117188 294.589844 70.871094 298.179688 70.949219 301.132812 C 73.339844 299.214844 77.328125 298.496094 82.90625 298.816406 C 80.039062 303.523438 77.167969 306.316406 74.296875 307.273438 C 76.769531 308.949219 78.761719 312.460938 80.195312 317.96875 C 74.855469 316.691406 71.269531 314.773438 69.515625 312.460938 C 68.71875 315.332031 65.925781 318.367188 61.222656 321.398438 C 60.824219 315.890625 61.464844 311.902344 63.136719 309.507812 C 60.109375 309.667969 56.441406 307.914062 52.058594 304.324219 C 57.160156 302.246094 61.144531 301.609375 64.015625 302.488281 C 62.976562 299.695312 63.457031 295.625 65.527344 290.359375 Z M 35.238281 279.269531 C 35.078125 283.578125 35.636719 286.6875 37.070312 288.523438 C 34.679688 288.523438 31.890625 289.960938 28.539062 292.832031 C 32.605469 294.347656 35.714844 294.746094 37.867188 293.949219 C 37.148438 296.183594 37.628906 299.296875 39.300781 303.363281 C 42.011719 300.015625 43.289062 297.140625 43.289062 294.828125 C 45.203125 296.261719 48.308594 296.742188 52.695312 296.34375 C 50.304688 292.753906 47.992188 290.597656 45.757812 289.878906 C 47.671875 288.523438 49.109375 285.652344 50.144531 281.34375 C 46 282.539062 43.289062 284.054688 41.933594 285.96875 C 41.296875 283.816406 39.0625 281.582031 35.238281 279.269531 Z M 35.238281 279.269531 " fill-opacity="1" fill-rule="evenodd"/><g clip-path="url(#d15383db05)"><path fill="#1d272a" d="M 71.269531 255.730469 C 72.304688 257.964844 72.941406 259.878906 73.339844 261.632812 C 73.582031 262.910156 73.660156 264.027344 73.582031 265.066406 C 74.617188 264.824219 75.8125 264.746094 77.085938 264.824219 C 78.921875 264.984375 80.992188 265.464844 83.304688 266.261719 C 83.703125 266.421875 83.941406 266.820312 83.785156 267.21875 C 83.703125 267.378906 83.625 267.457031 83.542969 267.539062 C 81.792969 269.214844 80.117188 270.410156 78.523438 271.289062 C 77.40625 271.925781 76.371094 272.324219 75.414062 272.566406 C 75.972656 273.441406 76.371094 274.558594 76.6875 275.757812 C 77.085938 277.511719 77.328125 279.667969 77.246094 282.140625 C 77.246094 282.539062 76.929688 282.9375 76.449219 282.9375 C 76.289062 282.9375 76.132812 282.9375 76.050781 282.859375 C 73.980469 281.660156 72.226562 280.464844 70.949219 279.269531 C 69.992188 278.390625 69.277344 277.511719 68.71875 276.636719 C 68 277.433594 67.125 278.152344 66.007812 278.867188 C 64.492188 279.828125 62.5 280.703125 60.109375 281.421875 C 59.710938 281.582031 59.230469 281.34375 59.152344 280.945312 C 59.152344 280.785156 59.152344 280.703125 59.152344 280.542969 C 59.628906 278.152344 60.269531 276.15625 60.984375 274.558594 C 61.542969 273.441406 62.101562 272.40625 62.820312 271.6875 C 61.863281 271.289062 60.90625 270.652344 59.871094 269.773438 C 58.515625 268.574219 57.078125 266.980469 55.644531 264.984375 C 55.40625 264.667969 55.484375 264.1875 55.804688 263.867188 C 55.964844 263.789062 56.121094 263.707031 56.203125 263.707031 C 58.59375 263.390625 60.667969 263.390625 62.421875 263.628906 C 63.695312 263.789062 64.730469 264.027344 65.6875 264.425781 C 65.769531 263.390625 66.085938 262.273438 66.566406 261.074219 C 67.28125 259.398438 68.320312 257.566406 69.832031 255.570312 C 70.074219 255.25 70.550781 255.171875 70.949219 255.410156 C 71.109375 255.488281 71.1875 255.570312 71.269531 255.730469 Z M 71.746094 261.953125 C 71.507812 260.675781 71.03125 259.160156 70.3125 257.566406 C 69.277344 259 68.558594 260.355469 68 261.632812 C 67.363281 263.148438 67.125 264.425781 67.203125 265.625 C 67.203125 265.78125 67.203125 265.941406 67.042969 266.101562 C 66.804688 266.5 66.328125 266.582031 65.925781 266.339844 C 64.972656 265.703125 63.617188 265.304688 62.023438 265.144531 C 60.746094 264.984375 59.230469 264.984375 57.558594 265.144531 C 58.671875 266.582031 59.710938 267.699219 60.667969 268.574219 C 61.863281 269.613281 63.058594 270.25 64.253906 270.570312 C 64.414062 270.570312 64.574219 270.730469 64.652344 270.808594 C 64.890625 271.128906 64.890625 271.609375 64.492188 271.925781 C 63.617188 272.644531 62.820312 273.761719 62.179688 275.199219 C 61.621094 276.394531 61.144531 277.832031 60.746094 279.585938 C 62.421875 279.027344 63.855469 278.308594 65.050781 277.671875 C 66.40625 276.792969 67.441406 275.917969 68 274.960938 C 68.078125 274.800781 68.238281 274.71875 68.398438 274.640625 C 68.796875 274.480469 69.277344 274.640625 69.433594 275.039062 C 69.832031 276.15625 70.628906 277.195312 71.828125 278.308594 C 72.78125 279.1875 73.980469 280.144531 75.492188 281.023438 C 75.414062 279.269531 75.253906 277.75 74.933594 276.476562 C 74.535156 274.878906 73.980469 273.683594 73.183594 272.804688 C 73.101562 272.644531 73.023438 272.484375 73.023438 272.324219 C 73.023438 271.925781 73.339844 271.527344 73.820312 271.527344 C 74.933594 271.449219 76.210938 271.050781 77.644531 270.25 C 78.761719 269.613281 80.039062 268.734375 81.3125 267.617188 C 79.558594 267.140625 78.042969 266.820312 76.6875 266.660156 C 75.09375 266.5 73.738281 266.660156 72.703125 267.140625 C 72.542969 267.21875 72.382812 267.21875 72.226562 267.21875 C 71.828125 267.140625 71.585938 266.742188 71.667969 266.261719 C 72.066406 264.90625 72.066406 263.550781 71.746094 261.953125 Z M 66.167969 289.878906 C 68 292.035156 69.355469 294.03125 70.230469 295.863281 C 70.949219 297.222656 71.347656 298.578125 71.585938 299.773438 C 72.703125 299.136719 74.058594 298.65625 75.574219 298.339844 C 77.644531 297.9375 80.117188 297.78125 82.988281 297.9375 C 83.386719 297.9375 83.703125 298.339844 83.703125 298.738281 C 83.703125 298.898438 83.625 298.976562 83.625 299.054688 C 82.109375 301.449219 80.675781 303.363281 79.160156 304.882812 C 78.042969 306 77.007812 306.796875 75.890625 307.355469 C 76.847656 308.230469 77.644531 309.347656 78.441406 310.707031 C 79.480469 312.542969 80.355469 314.855469 81.074219 317.648438 C 81.152344 318.046875 80.914062 318.527344 80.515625 318.605469 C 80.355469 318.683594 80.195312 318.683594 80.117188 318.605469 C 77.40625 317.96875 75.09375 317.089844 73.261719 316.210938 C 71.90625 315.492188 70.789062 314.695312 69.914062 313.816406 C 69.355469 314.933594 68.558594 316.132812 67.523438 317.25 C 66.085938 318.765625 64.175781 320.359375 61.703125 321.957031 C 61.304688 322.195312 60.824219 322.117188 60.667969 321.71875 C 60.585938 321.636719 60.585938 321.476562 60.585938 321.398438 C 60.347656 318.605469 60.425781 316.132812 60.746094 314.136719 C 60.984375 312.621094 61.382812 311.265625 61.941406 310.148438 C 60.667969 309.988281 59.3125 309.589844 57.875 308.949219 C 55.964844 308.074219 53.890625 306.714844 51.660156 304.882812 C 51.339844 304.640625 51.261719 304.082031 51.578125 303.765625 C 51.660156 303.683594 51.816406 303.605469 51.898438 303.523438 C 54.527344 302.488281 56.839844 301.769531 58.832031 301.449219 C 60.347656 301.210938 61.703125 301.210938 62.898438 301.371094 C 62.660156 300.171875 62.660156 298.738281 62.820312 297.222656 C 63.058594 295.148438 63.695312 292.753906 64.730469 290.039062 C 64.890625 289.640625 65.371094 289.402344 65.769531 289.5625 C 65.925781 289.640625 66.085938 289.722656 66.167969 289.878906 Z M 68.796875 296.582031 C 68.078125 295.148438 67.042969 293.550781 65.6875 291.875 C 64.972656 293.949219 64.492188 295.785156 64.332031 297.378906 C 64.09375 299.296875 64.253906 300.890625 64.730469 302.167969 C 64.8125 302.328125 64.8125 302.488281 64.730469 302.726562 C 64.574219 303.125 64.175781 303.363281 63.773438 303.285156 C 62.5 302.886719 60.90625 302.804688 58.992188 303.125 C 57.398438 303.363281 55.644531 303.84375 53.652344 304.5625 C 55.40625 305.917969 57 306.875 58.515625 307.59375 C 60.269531 308.390625 61.78125 308.789062 63.21875 308.710938 C 63.375 308.710938 63.535156 308.710938 63.695312 308.871094 C 64.015625 309.109375 64.09375 309.589844 63.855469 309.988281 C 63.058594 311.105469 62.5 312.621094 62.261719 314.457031 C 62.023438 316.050781 61.941406 317.96875 62.023438 320.042969 C 63.855469 318.765625 65.289062 317.566406 66.40625 316.371094 C 67.679688 315.015625 68.476562 313.660156 68.878906 312.382812 C 68.878906 312.222656 69.035156 312.0625 69.195312 311.902344 C 69.515625 311.664062 69.992188 311.664062 70.3125 311.984375 C 71.109375 313.101562 72.382812 314.058594 74.058594 314.933594 C 75.492188 315.652344 77.246094 316.292969 79.238281 316.851562 C 78.601562 314.773438 77.886719 313.019531 77.085938 311.582031 C 76.132812 309.90625 75.09375 308.710938 73.980469 307.914062 C 73.820312 307.832031 73.738281 307.675781 73.660156 307.515625 C 73.5 307.117188 73.738281 306.636719 74.21875 306.476562 C 75.492188 306 76.847656 305.121094 78.203125 303.84375 C 79.320312 302.726562 80.515625 301.289062 81.710938 299.457031 C 79.480469 299.375 77.566406 299.535156 75.972656 299.855469 C 74.136719 300.253906 72.625 300.8125 71.585938 301.691406 C 71.429688 301.769531 71.269531 301.847656 71.109375 301.847656 C 70.710938 301.847656 70.3125 301.53125 70.3125 301.132812 C 70.152344 299.773438 69.675781 298.257812 68.796875 296.582031 Z M 34.839844 285.011719 C 34.519531 283.417969 34.441406 281.503906 34.519531 279.347656 C 34.519531 279.1875 34.519531 279.027344 34.679688 278.867188 C 34.917969 278.46875 35.398438 278.390625 35.714844 278.550781 C 37.628906 279.746094 39.222656 280.863281 40.417969 282.0625 C 41.214844 282.859375 41.851562 283.734375 42.332031 284.535156 C 42.96875 283.894531 43.847656 283.257812 44.804688 282.699219 C 46.238281 281.902344 47.992188 281.183594 50.144531 280.625 C 50.222656 280.625 50.382812 280.625 50.460938 280.625 C 50.863281 280.703125 51.101562 281.101562 51.019531 281.503906 C 50.542969 283.734375 49.90625 285.570312 49.109375 287.085938 C 48.550781 288.125 47.992188 288.921875 47.355469 289.640625 C 48.152344 290.039062 49.027344 290.679688 49.824219 291.394531 C 51.019531 292.511719 52.214844 293.949219 53.492188 295.863281 C 53.570312 295.945312 53.570312 296.105469 53.652344 296.265625 C 53.652344 296.664062 53.332031 297.0625 52.933594 297.140625 C 50.703125 297.300781 48.710938 297.300781 47.113281 297.0625 C 46 296.902344 44.960938 296.582031 44.164062 296.183594 C 44.003906 297.0625 43.6875 298.019531 43.207031 299.054688 C 42.492188 300.492188 41.535156 302.167969 40.101562 303.84375 C 40.019531 303.921875 39.941406 304.082031 39.78125 304.082031 C 39.382812 304.242188 38.902344 304.082031 38.746094 303.683594 C 37.867188 301.609375 37.308594 299.695312 36.992188 298.097656 C 36.832031 296.980469 36.75 295.863281 36.910156 294.988281 C 35.953125 295.148438 34.996094 295.148438 33.800781 294.988281 C 32.207031 294.828125 30.292969 294.269531 28.222656 293.550781 C 28.140625 293.472656 27.984375 293.472656 27.902344 293.3125 C 27.664062 292.992188 27.664062 292.511719 27.984375 292.195312 C 29.738281 290.679688 31.332031 289.5625 32.765625 288.84375 C 33.800781 288.363281 34.757812 287.964844 35.636719 287.804688 C 35.398438 287.085938 35.078125 286.128906 34.839844 285.011719 Z M 36.351562 284.695312 C 36.671875 286.128906 37.070312 287.246094 37.707031 288.125 C 37.949219 288.445312 37.867188 288.921875 37.546875 289.242188 C 37.390625 289.320312 37.230469 289.402344 37.070312 289.402344 C 36.035156 289.402344 34.839844 289.71875 33.5625 290.359375 C 32.527344 290.917969 31.332031 291.636719 30.136719 292.59375 C 31.570312 293.070312 32.925781 293.390625 34.042969 293.550781 C 35.476562 293.710938 36.671875 293.628906 37.707031 293.3125 C 38.105469 293.152344 38.585938 293.390625 38.664062 293.789062 C 38.746094 293.949219 38.746094 294.109375 38.664062 294.269531 C 38.347656 295.226562 38.265625 296.503906 38.503906 297.9375 C 38.664062 299.136719 39.0625 300.492188 39.621094 301.929688 C 40.5 300.730469 41.214844 299.535156 41.695312 298.496094 C 42.332031 297.222656 42.570312 296.023438 42.570312 294.988281 C 42.570312 294.589844 42.890625 294.1875 43.367188 294.1875 C 43.527344 294.1875 43.765625 294.269531 43.847656 294.347656 C 44.722656 294.988281 45.839844 295.386719 47.273438 295.625 C 48.46875 295.785156 49.824219 295.863281 51.339844 295.785156 C 50.460938 294.589844 49.585938 293.550781 48.710938 292.753906 C 47.671875 291.796875 46.636719 291.078125 45.601562 290.757812 C 45.203125 290.597656 44.960938 290.199219 45.121094 289.800781 C 45.203125 289.640625 45.28125 289.480469 45.441406 289.402344 C 46.316406 288.761719 47.035156 287.886719 47.753906 286.527344 C 48.308594 285.492188 48.789062 284.136719 49.1875 282.621094 C 47.753906 283.097656 46.476562 283.578125 45.441406 284.214844 C 44.164062 284.933594 43.207031 285.730469 42.652344 286.527344 C 42.410156 286.847656 41.933594 287.007812 41.535156 286.769531 C 41.375 286.6875 41.296875 286.527344 41.214844 286.371094 C 40.898438 285.332031 40.257812 284.375 39.222656 283.257812 C 38.347656 282.378906 37.308594 281.582031 36.035156 280.703125 Z M 36.351562 284.695312 " fill-opacity="1" fill-rule="nonzero"/></g><path fill="#fff458" d="M 65.925781 254.929688 C 67.921875 259.238281 68.558594 262.589844 67.921875 265.066406 C 70.3125 264.027344 73.738281 264.347656 78.363281 265.863281 C 74.933594 269.054688 71.90625 270.730469 69.355469 270.890625 C 71.03125 272.804688 71.828125 276.234375 71.828125 281.101562 C 67.679688 278.789062 65.210938 276.476562 64.253906 274.082031 C 62.898438 276.316406 59.949219 278.152344 55.324219 279.585938 C 56.28125 274.960938 57.71875 271.847656 59.628906 270.171875 C 57.078125 269.613281 54.449219 267.300781 51.660156 263.390625 C 56.363281 262.832031 59.789062 263.230469 61.941406 264.585938 C 61.703125 262.03125 63.058594 258.761719 65.925781 254.929688 Z M 60.90625 289.164062 C 64.492188 293.390625 66.246094 296.980469 66.328125 299.933594 C 68.71875 298.019531 72.703125 297.300781 78.285156 297.621094 C 75.414062 302.328125 72.542969 305.121094 69.675781 306.078125 C 72.144531 307.753906 74.136719 311.265625 75.574219 316.769531 C 70.230469 315.492188 66.644531 313.578125 64.890625 311.265625 C 64.09375 314.136719 61.304688 317.167969 56.601562 320.203125 C 56.203125 314.695312 56.839844 310.707031 58.515625 308.3125 C 55.484375 308.472656 51.816406 306.714844 47.433594 303.125 C 52.535156 301.050781 56.519531 300.414062 59.390625 301.289062 C 58.355469 298.496094 58.832031 294.429688 60.90625 289.164062 Z M 30.691406 278.152344 C 30.535156 282.460938 31.09375 285.570312 32.527344 287.40625 C 30.136719 287.40625 27.34375 288.84375 23.996094 291.714844 C 28.0625 293.230469 31.171875 293.628906 33.324219 292.832031 C 32.605469 295.066406 33.085938 298.179688 34.757812 302.246094 C 37.46875 298.898438 38.746094 296.023438 38.746094 293.710938 C 40.65625 295.148438 43.765625 295.625 48.152344 295.226562 C 45.757812 291.636719 43.449219 289.480469 41.214844 288.761719 C 43.128906 287.40625 44.5625 284.535156 45.601562 280.226562 C 41.453125 281.421875 38.746094 282.9375 37.390625 284.851562 C 36.75 282.699219 34.441406 280.386719 30.691406 278.152344 Z M 30.691406 278.152344 " fill-opacity="1" fill-rule="evenodd"/><path fill="#1d272a" d="M 66.644531 254.53125 C 67.679688 256.765625 68.320312 258.683594 68.71875 260.4375 C 68.957031 261.714844 69.035156 262.832031 68.957031 263.867188 C 69.992188 263.628906 71.1875 263.550781 72.464844 263.628906 C 74.296875 263.789062 76.371094 264.265625 78.683594 265.066406 C 79.082031 265.222656 79.320312 265.625 79.160156 266.023438 C 79.082031 266.183594 79 266.261719 78.921875 266.339844 C 77.167969 268.015625 75.492188 269.214844 73.898438 270.09375 C 72.78125 270.730469 71.746094 271.128906 70.789062 271.367188 C 71.347656 272.246094 71.746094 273.363281 72.066406 274.558594 C 72.464844 276.316406 72.703125 278.46875 72.625 280.945312 C 72.625 281.34375 72.304688 281.742188 71.828125 281.742188 C 71.667969 281.742188 71.507812 281.742188 71.429688 281.660156 C 69.355469 280.464844 67.601562 279.269531 66.328125 278.070312 C 65.371094 277.195312 64.652344 276.316406 64.09375 275.4375 C 63.375 276.234375 62.5 276.953125 61.382812 277.671875 C 59.871094 278.628906 57.875 279.507812 55.484375 280.226562 C 55.085938 280.386719 54.609375 280.144531 54.527344 279.746094 C 54.527344 279.585938 54.527344 279.507812 54.527344 279.347656 C 55.007812 276.953125 55.644531 274.960938 56.363281 273.363281 C 56.917969 272.246094 57.476562 271.210938 58.195312 270.492188 C 57.238281 270.09375 56.28125 269.453125 55.246094 268.574219 C 53.890625 267.378906 52.457031 265.78125 51.019531 263.789062 C 50.78125 263.46875 50.863281 262.992188 51.179688 262.671875 C 51.339844 262.589844 51.5 262.511719 51.578125 262.511719 C 53.96875 262.191406 56.042969 262.191406 57.796875 262.433594 C 59.070312 262.589844 60.109375 262.832031 61.066406 263.230469 C 61.144531 262.191406 61.464844 261.074219 61.941406 259.878906 C 62.660156 258.203125 63.695312 256.367188 65.210938 254.371094 C 65.449219 254.054688 65.925781 253.972656 66.328125 254.214844 C 66.484375 254.371094 66.566406 254.453125 66.644531 254.53125 Z M 67.203125 260.835938 C 66.964844 259.558594 66.484375 258.042969 65.769531 256.449219 C 64.730469 257.882812 64.015625 259.238281 63.457031 260.515625 C 62.820312 262.03125 62.578125 263.308594 62.660156 264.507812 C 62.660156 264.667969 62.660156 264.824219 62.5 264.984375 C 62.261719 265.382812 61.78125 265.464844 61.382812 265.222656 C 60.425781 264.585938 59.152344 264.1875 57.476562 264.027344 C 56.203125 263.867188 54.6875 263.867188 53.011719 264.027344 C 54.128906 265.464844 55.164062 266.582031 56.121094 267.457031 C 57.316406 268.496094 58.515625 269.132812 59.710938 269.453125 C 59.871094 269.453125 60.027344 269.613281 60.109375 269.691406 C 60.347656 270.011719 60.347656 270.492188 59.949219 270.808594 C 59.070312 271.527344 58.273438 272.644531 57.636719 274.082031 C 57.078125 275.277344 56.601562 276.714844 56.203125 278.46875 C 57.875 277.910156 59.3125 277.191406 60.507812 276.554688 C 61.863281 275.675781 62.898438 274.800781 63.457031 273.84375 C 63.535156 273.683594 63.695312 273.601562 63.855469 273.523438 C 64.253906 273.363281 64.730469 273.523438 64.890625 273.921875 C 65.289062 275.039062 66.085938 276.078125 67.28125 277.195312 C 68.238281 278.070312 69.433594 279.027344 70.949219 279.90625 C 70.871094 278.152344 70.710938 276.636719 70.390625 275.359375 C 69.992188 273.761719 69.433594 272.566406 68.636719 271.6875 C 68.558594 271.527344 68.476562 271.367188 68.476562 271.207031 C 68.476562 270.808594 68.796875 270.410156 69.277344 270.410156 C 70.390625 270.332031 71.667969 269.933594 73.101562 269.132812 C 74.21875 268.496094 75.492188 267.617188 76.769531 266.5 C 75.015625 266.023438 73.5 265.703125 72.144531 265.542969 C 70.550781 265.382812 69.195312 265.542969 68.160156 266.023438 C 68 266.101562 67.839844 266.101562 67.679688 266.101562 C 67.28125 266.023438 67.042969 265.625 67.125 265.144531 C 67.523438 263.789062 67.441406 262.433594 67.203125 260.835938 Z M 61.542969 288.683594 C 63.375 290.835938 64.730469 292.832031 65.609375 294.667969 C 66.328125 296.023438 66.726562 297.378906 66.964844 298.578125 C 68.078125 297.9375 69.433594 297.460938 70.949219 297.140625 C 73.023438 296.742188 75.492188 296.582031 78.363281 296.742188 C 78.761719 296.742188 79.082031 297.140625 79.082031 297.539062 C 79.082031 297.699219 79 297.78125 79 297.859375 C 77.488281 300.253906 76.050781 302.167969 74.535156 303.683594 C 73.421875 304.800781 72.382812 305.597656 71.269531 306.15625 C 72.226562 307.035156 73.023438 308.152344 73.820312 309.507812 C 74.855469 311.34375 75.734375 313.660156 76.449219 316.449219 C 76.53125 316.851562 76.289062 317.328125 75.890625 317.410156 C 75.734375 317.488281 75.574219 317.488281 75.492188 317.410156 C 72.78125 316.769531 70.472656 315.890625 68.636719 315.015625 C 67.28125 314.296875 66.167969 313.5 65.289062 312.621094 C 64.730469 313.738281 63.933594 314.933594 62.898438 316.050781 C 61.464844 317.566406 59.550781 319.164062 57.078125 320.757812 C 56.679688 321 56.203125 320.917969 56.042969 320.519531 C 55.964844 320.441406 55.964844 320.28125 55.964844 320.203125 C 55.722656 317.410156 55.804688 314.933594 56.121094 312.941406 C 56.363281 311.425781 56.761719 310.066406 57.316406 308.949219 C 56.042969 308.789062 54.6875 308.390625 53.253906 307.753906 C 51.339844 306.875 49.265625 305.519531 47.035156 303.683594 C 46.714844 303.445312 46.636719 302.886719 46.957031 302.566406 C 47.035156 302.488281 47.195312 302.40625 47.273438 302.328125 C 49.90625 301.289062 52.214844 300.574219 54.210938 300.253906 C 55.722656 300.015625 57.078125 300.015625 58.273438 300.171875 C 58.035156 298.976562 58.035156 297.539062 58.195312 296.023438 C 58.433594 293.949219 59.070312 291.554688 60.109375 288.84375 C 60.269531 288.445312 60.746094 288.203125 61.144531 288.363281 C 61.382812 288.523438 61.464844 288.605469 61.542969 288.683594 Z M 64.253906 295.386719 C 63.535156 293.949219 62.5 292.355469 61.144531 290.679688 C 60.425781 292.753906 59.949219 294.589844 59.789062 296.183594 C 59.550781 298.097656 59.710938 299.695312 60.1875 300.972656 C 60.269531 301.132812 60.269531 301.289062 60.1875 301.53125 C 60.027344 301.929688 59.628906 302.167969 59.230469 302.089844 C 57.957031 301.691406 56.28125 301.609375 54.449219 301.929688 C 52.855469 302.167969 51.101562 302.648438 49.109375 303.363281 C 50.863281 304.722656 52.457031 305.679688 53.96875 306.398438 C 55.722656 307.195312 57.238281 307.59375 58.671875 307.515625 C 58.832031 307.515625 58.992188 307.515625 59.152344 307.675781 C 59.46875 307.914062 59.550781 308.390625 59.3125 308.789062 C 58.515625 309.90625 57.957031 311.425781 57.71875 313.257812 C 57.476562 314.855469 57.398438 316.769531 57.476562 318.84375 C 59.3125 317.566406 60.746094 316.371094 61.863281 315.175781 C 63.136719 313.816406 63.933594 312.460938 64.332031 311.183594 C 64.332031 311.023438 64.492188 310.867188 64.652344 310.707031 C 64.972656 310.464844 65.449219 310.464844 65.769531 310.785156 C 66.566406 311.902344 67.839844 312.859375 69.515625 313.738281 C 70.949219 314.457031 72.703125 315.09375 74.695312 315.652344 C 74.058594 313.578125 73.339844 311.824219 72.542969 310.386719 C 71.585938 308.710938 70.550781 307.515625 69.433594 306.714844 C 69.277344 306.636719 69.195312 306.476562 69.117188 306.316406 C 68.957031 305.917969 69.195312 305.441406 69.675781 305.28125 C 70.949219 304.800781 72.304688 303.921875 73.660156 302.648438 C 74.777344 301.53125 75.972656 300.09375 77.167969 298.257812 C 74.933594 298.179688 73.023438 298.339844 71.429688 298.65625 C 69.59375 299.054688 68.078125 299.613281 67.042969 300.492188 C 66.882812 300.574219 66.726562 300.652344 66.566406 300.652344 C 66.167969 300.652344 65.769531 300.332031 65.769531 299.933594 C 65.527344 298.65625 65.128906 297.140625 64.253906 295.386719 Z M 30.214844 283.816406 C 29.894531 282.21875 29.816406 280.304688 29.894531 278.152344 C 29.894531 277.992188 29.894531 277.832031 30.054688 277.671875 C 30.292969 277.273438 30.773438 277.195312 31.09375 277.351562 C 33.003906 278.550781 34.597656 279.667969 35.796875 280.863281 C 36.59375 281.660156 37.230469 282.539062 37.707031 283.335938 C 38.347656 282.699219 39.222656 282.0625 40.179688 281.503906 C 41.613281 280.703125 43.367188 279.984375 45.519531 279.425781 C 45.601562 279.425781 45.757812 279.425781 45.839844 279.425781 C 46.238281 279.507812 46.476562 279.90625 46.398438 280.304688 C 45.917969 282.539062 45.28125 284.375 44.484375 285.890625 C 43.925781 286.929688 43.367188 287.726562 42.730469 288.445312 C 43.527344 288.84375 44.40625 289.480469 45.203125 290.199219 C 46.398438 291.316406 47.59375 292.753906 48.867188 294.667969 C 48.949219 294.746094 48.949219 294.90625 49.027344 295.066406 C 49.027344 295.464844 48.710938 295.863281 48.308594 295.945312 C 46.078125 296.105469 44.085938 296.105469 42.492188 295.863281 C 41.375 295.707031 40.339844 295.386719 39.542969 294.988281 C 39.382812 295.863281 39.0625 296.820312 38.585938 297.859375 C 37.867188 299.296875 36.910156 300.972656 35.476562 302.648438 C 35.398438 302.726562 35.316406 302.886719 35.15625 302.886719 C 34.757812 303.046875 34.28125 302.886719 34.121094 302.488281 C 33.246094 300.414062 32.6875 298.496094 32.367188 296.902344 C 32.207031 295.785156 32.128906 294.667969 32.289062 293.789062 C 31.332031 293.949219 30.375 293.949219 29.179688 293.789062 C 27.585938 293.628906 25.671875 293.070312 23.597656 292.355469 C 23.519531 292.273438 23.359375 292.273438 23.28125 292.113281 C 23.039062 291.796875 23.039062 291.316406 23.359375 290.996094 C 25.113281 289.480469 26.707031 288.363281 28.140625 287.644531 C 29.179688 287.167969 30.136719 286.769531 31.011719 286.609375 C 30.773438 285.890625 30.453125 284.933594 30.214844 283.816406 Z M 31.730469 283.496094 C 32.046875 284.933594 32.445312 286.050781 33.085938 286.929688 C 33.324219 287.246094 33.246094 287.726562 32.925781 288.046875 C 32.765625 288.125 32.605469 288.203125 32.445312 288.203125 C 31.410156 288.203125 30.214844 288.523438 28.941406 289.164062 C 27.902344 289.722656 26.707031 290.4375 25.511719 291.394531 C 26.945312 291.875 28.300781 292.195312 29.417969 292.355469 C 30.851562 292.511719 32.046875 292.433594 33.085938 292.113281 C 33.484375 291.953125 33.960938 292.195312 34.042969 292.59375 C 34.121094 292.753906 34.121094 292.914062 34.042969 293.070312 C 33.722656 294.03125 33.644531 295.304688 33.882812 296.742188 C 34.042969 297.9375 34.441406 299.296875 34.996094 300.730469 C 35.875 299.535156 36.59375 298.339844 37.070312 297.300781 C 37.707031 296.023438 37.949219 294.828125 37.949219 293.789062 C 37.949219 293.390625 38.265625 292.992188 38.746094 292.992188 C 38.902344 292.992188 39.144531 293.070312 39.222656 293.152344 C 40.101562 293.789062 41.214844 294.1875 42.652344 294.429688 C 43.847656 294.589844 45.203125 294.667969 46.714844 294.589844 C 45.839844 293.390625 44.960938 292.355469 44.085938 291.554688 C 43.050781 290.597656 42.011719 289.878906 40.976562 289.5625 C 40.578125 289.402344 40.339844 289.003906 40.5 288.605469 C 40.578125 288.445312 40.65625 288.285156 40.816406 288.203125 C 41.695312 287.566406 42.410156 286.6875 43.128906 285.332031 C 43.6875 284.292969 44.164062 282.9375 44.5625 281.421875 C 43.128906 281.902344 41.851562 282.378906 40.816406 283.019531 C 39.542969 283.738281 38.585938 284.535156 38.027344 285.332031 C 37.789062 285.652344 37.308594 285.8125 36.910156 285.570312 C 36.75 285.492188 36.671875 285.332031 36.59375 285.171875 C 36.273438 284.136719 35.636719 283.179688 34.597656 282.0625 C 33.722656 281.183594 32.6875 280.386719 31.410156 279.507812 Z M 31.730469 283.496094 " fill-opacity="1" fill-rule="nonzero"/><path fill="#fff458" d="M 234.128906 115.214844 C 233.808594 115.535156 233.332031 115.535156 233.089844 115.214844 C 232.851562 114.898438 232.851562 114.417969 233.171875 114.097656 L 238.589844 108.832031 L 232.453125 105.003906 C 232.136719 104.761719 232.054688 104.285156 232.292969 103.964844 C 232.535156 103.566406 233.011719 103.488281 233.332031 103.726562 L 239.789062 107.714844 L 245.128906 102.527344 C 245.449219 102.210938 245.925781 102.210938 246.164062 102.527344 C 246.402344 102.847656 246.402344 103.328125 246.085938 103.644531 L 240.984375 108.59375 L 246.003906 111.707031 C 246.324219 111.945312 246.402344 112.421875 246.164062 112.742188 C 245.925781 113.140625 245.449219 113.222656 245.128906 112.980469 L 239.789062 109.628906 Z M 268.964844 87.527344 C 268.644531 87.289062 268.644531 86.808594 268.964844 86.410156 C 269.28125 86.09375 269.761719 86.011719 270 86.25 L 273.269531 89.125 L 277.574219 85.132812 C 277.890625 84.816406 278.371094 84.816406 278.609375 85.132812 C 278.847656 85.453125 278.847656 85.933594 278.527344 86.25 L 274.382812 90.082031 L 277.972656 93.195312 C 278.289062 93.433594 278.289062 93.910156 277.972656 94.308594 C 277.652344 94.628906 277.175781 94.710938 276.933594 94.46875 L 273.1875 91.199219 L 269.042969 94.949219 C 268.722656 95.269531 268.246094 95.269531 268.007812 94.949219 C 267.769531 94.628906 267.769531 94.152344 268.085938 93.832031 L 272.074219 90.160156 Z M 270.476562 105.003906 C 270.160156 104.761719 270.160156 104.285156 270.476562 103.886719 C 270.796875 103.566406 271.273438 103.488281 271.515625 103.804688 L 275.738281 107.636719 L 279.484375 103.085938 C 279.804688 102.769531 280.28125 102.6875 280.523438 102.929688 C 280.839844 103.167969 280.839844 103.644531 280.601562 104.046875 L 276.777344 108.59375 L 280.839844 112.261719 C 281.160156 112.503906 281.160156 112.980469 280.839844 113.378906 C 280.523438 113.699219 280.042969 113.78125 279.804688 113.460938 L 275.738281 109.789062 L 272.949219 113.140625 C 272.628906 113.460938 272.152344 113.539062 271.914062 113.300781 C 271.59375 113.0625 271.59375 112.582031 271.832031 112.183594 L 274.625 108.832031 Z M 250.070312 86.410156 C 249.753906 86.09375 249.753906 85.613281 250.070312 85.292969 C 250.390625 84.976562 250.867188 84.976562 251.105469 85.214844 L 254.613281 88.566406 L 258.28125 84.734375 C 258.601562 84.417969 259.078125 84.417969 259.316406 84.65625 C 259.636719 84.976562 259.558594 85.453125 259.316406 85.773438 L 255.652344 89.601562 L 259.558594 93.351562 C 259.875 93.671875 259.875 94.152344 259.558594 94.46875 C 259.238281 94.789062 258.761719 94.789062 258.519531 94.550781 L 254.613281 90.800781 L 251.1875 94.308594 C 250.867188 94.628906 250.390625 94.628906 250.152344 94.390625 C 249.832031 94.070312 249.910156 93.59375 250.152344 93.273438 L 253.578125 89.761719 Z M 251.664062 105.722656 C 251.347656 105.480469 251.347656 105.003906 251.585938 104.683594 C 251.824219 104.363281 252.304688 104.285156 252.621094 104.523438 L 256.925781 107.953125 L 260.273438 103.886719 C 260.511719 103.566406 260.992188 103.488281 261.3125 103.726562 C 261.628906 103.964844 261.628906 104.445312 261.390625 104.84375 L 258.042969 108.914062 L 262.746094 112.664062 C 263.0625 112.902344 263.0625 113.378906 262.824219 113.699219 C 262.585938 114.019531 262.109375 114.097656 261.789062 113.859375 L 257.007812 110.109375 L 254.214844 113.539062 C 253.976562 113.859375 253.5 113.9375 253.179688 113.699219 C 252.859375 113.460938 252.859375 112.980469 253.101562 112.582031 L 255.890625 109.152344 Z M 235.640625 83.9375 C 235.402344 83.617188 235.484375 83.140625 235.882812 82.820312 C 236.199219 82.582031 236.679688 82.582031 236.917969 82.980469 L 240.027344 87.449219 L 243.613281 84.496094 C 243.933594 84.175781 244.410156 84.257812 244.648438 84.574219 C 244.890625 84.894531 244.808594 85.375 244.492188 85.691406 L 240.824219 88.726562 L 243.773438 92.953125 C 244.011719 93.273438 243.933594 93.75 243.535156 94.070312 C 243.214844 94.308594 242.738281 94.308594 242.496094 93.910156 L 239.546875 89.683594 L 233.96875 94.308594 C 233.648438 94.628906 233.171875 94.550781 232.933594 94.230469 C 232.691406 93.910156 232.773438 93.433594 233.089844 93.113281 L 238.75 88.40625 Z M 235.640625 83.9375 " fill-opacity="1" fill-rule="nonzero"/></svg>