<svg xmlns="http://www.w3.org/2000/svg" xmlns:xlink="http://www.w3.org/1999/xlink" width="500" zoomAndPan="magnify" viewBox="0 0 375 374.999991" height="500" preserveAspectRatio="xMidYMid meet" version="1.0"><defs><clipPath id="98972599e6"><path d="M 49.207031 44.265625 L 305.707031 44.265625 L 305.707031 312.015625 L 49.207031 312.015625 Z M 49.207031 44.265625 " clip-rule="nonzero"/></clipPath></defs><g clip-path="url(#98972599e6)"><path fill="#000000" d="M 270.636719 183.960938 C 270.636719 235.390625 228.914062 277.089844 177.457031 277.089844 C 126 277.089844 84.28125 235.390625 84.28125 183.960938 C 84.28125 132.527344 126 90.828125 177.457031 90.828125 C 190.433594 90.828125 202.71875 93.589844 213.9375 98.386719 L 184.773438 129.515625 L 272.042969 126.601562 L 264.636719 44.265625 L 238.898438 71.75 C 220.65625 61.714844 199.761719 55.90625 177.457031 55.90625 C 106.699219 55.90625 49.335938 113.238281 49.335938 183.960938 C 49.335938 254.679688 106.699219 312.015625 177.457031 312.015625 C 248.214844 312.015625 305.578125 254.679688 305.578125 183.960938 Z M 270.636719 183.960938 " fill-opacity="1" fill-rule="evenodd"/></g></svg>