<svg xmlns="http://www.w3.org/2000/svg" xmlns:xlink="http://www.w3.org/1999/xlink" width="500" zoomAndPan="magnify" viewBox="0 0 375 374.999991" height="500" preserveAspectRatio="xMidYMid meet" version="1.0"><defs><clipPath id="459f472ee7"><path d="M 182 278 L 220 278 L 220 342.808594 L 182 342.808594 Z M 182 278 " clip-rule="nonzero"/></clipPath><clipPath id="d25d9bd3e2"><path d="M 145 278 L 183 278 L 183 342.808594 L 145 342.808594 Z M 145 278 " clip-rule="nonzero"/></clipPath><clipPath id="3416491e5a"><path d="M 279 222 L 316.757812 222 L 316.757812 287 L 279 287 Z M 279 222 " clip-rule="nonzero"/></clipPath><clipPath id="32ee40a2d9"><path d="M 242 201 L 316.757812 201 L 316.757812 244 L 242 244 Z M 242 201 " clip-rule="nonzero"/></clipPath><clipPath id="d56f37b164"><path d="M 48.257812 222 L 86 222 L 86 287 L 48.257812 287 Z M 48.257812 222 " clip-rule="nonzero"/></clipPath><clipPath id="7657fcb364"><path d="M 48.257812 201 L 123 201 L 123 244 L 48.257812 244 Z M 48.257812 201 " clip-rule="nonzero"/></clipPath><clipPath id="d1b4a86b04"><path d="M 279 109 L 316.757812 109 L 316.757812 175 L 279 175 Z M 279 109 " clip-rule="nonzero"/></clipPath><clipPath id="fbe457b555"><path d="M 242 88 L 316.757812 88 L 316.757812 132 L 242 132 Z M 242 88 " clip-rule="nonzero"/></clipPath><clipPath id="cbaf9628a8"><path d="M 48.257812 109 L 86 109 L 86 175 L 48.257812 175 Z M 48.257812 109 " clip-rule="nonzero"/></clipPath><clipPath id="eab9b687dd"><path d="M 48.257812 88 L 123 88 L 123 132 L 48.257812 132 Z M 48.257812 88 " clip-rule="nonzero"/></clipPath><clipPath id="875d3225b3"><path d="M 145 32.308594 L 220 32.308594 L 220 76 L 145 76 Z M 145 32.308594 " clip-rule="nonzero"/></clipPath></defs><path fill="#9e389e" d="M 289.394531 130.933594 C 289.371094 130.335938 289.292969 129.746094 289.164062 129.164062 C 289.117188 128.96875 289.085938 128.769531 289.027344 128.574219 C 288.621094 127.058594 287.863281 125.746094 286.757812 124.632812 C 286.613281 124.476562 286.445312 124.34375 286.289062 124.195312 C 285.863281 123.804688 285.40625 123.453125 284.917969 123.140625 C 284.804688 123.070312 284.71875 122.964844 284.601562 122.898438 L 187.355469 66.660156 C 186.617188 66.234375 185.839844 65.910156 185.019531 65.691406 C 184.195312 65.46875 183.359375 65.359375 182.511719 65.359375 C 181.660156 65.359375 180.824219 65.46875 180.003906 65.691406 C 179.183594 65.910156 178.402344 66.234375 177.667969 66.660156 L 80.414062 122.898438 C 80.304688 122.964844 80.222656 123.0625 80.113281 123.132812 C 79.613281 123.449219 79.148438 123.804688 78.714844 124.207031 C 78.5625 124.347656 78.40625 124.476562 78.261719 124.628906 C 77.15625 125.742188 76.398438 127.058594 75.988281 128.578125 C 75.933594 128.769531 75.902344 128.964844 75.855469 129.164062 C 75.722656 129.746094 75.644531 130.335938 75.621094 130.933594 C 75.617188 131.058594 75.574219 131.175781 75.574219 131.304688 L 75.574219 243.800781 C 75.574219 244.652344 75.683594 245.488281 75.902344 246.3125 C 76.121094 247.132812 76.445312 247.914062 76.871094 248.652344 C 77.292969 249.390625 77.808594 250.058594 78.410156 250.664062 C 79.011719 251.265625 79.679688 251.777344 80.414062 252.203125 L 177.667969 308.457031 C 177.785156 308.523438 177.917969 308.546875 178.035156 308.609375 C 178.550781 308.878906 179.082031 309.101562 179.636719 309.273438 C 179.839844 309.335938 180.039062 309.410156 180.242188 309.460938 C 181.753906 309.859375 183.265625 309.859375 184.777344 309.460938 C 184.984375 309.410156 185.179688 309.335938 185.382812 309.273438 C 185.9375 309.101562 186.472656 308.878906 186.984375 308.609375 C 187.105469 308.546875 187.238281 308.523438 187.355469 308.457031 L 284.601562 252.203125 C 285.339844 251.777344 286.007812 251.265625 286.609375 250.664062 C 287.210938 250.058594 287.722656 249.390625 288.148438 248.652344 C 288.574219 247.914062 288.894531 247.132812 289.113281 246.3125 C 289.335938 245.488281 289.445312 244.652344 289.445312 243.800781 L 289.445312 131.304688 C 289.445312 131.175781 289.398438 131.058594 289.394531 130.933594 Z M 182.511719 86.269531 L 260.386719 131.304688 L 182.511719 176.355469 L 104.632812 131.304688 Z M 94.945312 148.113281 L 172.824219 193.164062 L 172.824219 283.246094 L 94.945312 238.199219 Z M 270.074219 238.199219 L 192.199219 283.246094 L 192.199219 193.164062 L 270.074219 148.113281 Z M 270.074219 238.199219 " fill-opacity="1" fill-rule="nonzero"/><g clip-path="url(#459f472ee7)"><path fill="#ef9505" d="M 219.46875 278.679688 L 182.511719 300.054688 L 182.515625 342.808594 L 219.472656 321.433594 Z M 219.46875 278.679688 " fill-opacity="1" fill-rule="nonzero"/></g><g clip-path="url(#d25d9bd3e2)"><path fill="#ffc719" d="M 145.550781 278.679688 L 145.550781 321.429688 L 182.511719 342.804688 L 182.511719 300.054688 Z M 145.550781 278.679688 " fill-opacity="1" fill-rule="nonzero"/></g><path fill="#ffda71" d="M 182.515625 257.300781 L 145.554688 278.679688 L 182.511719 300.054688 L 219.472656 278.675781 Z M 182.515625 257.300781 " fill-opacity="1" fill-rule="nonzero"/><g clip-path="url(#3416491e5a)"><path fill="#ef9505" d="M 316.714844 222.425781 L 279.757812 243.800781 L 279.761719 286.554688 L 316.71875 265.183594 Z M 316.714844 222.425781 " fill-opacity="1" fill-rule="nonzero"/></g><path fill="#ffc719" d="M 242.796875 222.425781 L 242.796875 265.175781 L 279.757812 286.550781 L 279.757812 243.800781 Z M 242.796875 222.425781 " fill-opacity="1" fill-rule="nonzero"/><g clip-path="url(#32ee40a2d9)"><path fill="#ffda71" d="M 279.761719 201.046875 L 242.804688 222.425781 L 279.757812 243.800781 L 316.71875 222.421875 Z M 279.761719 201.046875 " fill-opacity="1" fill-rule="nonzero"/></g><path fill="#ef9505" d="M 122.210938 222.421875 L 85.257812 243.796875 L 85.261719 286.550781 L 122.214844 265.179688 Z M 122.210938 222.421875 " fill-opacity="1" fill-rule="nonzero"/><g clip-path="url(#d56f37b164)"><path fill="#ffc719" d="M 48.292969 222.421875 L 48.292969 265.171875 L 85.257812 286.546875 L 85.257812 243.796875 Z M 48.292969 222.421875 " fill-opacity="1" fill-rule="nonzero"/></g><g clip-path="url(#7657fcb364)"><path fill="#ffda71" d="M 85.261719 201.042969 L 48.300781 222.421875 L 85.257812 243.796875 L 122.214844 222.417969 Z M 85.261719 201.042969 " fill-opacity="1" fill-rule="nonzero"/></g><path fill="#ef9505" d="M 219.46875 166.183594 L 182.511719 187.558594 L 182.515625 230.3125 L 219.472656 208.941406 Z M 219.46875 166.183594 " fill-opacity="1" fill-rule="nonzero"/><path fill="#ffc719" d="M 145.550781 166.183594 L 145.550781 208.933594 L 182.511719 230.308594 L 182.511719 187.558594 Z M 145.550781 166.183594 " fill-opacity="1" fill-rule="nonzero"/><path fill="#ffda71" d="M 182.515625 144.804688 L 145.554688 166.183594 L 182.511719 187.558594 L 219.472656 166.179688 Z M 182.515625 144.804688 " fill-opacity="1" fill-rule="nonzero"/><g clip-path="url(#d1b4a86b04)"><path fill="#ef9505" d="M 316.714844 109.929688 L 279.757812 131.304688 L 279.761719 174.0625 L 316.71875 152.6875 Z M 316.714844 109.929688 " fill-opacity="1" fill-rule="nonzero"/></g><path fill="#ffc719" d="M 242.796875 109.929688 L 242.796875 152.679688 L 279.757812 174.054688 L 279.757812 131.304688 Z M 242.796875 109.929688 " fill-opacity="1" fill-rule="nonzero"/><g clip-path="url(#fbe457b555)"><path fill="#ffda71" d="M 279.761719 88.550781 L 242.804688 109.929688 L 279.757812 131.304688 L 316.71875 109.925781 Z M 279.761719 88.550781 " fill-opacity="1" fill-rule="nonzero"/></g><path fill="#ef9505" d="M 122.210938 109.929688 L 85.257812 131.300781 L 85.261719 174.058594 L 122.214844 152.683594 Z M 122.210938 109.929688 " fill-opacity="1" fill-rule="nonzero"/><g clip-path="url(#cbaf9628a8)"><path fill="#ffc719" d="M 48.292969 109.929688 L 48.292969 152.675781 L 85.257812 174.050781 L 85.257812 131.300781 Z M 48.292969 109.929688 " fill-opacity="1" fill-rule="nonzero"/></g><g clip-path="url(#eab9b687dd)"><path fill="#ffda71" d="M 85.261719 88.546875 L 48.300781 109.929688 L 85.257812 131.300781 L 122.214844 109.921875 Z M 85.261719 88.546875 " fill-opacity="1" fill-rule="nonzero"/></g><path fill="#ef9505" d="M 219.46875 53.6875 L 182.511719 75.0625 L 182.515625 117.820312 L 219.472656 96.445312 Z M 219.46875 53.6875 " fill-opacity="1" fill-rule="nonzero"/><path fill="#ffc719" d="M 145.550781 53.6875 L 145.550781 96.4375 L 182.511719 117.8125 L 182.511719 75.0625 Z M 145.550781 53.6875 " fill-opacity="1" fill-rule="nonzero"/><g clip-path="url(#875d3225b3)"><path fill="#ffda71" d="M 182.515625 32.308594 L 145.554688 53.6875 L 182.511719 75.0625 L 219.472656 53.683594 Z M 182.515625 32.308594 " fill-opacity="1" fill-rule="nonzero"/></g></svg>