<svg xmlns="http://www.w3.org/2000/svg" xmlns:xlink="http://www.w3.org/1999/xlink" width="500" zoomAndPan="magnify" viewBox="0 0 375 374.999991" height="500" preserveAspectRatio="xMidYMid meet" version="1.0"><defs><clipPath id="cdb6962815"><path d="M 73.003906 61 L 301.753906 61 L 301.753906 313.734375 L 73.003906 313.734375 Z M 73.003906 61 " clip-rule="nonzero"/></clipPath><clipPath id="f46221a7d3"><path d="M 73.003906 61 L 299 61 L 299 250 L 73.003906 250 Z M 73.003906 61 " clip-rule="nonzero"/></clipPath><clipPath id="2019d75dac"><path d="M 184 122 L 301.753906 122 L 301.753906 251 L 184 251 Z M 184 122 " clip-rule="nonzero"/></clipPath></defs><g clip-path="url(#cdb6962815)"><path fill="#283593" d="M 180.808594 63.296875 C 184.875 61.015625 189.882812 61.015625 193.941406 63.296875 C 214.039062 74.574219 274.511719 108.519531 294.613281 119.800781 C 298.679688 122.074219 301.183594 126.292969 301.183594 130.855469 C 301.183594 153.410156 301.183594 221.300781 301.183594 243.855469 C 301.183594 248.421875 298.679688 252.636719 294.613281 254.917969 C 274.519531 266.195312 214.042969 300.144531 193.941406 311.421875 C 189.875 313.703125 184.867188 313.703125 180.808594 311.421875 C 160.710938 300.144531 100.238281 266.195312 80.136719 254.917969 C 76.074219 252.636719 73.570312 248.425781 73.570312 243.863281 C 73.570312 221.304688 73.570312 153.417969 73.570312 130.859375 C 73.570312 126.296875 76.074219 122.082031 80.140625 119.800781 C 100.230469 108.519531 160.71875 74.574219 180.808594 63.296875 Z M 180.808594 63.296875 " fill-opacity="1" fill-rule="evenodd"/></g><g clip-path="url(#f46221a7d3)"><path fill="#5c6bc0" d="M 75.390625 249.671875 C 73.796875 247.539062 73.570312 245.515625 73.570312 242.789062 C 73.570312 220.367188 73.570312 152.867188 73.570312 130.4375 C 73.570312 125.894531 76.066406 121.703125 80.125 119.441406 C 100.148438 108.226562 160.417969 74.476562 180.441406 63.257812 C 184.496094 60.988281 189.988281 61.039062 194.042969 63.308594 C 214.070312 74.519531 274.136719 107.980469 294.160156 119.195312 C 295.777344 120.105469 297.011719 121.199219 298.113281 122.644531 Z M 75.390625 249.671875 " fill-opacity="1" fill-rule="evenodd"/></g><path fill="#ffffff" d="M 187.378906 103.507812 C 233.660156 103.507812 271.234375 141.078125 271.234375 187.359375 C 271.234375 233.636719 233.660156 271.210938 187.378906 271.210938 C 141.09375 271.210938 103.519531 233.636719 103.519531 187.359375 C 103.519531 141.078125 141.09375 103.507812 187.378906 103.507812 Z M 187.378906 145.433594 C 210.515625 145.433594 229.308594 164.214844 229.308594 187.359375 C 229.308594 210.496094 210.515625 229.285156 187.378906 229.285156 C 164.238281 229.285156 145.449219 210.496094 145.449219 187.359375 C 145.449219 164.214844 164.234375 145.433594 187.378906 145.433594 Z M 187.378906 145.433594 " fill-opacity="1" fill-rule="evenodd"/><g clip-path="url(#2019d75dac)"><path fill="#3949ab" d="M 298.101562 122.703125 C 301.191406 125.597656 301.132812 129.957031 301.132812 133.390625 C 301.132812 156.117188 300.941406 220.765625 301.183594 243.496094 C 301.210938 245.867188 300.425781 248.367188 299.25 250.246094 L 184.941406 187.359375 Z M 298.101562 122.703125 " fill-opacity="1" fill-rule="evenodd"/></g></svg>