<svg xmlns="http://www.w3.org/2000/svg" xmlns:xlink="http://www.w3.org/1999/xlink" width="500" zoomAndPan="magnify" viewBox="0 0 375 374.999991" height="500" preserveAspectRatio="xMidYMid meet" version="1.0"><defs><clipPath id="abfb2b1cb1"><path d="M 17 12 L 346.804688 12 L 346.804688 365 L 17 365 Z M 17 12 " clip-rule="nonzero"/></clipPath></defs><path fill="#5d5560" d="M 268.78125 320.707031 C 268.78125 320.707031 274.175781 314.640625 272.5 305.722656 C 270.824219 296.804688 263.808594 293.953125 262.46875 281.371094 C 261.042969 267.871094 262.214844 252.355469 262.300781 251.460938 C 262.300781 251.429688 262.300781 251.429688 262.300781 251.429688 C 266.128906 246.511719 269.871094 240.554688 272.609375 233.707031 C 281.078125 212.40625 282.613281 100.300781 280.992188 86.265625 C 278.675781 66.023438 270.320312 52.355469 266.015625 46.511719 C 264.480469 44.386719 263.640625 41.871094 263.640625 39.242188 C 263.667969 33.957031 262.804688 24.816406 257.046875 19.898438 C 248.664062 12.738281 183.753906 13.914062 132.089844 27.027344 C 80.421875 40.136719 71.902344 75.726562 69.804688 92.5 C 67.710938 109.246094 69.804688 193.140625 80.480469 222.300781 C 85.871094 237.0625 94.113281 249.082031 100.933594 257.332031 C 100.933594 257.332031 105.710938 276.480469 102.105469 286.320312 C 98.585938 295.9375 93.386719 298.929688 89.058594 305.640625 C 84.753906 312.347656 87.828125 320.707031 87.828125 320.707031 C 59.160156 327.695312 36.886719 341.953125 19.871094 362.195312 L 343.835938 362.195312 C 321.648438 339.828125 296.167969 327.417969 268.78125 320.707031 Z M 268.78125 320.707031 " fill-opacity="1" fill-rule="nonzero"/><path fill="#fec4b9" d="M 166.039062 326.074219 C 178.082031 326.496094 187.890625 332.253906 198.925781 333.371094 L 198.925781 333.398438 C 198.925781 333.398438 189.480469 346.957031 182.859375 346.957031 C 176.238281 346.957031 161.847656 326.101562 161.847656 326.101562 C 162.910156 326.046875 164 326.046875 165.144531 326.046875 C 165.453125 326.046875 165.757812 326.046875 166.039062 326.074219 Z M 166.039062 326.074219 " fill-opacity="1" fill-rule="nonzero"/><path fill="#fec4b9" d="M 196.691406 216.878906 C 202.054688 221.378906 212.226562 230.882812 209.9375 235.945312 C 206.863281 242.738281 165.144531 247.628906 157.601562 237.171875 C 152.542969 230.210938 157.488281 222.386719 161.316406 217.941406 C 163.300781 215.648438 166.207031 214.363281 169.222656 214.363281 L 189.875 214.363281 C 192.386719 214.363281 194.792969 215.257812 196.691406 216.878906 Z M 196.691406 216.878906 " fill-opacity="1" fill-rule="nonzero"/><path fill="#fec4b9" d="M 245.675781 145.699219 C 247.742188 152.605469 248.355469 163.339844 237.933594 172.929688 C 220.863281 188.667969 183.53125 190.515625 182.1875 169.40625 C 181.460938 157.972656 201.160156 153.613281 217.5625 148.550781 C 225.023438 146.257812 231.648438 143.492188 236.175781 141.449219 C 240.003906 139.746094 244.5 141.703125 245.675781 145.699219 Z M 220.527344 166.445312 C 220.527344 163.144531 217.84375 160.460938 214.546875 160.460938 C 211.222656 160.460938 208.566406 163.144531 208.566406 166.445312 C 208.566406 169.769531 211.222656 172.453125 214.546875 172.453125 C 217.84375 172.453125 220.527344 169.769531 220.527344 166.445312 Z M 220.527344 166.445312 " fill-opacity="1" fill-rule="nonzero"/><path fill="#fec4b9" d="M 127.898438 148.550781 C 144.328125 153.613281 164 157.972656 163.273438 169.40625 C 161.929688 190.515625 124.601562 188.667969 107.527344 172.929688 C 97.105469 163.339844 97.71875 152.605469 99.785156 145.699219 C 100.960938 141.703125 105.488281 139.746094 109.289062 141.449219 C 113.8125 143.492188 120.4375 146.257812 127.898438 148.550781 Z M 136.921875 166.445312 C 136.921875 163.144531 134.238281 160.460938 130.914062 160.460938 C 127.617188 160.460938 124.933594 163.144531 124.933594 166.445312 C 124.933594 169.769531 127.617188 172.453125 130.914062 172.453125 C 134.238281 172.453125 136.921875 169.769531 136.921875 166.445312 Z M 136.921875 166.445312 " fill-opacity="1" fill-rule="nonzero"/><path fill="#888c8d" d="M 198.925781 333.371094 C 200.910156 333.59375 202.949219 333.652344 205.046875 333.511719 C 218.988281 332.53125 229.804688 325.039062 238.269531 323.53125 C 239.917969 323.222656 242.125 322.945312 244.554688 322.691406 C 254.53125 321.574219 268.78125 320.707031 268.78125 320.707031 C 296.167969 327.417969 321.648438 339.828125 343.835938 362.195312 L 19.871094 362.195312 C 36.886719 341.953125 59.160156 327.695312 87.828125 320.707031 C 87.828125 320.707031 103.363281 326.523438 117.753906 329.347656 C 121.917969 330.183594 125.96875 330.742188 129.546875 330.855469 C 137.257812 331.105469 142.398438 329.933594 147.316406 328.703125 C 151.761719 327.585938 156.035156 326.382812 161.847656 326.101562 C 161.847656 326.101562 176.238281 346.957031 182.859375 346.957031 C 189.480469 346.957031 198.925781 333.398438 198.925781 333.398438 Z M 198.925781 333.371094 " fill-opacity="1" fill-rule="nonzero"/><path fill="#524956" d="M 247.796875 43.4375 C 244.640625 36.167969 241.398438 30.519531 238.519531 26.296875 C 233.351562 18.722656 229.355469 15.589844 229.355469 15.589844 C 243.71875 15.816406 254.027344 17.324219 257.046875 19.898438 C 262.804688 24.816406 263.667969 33.957031 263.640625 39.242188 C 263.640625 41.871094 264.480469 44.386719 266.015625 46.511719 C 267.160156 48.050781 268.558594 50.144531 270.066406 52.746094 C 274.316406 60.015625 279.289062 71.363281 280.992188 86.265625 C 282.613281 100.300781 281.078125 212.40625 272.609375 233.707031 C 269.871094 240.554688 266.128906 246.511719 262.300781 251.429688 C 262.300781 251.429688 262.300781 251.429688 262.300781 251.460938 C 262.214844 252.355469 261.042969 267.871094 262.46875 281.371094 C 263.808594 293.953125 270.824219 296.804688 272.5 305.722656 C 274.175781 314.640625 268.78125 320.707031 268.78125 320.707031 C 268.78125 320.707031 254.53125 321.574219 244.554688 322.691406 C 242.125 322.945312 239.917969 323.222656 238.269531 323.53125 C 238.269531 323.53125 244.304688 303.488281 230.808594 296.023438 C 217.339844 288.558594 220.527344 269.910156 220.527344 269.910156 C 220.527344 269.910156 249.640625 264.683594 259.980469 156.15625 C 265.289062 100.410156 257.046875 64.824219 247.796875 43.4375 Z M 247.796875 43.4375 " fill-opacity="1" fill-rule="nonzero"/><path fill="#3a322b" d="M 244.546875 93.808594 C 244.621094 93.808594 244.695312 93.804688 244.769531 93.800781 C 246.308594 93.679688 247.457031 92.335938 247.335938 90.792969 C 245.242188 64.078125 247.835938 45.570312 255.488281 32.5625 C 256.269531 31.234375 255.828125 29.519531 254.5 28.738281 C 253.167969 27.949219 251.453125 28.394531 250.675781 29.726562 C 242.410156 43.769531 239.578125 63.3125 241.769531 91.230469 C 241.878906 92.695312 243.105469 93.808594 244.546875 93.808594 Z M 244.546875 93.808594 " fill-opacity="1" fill-rule="nonzero"/><path fill="#3a322b" d="M 153.941406 185.460938 C 161.296875 182.511719 165.601562 176.875 166.0625 169.589844 C 166.847656 157.214844 150.300781 152.300781 134.300781 147.554688 C 132.417969 146.996094 130.546875 146.441406 128.714844 145.875 C 121.261719 143.582031 114.660156 140.816406 110.429688 138.90625 C 107.855469 137.738281 104.902344 137.738281 102.328125 138.914062 C 99.796875 140.070312 97.890625 142.25 97.105469 144.902344 C 93.753906 156.140625 96.785156 166.824219 105.636719 174.984375 C 114.390625 183.054688 128.203125 187.804688 140.46875 187.804688 C 145.339844 187.808594 149.972656 187.054688 153.941406 185.460938 Z M 102.457031 146.5 C 102.789062 145.382812 103.566406 144.496094 104.644531 144.003906 C 105.75 143.5 107.019531 143.496094 108.128906 144 C 112.5 145.980469 119.339844 148.839844 127.070312 151.222656 C 128.917969 151.792969 130.8125 152.355469 132.710938 152.917969 C 145.96875 156.847656 160.988281 161.308594 160.484375 169.238281 C 160.160156 174.398438 157.257812 178.109375 151.863281 180.277344 C 139.894531 185.074219 120.0625 180.683594 109.421875 170.878906 C 100.199219 162.371094 100.542969 152.925781 102.457031 146.5 Z M 102.457031 146.5 " fill-opacity="1" fill-rule="nonzero"/><path fill="#3a322b" d="M 130.925781 160.46875 C 127.621094 160.46875 124.945312 163.148438 124.945312 166.453125 C 124.945312 169.761719 127.625 172.4375 130.925781 172.4375 C 134.230469 172.4375 136.910156 169.757812 136.910156 166.453125 C 136.910156 163.148438 134.230469 160.46875 130.925781 160.46875 Z M 130.925781 160.46875 " fill-opacity="1" fill-rule="nonzero"/><path fill="#3a322b" d="M 191.523438 185.460938 C 195.492188 187.054688 200.121094 187.808594 205 187.808594 C 217.261719 187.808594 231.078125 183.054688 239.832031 174.988281 C 251.777344 163.972656 250.304688 151.410156 248.363281 144.902344 C 247.574219 142.25 245.667969 140.070312 243.140625 138.914062 C 240.566406 137.742188 237.609375 137.738281 235.039062 138.90625 C 230.808594 140.820312 224.207031 143.582031 216.757812 145.875 C 214.921875 146.441406 213.050781 146.996094 211.167969 147.554688 C 195.164062 152.304688 178.621094 157.214844 179.40625 169.589844 C 179.863281 176.878906 184.167969 182.511719 191.523438 185.460938 Z M 212.753906 152.917969 C 214.65625 152.351562 216.542969 151.792969 218.398438 151.222656 C 226.128906 148.839844 232.964844 145.980469 237.339844 144 C 237.890625 143.75 238.480469 143.625 239.074219 143.625 C 239.667969 143.625 240.265625 143.75 240.816406 144.007812 C 241.898438 144.5 242.671875 145.382812 243.003906 146.503906 C 244.921875 152.925781 245.273438 162.367188 236.042969 170.878906 C 225.402344 180.683594 205.578125 185.082031 193.601562 180.277344 C 188.207031 178.113281 185.308594 174.398438 184.980469 169.238281 C 184.476562 161.308594 199.5 156.847656 212.753906 152.917969 Z M 212.753906 152.917969 " fill-opacity="1" fill-rule="nonzero"/><path fill="#3a322b" d="M 214.539062 172.441406 C 217.84375 172.441406 220.519531 169.761719 220.519531 166.457031 C 220.519531 163.148438 217.839844 160.46875 214.539062 160.46875 C 211.234375 160.46875 208.554688 163.152344 208.554688 166.457031 C 208.554688 169.761719 211.234375 172.441406 214.539062 172.441406 Z M 214.539062 172.441406 " fill-opacity="1" fill-rule="nonzero"/><path fill="#3a322b" d="M 155.332031 238.820312 C 159.621094 244.753906 170.734375 246.015625 179.402344 246.015625 C 183.496094 246.015625 187.050781 245.734375 189.078125 245.53125 C 193.894531 245.046875 209.804688 243.007812 212.484375 237.097656 C 213.34375 235.210938 215.949219 229.46875 198.492188 214.734375 C 196.070312 212.691406 193.007812 211.566406 189.871094 211.566406 L 169.230469 211.566406 C 165.359375 211.566406 161.707031 213.222656 159.203125 216.117188 C 152.078125 224.351562 150.699219 232.417969 155.332031 238.820312 Z M 169.234375 217.15625 L 189.875 217.15625 C 190.886719 217.15625 191.875 217.378906 192.804688 217.761719 C 188.78125 223.214844 182.183594 225.925781 172.710938 225.996094 C 171.167969 226.007812 169.929688 227.269531 169.9375 228.816406 C 169.949219 230.351562 171.199219 231.589844 172.734375 231.589844 C 172.738281 231.589844 172.746094 231.589844 172.753906 231.589844 C 183.996094 231.5 192.21875 227.96875 197.292969 221.097656 C 205.738281 228.675781 208.03125 233.390625 207.414062 234.761719 C 206.421875 236.402344 197.195312 239.769531 183.101562 240.351562 C 171.460938 240.832031 162.324219 238.945312 159.863281 235.542969 C 156.074219 230.300781 159.714844 224.074219 163.433594 219.773438 C 164.871094 218.109375 166.984375 217.15625 169.234375 217.15625 Z M 169.234375 217.15625 " fill-opacity="1" fill-rule="nonzero"/><g clip-path="url(#abfb2b1cb1)"><path fill="#3a322b" d="M 345.808594 360.222656 C 325.925781 340.191406 302.136719 326.683594 273.210938 318.96875 C 274.777344 315.921875 276.355469 311.117188 275.25 305.203125 C 274.417969 300.773438 272.4375 297.675781 270.523438 294.675781 C 268.164062 290.988281 265.9375 287.5 265.25 281.078125 C 264 269.375 264.789062 255.910156 265.027344 252.496094 C 268.796875 247.53125 272.480469 241.578125 275.203125 234.726562 C 283.984375 212.628906 285.351562 99.710938 283.773438 85.933594 C 281.421875 65.363281 273.054688 51.363281 268.277344 44.847656 C 267.074219 43.210938 266.445312 41.273438 266.449219 39.257812 C 266.46875 33.671875 265.511719 23.457031 258.867188 17.777344 C 257.652344 16.742188 255.566406 15.863281 252.742188 15.140625 C 252.429688 15.003906 252.097656 14.933594 251.75 14.914062 C 231.097656 10.15625 175.925781 13.003906 131.402344 24.3125 C 93.65625 33.902344 71.398438 57.355469 67.042969 92.140625 C 64.859375 109.59375 67.152344 194.011719 77.847656 223.25 C 83.292969 238.144531 91.480469 250.226562 98.378906 258.652344 C 99.691406 264.253906 102.082031 278.246094 99.484375 285.351562 C 97.394531 291.078125 94.667969 294.246094 91.785156 297.601562 C 90.097656 299.558594 88.359375 301.578125 86.71875 304.132812 C 83.363281 309.347656 83.761719 315.246094 84.433594 318.699219 C 57.46875 325.816406 35.035156 339.820312 17.742188 360.390625 C 17.042969 361.222656 16.890625 362.386719 17.347656 363.371094 C 17.804688 364.355469 18.796875 364.988281 19.878906 364.988281 L 343.828125 364.988281 C 344.957031 364.988281 345.972656 364.308594 346.40625 363.265625 C 346.839844 362.226562 346.605469 361.027344 345.808594 360.222656 Z M 91.414062 307.160156 C 92.847656 304.933594 94.386719 303.140625 96.015625 301.25 C 99.097656 297.664062 102.289062 293.953125 104.730469 287.273438 C 106.824219 281.539062 106.363281 273.195312 105.488281 266.660156 C 108.648438 269.925781 110.820312 271.796875 111.09375 272.03125 C 111.621094 272.480469 112.261719 272.695312 112.898438 272.695312 C 113.695312 272.695312 114.480469 272.359375 115.035156 271.707031 C 116.03125 270.527344 115.890625 268.765625 114.710938 267.765625 C 114.5 267.585938 93.375 249.445312 83.097656 221.328125 C 72.648438 192.761719 70.441406 109.980469 72.585938 92.835938 C 76.691406 60.066406 96.941406 38.835938 132.777344 29.730469 C 174.425781 19.148438 221.488281 16.867188 243.390625 19.128906 C 233.265625 25.761719 225.328125 35.6875 220.273438 48.339844 C 219.703125 49.773438 220.398438 51.402344 221.832031 51.972656 C 222.175781 52.109375 222.523438 52.175781 222.871094 52.175781 C 223.976562 52.175781 225.027344 51.511719 225.464844 50.417969 C 231.070312 36.386719 240.023438 26.382812 252.050781 20.605469 C 253.535156 21.03125 254.617188 21.511719 255.234375 22.035156 C 260.167969 26.25 260.875 34.625 260.859375 39.242188 C 260.847656 42.464844 261.851562 45.550781 263.769531 48.15625 C 268.222656 54.222656 276.015625 67.285156 278.222656 86.574219 C 279.894531 101.234375 278.109375 212.277344 270.007812 232.664062 C 262.175781 252.375 245.160156 264.675781 244.988281 264.800781 C 243.734375 265.695312 243.4375 267.4375 244.335938 268.699219 C 245.234375 269.957031 246.972656 270.25 248.230469 269.355469 C 248.613281 269.082031 253.378906 265.640625 259.078125 259.546875 C 258.886719 265.535156 258.863281 273.878906 259.695312 281.671875 C 260.519531 289.402344 263.332031 293.804688 265.816406 297.6875 C 267.59375 300.46875 269.125 302.871094 269.757812 306.234375 C 270.824219 311.941406 268.515625 316.246094 267.335938 317.992188 C 263.921875 318.210938 254.5 318.847656 246.585938 319.660156 C 242.660156 306.210938 240.753906 293.660156 240.816406 281.390625 C 240.824219 279.84375 239.578125 278.589844 238.035156 278.578125 C 238.027344 278.578125 238.027344 278.578125 238.019531 278.578125 C 236.484375 278.578125 235.234375 279.820312 235.226562 281.363281 C 235.164062 293.898438 237.058594 306.683594 240.953125 320.3125 C 239.78125 320.46875 238.714844 320.628906 237.796875 320.792969 C 234.171875 321.429688 230.25 323.039062 226.097656 324.738281 C 219.894531 327.28125 212.863281 330.164062 204.832031 330.738281 C 201.757812 330.960938 198.804688 330.671875 195.875 330.113281 C 193.40625 319.117188 193.808594 307.027344 197.179688 293.191406 C 197.546875 291.6875 196.628906 290.175781 195.125 289.8125 C 193.632812 289.449219 192.117188 290.367188 191.75 291.867188 C 188.441406 305.453125 187.816406 317.539062 189.84375 328.652344 C 188.320312 328.214844 186.785156 327.742188 185.230469 327.261719 C 180.324219 325.742188 175.28125 324.195312 169.765625 323.558594 C 172.183594 315.078125 172.644531 305.699219 171.125 295.617188 C 170.894531 294.09375 169.496094 293.035156 167.945312 293.269531 C 166.417969 293.496094 165.367188 294.921875 165.597656 296.449219 C 167.070312 306.238281 166.511719 315.238281 163.992188 323.261719 C 158.726562 323.308594 154.617188 324.046875 150.867188 324.941406 C 153.273438 311.511719 153.605469 299.257812 151.839844 287.628906 C 151.605469 286.101562 150.179688 285.050781 148.65625 285.285156 C 147.128906 285.515625 146.082031 286.941406 146.3125 288.46875 C 148.089844 300.183594 147.609375 312.625 144.898438 326.421875 C 140.601562 327.457031 136.105469 328.269531 129.640625 328.070312 C 127.210938 327.996094 124.527344 327.691406 121.734375 327.238281 C 127.527344 313.800781 129.414062 298.296875 127.242188 281.027344 C 127.054688 279.5 125.699219 278.410156 124.121094 278.605469 C 122.589844 278.796875 121.503906 280.195312 121.699219 281.726562 C 123.804688 298.480469 121.890625 313.398438 116.109375 326.160156 C 105.128906 323.789062 93.878906 319.90625 90.125 318.5625 C 89.574219 316.308594 88.796875 311.238281 91.414062 307.160156 Z M 183.578125 332.59375 C 186.925781 333.632812 190.335938 334.675781 193.867188 335.410156 C 190.277344 339.722656 185.59375 344.15625 182.867188 344.15625 C 180.257812 344.15625 173.375 336.902344 167.355469 328.933594 C 173.0625 329.34375 178.398438 330.988281 183.578125 332.59375 Z M 26.074219 359.398438 C 42.425781 341.777344 63.136719 329.773438 87.714844 323.632812 C 92.296875 325.304688 114.636719 333.191406 129.46875 333.652344 C 138.140625 333.9375 143.726562 332.503906 149.113281 331.128906 C 152.695312 330.214844 156.167969 329.335938 160.460938 328.984375 C 164.863281 335.210938 175.886719 349.75 182.863281 349.75 C 189.613281 349.75 197.320312 340.308594 200.277344 336.316406 C 201.078125 336.367188 201.886719 336.402344 202.703125 336.402344 C 203.539062 336.402344 204.382812 336.375 205.230469 336.3125 C 214.15625 335.675781 221.628906 332.613281 228.21875 329.910156 C 232.25 328.257812 235.730469 326.828125 238.769531 326.296875 C 246.359375 324.957031 265.425781 323.714844 268.496094 323.519531 C 295.539062 330.222656 317.992188 341.980469 336.898438 359.398438 Z M 26.074219 359.398438 " fill-opacity="1" fill-rule="nonzero"/></g><path fill="#3a322b" d="M 209.4375 279.554688 C 207.964844 280.015625 207.148438 281.585938 207.609375 283.058594 C 211.121094 294.226562 212.308594 305.542969 211.140625 316.691406 C 210.976562 318.226562 212.09375 319.605469 213.628906 319.765625 C 213.726562 319.773438 213.824219 319.78125 213.921875 319.78125 C 215.335938 319.78125 216.542969 318.710938 216.695312 317.273438 C 217.945312 305.359375 216.679688 293.28125 212.941406 281.382812 C 212.480469 279.910156 210.910156 279.082031 209.4375 279.554688 Z M 209.4375 279.554688 " fill-opacity="1" fill-rule="nonzero"/></svg>