<svg xmlns="http://www.w3.org/2000/svg" xmlns:xlink="http://www.w3.org/1999/xlink" width="500" zoomAndPan="magnify" viewBox="0 0 375 374.999991" height="500" preserveAspectRatio="xMidYMid meet" version="1.0"><defs><clipPath id="dfdb57e0d7"><path d="M 55 274 L 327 274 L 327 334 L 55 334 Z M 55 274 " clip-rule="nonzero"/></clipPath><clipPath id="ba42ff0dbb"><path d="M 203 84 L 336.632812 84 L 336.632812 251 L 203 251 Z M 203 84 " clip-rule="nonzero"/></clipPath><clipPath id="84538a6f90"><path d="M 216 100 L 336.632812 100 L 336.632812 235 L 216 235 Z M 216 100 " clip-rule="nonzero"/></clipPath><clipPath id="8828cf64d2"><path d="M 66 40.75 L 252 40.75 L 252 147 L 66 147 Z M 66 40.75 " clip-rule="nonzero"/></clipPath><clipPath id="fb832bc9b4"><path d="M 272 40.75 L 335 40.75 L 335 90 L 272 90 Z M 272 40.75 " clip-rule="nonzero"/></clipPath><clipPath id="0ecbc2d2ed"><path d="M 56 40.75 L 119 40.75 L 119 91 L 56 91 Z M 56 40.75 " clip-rule="nonzero"/></clipPath><clipPath id="bc10187da4"><path d="M 38.132812 56 L 93 56 L 93 121 L 38.132812 121 Z M 38.132812 56 " clip-rule="nonzero"/></clipPath><clipPath id="18f27955ac"><path d="M 282 63 L 336.632812 63 L 336.632812 132 L 282 132 Z M 282 63 " clip-rule="nonzero"/></clipPath><clipPath id="de1dc84f0e"><path d="M 286 207 L 336.632812 207 L 336.632812 268 L 286 268 Z M 286 207 " clip-rule="nonzero"/></clipPath><clipPath id="dedf4433ff"><path d="M 38.132812 93 L 112 93 L 112 169 L 38.132812 169 Z M 38.132812 93 " clip-rule="nonzero"/></clipPath><clipPath id="2245839f79"><path d="M 38.132812 116 L 112 116 L 112 192 L 38.132812 192 Z M 38.132812 116 " clip-rule="nonzero"/></clipPath><clipPath id="807e4f7464"><path d="M 38.132812 139 L 112 139 L 112 214 L 38.132812 214 Z M 38.132812 139 " clip-rule="nonzero"/></clipPath><clipPath id="09d0bb891b"><path d="M 54 40.75 L 181 40.75 L 181 167 L 54 167 Z M 54 40.75 " clip-rule="nonzero"/></clipPath><clipPath id="94f9fdc7cd"><path d="M 195 40.75 L 256 40.75 L 256 90 L 195 90 Z M 195 40.75 " clip-rule="nonzero"/></clipPath></defs><path fill="#e4ffff" d="M 80.074219 308.535156 L 94.773438 308.535156 C 111.589844 308.535156 111.589844 283.113281 94.773438 283.113281 L 54.953125 283.113281 C 38.132812 283.113281 38.132812 257.695312 54.953125 257.695312 L 93.960938 257.695312 C 110.78125 257.695312 110.78125 232.273438 93.960938 232.273438 L 79.953125 232.273438 C 63.136719 232.273438 63.136719 206.855469 79.953125 206.855469 L 212.433594 206.855469 C 229.242188 206.855469 229.242188 232.273438 212.433594 232.273438 L 205.421875 232.273438 C 188.601562 232.273438 188.609375 257.695312 205.421875 257.695312 L 224.527344 257.695312 C 241.347656 257.695312 241.347656 283.113281 224.527344 283.113281 L 204.609375 283.113281 C 187.800781 283.113281 187.800781 308.535156 204.609375 308.535156 L 210.734375 308.535156 C 227.550781 308.535156 227.550781 333.953125 210.734375 333.953125 L 80.074219 333.953125 C 63.257812 333.953125 63.257812 308.535156 80.074219 308.535156 Z M 80.074219 308.535156 " fill-opacity="1" fill-rule="evenodd"/><path fill="#cbeeff" d="M 156.132812 206.855469 L 287.046875 206.855469 C 303.867188 206.855469 303.859375 232.273438 287.046875 232.273438 L 273.992188 232.273438 C 256.230469 232.273438 254.65625 257.695312 275.941406 257.695312 L 312.648438 257.695312 C 329.464844 257.695312 329.464844 283.113281 312.648438 283.113281 L 259.761719 283.113281 C 242.953125 283.113281 242.953125 308.535156 259.761719 308.535156 L 272.5625 308.535156 C 289.378906 308.535156 289.375 333.953125 272.5625 333.953125 L 149.125 333.953125 C 132.304688 333.953125 132.304688 308.535156 149.125 308.535156 L 156.132812 308.535156 C 173.058594 308.535156 173.769531 283.113281 156.132812 283.113281 L 126.195312 283.113281 C 109.378906 283.113281 109.378906 257.695312 126.195312 257.695312 L 147.894531 257.695312 C 166.515625 258.265625 168.714844 232.273438 147.894531 232.273438 L 134.636719 232.273438 C 117.820312 232.273438 117.820312 206.855469 134.636719 206.855469 Z M 303.4375 308.535156 L 303.367188 308.535156 C 296.371094 308.535156 290.652344 314.25 290.652344 321.238281 C 290.652344 328.238281 296.371094 333.953125 303.367188 333.953125 L 303.4375 333.953125 C 310.429688 333.953125 316.152344 328.238281 316.152344 321.238281 C 316.152344 314.25 310.429688 308.535156 303.4375 308.535156 Z M 303.4375 308.535156 " fill-opacity="1" fill-rule="evenodd"/><path fill="#99ebff" d="M 112.941406 148.734375 L 268.738281 148.734375 C 269.753906 148.734375 270.761719 148.828125 271.757812 149.011719 C 272.753906 149.195312 273.722656 149.464844 274.660156 149.824219 C 275.601562 150.183594 276.492188 150.621094 277.339844 151.144531 C 278.183594 151.664062 278.964844 152.257812 279.683594 152.921875 C 280.402344 153.585938 281.042969 154.308594 281.609375 155.085938 C 282.175781 155.867188 282.652344 156.691406 283.039062 157.558594 C 283.429688 158.425781 283.722656 159.320312 283.921875 160.238281 C 284.117188 161.160156 284.21875 162.089844 284.21875 163.027344 L 284.21875 272.621094 C 284.21875 273.558594 284.117188 274.488281 283.921875 275.40625 C 283.722656 276.328125 283.429688 277.222656 283.039062 278.089844 C 282.652344 278.957031 282.175781 279.78125 281.609375 280.558594 C 281.042969 281.339844 280.402344 282.0625 279.683594 282.726562 C 278.964844 283.390625 278.183594 283.980469 277.339844 284.503906 C 276.492188 285.023438 275.601562 285.464844 274.660156 285.824219 C 273.722656 286.183594 272.753906 286.453125 271.757812 286.636719 C 270.761719 286.820312 269.753906 286.910156 268.738281 286.910156 L 112.941406 286.910156 C 111.925781 286.910156 110.917969 286.820312 109.921875 286.636719 C 108.925781 286.453125 107.957031 286.183594 107.019531 285.824219 C 106.078125 285.464844 105.1875 285.023438 104.339844 284.503906 C 103.496094 283.980469 102.714844 283.390625 101.996094 282.726562 C 101.277344 282.0625 100.636719 281.339844 100.070312 280.558594 C 99.503906 279.78125 99.027344 278.957031 98.640625 278.089844 C 98.25 277.222656 97.957031 276.328125 97.757812 275.40625 C 97.5625 274.488281 97.460938 273.558594 97.460938 272.621094 L 97.460938 163.027344 C 97.460938 162.089844 97.5625 161.160156 97.757812 160.238281 C 97.957031 159.320312 98.25 158.425781 98.640625 157.558594 C 99.027344 156.691406 99.503906 155.867188 100.070312 155.085938 C 100.636719 154.308594 101.277344 153.585938 101.996094 152.921875 C 102.714844 152.257812 103.496094 151.664062 104.339844 151.144531 C 105.1875 150.621094 106.078125 150.183594 107.019531 149.824219 C 107.957031 149.464844 108.925781 149.195312 109.921875 149.011719 C 110.917969 148.828125 111.925781 148.734375 112.941406 148.734375 Z M 112.941406 148.734375 " fill-opacity="1" fill-rule="evenodd"/><path fill="#ffffff" d="M 112.421875 162.523438 L 269.257812 162.523438 C 269.464844 162.523438 269.640625 162.585938 269.789062 162.714844 C 269.9375 162.84375 270.011719 162.996094 270.011719 163.175781 L 270.011719 272.476562 C 270.011719 272.65625 269.9375 272.8125 269.789062 272.941406 C 269.640625 273.066406 269.464844 273.132812 269.257812 273.132812 L 112.421875 273.132812 C 112.214844 273.132812 112.039062 273.066406 111.890625 272.941406 C 111.742188 272.8125 111.667969 272.65625 111.667969 272.476562 L 111.667969 163.175781 C 111.667969 162.996094 111.742188 162.84375 111.890625 162.714844 C 112.039062 162.585938 112.214844 162.523438 112.421875 162.523438 Z M 112.421875 162.523438 " fill-opacity="1" fill-rule="evenodd"/><path fill="#e6faff" d="M 95.664062 323.574219 L 286.015625 323.574219 C 293.777344 323.574219 300.117188 317.230469 300.117188 309.472656 L 300.117188 302.710938 C 300.117188 301.386719 299.039062 300.308594 297.714844 300.308594 L 83.964844 300.308594 C 82.640625 300.308594 81.5625 301.386719 81.5625 302.710938 L 81.5625 309.472656 C 81.5625 317.230469 87.902344 323.574219 95.664062 323.574219 Z M 95.664062 323.574219 " fill-opacity="1" fill-rule="evenodd"/><path fill="#99ebff" d="M 95.65625 323.574219 L 286.015625 323.574219 C 293.777344 323.574219 300.117188 317.222656 300.117188 309.472656 L 300.117188 302.710938 C 300.117188 302.355469 300.039062 302.015625 299.898438 301.707031 C 298.71875 308.292969 292.929688 313.328125 286.015625 313.328125 L 95.65625 313.328125 C 88.75 313.328125 82.960938 308.292969 81.78125 301.707031 C 81.640625 302.015625 81.5625 302.355469 81.5625 302.710938 L 81.5625 309.472656 C 81.5625 317.222656 87.902344 323.574219 95.65625 323.574219 Z M 95.65625 323.574219 " fill-opacity="1" fill-rule="evenodd"/><path fill="#99ebff" d="M 170.347656 300.308594 L 211.332031 300.308594 L 211.332031 310.21875 L 170.347656 310.21875 Z M 170.347656 300.308594 " fill-opacity="1" fill-rule="evenodd"/><g clip-path="url(#dfdb57e0d7)"><path stroke-linecap="butt" transform="matrix(0.00711102, 0, 0, 0.00711036, 39.506688, 40.793493)" fill="none" stroke-linejoin="miter" d="M 7897.23226 39770.262992 L 34665.764563 39770.262992 C 35757.270282 39770.262992 36648.822261 38878.078401 36648.822261 37787.020152 L 36648.822261 36836.052463 C 36648.822261 36649.814423 36497.208985 36498.186992 36310.988332 36498.186992 L 6252.008491 36498.186992 C 6065.787838 36498.186992 5914.174562 36649.814423 5914.174562 36836.052463 L 5914.174562 37787.020152 C 5914.174562 38878.078401 6805.726541 39770.262992 7897.23226 39770.262992 Z M 7897.23226 39770.262992 " stroke="#001850" stroke-width="644.211" stroke-opacity="1" stroke-miterlimit="4"/></g><path fill="#ffffff" d="M 133.613281 286.910156 L 144.351562 286.910156 L 144.351562 300.308594 L 133.613281 300.308594 Z M 133.613281 286.910156 " fill-opacity="1" fill-rule="evenodd"/><path fill="#ffffff" d="M 237.328125 286.910156 L 248.066406 286.910156 L 248.066406 300.308594 L 237.328125 300.308594 Z M 237.328125 286.910156 " fill-opacity="1" fill-rule="evenodd"/><path stroke-linecap="butt" transform="matrix(0.00711102, 0, 0, 0.00711036, 39.506688, 40.793493)" fill="none" stroke-linejoin="miter" d="M 13233.909693 34613.831606 L 14743.99989 34613.831606 L 14743.99989 36498.186992 L 13233.909693 36498.186992 Z M 13233.909693 34613.831606 " stroke="#001850" stroke-width="644.211" stroke-opacity="1" stroke-miterlimit="4"/><path stroke-linecap="butt" transform="matrix(0.00711102, 0, 0, 0.00711036, 39.506688, 40.793493)" fill="none" stroke-linejoin="miter" d="M 27818.996933 34613.831606 L 29329.08713 34613.831606 L 29329.08713 36498.186992 L 27818.996933 36498.186992 Z M 27818.996933 34613.831606 " stroke="#001850" stroke-width="644.211" stroke-opacity="1" stroke-miterlimit="4"/><path stroke-linecap="butt" transform="matrix(0.00711102, 0, 0, 0.00711036, 39.506688, 40.793493)" fill="none" stroke-linejoin="miter" d="M 34413.07577 25524.975773 L 34413.07577 32604.218778 C 34413.07577 33709.011396 33508.889352 34613.831606 32403.101223 34613.831606 L 10159.8956 34613.831606 C 9054.107471 34613.831606 8149.921053 33709.011396 8149.921053 32604.218778 L 8149.921053 17190.960843 C 8149.921053 16086.168225 9054.107471 15180.79864 10159.8956 15180.79864 L 26646.740665 15180.79864 " stroke="#001850" stroke-width="644.211" stroke-opacity="1" stroke-miterlimit="4"/><path fill="#002985" d="M 278.34375 217.757812 L 278.34375 117.207031 C 297.65625 138.191406 320.980469 137.132812 320.980469 137.132812 C 327.636719 196.410156 296.945312 211.414062 278.34375 217.757812 Z M 278.34375 217.757812 " fill-opacity="1" fill-rule="evenodd"/><path fill="#00ccff" d="M 278.34375 217.757812 L 278.34375 117.207031 C 259.023438 138.191406 235.699219 137.132812 235.699219 137.132812 C 229.042969 196.410156 259.734375 211.414062 278.34375 217.757812 Z M 278.34375 217.757812 " fill-opacity="1" fill-rule="evenodd"/><g clip-path="url(#ba42ff0dbb)"><path stroke-linecap="butt" transform="matrix(0.00711102, 0, 0, 0.00711036, 39.506688, 40.793493)" fill="none" stroke-linejoin="miter" d="M 33586.893284 25828.780009 C 30622.194559 24819.029222 25731.018454 22427.051568 26791.212735 12980.003399 C 26791.212735 12980.003399 30507.935279 13149.210821 33586.893284 9806.265479 C 36664.752641 13149.210821 40382.024508 12980.003399 40382.024508 12980.003399 C 41442.21879 22427.051568 36551.042684 24819.029222 33586.893284 25828.780009 Z M 33586.893284 25828.780009 " stroke="#001850" stroke-width="644.211" stroke-opacity="1" stroke-miterlimit="4"/></g><g clip-path="url(#84538a6f90)"><path stroke-linecap="butt" transform="matrix(0.00711102, 0, 0, 0.00711036, 39.506688, 40.793493)" fill="none" stroke-linejoin="miter" d="M 33586.893284 23599.966655 C 31446.729076 22869.847615 27916.776509 21144.810906 28681.984091 14325.971532 C 28681.984091 14325.971532 31364.87988 14447.932726 33586.893284 12035.078832 C 35807.80804 14447.932726 38491.253152 14325.971532 38491.253152 14325.971532 C 39255.911411 21144.810906 35725.958845 22869.847615 33586.893284 23599.966655 Z M 33586.893284 23599.966655 " stroke="#001850" stroke-width="644.211" stroke-opacity="1" stroke-miterlimit="4"/></g><g clip-path="url(#8828cf64d2)"><path stroke-linecap="butt" transform="matrix(0.00711102, 0, 0, 0.00711036, 39.506688, 40.793493)" fill="none" stroke-linejoin="miter" d="M 8545.983269 10479.249545 C 7841.201267 9902.955434 7390.756028 9027.252086 7390.756028 8046.068786 C 7390.756028 6312.242081 8797.024091 4905.842725 10531.787584 4905.842725 C 10886.101217 4905.842725 11226.13244 4964.076449 11544.190724 5071.753899 C 11879.82736 2394.101377 14165.012961 321.859827 16934.152533 321.859827 C 19400.065554 321.859827 21482.001475 1966.138448 22145.034894 4216.926791 C 22309.831932 4192.754302 22479.023559 4181.217433 22650.961802 4181.217433 C 24586.228359 4181.217433 26153.997519 5749.132964 26153.997519 7684.030827 C 26153.997519 9617.82994 24586.228359 11186.844221 22650.961802 11186.844221 C 19238.015133 11186.844221 15682.793687 11186.844221 12393.99412 11186.844221 " stroke="#001850" stroke-width="644.211" stroke-opacity="1" stroke-miterlimit="4"/></g><path fill="#e6faff" d="M 159.925781 48.066406 C 142.992188 48.066406 128.652344 60.6875 126.546875 77.476562 L 125.785156 83.546875 L 119.988281 81.578125 C 118.191406 80.96875 116.304688 80.660156 114.398438 80.660156 C 104.8125 80.660156 97.054688 88.425781 97.054688 98.003906 C 97.054688 107.589844 104.8125 115.34375 114.398438 115.34375 C 143.128906 115.34375 171.851562 115.34375 200.578125 115.34375 C 211.585938 115.34375 220.503906 106.429688 220.503906 95.429688 C 220.503906 84.421875 211.585938 75.507812 200.578125 75.507812 C 199.617188 75.507812 198.652344 75.578125 197.699219 75.710938 L 193.417969 76.332031 L 192.195312 72.1875 C 187.992188 57.90625 174.84375 48.066406 159.925781 48.066406 Z M 159.925781 48.066406 " fill-opacity="1" fill-rule="evenodd"/><path stroke-linecap="butt" transform="matrix(0.00711102, 0, 0, 0.00711036, 39.506688, 40.793493)" fill="none" stroke-linejoin="miter" d="M 14687.968897 8637.196015 L 14687.968897 22032.051124 " stroke="#001850" stroke-width="644.211" stroke-opacity="1" stroke-miterlimit="4"/><path stroke-linecap="butt" transform="matrix(0.00711102, 0, 0, 0.00711036, 39.506688, 40.793493)" fill="none" stroke-linejoin="miter" d="M 16094.786283 23438.999854 C 16094.786283 23531.294812 16085.997108 23623.040395 16067.869434 23713.687228 C 16049.74176 23804.334062 16023.374233 23892.234021 15987.668208 23977.387107 C 15952.511507 24062.540193 15909.114953 24143.847656 15858.027871 24220.760121 C 15806.391466 24297.672586 15748.163179 24368.541928 15682.793687 24433.917523 C 15617.424195 24499.293118 15546.561468 24557.526841 15469.656184 24608.618693 C 15392.750899 24660.259919 15312.00035 24703.660524 15226.30589 24738.820508 C 15141.160753 24773.980492 15053.268999 24800.899855 14962.630628 24819.029222 C 14871.992257 24837.158588 14780.255239 24845.948584 14687.968897 24845.948584 C 14595.682556 24845.948584 14503.945537 24837.158588 14413.307166 24819.029222 C 14322.668795 24800.899855 14234.777041 24773.980492 14149.631905 24738.820508 C 14063.937444 24703.660524 13983.186896 24660.259919 13906.281611 24608.618693 C 13829.376326 24557.526841 13758.5136 24499.293118 13693.144108 24433.917523 C 13627.774616 24368.541928 13569.546329 24297.672586 13517.909923 24220.760121 C 13466.822841 24143.847656 13423.426288 24062.540193 13388.269586 23977.387107 C 13352.563561 23892.234021 13326.196035 23804.334062 13308.068361 23713.687228 C 13289.940687 23623.040395 13281.151511 23531.294812 13281.151511 23438.999854 C 13281.151511 23346.704896 13289.940687 23254.959314 13308.068361 23164.31248 C 13326.196035 23073.665647 13352.563561 22985.765687 13388.269586 22900.612601 C 13423.426288 22815.459515 13466.822841 22734.152052 13517.909923 22657.239588 C 13569.546329 22580.327123 13627.774616 22509.45778 13693.144108 22444.082185 C 13758.5136 22378.70659 13829.376326 22320.472867 13906.281611 22269.381015 C 13983.186896 22217.739789 14063.937444 22174.339184 14149.631905 22139.1792 C 14234.777041 22104.019216 14322.668795 22077.099854 14413.307166 22058.970487 C 14503.945537 22040.84112 14595.682556 22032.051124 14687.968897 22032.051124 C 14780.255239 22032.051124 14871.992257 22040.84112 14962.630628 22058.970487 C 15053.268999 22077.099854 15141.160753 22104.019216 15226.30589 22139.1792 C 15312.00035 22174.339184 15392.750899 22217.739789 15469.656184 22269.381015 C 15546.561468 22320.472867 15617.424195 22378.70659 15682.793687 22444.082185 C 15748.163179 22509.45778 15806.391466 22580.327123 15858.027871 22657.239588 C 15909.114953 22734.152052 15952.511507 22815.459515 15987.668208 22900.612601 C 16023.374233 22985.765687 16049.74176 23073.665647 16067.869434 23164.31248 C 16085.997108 23254.959314 16094.786283 23346.704896 16094.786283 23438.999854 Z M 16094.786283 23438.999854 " stroke="#001850" stroke-width="644.211" stroke-opacity="1" stroke-miterlimit="4"/><path stroke-linecap="butt" transform="matrix(0.00711102, 0, 0, 0.00711036, 39.506688, 40.793493)" fill="none" stroke-linejoin="miter" d="M 18266.261929 8637.196015 L 18266.261929 26407.271618 " stroke="#001850" stroke-width="644.211" stroke-opacity="1" stroke-miterlimit="4"/><path stroke-linecap="butt" transform="matrix(0.00711102, 0, 0, 0.00711036, 39.506688, 40.793493)" fill="none" stroke-linejoin="miter" d="M 20132.863052 28274.047013 C 20132.863052 28396.557581 20120.777936 28517.969401 20097.157027 28638.282471 C 20072.986795 28758.595541 20037.830094 28875.062987 19991.137599 28988.234185 C 19943.895782 29101.954758 19886.216818 29209.082834 19818.100709 29311.266537 C 19749.984599 29413.45024 19673.079315 29507.393322 19586.286208 29594.194532 C 19499.493101 29680.995743 19405.009465 29758.457582 19303.384625 29826.580051 C 19201.210461 29894.70252 19093.543062 29951.837494 18980.382429 29999.083722 C 18867.221796 30045.780575 18750.215899 30080.940559 18630.463384 30105.113048 C 18510.161546 30129.285537 18388.761061 30140.822407 18266.261929 30140.822407 C 18143.213473 30140.822407 18021.812988 30129.285537 17901.51115 30105.113048 C 17781.758635 30080.940559 17664.752738 30045.780575 17551.592105 29999.083722 C 17438.431471 29951.837494 17330.764073 29894.70252 17228.589909 29826.580051 C 17126.965068 29758.457582 17032.481433 29680.995743 16945.688326 29594.194532 C 16858.895219 29507.393322 16781.989934 29413.45024 16713.873825 29311.266537 C 16645.757716 29209.082834 16588.078752 29101.954758 16541.386258 28988.234185 C 16494.14444 28875.062987 16458.987739 28758.595541 16434.817506 28638.282471 C 16411.196598 28517.969401 16399.111481 28396.557581 16399.111481 28274.047013 C 16399.111481 28151.536444 16411.196598 28030.124624 16434.817506 27909.811555 C 16458.987739 27789.498485 16494.14444 27673.031038 16541.386258 27559.310465 C 16588.078752 27446.139267 16645.757716 27338.461817 16713.873825 27236.827488 C 16781.989934 27134.643785 16858.895219 27040.700703 16945.688326 26953.899493 C 17032.481433 26867.098283 17126.965068 26789.636443 17228.589909 26721.513974 C 17330.764073 26653.391506 17438.431471 26596.256532 17551.592105 26549.010303 C 17664.752738 26502.31345 17781.758635 26466.604091 17901.51115 26442.980977 C 18021.812988 26418.808488 18143.213473 26407.271618 18266.261929 26407.271618 C 18388.761061 26407.271618 18510.161546 26418.808488 18630.463384 26442.980977 C 18750.215899 26466.604091 18867.221796 26502.31345 18980.382429 26549.010303 C 19093.543062 26596.256532 19201.210461 26653.391506 19303.384625 26721.513974 C 19405.009465 26789.636443 19499.493101 26867.098283 19586.286208 26953.899493 C 19673.079315 27040.700703 19749.984599 27134.643785 19818.100709 27236.827488 C 19886.216818 27338.461817 19943.895782 27446.139267 19991.137599 27559.310465 C 20037.830094 27673.031038 20072.986795 27789.498485 20097.157027 27909.811555 C 20120.777936 28030.124624 20132.863052 28151.536444 20132.863052 28274.047013 Z M 20132.863052 28274.047013 " stroke="#001850" stroke-width="644.211" stroke-opacity="1" stroke-miterlimit="4"/><path stroke-linecap="butt" transform="matrix(0.00711102, 0, 0, 0.00711036, 39.506688, 40.793493)" fill="none" stroke-linejoin="miter" d="M 22041.212759 8637.196015 L 22041.212759 22032.051124 " stroke="#001850" stroke-width="644.211" stroke-opacity="1" stroke-miterlimit="4"/><path stroke-linecap="butt" transform="matrix(0.00711102, 0, 0, 0.00711036, 39.506688, 40.793493)" fill="none" stroke-linejoin="miter" d="M 23448.030146 23438.999854 C 23448.030146 23531.294812 23439.24097 23623.040395 23421.113296 23713.687228 C 23402.985622 23804.334062 23376.068772 23892.234021 23340.912071 23977.387107 C 23305.755369 24062.540193 23262.358815 24143.847656 23210.72241 24220.760121 C 23159.635328 24297.672586 23101.407041 24368.541928 23036.037549 24433.917523 C 22970.668057 24499.293118 22899.256007 24557.526841 22822.900046 24608.618693 C 22745.994761 24660.259919 22664.694889 24703.660524 22579.549752 24738.820508 C 22493.855292 24773.980492 22405.963538 24800.899855 22315.325167 24819.029222 C 22224.686796 24837.158588 22133.499101 24845.948584 22041.212759 24845.948584 C 21948.377094 24845.948584 21857.1894 24837.158588 21766.551028 24819.029222 C 21675.912657 24800.899855 21588.020903 24773.980492 21502.326443 24738.820508 C 21417.181307 24703.660524 21335.881434 24660.259919 21259.525473 24608.618693 C 21182.620188 24557.526841 21111.208138 24499.293118 21045.838646 24433.917523 C 20981.018478 24368.541928 20922.240867 24297.672586 20871.153785 24220.760121 C 20820.066703 24143.847656 20776.67015 24062.540193 20740.964125 23977.387107 C 20705.807423 23892.234021 20678.890574 23804.334062 20660.762899 23713.687228 C 20643.184549 23623.040395 20633.84605 23531.294812 20633.84605 23438.999854 C 20633.84605 23346.704896 20643.184549 23254.959314 20660.762899 23164.31248 C 20678.890574 23073.665647 20705.807423 22985.765687 20740.964125 22900.612601 C 20776.67015 22815.459515 20820.066703 22734.152052 20871.153785 22657.239588 C 20922.240867 22580.327123 20981.018478 22509.45778 21045.838646 22444.082185 C 21111.208138 22378.70659 21182.620188 22320.472867 21259.525473 22269.381015 C 21335.881434 22217.739789 21417.181307 22174.339184 21502.326443 22139.1792 C 21588.020903 22104.019216 21675.912657 22077.099854 21766.551028 22058.970487 C 21857.1894 22040.84112 21948.377094 22032.051124 22041.212759 22032.051124 C 22133.499101 22032.051124 22224.686796 22040.84112 22315.325167 22058.970487 C 22405.963538 22077.099854 22493.855292 22104.019216 22579.549752 22139.1792 C 22664.694889 22174.339184 22745.994761 22217.739789 22822.900046 22269.381015 C 22899.256007 22320.472867 22970.668057 22378.70659 23036.037549 22444.082185 C 23101.407041 22509.45778 23159.635328 22580.327123 23210.72241 22657.239588 C 23262.358815 22734.152052 23305.755369 22815.459515 23340.912071 22900.612601 C 23376.068772 22985.765687 23402.985622 23073.665647 23421.113296 23164.31248 C 23439.24097 23254.959314 23448.030146 23346.704896 23448.030146 23438.999854 Z M 23448.030146 23438.999854 " stroke="#001850" stroke-width="644.211" stroke-opacity="1" stroke-miterlimit="4"/><path fill="#53b4ed" d="M 148.140625 207.453125 C 148.140625 207.726562 148.113281 208 148.0625 208.269531 C 148.007812 208.539062 147.929688 208.800781 147.824219 209.054688 C 147.71875 209.308594 147.589844 209.550781 147.4375 209.78125 C 147.28125 210.007812 147.109375 210.21875 146.914062 210.414062 C 146.71875 210.609375 146.507812 210.78125 146.28125 210.933594 C 146.050781 211.089844 145.808594 211.21875 145.554688 211.324219 C 145.300781 211.425781 145.039062 211.507812 144.769531 211.5625 C 144.5 211.613281 144.226562 211.640625 143.953125 211.640625 C 143.679688 211.640625 143.40625 211.613281 143.136719 211.5625 C 142.867188 211.507812 142.605469 211.425781 142.351562 211.324219 C 142.097656 211.21875 141.855469 211.089844 141.625 210.933594 C 141.398438 210.78125 141.1875 210.609375 140.992188 210.414062 C 140.796875 210.21875 140.625 210.007812 140.472656 209.78125 C 140.316406 209.550781 140.1875 209.308594 140.082031 209.054688 C 139.980469 208.800781 139.898438 208.539062 139.84375 208.269531 C 139.792969 208 139.765625 207.726562 139.765625 207.453125 C 139.765625 207.179688 139.792969 206.90625 139.84375 206.636719 C 139.898438 206.367188 139.980469 206.105469 140.082031 205.851562 C 140.1875 205.597656 140.316406 205.355469 140.472656 205.125 C 140.625 204.898438 140.796875 204.6875 140.992188 204.492188 C 141.1875 204.296875 141.398438 204.125 141.625 203.972656 C 141.855469 203.816406 142.097656 203.6875 142.351562 203.582031 C 142.605469 203.480469 142.867188 203.398438 143.136719 203.34375 C 143.40625 203.292969 143.679688 203.265625 143.953125 203.265625 C 144.226562 203.265625 144.5 203.292969 144.769531 203.34375 C 145.039062 203.398438 145.300781 203.480469 145.554688 203.582031 C 145.808594 203.6875 146.050781 203.816406 146.28125 203.972656 C 146.507812 204.125 146.71875 204.296875 146.914062 204.492188 C 147.109375 204.6875 147.28125 204.898438 147.4375 205.125 C 147.589844 205.355469 147.71875 205.597656 147.824219 205.851562 C 147.929688 206.105469 148.007812 206.367188 148.0625 206.636719 C 148.113281 206.90625 148.140625 207.179688 148.140625 207.453125 Z M 148.140625 207.453125 " fill-opacity="1" fill-rule="nonzero"/><path fill="#002985" d="M 200.429688 207.453125 C 200.429688 207.726562 200.402344 208 200.347656 208.269531 C 200.296875 208.539062 200.214844 208.800781 200.109375 209.054688 C 200.003906 209.308594 199.875 209.550781 199.722656 209.78125 C 199.570312 210.007812 199.398438 210.21875 199.203125 210.414062 C 199.007812 210.609375 198.796875 210.78125 198.566406 210.933594 C 198.339844 211.089844 198.097656 211.21875 197.84375 211.324219 C 197.589844 211.425781 197.328125 211.507812 197.058594 211.5625 C 196.789062 211.613281 196.515625 211.640625 196.242188 211.640625 C 195.964844 211.640625 195.691406 211.613281 195.421875 211.5625 C 195.152344 211.507812 194.890625 211.425781 194.636719 211.324219 C 194.382812 211.21875 194.140625 211.089844 193.914062 210.933594 C 193.683594 210.78125 193.472656 210.609375 193.277344 210.414062 C 193.085938 210.21875 192.910156 210.007812 192.757812 209.78125 C 192.605469 209.550781 192.476562 209.308594 192.371094 209.054688 C 192.265625 208.800781 192.1875 208.539062 192.132812 208.269531 C 192.078125 208 192.050781 207.726562 192.050781 207.453125 C 192.050781 207.179688 192.078125 206.90625 192.132812 206.636719 C 192.1875 206.367188 192.265625 206.105469 192.371094 205.851562 C 192.476562 205.597656 192.605469 205.355469 192.757812 205.125 C 192.910156 204.898438 193.085938 204.6875 193.277344 204.492188 C 193.472656 204.296875 193.683594 204.125 193.914062 203.972656 C 194.140625 203.816406 194.382812 203.6875 194.636719 203.582031 C 194.890625 203.480469 195.152344 203.398438 195.421875 203.34375 C 195.691406 203.292969 195.964844 203.265625 196.242188 203.265625 C 196.515625 203.265625 196.789062 203.292969 197.058594 203.34375 C 197.328125 203.398438 197.589844 203.480469 197.84375 203.582031 C 198.097656 203.6875 198.339844 203.816406 198.566406 203.972656 C 198.796875 204.125 199.007812 204.296875 199.203125 204.492188 C 199.398438 204.6875 199.570312 204.898438 199.722656 205.125 C 199.875 205.355469 200.003906 205.597656 200.109375 205.851562 C 200.214844 206.105469 200.292969 206.367188 200.347656 206.636719 C 200.402344 206.90625 200.429688 207.179688 200.429688 207.453125 Z M 200.429688 207.453125 " fill-opacity="1" fill-rule="nonzero"/><path fill="#00ccff" d="M 175.484375 241.832031 C 175.484375 242.230469 175.445312 242.628906 175.367188 243.019531 C 175.289062 243.410156 175.171875 243.792969 175.019531 244.160156 C 174.867188 244.53125 174.679688 244.878906 174.457031 245.214844 C 174.234375 245.546875 173.984375 245.851562 173.699219 246.136719 C 173.417969 246.417969 173.109375 246.671875 172.777344 246.890625 C 172.445312 247.113281 172.09375 247.300781 171.726562 247.453125 C 171.355469 247.609375 170.976562 247.722656 170.585938 247.800781 C 170.191406 247.878906 169.796875 247.917969 169.398438 247.917969 C 168.996094 247.917969 168.601562 247.878906 168.210938 247.800781 C 167.816406 247.722656 167.4375 247.609375 167.066406 247.453125 C 166.699219 247.300781 166.347656 247.113281 166.015625 246.890625 C 165.683594 246.671875 165.375 246.417969 165.09375 246.136719 C 164.808594 245.851562 164.558594 245.546875 164.335938 245.214844 C 164.113281 244.878906 163.925781 244.53125 163.773438 244.160156 C 163.621094 243.792969 163.503906 243.410156 163.425781 243.019531 C 163.347656 242.628906 163.308594 242.230469 163.308594 241.832031 C 163.308594 241.433594 163.347656 241.035156 163.425781 240.644531 C 163.503906 240.253906 163.621094 239.871094 163.773438 239.503906 C 163.925781 239.132812 164.113281 238.78125 164.335938 238.449219 C 164.558594 238.117188 164.808594 237.808594 165.09375 237.527344 C 165.375 237.246094 165.683594 236.992188 166.015625 236.769531 C 166.347656 236.550781 166.699219 236.363281 167.066406 236.207031 C 167.4375 236.054688 167.816406 235.941406 168.210938 235.863281 C 168.601562 235.785156 168.996094 235.746094 169.398438 235.746094 C 169.796875 235.746094 170.191406 235.785156 170.585938 235.863281 C 170.976562 235.941406 171.355469 236.054688 171.726562 236.207031 C 172.09375 236.363281 172.445312 236.550781 172.777344 236.769531 C 173.109375 236.992188 173.417969 237.246094 173.699219 237.527344 C 173.984375 237.808594 174.234375 238.117188 174.457031 238.449219 C 174.679688 238.78125 174.867188 239.132812 175.019531 239.503906 C 175.171875 239.871094 175.289062 240.253906 175.367188 240.644531 C 175.445312 241.035156 175.484375 241.433594 175.484375 241.832031 Z M 175.484375 241.832031 " fill-opacity="1" fill-rule="nonzero"/><g clip-path="url(#fb832bc9b4)"><path stroke-linecap="butt" transform="matrix(0.00711102, 0, 0, 0.00711036, 39.506688, 40.793493)" fill="none" stroke-linejoin="miter" d="M 36453.263108 1724.962934 L 36836.141561 2106.778383 M 37879.856139 1724.962934 L 37496.977686 2107.877133 M 36836.141561 2768.22558 L 36453.263108 3151.13978 M 37496.977686 2768.22558 L 37879.856139 3151.13978 " stroke="#001850" stroke-width="644.211" stroke-opacity="1" stroke-miterlimit="4"/></g><path stroke-linecap="butt" transform="matrix(0.00711102, 0, 0, 0.00711036, 39.506688, 40.793493)" fill="none" stroke-linejoin="miter" d="M 27968.962238 26894.017645 L 28351.840691 27276.931845 M 29396.104592 26894.017645 L 29013.226139 27276.931845 M 28351.840691 27937.829667 L 27968.962238 28320.743866 M 29013.226139 27937.829667 L 29396.104592 28320.743866 " stroke="#001850" stroke-width="644.211" stroke-opacity="1" stroke-miterlimit="4"/><g clip-path="url(#0ecbc2d2ed)"><path stroke-linecap="butt" transform="matrix(0.00711102, 0, 0, 0.00711036, 39.506688, 40.793493)" fill="none" stroke-linejoin="miter" d="M 6071.830396 1850.769751 L 6455.258172 2233.134576 M 7498.97275 1850.769751 L 7116.094297 2233.134576 M 6455.258172 2894.032398 L 6071.830396 3276.946597 M 7116.094297 2894.032398 L 7498.97275 3276.946597 " stroke="#001850" stroke-width="644.211" stroke-opacity="1" stroke-miterlimit="4"/></g><g clip-path="url(#bc10187da4)"><path stroke-linecap="butt" transform="matrix(0.00711102, 0, 0, 0.00711036, 39.506688, 40.793493)" fill="none" stroke-linejoin="miter" d="M 3788.842088 6702.847527 C 3788.842088 6755.038128 3783.898177 6807.228729 3773.461031 6858.32058 C 3763.573209 6909.412432 3748.192152 6959.405534 3728.416507 7007.750512 C 3708.640862 7056.09549 3683.921307 7101.693594 3654.807163 7145.094199 C 3625.69302 7188.494804 3592.733612 7229.148535 3555.92894 7265.956643 C 3519.124268 7302.764752 3478.474332 7335.727236 3435.077778 7364.844098 C 3391.681225 7393.96096 3346.087378 7418.133449 3297.746913 7438.460314 C 3249.406448 7458.237805 3199.418013 7473.620298 3148.330931 7483.509044 C 3097.243849 7493.947164 3045.05812 7498.891537 2992.872392 7498.891537 C 2940.686663 7498.891537 2889.050257 7493.947164 2837.963175 7483.509044 C 2786.32677 7473.620298 2736.887658 7458.237805 2688.547194 7438.460314 C 2640.206729 7418.133449 2594.063558 7393.96096 2550.667005 7364.844098 C 2507.270451 7335.727236 2467.169838 7302.764752 2430.365166 7265.956643 C 2393.011171 7229.148535 2360.051763 7188.494804 2330.93762 7145.094199 C 2302.3728 7101.693594 2277.653244 7056.09549 2257.328276 7007.750512 C 2237.552631 6959.405534 2222.720898 6909.412432 2212.283752 6858.32058 C 2201.846606 6807.228729 2196.902695 6755.038128 2196.902695 6702.847527 C 2196.902695 6650.656925 2201.846606 6599.015699 2212.283752 6547.923848 C 2222.720898 6496.282621 2237.552631 6446.838894 2257.328276 6398.493916 C 2277.653244 6350.148938 2302.3728 6304.001459 2330.93762 6260.600854 C 2360.051763 6217.200249 2393.011171 6177.095893 2430.365166 6140.287784 C 2467.169838 6102.930302 2507.270451 6069.967817 2550.667005 6041.40033 C 2594.063558 6012.283468 2640.206729 5987.561604 2688.547194 5967.784113 C 2736.887658 5947.457248 2786.32677 5932.62413 2837.963175 5922.186009 C 2889.050257 5912.297264 2940.686663 5906.803516 2992.872392 5906.803516 C 3045.05812 5906.803516 3097.243849 5912.297264 3148.330931 5922.186009 C 3199.418013 5932.62413 3249.406448 5947.457248 3297.746913 5967.784113 C 3346.087378 5987.561604 3391.681225 6012.283468 3435.077778 6041.40033 C 3478.474332 6069.967817 3519.124268 6102.930302 3555.92894 6140.287784 C 3592.733612 6177.095893 3625.69302 6217.200249 3654.807163 6260.600854 C 3683.921307 6304.001459 3708.640862 6350.148938 3728.416507 6398.493916 C 3748.192152 6446.838894 3763.573209 6496.282621 3773.461031 6547.923848 C 3783.898177 6599.015699 3788.842088 6650.656925 3788.842088 6702.847527 Z M 3788.842088 6702.847527 " stroke="#001850" stroke-width="644.211" stroke-opacity="1" stroke-miterlimit="4"/></g><g clip-path="url(#18f27955ac)"><path stroke-linecap="butt" transform="matrix(0.00711102, 0, 0, 0.00711036, 39.506688, 40.793493)" fill="none" stroke-linejoin="miter" d="M 39935.973857 7979.045066 C 39935.973857 8050.463784 39928.832652 8121.333126 39915.099566 8191.103719 C 39901.366479 8260.874312 39880.492188 8328.996781 39853.026014 8394.921751 C 39826.109165 8460.846721 39792.600434 8523.475442 39753.049144 8582.807915 C 39712.948532 8642.140387 39667.904008 8697.077862 39617.366249 8747.620339 C 39567.377814 8798.162816 39512.445468 8843.211545 39453.118534 8882.766527 C 39393.7916 8922.321509 39331.168726 8955.833369 39264.700587 8983.302106 C 39198.781771 9010.770844 39131.214985 9031.097709 39060.901582 9045.381453 C 38991.137503 9059.115821 38920.274776 9066.257693 38848.862726 9066.257693 C 38777.450676 9066.257693 38707.137273 9059.115821 38636.82387 9045.381453 C 38567.05979 9031.097709 38498.943681 9010.770844 38433.024865 8983.302106 C 38367.10605 8955.833369 38304.483175 8922.321509 38245.156241 8882.766527 C 38185.829307 8843.211545 38130.896961 8798.162816 38080.359203 8747.620339 C 38029.821444 8697.077862 37984.77692 8642.140387 37945.225631 8582.807915 C 37905.674342 8523.475442 37872.165611 8460.846721 37844.699437 8394.921751 C 37817.233264 8328.996781 37796.908296 8260.874312 37782.625886 8191.103719 C 37768.8928 8121.333126 37761.751595 8050.463784 37761.751595 7979.045066 C 37761.751595 7907.626349 37768.8928 7836.757007 37782.625886 7766.986414 C 37796.908296 7696.666446 37817.233264 7629.093352 37844.699437 7563.168382 C 37872.165611 7497.243412 37905.674342 7434.614691 37945.225631 7375.282218 C 37984.77692 7315.949745 38029.821444 7261.012271 38080.359203 7210.469794 C 38130.896961 7159.927317 38185.829307 7114.878588 38245.156241 7075.323606 C 38304.483175 7035.768624 38367.10605 7002.256764 38433.024865 6974.788027 C 38498.943681 6947.319289 38567.05979 6926.992424 38636.82387 6912.70868 C 38707.137273 6898.974312 38777.450676 6891.83244 38848.862726 6891.83244 C 38920.274776 6891.83244 38991.137503 6898.974312 39060.901582 6912.70868 C 39131.214985 6926.992424 39198.781771 6947.319289 39264.700587 6974.788027 C 39331.168726 7002.256764 39393.7916 7035.768624 39453.118534 7075.323606 C 39512.445468 7114.878588 39567.377814 7159.927317 39617.366249 7210.469794 C 39667.904008 7261.012271 39712.948532 7315.949745 39753.049144 7375.282218 C 39792.600434 7434.614691 39826.109165 7497.243412 39853.026014 7563.168382 C 39880.492188 7629.093352 39901.366479 7696.666446 39915.099566 7766.986414 C 39928.832652 7836.757007 39935.973857 7907.626349 39935.973857 7979.045066 Z M 39935.973857 7979.045066 " stroke="#001850" stroke-width="644.211" stroke-opacity="1" stroke-miterlimit="4"/></g><g clip-path="url(#de1dc84f0e)"><path stroke-linecap="butt" transform="matrix(0.00711102, 0, 0, 0.00711036, 39.506688, 40.793493)" fill="none" stroke-linejoin="miter" d="M 39566.828491 27636.772305 C 39566.828491 27676.876661 39562.983227 27716.431643 39555.292698 27755.43725 C 39547.60217 27794.442858 39536.066377 27832.349715 39520.68532 27869.157823 C 39505.853586 27905.416557 39487.176589 27940.576541 39464.654327 27973.539025 C 39442.681388 28006.50151 39417.412509 28037.266496 39389.397013 28065.284608 C 39361.381516 28093.852095 39330.619402 28118.573959 39297.659994 28141.098324 C 39264.700587 28163.073314 39229.543885 28181.752055 39192.739213 28197.134548 C 39155.934541 28211.967666 39118.031222 28223.504536 39079.029256 28231.195782 C 39040.027291 28238.887029 39001.025325 28242.732652 38960.924712 28242.732652 C 38921.373423 28242.732652 38881.822134 28238.887029 38842.820168 28231.195782 C 38803.818202 28223.504536 38765.914883 28211.967666 38729.110211 28197.134548 C 38692.305539 28181.752055 38657.148838 28163.073314 38624.18943 28141.098324 C 38591.230022 28118.573959 38560.467908 28093.852095 38532.452412 28065.284608 C 38504.436915 28037.266496 38479.168036 28006.50151 38457.195098 27973.539025 C 38435.222159 27940.576541 38416.545161 27905.416557 38401.164104 27869.157823 C 38385.783047 27832.349715 38374.247255 27794.442858 38366.556726 27755.43725 C 38358.866198 27716.431643 38355.020934 27676.876661 38355.020934 27636.772305 C 38355.020934 27597.217323 38358.866198 27557.662341 38366.556726 27518.656734 C 38374.247255 27479.651127 38385.783047 27441.744269 38401.164104 27404.936161 C 38416.545161 27368.128053 38435.222159 27333.517444 38457.195098 27300.554959 C 38479.168036 27267.043099 38504.436915 27236.827488 38532.452412 27208.260001 C 38560.467908 27180.241889 38591.230022 27154.970651 38624.18943 27132.995661 C 38657.148838 27111.020671 38692.305539 27092.341929 38729.110211 27076.959436 C 38765.914883 27062.126318 38803.818202 27050.589449 38842.820168 27042.898202 C 38881.822134 27034.657581 38921.373423 27030.811958 38960.924712 27030.811958 C 39001.025325 27030.811958 39040.027291 27034.657581 39079.029256 27042.898202 C 39118.031222 27050.589449 39155.934541 27062.126318 39192.739213 27076.959436 C 39229.543885 27092.341929 39264.700587 27111.020671 39297.659994 27132.995661 C 39330.619402 27154.970651 39361.381516 27180.241889 39389.397013 27208.260001 C 39417.412509 27236.827488 39442.681388 27267.043099 39464.654327 27300.554959 C 39487.176589 27333.517444 39505.853586 27368.128053 39520.68532 27404.936161 C 39536.066377 27441.744269 39547.60217 27479.651127 39555.292698 27518.656734 C 39562.983227 27557.662341 39566.828491 27597.217323 39566.828491 27636.772305 Z M 39566.828491 27636.772305 " stroke="#001850" stroke-width="644.211" stroke-opacity="1" stroke-miterlimit="4"/></g><g clip-path="url(#dedf4433ff)"><path stroke-linecap="butt" transform="matrix(0.00711102, 0, 0, 0.00711036, 39.506688, 40.793493)" fill="none" stroke-linejoin="miter" d="M 1064.74704 11064.883027 L 5768.054521 11064.883027 C 5816.94431 11064.883027 5865.284774 11070.376774 5913.075915 11081.913644 C 5960.867057 11092.901139 6007.010227 11109.382381 6052.604075 11131.357371 C 6097.648599 11153.332361 6140.495829 11180.801099 6180.596441 11212.664834 C 6221.246378 11244.528569 6259.149697 11280.787303 6293.207751 11321.441034 C 6327.815129 11362.094766 6358.577243 11406.044745 6386.043416 11453.840349 C 6412.960266 11501.635952 6436.031851 11552.178428 6454.708849 11604.918404 C 6473.385847 11658.207755 6487.118933 11713.14523 6496.457432 11769.181454 C 6506.345254 11825.767053 6510.739842 11882.352652 6510.739842 11940.037001 L 6510.739842 13399.725706 C 6510.739842 13457.410055 6506.345254 13514.545029 6496.457432 13570.581253 C 6487.118933 13627.166852 6473.385847 13681.554952 6454.708849 13734.844303 C 6436.031851 13788.133653 6412.960266 13838.126755 6386.043416 13885.922359 C 6358.577243 13933.717962 6327.815129 13978.217316 6293.207751 14018.871048 C 6259.149697 14059.524779 6221.246378 14095.783512 6180.596441 14127.647248 C 6140.495829 14159.510983 6097.648599 14186.430346 6052.604075 14208.405336 C 6007.010227 14230.380326 5960.867057 14246.861568 5913.075915 14258.398438 C 5865.284774 14269.385933 5816.94431 14274.87968 5768.054521 14274.87968 L 1064.74704 14274.87968 C 1016.406575 14274.87968 968.066111 14269.385933 920.274969 14258.398438 C 871.934505 14246.861568 825.791334 14230.380326 780.74681 14208.405336 C 735.702286 14186.430346 692.855056 14159.510983 652.20512 14127.647248 C 611.555184 14095.783512 574.201188 14059.524779 539.59381 14018.871048 C 504.986432 13978.217316 474.224318 13933.717962 447.307469 13885.922359 C 419.841296 13838.126755 397.319034 13788.133653 378.642036 13734.844303 C 359.965038 13681.554952 345.682628 13627.166852 336.344129 13570.581253 C 327.00563 13514.545029 322.061719 13457.410055 322.061719 13399.725706 L 322.061719 11940.037001 C 322.061719 11882.352652 327.00563 11825.767053 336.344129 11769.181454 C 345.682628 11713.14523 359.965038 11658.207755 378.642036 11604.918404 C 397.319034 11552.178428 419.841296 11501.635952 447.307469 11453.840349 C 474.224318 11406.044745 504.986432 11362.094766 539.59381 11321.441034 C 574.201188 11280.787303 611.555184 11244.528569 652.20512 11212.664834 C 692.855056 11180.801099 735.702286 11153.332361 780.74681 11131.357371 C 825.791334 11109.382381 871.934505 11092.901139 920.274969 11081.913644 C 968.066111 11070.376774 1016.406575 11064.883027 1064.74704 11064.883027 Z M 1064.74704 11064.883027 " stroke="#001850" stroke-width="644.211" stroke-opacity="1" stroke-miterlimit="4"/></g><path fill="#00a3e0" d="M 51 124.398438 L 76.613281 124.398438 C 77.148438 124.398438 77.664062 124.488281 78.160156 124.667969 C 78.65625 124.84375 79.09375 125.101562 79.472656 125.433594 C 79.851562 125.761719 80.144531 126.144531 80.351562 126.578125 C 80.554688 127.011719 80.65625 127.460938 80.65625 127.929688 L 80.65625 133.832031 C 80.65625 134.300781 80.554688 134.75 80.351562 135.183594 C 80.144531 135.617188 79.851562 136 79.472656 136.332031 C 79.09375 136.664062 78.65625 136.917969 78.160156 137.097656 C 77.664062 137.277344 77.148438 137.367188 76.613281 137.367188 L 51 137.367188 C 50.460938 137.367188 49.945312 137.277344 49.449219 137.097656 C 48.953125 136.917969 48.515625 136.664062 48.136719 136.332031 C 47.757812 136 47.464844 135.617188 47.261719 135.183594 C 47.054688 134.75 46.953125 134.300781 46.953125 133.832031 L 46.953125 127.929688 C 46.953125 127.460938 47.054688 127.011719 47.261719 126.578125 C 47.464844 126.144531 47.757812 125.761719 48.136719 125.433594 C 48.515625 125.101562 48.953125 124.84375 49.449219 124.667969 C 49.945312 124.488281 50.460938 124.398438 51 124.398438 Z M 51 124.398438 " fill-opacity="1" fill-rule="evenodd"/><path fill="#105286" d="M 71.230469 130.882812 C 71.230469 131.1875 71.171875 131.480469 71.054688 131.761719 C 70.9375 132.046875 70.769531 132.292969 70.554688 132.511719 C 70.339844 132.726562 70.089844 132.894531 69.808594 133.011719 C 69.523438 133.128906 69.230469 133.183594 68.925781 133.183594 C 68.621094 133.183594 68.324219 133.128906 68.042969 133.011719 C 67.761719 132.894531 67.511719 132.726562 67.296875 132.511719 C 67.078125 132.292969 66.914062 132.046875 66.796875 131.761719 C 66.679688 131.480469 66.621094 131.1875 66.621094 130.882812 C 66.621094 130.578125 66.679688 130.28125 66.796875 130 C 66.914062 129.71875 67.078125 129.46875 67.296875 129.253906 C 67.511719 129.035156 67.761719 128.871094 68.042969 128.753906 C 68.324219 128.636719 68.621094 128.578125 68.925781 128.578125 C 69.230469 128.578125 69.523438 128.636719 69.808594 128.753906 C 70.089844 128.871094 70.339844 129.035156 70.554688 129.253906 C 70.769531 129.46875 70.9375 129.71875 71.054688 130 C 71.171875 130.28125 71.230469 130.578125 71.230469 130.882812 Z M 71.230469 130.882812 " fill-opacity="1" fill-rule="nonzero"/><path fill="#105286" d="M 78.296875 130.882812 C 78.296875 131.1875 78.238281 131.480469 78.121094 131.761719 C 78.003906 132.046875 77.839844 132.292969 77.621094 132.511719 C 77.40625 132.726562 77.15625 132.894531 76.875 133.011719 C 76.59375 133.128906 76.300781 133.183594 75.992188 133.183594 C 75.6875 133.183594 75.394531 133.128906 75.113281 133.011719 C 74.828125 132.894531 74.582031 132.726562 74.363281 132.511719 C 74.148438 132.292969 73.980469 132.046875 73.863281 131.761719 C 73.746094 131.480469 73.6875 131.1875 73.6875 130.882812 C 73.6875 130.578125 73.746094 130.28125 73.863281 130 C 73.980469 129.71875 74.148438 129.46875 74.363281 129.253906 C 74.582031 129.035156 74.828125 128.871094 75.113281 128.753906 C 75.394531 128.636719 75.6875 128.578125 75.992188 128.578125 C 76.300781 128.578125 76.59375 128.636719 76.875 128.753906 C 77.15625 128.871094 77.40625 129.035156 77.621094 129.253906 C 77.839844 129.46875 78.003906 129.71875 78.121094 130 C 78.238281 130.28125 78.296875 130.578125 78.296875 130.882812 Z M 78.296875 130.882812 " fill-opacity="1" fill-rule="nonzero"/><path fill="#105286" d="M 64.152344 130.882812 C 64.152344 131.1875 64.09375 131.480469 63.976562 131.761719 C 63.859375 132.046875 63.695312 132.292969 63.480469 132.511719 C 63.261719 132.726562 63.011719 132.894531 62.730469 133.011719 C 62.449219 133.128906 62.15625 133.183594 61.847656 133.183594 C 61.542969 133.183594 61.25 133.128906 60.96875 133.011719 C 60.6875 132.894531 60.4375 132.726562 60.21875 132.511719 C 60.003906 132.292969 59.835938 132.046875 59.722656 131.761719 C 59.605469 131.480469 59.546875 131.1875 59.546875 130.882812 C 59.546875 130.578125 59.605469 130.28125 59.722656 130 C 59.835938 129.71875 60.003906 129.46875 60.21875 129.253906 C 60.4375 129.035156 60.6875 128.871094 60.96875 128.753906 C 61.25 128.636719 61.542969 128.578125 61.847656 128.578125 C 62.15625 128.578125 62.449219 128.636719 62.730469 128.753906 C 63.011719 128.871094 63.261719 129.035156 63.480469 129.253906 C 63.695312 129.46875 63.859375 129.71875 63.976562 130 C 64.09375 130.28125 64.152344 130.578125 64.152344 130.882812 Z M 64.152344 130.882812 " fill-opacity="1" fill-rule="nonzero"/><g clip-path="url(#2245839f79)"><path stroke-linecap="butt" transform="matrix(0.00711102, 0, 0, 0.00711036, 39.506688, 40.793493)" fill="none" stroke-linejoin="miter" d="M 1064.74704 14274.87968 L 5768.054521 14274.87968 C 5816.94431 14274.87968 5865.284774 14280.373428 5913.075915 14291.910297 C 5960.867057 14302.897792 6007.010227 14319.379035 6052.604075 14341.354025 C 6097.648599 14363.329015 6140.495829 14390.797752 6180.596441 14422.661488 C 6221.246378 14454.525223 6259.149697 14490.783956 6293.207751 14531.437688 C 6327.815129 14572.091419 6358.577243 14616.041399 6386.043416 14663.837002 C 6412.960266 14711.632605 6436.031851 14762.175082 6454.708849 14814.915058 C 6473.385847 14868.204408 6487.118933 14923.141883 6496.457432 14979.178107 C 6506.345254 15035.763706 6510.739842 15092.349306 6510.739842 15150.033654 L 6510.739842 16610.271735 C 6510.739842 16667.406708 6506.345254 16724.541682 6496.457432 16780.577907 C 6487.118933 16837.163506 6473.385847 16891.551606 6454.708849 16944.840956 C 6436.031851 16998.130307 6412.960266 17048.123409 6386.043416 17095.919012 C 6358.577243 17143.714615 6327.815129 17188.21397 6293.207751 17228.867701 C 6259.149697 17269.521432 6221.246378 17305.780166 6180.596441 17337.643901 C 6140.495829 17369.507637 6097.648599 17396.426999 6052.604075 17418.401989 C 6007.010227 17440.376979 5960.867057 17456.858222 5913.075915 17468.395091 C 5865.284774 17479.382586 5816.94431 17484.876334 5768.054521 17484.876334 L 1064.74704 17484.876334 C 1016.406575 17484.876334 968.066111 17479.382586 920.274969 17468.395091 C 871.934505 17456.858222 825.791334 17440.376979 780.74681 17418.401989 C 735.702286 17396.426999 692.855056 17369.507637 652.20512 17337.643901 C 611.555184 17305.780166 574.201188 17269.521432 539.59381 17228.867701 C 504.986432 17188.21397 474.224318 17143.714615 447.307469 17095.919012 C 419.841296 17048.123409 397.319034 16998.130307 378.642036 16944.840956 C 359.965038 16891.551606 345.682628 16837.163506 336.344129 16780.577907 C 327.00563 16724.541682 322.061719 16667.406708 322.061719 16610.271735 L 322.061719 15150.033654 C 322.061719 15092.349306 327.00563 15035.763706 336.344129 14979.178107 C 345.682628 14923.141883 359.965038 14868.204408 378.642036 14814.915058 C 397.319034 14762.175082 419.841296 14711.632605 447.307469 14663.837002 C 474.224318 14616.041399 504.986432 14572.091419 539.59381 14531.437688 C 574.201188 14490.783956 611.555184 14454.525223 652.20512 14422.661488 C 692.855056 14390.797752 735.702286 14363.329015 780.74681 14341.354025 C 825.791334 14319.379035 871.934505 14302.897792 920.274969 14291.910297 C 968.066111 14280.373428 1016.406575 14274.87968 1064.74704 14274.87968 Z M 1064.74704 14274.87968 " stroke="#001850" stroke-width="644.211" stroke-opacity="1" stroke-miterlimit="4"/></g><path fill="#00a3e0" d="M 51 147.222656 L 76.613281 147.222656 C 77.148438 147.222656 77.664062 147.3125 78.160156 147.492188 C 78.65625 147.667969 79.09375 147.925781 79.472656 148.257812 C 79.851562 148.585938 80.144531 148.96875 80.351562 149.402344 C 80.554688 149.835938 80.65625 150.285156 80.65625 150.753906 L 80.65625 156.65625 C 80.65625 157.125 80.554688 157.574219 80.351562 158.007812 C 80.144531 158.441406 79.851562 158.824219 79.472656 159.15625 C 79.09375 159.488281 78.65625 159.742188 78.160156 159.921875 C 77.664062 160.101562 77.148438 160.191406 76.613281 160.191406 L 51 160.191406 C 50.460938 160.191406 49.945312 160.101562 49.449219 159.921875 C 48.953125 159.742188 48.515625 159.488281 48.136719 159.15625 C 47.757812 158.824219 47.464844 158.441406 47.261719 158.007812 C 47.054688 157.574219 46.953125 157.125 46.953125 156.65625 L 46.953125 150.753906 C 46.953125 150.285156 47.054688 149.835938 47.261719 149.402344 C 47.464844 148.96875 47.757812 148.585938 48.136719 148.257812 C 48.515625 147.925781 48.953125 147.667969 49.449219 147.492188 C 49.945312 147.3125 50.460938 147.222656 51 147.222656 Z M 51 147.222656 " fill-opacity="1" fill-rule="evenodd"/><path fill="#105286" d="M 71.230469 153.707031 C 71.230469 154.011719 71.171875 154.304688 71.054688 154.585938 C 70.9375 154.871094 70.769531 155.117188 70.554688 155.335938 C 70.339844 155.550781 70.089844 155.71875 69.808594 155.835938 C 69.523438 155.953125 69.230469 156.007812 68.925781 156.007812 C 68.621094 156.007812 68.324219 155.953125 68.042969 155.835938 C 67.761719 155.71875 67.511719 155.550781 67.296875 155.335938 C 67.078125 155.117188 66.914062 154.871094 66.796875 154.585938 C 66.679688 154.304688 66.621094 154.011719 66.621094 153.707031 C 66.621094 153.402344 66.679688 153.105469 66.796875 152.824219 C 66.914062 152.542969 67.078125 152.292969 67.296875 152.078125 C 67.511719 151.859375 67.761719 151.695312 68.042969 151.578125 C 68.324219 151.460938 68.621094 151.402344 68.925781 151.402344 C 69.230469 151.402344 69.523438 151.460938 69.808594 151.578125 C 70.089844 151.695312 70.339844 151.859375 70.554688 152.078125 C 70.769531 152.292969 70.9375 152.542969 71.054688 152.824219 C 71.171875 153.105469 71.230469 153.402344 71.230469 153.707031 Z M 71.230469 153.707031 " fill-opacity="1" fill-rule="nonzero"/><path fill="#105286" d="M 78.296875 153.707031 C 78.296875 154.011719 78.238281 154.304688 78.121094 154.585938 C 78.003906 154.871094 77.839844 155.117188 77.621094 155.335938 C 77.40625 155.550781 77.15625 155.71875 76.875 155.835938 C 76.59375 155.953125 76.300781 156.007812 75.992188 156.007812 C 75.6875 156.007812 75.394531 155.953125 75.113281 155.835938 C 74.828125 155.71875 74.582031 155.550781 74.363281 155.335938 C 74.148438 155.117188 73.980469 154.871094 73.863281 154.585938 C 73.746094 154.304688 73.6875 154.011719 73.6875 153.707031 C 73.6875 153.402344 73.746094 153.105469 73.863281 152.824219 C 73.980469 152.542969 74.148438 152.292969 74.363281 152.078125 C 74.582031 151.859375 74.828125 151.695312 75.113281 151.578125 C 75.394531 151.460938 75.6875 151.402344 75.992188 151.402344 C 76.300781 151.402344 76.59375 151.460938 76.875 151.578125 C 77.15625 151.695312 77.40625 151.859375 77.621094 152.078125 C 77.839844 152.292969 78.003906 152.542969 78.121094 152.824219 C 78.238281 153.105469 78.296875 153.402344 78.296875 153.707031 Z M 78.296875 153.707031 " fill-opacity="1" fill-rule="nonzero"/><path fill="#105286" d="M 64.152344 153.707031 C 64.152344 154.011719 64.09375 154.304688 63.976562 154.585938 C 63.859375 154.871094 63.695312 155.117188 63.480469 155.335938 C 63.261719 155.550781 63.011719 155.71875 62.730469 155.835938 C 62.449219 155.953125 62.15625 156.007812 61.847656 156.007812 C 61.542969 156.007812 61.25 155.953125 60.96875 155.835938 C 60.6875 155.71875 60.4375 155.550781 60.21875 155.335938 C 60.003906 155.117188 59.835938 154.871094 59.722656 154.585938 C 59.605469 154.304688 59.546875 154.011719 59.546875 153.707031 C 59.546875 153.402344 59.605469 153.105469 59.722656 152.824219 C 59.835938 152.542969 60.003906 152.292969 60.21875 152.078125 C 60.4375 151.859375 60.6875 151.695312 60.96875 151.578125 C 61.25 151.460938 61.542969 151.402344 61.847656 151.402344 C 62.15625 151.402344 62.449219 151.460938 62.730469 151.578125 C 63.011719 151.695312 63.261719 151.859375 63.480469 152.078125 C 63.695312 152.292969 63.859375 152.542969 63.976562 152.824219 C 64.09375 153.105469 64.152344 153.402344 64.152344 153.707031 Z M 64.152344 153.707031 " fill-opacity="1" fill-rule="nonzero"/><g clip-path="url(#807e4f7464)"><path stroke-linecap="butt" transform="matrix(0.00711102, 0, 0, 0.00711036, 39.506688, 40.793493)" fill="none" stroke-linejoin="miter" d="M 1064.74704 17484.876334 L 5768.054521 17484.876334 C 5816.94431 17484.876334 5865.284774 17490.370081 5913.075915 17501.906951 C 5960.867057 17512.894446 6007.010227 17529.375688 6052.604075 17551.350678 C 6097.648599 17573.325668 6140.495829 17600.794406 6180.596441 17632.658141 C 6221.246378 17664.521876 6259.149697 17700.78061 6293.207751 17741.434341 C 6327.815129 17782.088072 6358.577243 17826.038052 6386.043416 17873.833655 C 6412.960266 17921.629259 6436.031851 17972.171735 6454.708849 18024.911711 C 6473.385847 18078.201062 6487.118933 18133.138537 6496.457432 18189.174761 C 6506.345254 18245.76036 6510.739842 18302.345959 6510.739842 18360.030308 L 6510.739842 19820.268388 C 6510.739842 19877.403362 6506.345254 19934.538336 6496.457432 19990.57456 C 6487.118933 20047.160159 6473.385847 20101.548259 6454.708849 20154.83761 C 6436.031851 20208.12696 6412.960266 20258.120062 6386.043416 20305.915665 C 6358.577243 20353.711269 6327.815129 20398.210623 6293.207751 20438.864355 C 6259.149697 20479.518086 6221.246378 20515.776819 6180.596441 20547.640555 C 6140.495829 20579.50429 6097.648599 20606.423653 6052.604075 20628.398643 C 6007.010227 20650.373633 5960.867057 20666.854875 5913.075915 20678.391745 C 5865.284774 20689.37924 5816.94431 20694.872987 5768.054521 20694.872987 L 1064.74704 20694.872987 C 1016.406575 20694.872987 968.066111 20689.37924 920.274969 20678.391745 C 871.934505 20666.854875 825.791334 20650.373633 780.74681 20628.398643 C 735.702286 20606.423653 692.855056 20579.50429 652.20512 20547.640555 C 611.555184 20515.776819 574.201188 20479.518086 539.59381 20438.864355 C 504.986432 20398.210623 474.224318 20353.711269 447.307469 20305.915665 C 419.841296 20258.120062 397.319034 20208.12696 378.642036 20154.83761 C 359.965038 20101.548259 345.682628 20047.160159 336.344129 19990.57456 C 327.00563 19934.538336 322.061719 19877.403362 322.061719 19820.268388 L 322.061719 18360.030308 C 322.061719 18302.345959 327.00563 18245.76036 336.344129 18189.174761 C 345.682628 18133.138537 359.965038 18078.201062 378.642036 18024.911711 C 397.319034 17972.171735 419.841296 17921.629259 447.307469 17873.833655 C 474.224318 17826.038052 504.986432 17782.088072 539.59381 17741.434341 C 574.201188 17700.78061 611.555184 17664.521876 652.20512 17632.658141 C 692.855056 17600.794406 735.702286 17573.325668 780.74681 17551.350678 C 825.791334 17529.375688 871.934505 17512.894446 920.274969 17501.906951 C 968.066111 17490.370081 1016.406575 17484.876334 1064.74704 17484.876334 Z M 1064.74704 17484.876334 " stroke="#001850" stroke-width="644.211" stroke-opacity="1" stroke-miterlimit="4"/></g><path fill="#00a3e0" d="M 51 170.050781 L 76.613281 170.050781 C 77.148438 170.050781 77.664062 170.140625 78.160156 170.320312 C 78.65625 170.5 79.09375 170.757812 79.472656 171.085938 C 79.851562 171.417969 80.144531 171.800781 80.351562 172.234375 C 80.554688 172.667969 80.65625 173.117188 80.65625 173.585938 L 80.65625 179.488281 C 80.65625 179.957031 80.554688 180.40625 80.351562 180.839844 C 80.144531 181.273438 79.851562 181.65625 79.472656 181.988281 C 79.09375 182.316406 78.65625 182.574219 78.160156 182.753906 C 77.664062 182.933594 77.148438 183.023438 76.613281 183.023438 L 51 183.023438 C 50.460938 183.023438 49.945312 182.933594 49.449219 182.753906 C 48.953125 182.574219 48.515625 182.316406 48.136719 181.988281 C 47.757812 181.65625 47.464844 181.273438 47.261719 180.839844 C 47.054688 180.40625 46.953125 179.957031 46.953125 179.488281 L 46.953125 173.585938 C 46.953125 173.117188 47.054688 172.667969 47.261719 172.234375 C 47.464844 171.800781 47.757812 171.417969 48.136719 171.085938 C 48.515625 170.757812 48.953125 170.5 49.449219 170.320312 C 49.945312 170.140625 50.460938 170.050781 51 170.050781 Z M 51 170.050781 " fill-opacity="1" fill-rule="evenodd"/><path fill="#105286" d="M 71.230469 176.539062 C 71.230469 176.84375 71.171875 177.136719 71.054688 177.417969 C 70.9375 177.699219 70.769531 177.949219 70.554688 178.167969 C 70.339844 178.382812 70.089844 178.546875 69.808594 178.664062 C 69.523438 178.78125 69.230469 178.839844 68.925781 178.839844 C 68.621094 178.839844 68.324219 178.78125 68.042969 178.664062 C 67.761719 178.546875 67.511719 178.382812 67.296875 178.167969 C 67.078125 177.949219 66.914062 177.699219 66.796875 177.417969 C 66.679688 177.136719 66.621094 176.84375 66.621094 176.539062 C 66.621094 176.230469 66.679688 175.9375 66.796875 175.65625 C 66.914062 175.375 67.078125 175.125 67.296875 174.910156 C 67.511719 174.691406 67.761719 174.527344 68.042969 174.410156 C 68.324219 174.292969 68.621094 174.234375 68.925781 174.234375 C 69.230469 174.234375 69.523438 174.292969 69.808594 174.410156 C 70.089844 174.527344 70.339844 174.691406 70.554688 174.910156 C 70.769531 175.125 70.9375 175.375 71.054688 175.65625 C 71.171875 175.9375 71.230469 176.230469 71.230469 176.539062 Z M 71.230469 176.539062 " fill-opacity="1" fill-rule="nonzero"/><path fill="#105286" d="M 78.296875 176.539062 C 78.296875 176.84375 78.238281 177.136719 78.121094 177.417969 C 78.003906 177.699219 77.839844 177.949219 77.621094 178.167969 C 77.40625 178.382812 77.15625 178.546875 76.875 178.664062 C 76.59375 178.78125 76.300781 178.839844 75.992188 178.839844 C 75.6875 178.839844 75.394531 178.78125 75.113281 178.664062 C 74.828125 178.546875 74.582031 178.382812 74.363281 178.167969 C 74.148438 177.949219 73.980469 177.699219 73.863281 177.417969 C 73.746094 177.136719 73.6875 176.84375 73.6875 176.539062 C 73.6875 176.230469 73.746094 175.9375 73.863281 175.65625 C 73.980469 175.375 74.148438 175.125 74.363281 174.910156 C 74.582031 174.691406 74.828125 174.527344 75.113281 174.410156 C 75.394531 174.292969 75.6875 174.234375 75.992188 174.234375 C 76.300781 174.234375 76.59375 174.292969 76.875 174.410156 C 77.15625 174.527344 77.40625 174.691406 77.621094 174.910156 C 77.839844 175.125 78.003906 175.375 78.121094 175.65625 C 78.238281 175.9375 78.296875 176.230469 78.296875 176.539062 Z M 78.296875 176.539062 " fill-opacity="1" fill-rule="nonzero"/><path fill="#105286" d="M 64.152344 176.539062 C 64.152344 176.84375 64.09375 177.136719 63.976562 177.417969 C 63.859375 177.699219 63.695312 177.949219 63.480469 178.167969 C 63.261719 178.382812 63.011719 178.546875 62.730469 178.664062 C 62.449219 178.78125 62.15625 178.839844 61.847656 178.839844 C 61.542969 178.839844 61.25 178.78125 60.96875 178.664062 C 60.6875 178.546875 60.4375 178.382812 60.21875 178.167969 C 60.003906 177.949219 59.835938 177.699219 59.722656 177.417969 C 59.605469 177.136719 59.546875 176.84375 59.546875 176.539062 C 59.546875 176.230469 59.605469 175.9375 59.722656 175.65625 C 59.835938 175.375 60.003906 175.125 60.21875 174.910156 C 60.4375 174.691406 60.6875 174.527344 60.96875 174.410156 C 61.25 174.292969 61.542969 174.234375 61.847656 174.234375 C 62.15625 174.234375 62.449219 174.292969 62.730469 174.410156 C 63.011719 174.527344 63.261719 174.691406 63.480469 174.910156 C 63.695312 175.125 63.859375 175.375 63.976562 175.65625 C 64.09375 175.9375 64.152344 176.230469 64.152344 176.539062 Z M 64.152344 176.539062 " fill-opacity="1" fill-rule="nonzero"/><path stroke-linecap="butt" transform="matrix(0.00711102, 0, 0, 0.00711036, 39.506688, 40.793493)" fill="none" stroke-linejoin="miter" d="M 33459.999564 4815.195892 L 35312.867601 4815.195892 C 35556.767218 4815.195892 35756.171635 5014.069551 35756.171635 5257.991939 L 35756.171635 7313.202872 C 35756.171635 7557.12526 35556.767218 7755.998919 35312.867601 7755.998919 L 31847.735203 7755.998919 C 31603.835586 7755.998919 31404.980493 7557.12526 31404.980493 7313.202872 C 31404.980493 6293.013964 31404.980493 5272.825057 31404.980493 4253.185525 C 31404.980493 4131.22433 31504.957363 4031.787501 31625.808524 4031.787501 L 33238.072885 4031.787501 C 33360.022694 4031.787501 33459.999564 4131.22433 33459.999564 4253.185525 Z M 33459.999564 4815.195892 " stroke="#001850" stroke-width="644.211" stroke-opacity="1" stroke-miterlimit="4"/><g clip-path="url(#09d0bb891b)"><path stroke-linecap="butt" transform="matrix(0.0119015, 0.00687074, -0.00687138, 0.0119004, 117.781946, 103.795788)" fill="none" stroke-linejoin="miter" d="M 935.999317 -0.0194564 C 935.993228 61.365976 930.096792 122.213276 918.06385 182.664567 C 905.888773 242.869674 888.135426 301.371734 864.803808 358.170747 C 841.226031 415.111883 812.486085 468.796751 778.375921 520.001962 C 744.123621 570.96099 705.201474 618.379508 661.713505 661.86921 C 618.471697 705.21679 571.014253 744.105128 520.079654 778.107859 C 468.898895 812.252711 414.979462 841.085591 358.075195 864.748621 C 301.417089 888.269529 242.758791 906.052099 182.734756 918.058272 C 122.322425 929.960383 61.424975 935.905915 0.0424037 935.894868 C -61.586328 936.025943 -122.185107 929.982196 -182.634552 917.943811 C -242.941861 906.151609 -301.442628 888.392709 -358.136852 864.667112 C -414.935102 841.329819 -469.008084 812.480136 -519.967503 778.222124 C -571.173082 744.106234 -618.450397 705.424626 -661.941584 661.931117 C -705.432771 618.437609 -744.180994 571.220994 -778.328388 520.035091 C -812.475782 468.849188 -841.311673 414.924912 -864.83606 358.262265 C -888.114287 301.457495 -906.146926 242.937147 -918.053361 182.521039 C -930.063822 122.493236 -936.013995 61.592466 -936.150041 -0.0391497 C -936.143952 -61.424582 -930.001356 -122.414004 -918.072439 -182.476989 C -906.039496 -242.92828 -888.286149 -301.43034 -864.708372 -358.371475 C -841.234619 -414.924305 -812.390648 -468.997479 -778.138349 -519.956507 C -744.028184 -571.161718 -705.352198 -618.438114 -661.864229 -661.927816 C -618.37626 -705.417518 -571.164976 -744.163734 -519.984217 -778.308587 C -468.803458 -812.453439 -414.884025 -841.286319 -358.225919 -864.807227 C -301.567813 -888.328135 -242.909514 -906.110705 -182.497184 -918.012816 C -122.473149 -930.018989 -61.575698 -935.964521 0.0530332 -936.095596 C 61.435604 -936.084549 122.422679 -929.936741 182.483828 -918.002417 C 242.933272 -905.964031 301.434039 -888.205132 358.232289 -864.867839 C 414.926514 -841.142242 468.999496 -812.292559 520.06294 -778.422852 C 571.022358 -744.16484 618.441809 -705.237049 661.932995 -661.74354 C 705.282047 -618.496215 744.172405 -571.033417 778.177665 -520.093697 C 812.325059 -468.907794 841.160949 -414.983518 864.827471 -358.074687 C 888.351859 -301.41204 905.996202 -242.995754 917.902638 -182.579645 C 930.055233 -122.305659 936.005407 -61.404888 935.999317 -0.0194564 Z M 935.999317 -0.0194564 " stroke="#001850" stroke-width="644.211" stroke-opacity="1" stroke-miterlimit="4"/></g><path stroke-linecap="butt" transform="matrix(0.00711102, 0, 0, 0.00711036, 39.506688, 40.793493)" fill="none" stroke-linejoin="miter" d="M 10103.864607 10424.861445 L 8632.776376 12972.861527 " stroke="#001850" stroke-width="644.211" stroke-opacity="1" stroke-miterlimit="4"/><path fill="#53b4ed" d="M 124.347656 107.585938 C 124.101562 108.019531 123.8125 108.421875 123.484375 108.792969 C 123.15625 109.167969 122.792969 109.507812 122.398438 109.8125 C 122.003906 110.113281 121.582031 110.375 121.136719 110.59375 C 120.6875 110.816406 120.226562 110.992188 119.746094 111.121094 C 119.261719 111.25 118.773438 111.328125 118.277344 111.363281 C 117.78125 111.394531 117.285156 111.378906 116.792969 111.3125 C 116.296875 111.246094 115.816406 111.136719 115.34375 110.976562 C 114.875 110.816406 114.421875 110.609375 113.992188 110.363281 C 113.558594 110.113281 113.15625 109.824219 112.78125 109.496094 C 112.40625 109.167969 112.070312 108.804688 111.765625 108.410156 C 111.464844 108.015625 111.203125 107.59375 110.980469 107.148438 C 110.761719 106.703125 110.585938 106.238281 110.457031 105.757812 C 110.328125 105.277344 110.25 104.789062 110.214844 104.292969 C 110.183594 103.792969 110.199219 103.300781 110.265625 102.804688 C 110.328125 102.3125 110.441406 101.832031 110.601562 101.359375 C 110.761719 100.886719 110.964844 100.4375 111.214844 100.003906 C 111.464844 99.574219 111.753906 99.171875 112.082031 98.796875 C 112.410156 98.421875 112.769531 98.082031 113.164062 97.78125 C 113.5625 97.476562 113.980469 97.214844 114.429688 96.996094 C 114.875 96.777344 115.339844 96.601562 115.820312 96.472656 C 116.300781 96.34375 116.789062 96.261719 117.285156 96.230469 C 117.78125 96.199219 118.277344 96.214844 118.773438 96.277344 C 119.265625 96.34375 119.746094 96.457031 120.21875 96.617188 C 120.691406 96.777344 121.140625 96.980469 121.574219 97.230469 C 122.003906 97.480469 122.40625 97.765625 122.78125 98.09375 C 123.15625 98.421875 123.496094 98.785156 123.796875 99.179688 C 124.101562 99.574219 124.363281 99.996094 124.582031 100.441406 C 124.800781 100.890625 124.976562 101.351562 125.105469 101.832031 C 125.234375 102.3125 125.316406 102.804688 125.347656 103.300781 C 125.378906 103.796875 125.363281 104.292969 125.300781 104.785156 C 125.234375 105.277344 125.121094 105.761719 124.960938 106.234375 C 124.800781 106.703125 124.597656 107.15625 124.347656 107.585938 Z M 124.347656 107.585938 " fill-opacity="1" fill-rule="nonzero"/><g clip-path="url(#94f9fdc7cd)"><path stroke-linecap="butt" transform="matrix(0.00711102, 0, 0, 0.00711036, 39.506688, 40.793493)" fill="none" stroke-linejoin="miter" d="M 26661.023075 2708.893107 C 26661.023075 2781.410574 26647.289988 2850.631792 26619.823815 2917.106137 C 26591.808319 2983.580482 26552.806353 3042.912954 26501.719271 3093.455431 C 26450.632189 3144.547283 26391.854578 3184.102265 26325.386439 3211.571002 C 26258.368977 3239.039739 26189.154221 3252.774108 26117.192847 3252.774108 C 26044.68215 3252.774108 25975.467394 3239.039739 25908.999255 3211.571002 C 25841.981793 3184.102265 25783.204183 3144.547283 25732.117101 3093.455431 C 25681.579342 3042.912954 25642.028053 2983.580482 25614.56188 2917.106137 C 25586.546383 2850.631792 25572.813297 2781.410574 25572.813297 2708.893107 C 25572.813297 2636.925015 25586.546383 2567.703797 25614.56188 2500.680078 C 25642.028053 2434.205733 25681.579342 2375.422635 25732.117101 2324.330784 C 25783.204183 2273.238932 25841.981793 2234.233325 25908.999255 2206.215213 C 25975.467394 2178.746476 26044.68215 2165.012107 26117.192847 2165.012107 C 26189.154221 2165.012107 26258.368977 2178.746476 26325.386439 2206.215213 C 26391.854578 2234.233325 26450.632189 2273.238932 26501.719271 2324.330784 C 26552.806353 2375.422635 26591.808319 2434.205733 26619.823815 2500.680078 C 26647.289988 2567.703797 26661.023075 2636.925015 26661.023075 2708.893107 Z M 26661.023075 2708.893107 " stroke="#001850" stroke-width="644.211" stroke-opacity="1" stroke-miterlimit="4"/></g><path stroke-linecap="butt" transform="matrix(0.00711102, 0, 0, 0.00711036, 39.506688, 40.793493)" fill="none" stroke-linejoin="miter" d="M 3416.950104 20695.971737 L 3416.950104 22429.798442 " stroke="#001850" stroke-width="644.211" stroke-opacity="1" stroke-miterlimit="4"/><path stroke-linecap="butt" transform="matrix(0.00711102, 0, 0, 0.00711036, 39.506688, 40.793493)" fill="none" stroke-linejoin="miter" d="M 515.972901 22429.798442 L 6316.82866 22429.798442 " stroke="#001850" stroke-width="644.211" stroke-opacity="1" stroke-miterlimit="4"/></svg>