<svg xmlns="http://www.w3.org/2000/svg" xmlns:xlink="http://www.w3.org/1999/xlink" width="500" zoomAndPan="magnify" viewBox="0 0 375 374.999991" height="500" preserveAspectRatio="xMidYMid meet" version="1.0"><defs><clipPath id="5d736d637f"><path d="M 64.28125 67.515625 L 179 67.515625 L 179 219 L 64.28125 219 Z M 64.28125 67.515625 " clip-rule="nonzero"/></clipPath><clipPath id="c96081546c"><path d="M 71 260 L 144 260 L 144 307.515625 L 71 307.515625 Z M 71 260 " clip-rule="nonzero"/></clipPath><clipPath id="e3c544415b"><path d="M 64.28125 67.515625 L 177 67.515625 L 177 219 L 64.28125 219 Z M 64.28125 67.515625 " clip-rule="nonzero"/></clipPath><clipPath id="d47ec7725f"><path d="M 113 295 L 115 295 L 115 307.515625 L 113 307.515625 Z M 113 295 " clip-rule="nonzero"/></clipPath><clipPath id="cc901ea24a"><path d="M 100 295 L 102 295 L 102 307.515625 L 100 307.515625 Z M 100 295 " clip-rule="nonzero"/></clipPath><clipPath id="aaccfbcd42"><path d="M 101 301 L 114 301 L 114 307.515625 L 101 307.515625 Z M 101 301 " clip-rule="nonzero"/></clipPath></defs><path fill="#e4e8f4" d="M 236.671875 100.808594 C 236.710938 100.613281 236.789062 100.40625 236.789062 100.191406 L 236.5 160.1875 C 236.5 161.664062 235.539062 163.125 233.621094 164.253906 C 229.742188 166.5 223.40625 166.5 219.507812 164.253906 C 217.546875 163.125 216.570312 161.648438 216.570312 160.152344 L 216.855469 100.15625 C 216.855469 98.679688 217.816406 97.203125 219.757812 96.089844 C 223.617188 93.824219 229.953125 93.824219 233.851562 96.089844 C 236.078125 97.375 237 99.136719 236.671875 100.808594 Z M 236.671875 100.808594 " fill-opacity="1" fill-rule="nonzero"/><path fill="#e4e8f4" d="M 261.117188 114.90625 C 261.15625 114.695312 261.214844 114.484375 261.214844 114.269531 L 260.945312 174.285156 C 260.945312 175.742188 259.964844 177.222656 258.046875 178.332031 C 254.167969 180.578125 247.847656 180.597656 243.949219 178.351562 C 241.972656 177.222656 240.992188 175.726562 240.992188 174.230469 L 241.28125 114.234375 C 241.28125 112.757812 242.242188 111.296875 244.183594 110.167969 C 248.058594 107.921875 254.378906 107.921875 258.292969 110.1875 C 260.523438 111.472656 261.445312 113.214844 261.117188 114.90625 Z M 261.117188 114.90625 " fill-opacity="1" fill-rule="nonzero"/><path fill="#e4e8f4" d="M 285.65625 128.371094 L 285.371094 188.363281 C 285.371094 189.839844 284.410156 191.300781 282.46875 192.429688 C 278.589844 194.675781 272.273438 194.695312 268.375 192.429688 C 266.417969 191.300781 265.4375 189.824219 265.4375 188.347656 L 265.707031 128.332031 C 265.707031 128.332031 265.726562 128.332031 265.726562 128.351562 C 265.726562 126.875 266.6875 125.398438 268.625 124.265625 C 272.503906 122.019531 278.804688 122.019531 282.71875 124.265625 C 284.949219 125.550781 285.851562 127.296875 285.542969 128.964844 C 285.582031 128.753906 285.65625 128.5625 285.65625 128.371094 Z M 285.65625 128.371094 " fill-opacity="1" fill-rule="nonzero"/><path fill="#e4e8f4" d="M 310.082031 142.464844 L 309.8125 202.460938 C 309.8125 203.9375 308.835938 205.398438 306.914062 206.527344 C 303.035156 208.773438 296.699219 208.773438 292.800781 206.527344 C 290.84375 205.398438 289.863281 203.902344 289.863281 202.425781 L 290.152344 142.429688 C 290.152344 140.953125 291.113281 139.476562 293.050781 138.363281 C 296.929688 136.097656 303.226562 136.097656 307.144531 138.363281 C 309.390625 139.648438 310.3125 141.394531 309.988281 143.082031 C 310.027344 142.886719 310.082031 142.679688 310.082031 142.464844 Z M 310.082031 142.464844 " fill-opacity="1" fill-rule="nonzero"/><path fill="#e4e8f4" d="M 281.269531 236.96875 L 228.222656 206.457031 C 227.8125 203.625 226.015625 200.242188 222.890625 196.539062 C 221.671875 195.09375 220.28125 193.640625 218.753906 192.191406 C 220.28125 190.742188 221.671875 189.289062 222.890625 187.84375 C 227.828125 181.992188 229.476562 176.925781 227.523438 173.582031 C 225.039062 169.324219 217.1875 168.980469 207.1875 171.984375 C 204.75 161.84375 200.5 155.238281 195.5625 155.238281 C 190.625 155.238281 186.375 161.84375 183.9375 171.984375 C 173.9375 168.984375 166.089844 169.324219 163.601562 173.582031 C 161.097656 177.875 164.742188 184.929688 172.386719 192.191406 C 167.039062 197.269531 163.652344 202.242188 162.960938 206.246094 L 109.847656 237.15625 C 109.035156 237.628906 108.625 238.246094 108.617188 238.863281 C 108.617188 238.835938 108.613281 238.816406 108.613281 238.789062 L 108.613281 238.886719 C 108.613281 238.886719 108.613281 238.890625 108.613281 238.890625 L 108.597656 245.628906 C 108.597656 246.25 109.007812 246.882812 109.847656 247.371094 L 192.84375 295.226562 C 194.492188 296.175781 197.171875 296.175781 198.820312 295.226562 L 281.261719 247.371094 C 282.085938 246.898438 282.496094 246.265625 282.496094 245.648438 L 282.511719 238.703125 C 282.511719 238.707031 282.507812 238.707031 282.507812 238.710938 C 282.511719 238.078125 282.097656 237.445312 281.269531 236.96875 Z M 189.570312 181.917969 C 191.605469 180.734375 193.597656 179.675781 195.546875 178.710938 C 197.507812 179.683594 199.503906 180.726562 201.554688 181.917969 C 203.523438 183.066406 205.417969 184.261719 207.234375 185.488281 C 207.378906 187.636719 207.464844 189.863281 207.464844 192.191406 C 207.464844 192.976562 207.4375 193.730469 207.421875 194.492188 L 198.214844 189.195312 C 196.554688 188.242188 193.878906 188.25 192.234375 189.210938 L 183.695312 194.175781 C 183.683594 193.515625 183.660156 192.867188 183.660156 192.191406 C 183.660156 189.863281 183.746094 187.636719 183.890625 185.492188 C 185.675781 184.289062 187.558594 183.089844 189.570312 181.917969 Z M 184.089844 183.066406 C 184.378906 179.957031 184.800781 177.058594 185.34375 174.425781 C 187.878906 175.277344 190.574219 176.355469 193.390625 177.660156 C 191.804688 178.472656 190.210938 179.328125 188.601562 180.261719 C 187.035156 181.175781 185.542969 182.113281 184.089844 183.066406 Z M 197.742188 177.664062 C 200.554688 176.359375 203.25 175.273438 205.78125 174.425781 C 206.328125 177.058594 206.75 179.957031 207.039062 183.066406 C 205.574219 182.109375 204.078125 181.167969 202.523438 180.261719 C 200.917969 179.328125 199.324219 178.476562 197.742188 177.664062 Z M 209.324219 195.585938 C 209.359375 194.46875 209.386719 193.339844 209.386719 192.191406 C 209.386719 190.382812 209.324219 188.621094 209.234375 186.890625 C 211.648438 188.617188 213.886719 190.390625 215.90625 192.191406 C 214.308594 193.609375 212.582031 195.019531 210.738281 196.398438 Z M 181.796875 195.28125 L 180.152344 196.238281 C 178.347656 194.886719 176.691406 193.53125 175.1875 192.191406 C 177.15625 190.4375 179.410156 188.65625 181.894531 186.882812 C 181.804688 188.617188 181.742188 190.378906 181.742188 192.191406 C 181.742188 193.234375 181.765625 194.261719 181.796875 195.28125 Z M 221.421875 197.773438 C 223.714844 200.492188 225.222656 202.996094 225.929688 205.136719 L 212.539062 197.4375 C 214.238281 196.136719 215.84375 194.820312 217.332031 193.488281 C 218.84375 194.917969 220.222656 196.351562 221.421875 197.773438 Z M 225.867188 174.550781 C 227.355469 177.101562 225.734375 181.496094 221.421875 186.609375 C 220.222656 188.03125 218.84375 189.464844 217.332031 190.894531 C 214.871094 188.695312 212.105469 186.519531 209.089844 184.4375 C 208.796875 180.644531 208.289062 177.09375 207.609375 173.847656 C 217.089844 170.976562 224.015625 171.378906 225.867188 174.550781 Z M 195.5625 157.15625 C 199.238281 157.15625 203.070312 162.933594 205.363281 172.558594 C 202.246094 173.59375 198.953125 174.929688 195.5625 176.566406 C 192.171875 174.929688 188.878906 173.597656 185.761719 172.5625 C 188.054688 162.933594 191.886719 157.15625 195.5625 157.15625 Z M 165.261719 174.550781 C 166.273438 172.816406 168.796875 171.90625 172.429688 171.90625 C 175.433594 171.90625 179.226562 172.566406 183.515625 173.863281 C 182.835938 177.101562 182.328125 180.644531 182.039062 184.425781 C 178.972656 186.542969 176.210938 188.71875 173.785156 190.890625 C 166.515625 184.015625 163.398438 177.742188 165.261719 174.550781 Z M 173.785156 193.492188 C 175.199219 194.757812 176.738281 196.019531 178.371094 197.273438 L 165.28125 204.894531 C 166.417969 201.703125 169.328125 197.710938 173.785156 193.492188 Z M 108.832031 239.628906 C 108.675781 239.429688 108.625 239.210938 108.621094 238.933594 C 108.628906 239.167969 108.707031 239.402344 108.832031 239.628906 Z M 108.832031 239.628906 " fill-opacity="1" fill-rule="nonzero"/><g clip-path="url(#5d736d637f)"><path fill="#e4e8f4" d="M 178.144531 152.054688 C 178.164062 155.816406 175.535156 160.363281 172.269531 162.242188 L 139.492188 181.152344 C 144.90625 180.75 149.457031 181.25 151.859375 182.628906 C 153.644531 183.683594 154.316406 185.238281 153.988281 187.136719 C 154.046875 186.832031 154.085938 186.523438 154.085938 186.234375 L 154.085938 190.703125 C 154.105469 194.945312 148.304688 199.546875 138.648438 205.128906 C 125.550781 212.683594 110.34375 216.078125 104.527344 212.703125 C 102.683594 211.628906 101.722656 209.828125 101.722656 207.601562 L 101.722656 204.898438 C 101.722656 204.226562 101.816406 203.515625 101.972656 202.789062 L 75.894531 217.824219 C 74.050781 218.878906 72.4375 218.84375 71.34375 217.980469 C 71.441406 218.09375 71.535156 218.191406 71.691406 218.285156 L 69.941406 217.269531 L 66.238281 215.179688 C 65.140625 214.507812 64.507812 213.183594 64.507812 211.34375 L 64.46875 204.667969 L 64.296875 134.449219 C 64.296875 130.726562 66.964844 126.164062 70.171875 124.265625 L 166.683594 68.640625 C 168.316406 67.722656 169.792969 67.585938 170.847656 68.21875 L 176.320312 71.402344 L 176.339844 71.402344 L 176.359375 71.421875 C 177.417969 72.019531 178.070312 73.320312 178.070312 75.164062 L 178.125 145.363281 Z M 178.144531 152.054688 " fill-opacity="1" fill-rule="nonzero"/></g><path fill="#e4e8f4" d="M 211.214844 168.761719 C 212.992188 168.761719 214.464844 167.3125 214.464844 165.515625 C 214.464844 164.535156 214.035156 163.660156 213.339844 163.066406 C 212.765625 162.578125 212.03125 162.269531 211.214844 162.269531 C 209.414062 162.269531 207.945312 163.71875 207.945312 165.515625 C 207.945312 165.925781 208.023438 166.3125 208.167969 166.660156 C 208.617188 167.882812 209.824219 168.761719 211.214844 168.761719 Z M 211.214844 168.761719 " fill-opacity="1" fill-rule="nonzero"/><path fill="#e4e8f4" d="M 164.640625 195.972656 C 166.417969 195.972656 167.890625 194.523438 167.890625 192.726562 C 167.890625 191.75 167.460938 190.871094 166.765625 190.277344 C 166.195312 189.789062 165.457031 189.480469 164.640625 189.480469 C 162.84375 189.480469 161.371094 190.933594 161.371094 192.726562 C 161.371094 193.136719 161.453125 193.523438 161.59375 193.871094 C 162.042969 195.097656 163.25 195.972656 164.640625 195.972656 Z M 164.640625 195.972656 " fill-opacity="1" fill-rule="nonzero"/><g clip-path="url(#c96081546c)"><path fill="#e4e8f4" d="M 143.0625 284.765625 L 143.027344 277.839844 L 136.726562 277.417969 L 136.746094 277.378906 L 136.785156 269.171875 L 128.335938 264.300781 L 121.058594 267.636719 C 119.042969 266.945312 116.796875 266.429688 114.511719 266.140625 L 113.320312 260.714844 L 101.414062 260.730469 L 100.28125 266.429688 C 98.265625 266.773438 96.382812 267.273438 94.578125 267.945312 L 86.476562 264.300781 L 78.085938 269.171875 L 78.066406 277.378906 L 78.085938 277.398438 L 71.976562 277.820312 L 71.941406 286.050781 L 71.976562 290.34375 L 81.425781 291.035156 L 78.21875 293.394531 L 78.199219 299.035156 L 86.648438 303.90625 L 96.019531 299.648438 C 97.34375 300.070312 98.765625 300.453125 100.207031 300.683594 L 101.683594 307.472656 L 113.589844 307.492188 L 114.875 301.011719 C 116.585938 300.796875 118.21875 300.453125 119.847656 299.992188 L 128.507812 303.90625 L 136.882812 299.035156 L 136.917969 293.394531 L 133.695312 291.015625 L 143.046875 290.402344 Z M 118.464844 287.601562 C 112.457031 291.09375 102.644531 291.09375 96.59375 287.601562 C 95.15625 286.777344 94.058594 285.820312 93.3125 284.785156 C 94.058594 283.785156 95.117188 282.847656 96.539062 282.023438 C 102.546875 278.53125 112.320312 278.511719 118.371094 282.003906 C 119.828125 282.847656 120.921875 283.804688 121.691406 284.839844 C 120.941406 285.859375 119.867188 286.796875 118.464844 287.601562 Z M 118.464844 287.601562 " fill-opacity="1" fill-rule="nonzero"/></g><path fill="#f9bb4a" d="M 236.785156 100.191406 L 236.507812 160.195312 C 236.503906 161.664062 235.539062 163.128906 233.613281 164.246094 C 229.738281 166.496094 223.402344 166.503906 219.5 164.253906 C 217.542969 163.125 216.566406 161.636719 216.570312 160.152344 L 216.847656 100.148438 C 216.84375 101.632812 217.820312 103.121094 219.78125 104.25 C 223.679688 106.5 230.015625 106.492188 233.890625 104.242188 C 235.816406 103.125 236.78125 101.660156 236.785156 100.191406 Z M 236.785156 100.191406 " fill-opacity="1" fill-rule="nonzero"/><path fill="#fed57a" d="M 233.847656 96.085938 C 237.746094 98.335938 237.769531 101.992188 233.894531 104.242188 C 230.015625 106.492188 223.679688 106.5 219.78125 104.25 C 215.878906 102 215.871094 98.335938 219.75 96.085938 C 223.625 93.835938 229.945312 93.835938 233.847656 96.085938 Z M 233.847656 96.085938 " fill-opacity="1" fill-rule="nonzero"/><path fill="#75ca75" d="M 261.222656 114.277344 L 260.941406 174.28125 C 260.9375 175.75 259.972656 177.214844 258.042969 178.335938 C 254.167969 180.585938 247.84375 180.601562 243.945312 178.351562 C 241.976562 177.214844 240.996094 175.726562 241 174.238281 L 241.277344 114.230469 C 241.273438 115.71875 242.253906 117.210938 244.222656 118.347656 C 248.125 120.59375 254.445312 120.578125 258.320312 118.328125 C 260.25 117.210938 261.21875 115.742188 261.222656 114.277344 Z M 261.222656 114.277344 " fill-opacity="1" fill-rule="nonzero"/><path fill="#9ad898" d="M 258.289062 110.179688 C 262.191406 112.429688 262.199219 116.082031 258.320312 118.328125 C 254.445312 120.578125 248.125 120.59375 244.222656 118.347656 C 240.308594 116.089844 240.300781 112.421875 244.175781 110.171875 C 248.054688 107.921875 254.375 107.921875 258.289062 110.179688 Z M 258.289062 110.179688 " fill-opacity="1" fill-rule="nonzero"/><path fill="#576cfb" d="M 285.652344 128.363281 L 285.371094 188.371094 C 285.367188 189.839844 284.402344 191.304688 282.472656 192.425781 C 278.597656 194.671875 272.277344 194.6875 268.375 192.441406 C 266.410156 191.308594 265.433594 189.820312 265.4375 188.335938 L 265.714844 128.332031 C 265.710938 129.816406 266.6875 131.300781 268.652344 132.433594 C 272.554688 134.683594 278.875 134.667969 282.75 132.417969 C 284.679688 131.296875 285.648438 129.832031 285.652344 128.363281 Z M 285.652344 128.363281 " fill-opacity="1" fill-rule="nonzero"/><path fill="#748bfd" d="M 282.71875 124.269531 C 286.621094 126.519531 286.628906 130.167969 282.75 132.417969 C 278.875 134.667969 272.554688 134.683594 268.652344 132.433594 C 264.738281 130.175781 264.746094 126.519531 268.621094 124.269531 C 272.496094 122.019531 278.804688 122.011719 282.71875 124.269531 Z M 282.71875 124.269531 " fill-opacity="1" fill-rule="nonzero"/><path fill="#fa5168" d="M 310.089844 142.464844 L 309.808594 202.46875 C 309.804688 203.9375 308.84375 205.402344 306.914062 206.519531 C 303.039062 208.769531 296.707031 208.777344 292.804688 206.527344 C 290.839844 205.394531 289.863281 203.910156 289.867188 202.425781 L 290.144531 142.421875 C 290.140625 143.902344 291.117188 145.390625 293.082031 146.523438 C 296.984375 148.773438 303.320312 148.765625 307.195312 146.515625 C 309.121094 145.398438 310.085938 143.933594 310.089844 142.464844 Z M 310.089844 142.464844 " fill-opacity="1" fill-rule="nonzero"/><path fill="#f9607f" d="M 307.148438 138.359375 C 311.050781 140.609375 311.070312 144.265625 307.195312 146.515625 C 303.320312 148.765625 296.984375 148.773438 293.082031 146.523438 C 289.167969 144.265625 289.175781 140.609375 293.050781 138.359375 C 296.925781 136.109375 303.234375 136.101562 307.148438 138.359375 Z M 307.148438 138.359375 " fill-opacity="1" fill-rule="nonzero"/><path fill="#d4dae8" d="M 282.511719 238.703125 L 282.496094 245.644531 C 282.496094 246.265625 282.082031 246.898438 281.257812 247.371094 L 198.820312 295.226562 C 197.171875 296.175781 194.492188 296.175781 192.84375 295.226562 L 109.847656 247.371094 C 109.007812 246.882812 108.597656 246.246094 108.597656 245.628906 L 108.613281 238.789062 C 108.613281 239.40625 108.65625 239.675781 109.496094 240.152344 L 192.492188 288.019531 C 194.140625 288.96875 196.820312 288.96875 198.46875 288.019531 L 280.90625 240.167969 C 281.730469 239.691406 282.511719 239.320312 282.511719 238.703125 Z M 282.511719 238.703125 " fill-opacity="1" fill-rule="nonzero"/><path fill="#e4e8f4" d="M 281.269531 236.96875 C 282.917969 237.917969 282.929688 239.46875 281.28125 240.429688 L 198.894531 288.378906 C 197.246094 289.335938 194.5625 289.339844 192.914062 288.390625 L 109.859375 240.617188 C 108.199219 239.660156 108.199219 238.117188 109.847656 237.15625 L 192.234375 189.210938 C 193.878906 188.25 196.554688 188.242188 198.214844 189.195312 Z M 281.269531 236.96875 " fill-opacity="1" fill-rule="nonzero"/><path fill="#474b59" d="M 218.222656 223.625 C 205.507812 216.273438 185.191406 216.394531 172.78125 223.625 C 165.96875 227.574219 162.929688 232.863281 163.71875 238.027344 C 164.449219 234.015625 167.488281 230.066406 172.78125 226.96875 C 185.191406 219.738281 205.507812 219.617188 218.222656 226.96875 C 223.636719 230.128906 226.679688 234.078125 227.410156 238.207031 C 228.199219 232.984375 225.15625 227.574219 218.222656 223.625 Z M 218.222656 223.625 " fill-opacity="1" fill-rule="nonzero"/><path fill="#5b5e71" d="M 227.410156 238.210938 C 227.347656 238.75 227.222656 239.304688 227.039062 239.796875 C 225.945312 243.441406 222.957031 246.960938 218.15625 249.757812 C 205.753906 256.921875 185.683594 256.921875 173.199219 249.757812 C 168.148438 246.835938 165.121094 243.316406 164.089844 239.613281 C 163.96875 239.117188 163.84375 238.644531 163.71875 238.089844 C 163.71875 238.027344 163.71875 238.027344 163.71875 238.027344 C 164.441406 234.015625 167.492188 230.0625 172.785156 226.976562 C 185.1875 219.730469 205.503906 219.609375 218.21875 226.976562 C 223.636719 230.125 226.6875 234.074219 227.410156 238.210938 Z M 227.410156 238.210938 " fill-opacity="1" fill-rule="nonzero"/><path fill="#f9607f" d="M 195.5625 229.140625 C 187.8125 229.140625 181.742188 212.910156 181.742188 192.191406 C 181.742188 171.472656 187.8125 155.238281 195.5625 155.238281 C 203.3125 155.238281 209.386719 171.472656 209.386719 192.191406 C 209.386719 212.910156 203.3125 229.140625 195.5625 229.140625 Z M 195.5625 157.15625 C 189.816406 157.15625 183.660156 171.234375 183.660156 192.191406 C 183.660156 213.148438 189.816406 227.226562 195.5625 227.226562 C 201.308594 227.226562 207.464844 213.148438 207.464844 192.191406 C 207.464844 171.234375 201.308594 157.15625 195.5625 157.15625 Z M 195.5625 157.15625 " fill-opacity="1" fill-rule="nonzero"/><path fill="#748bfd" d="M 218.6875 214.378906 C 211.136719 214.378906 200.039062 210.777344 188.601562 204.121094 C 170.679688 193.6875 159.699219 180.273438 163.605469 173.582031 C 167.503906 166.898438 184.601562 169.832031 202.523438 180.261719 C 210.933594 185.15625 218.164062 190.9375 222.890625 196.539062 C 227.828125 202.390625 229.476562 207.457031 227.523438 210.800781 C 226.113281 213.21875 222.96875 214.378906 218.6875 214.378906 Z M 172.429688 171.90625 C 168.796875 171.90625 166.273438 172.816406 165.261719 174.550781 C 162.367188 179.511719 171.445312 191.910156 189.570312 202.460938 C 207.699219 213.015625 222.972656 214.792969 225.867188 209.832031 C 227.355469 207.28125 225.734375 202.886719 221.421875 197.773438 C 216.835938 192.335938 209.777344 186.707031 201.554688 181.917969 C 189.769531 175.054688 179.183594 171.90625 172.429688 171.90625 Z M 172.429688 171.90625 " fill-opacity="1" fill-rule="nonzero"/><path fill="#68af68" d="M 172.441406 214.378906 C 168.15625 214.378906 165.015625 213.21875 163.605469 210.796875 C 159.699219 204.109375 170.679688 190.695312 188.601562 180.261719 C 206.523438 169.828125 223.621094 166.894531 227.523438 173.582031 C 229.476562 176.925781 227.828125 181.992188 222.890625 187.84375 C 218.164062 193.445312 210.933594 199.222656 202.523438 204.117188 C 191.089844 210.777344 179.992188 214.378906 172.441406 214.378906 Z M 189.570312 181.917969 C 171.445312 192.472656 162.367188 204.871094 165.261719 209.832031 C 168.15625 214.792969 183.429688 213.015625 201.554688 202.460938 C 209.777344 197.675781 216.835938 192.042969 221.421875 186.609375 C 225.734375 181.496094 227.355469 177.101562 225.867188 174.550781 C 222.972656 169.589844 207.695312 171.367188 189.570312 181.917969 Z M 189.570312 181.917969 " fill-opacity="1" fill-rule="nonzero"/><path fill="#4e5161" d="M 117.824219 186.226562 L 109.808594 181.574219 L 129.882812 170 L 137.894531 174.648438 Z M 117.824219 186.226562 " fill-opacity="1" fill-rule="nonzero"/><path fill="#3f434f" d="M 101.714844 204.824219 L 101.722656 207.605469 C 101.730469 209.820312 102.679688 211.636719 104.53125 212.707031 C 110.339844 216.082031 125.554688 212.683594 138.648438 205.128906 C 148.316406 199.554688 154.097656 194.949219 154.085938 190.695312 L 154.074219 186.238281 C 154.089844 190.492188 148.304688 196.777344 138.640625 202.351562 C 125.546875 209.902344 110.332031 213.300781 104.523438 209.929688 C 102.671875 208.855469 101.71875 207.042969 101.714844 204.824219 Z M 101.714844 204.824219 " fill-opacity="1" fill-rule="nonzero"/><path fill="#525566" d="M 114.804688 188.515625 C 101.710938 196.066406 98.761719 206.585938 104.523438 209.929688 C 110.332031 213.300781 125.546875 209.902344 138.640625 202.351562 C 151.691406 194.824219 157.660156 186.003906 151.851562 182.632812 C 146.089844 179.289062 127.855469 180.988281 114.804688 188.515625 Z M 114.804688 188.515625 " fill-opacity="1" fill-rule="nonzero"/><path fill="#bac1ce" d="M 117.902344 204.039062 L 114.144531 201.859375 L 114.0625 177.800781 L 117.824219 179.984375 Z M 117.902344 204.039062 " fill-opacity="1" fill-rule="nonzero"/><path fill="#cad0dd" d="M 137.894531 168.410156 L 137.976562 192.464844 L 117.902344 204.039062 L 117.824219 179.984375 Z M 137.894531 168.410156 " fill-opacity="1" fill-rule="nonzero"/><path fill="#eaf0f6" d="M 99.679688 196.386719 L 134.175781 176.363281 L 140.34375 180.414062 L 105.847656 200.4375 Z M 99.679688 196.386719 " fill-opacity="1" fill-rule="nonzero"/><g clip-path="url(#e3c544415b)"><path fill="#5b5e71" d="M 176.367188 71.421875 C 175.355469 70.875 173.929688 71.71875 172.324219 72.691406 L 76.558594 128.867188 C 73.304688 130.726562 72.847656 133.910156 72.847656 137.625 L 71.4375 207.636719 L 71.4375 214.347656 C 71.480469 216.203125 70.625 217.6875 71.683594 218.277344 L 69.949219 217.265625 L 66.246094 215.171875 C 65.148438 214.496094 64.511719 213.191406 64.511719 211.332031 L 64.472656 204.664062 L 64.304688 134.441406 C 64.304688 130.726562 66.964844 126.171875 70.175781 124.269531 L 166.675781 68.648438 C 168.320312 67.71875 169.800781 67.59375 170.855469 68.226562 Z M 176.367188 71.421875 " fill-opacity="1" fill-rule="nonzero"/></g><path fill="#3f434f" d="M 178.132812 145.371094 L 69.949219 207.8125 L 69.738281 137.632812 C 69.738281 133.917969 72.402344 129.359375 75.65625 127.460938 L 172.152344 71.835938 C 175.40625 69.9375 178.070312 71.457031 178.070312 75.171875 Z M 178.132812 145.371094 " fill-opacity="1" fill-rule="nonzero"/><path fill="#ffffff" d="M 174.265625 142.136719 L 73.800781 200.132812 L 73.59375 137.628906 C 73.59375 135.304688 75.53125 131.992188 77.609375 130.777344 L 174.183594 75.125 Z M 174.265625 142.136719 " fill-opacity="1" fill-rule="nonzero"/><path fill="#e4e8f4" d="M 178.132812 145.371094 L 178.152344 152.0625 C 178.160156 155.808594 175.527344 160.363281 172.265625 162.246094 L 75.894531 217.824219 C 72.613281 219.714844 69.964844 218.207031 69.953125 214.460938 L 69.933594 207.765625 Z M 178.132812 145.371094 " fill-opacity="1" fill-rule="nonzero"/><path fill="#bac1ce" d="M 126.386719 181.59375 C 126.386719 183.222656 125.242188 185.140625 123.855469 185.957031 C 122.46875 186.769531 121.324219 186.117188 121.324219 184.527344 C 121.324219 182.898438 122.425781 180.941406 123.855469 180.125 C 125.242188 179.351562 126.386719 180.003906 126.386719 181.59375 Z M 126.386719 181.59375 " fill-opacity="1" fill-rule="nonzero"/><path fill="#d83049" d="M 214.464844 165.515625 C 214.464844 167.3125 212.992188 168.761719 211.214844 168.761719 C 209.824219 168.761719 208.617188 167.882812 208.167969 166.660156 C 208.023438 166.3125 207.945312 165.925781 207.945312 165.515625 C 207.945312 163.71875 209.414062 162.269531 211.214844 162.269531 C 212.03125 162.269531 212.769531 162.578125 213.339844 163.066406 C 214.035156 163.660156 214.464844 164.535156 214.464844 165.515625 Z M 214.464844 165.515625 " fill-opacity="1" fill-rule="nonzero"/><path fill="#f34858" d="M 213.5625 164.230469 C 213.5625 166.027344 212.09375 167.476562 210.3125 167.476562 C 209.496094 167.476562 208.742188 167.171875 208.167969 166.660156 C 208.023438 166.3125 207.945312 165.925781 207.945312 165.515625 C 207.945312 163.71875 209.414062 162.269531 211.214844 162.269531 C 212.03125 162.269531 212.769531 162.574219 213.339844 163.066406 C 213.484375 163.433594 213.5625 163.820312 213.5625 164.230469 Z M 213.5625 164.230469 " fill-opacity="1" fill-rule="nonzero"/><path fill="#efac41" d="M 167.890625 192.726562 C 167.890625 194.523438 166.417969 195.972656 164.640625 195.972656 C 163.25 195.972656 162.042969 195.097656 161.59375 193.871094 C 161.453125 193.523438 161.371094 193.136719 161.371094 192.726562 C 161.371094 190.933594 162.84375 189.480469 164.640625 189.480469 C 165.457031 189.480469 166.195312 189.789062 166.765625 190.277344 C 167.460938 190.871094 167.890625 191.75 167.890625 192.726562 Z M 167.890625 192.726562 " fill-opacity="1" fill-rule="nonzero"/><path fill="#fed57a" d="M 166.992188 191.441406 C 166.992188 193.238281 165.519531 194.6875 163.742188 194.6875 C 162.925781 194.6875 162.167969 194.382812 161.597656 193.871094 C 161.453125 193.523438 161.371094 193.136719 161.371094 192.726562 C 161.371094 190.929688 162.84375 189.480469 164.640625 189.480469 C 165.460938 189.480469 166.195312 189.789062 166.765625 190.277344 C 166.910156 190.644531 166.992188 191.035156 166.992188 191.441406 Z M 166.992188 191.441406 " fill-opacity="1" fill-rule="nonzero"/><path fill="#72747a" d="M 158.277344 93.667969 C 158.117188 93.675781 157.957031 93.683594 157.792969 93.699219 C 157.957031 93.683594 158.117188 93.675781 158.277344 93.667969 Z M 158.277344 93.667969 " fill-opacity="1" fill-rule="nonzero"/><path fill="#72747a" d="M 158.78125 93.65625 C 158.65625 93.65625 158.53125 93.660156 158.40625 93.664062 C 158.53125 93.660156 158.65625 93.65625 158.78125 93.65625 Z M 158.78125 93.65625 " fill-opacity="1" fill-rule="nonzero"/><path fill="#b0b3bd" d="M 165.300781 95.398438 C 163.847656 94.492188 162.191406 93.929688 160.375 93.734375 C 163.46875 94.066406 166.101562 95.464844 168.058594 97.804688 C 167.25 96.835938 166.324219 96.03125 165.300781 95.398438 Z M 165.300781 95.398438 " fill-opacity="1" fill-rule="nonzero"/><path fill="#72747a" d="M 168.117188 97.875 C 168.222656 98.003906 168.328125 98.136719 168.429688 98.269531 C 168.328125 98.136719 168.222656 98.003906 168.117188 97.875 Z M 168.117188 97.875 " fill-opacity="1" fill-rule="nonzero"/><path fill="#fa5168" d="M 148.585938 123.460938 L 163.820312 134.851562 C 159.769531 141.253906 154.460938 146.761719 148.660156 150.105469 C 143.8125 152.902344 139.300781 153.800781 135.566406 153.019531 Z M 148.585938 123.460938 " fill-opacity="1" fill-rule="nonzero"/><path fill="#748bfd" d="M 165.300781 95.398438 C 166.488281 96.132812 167.539062 97.09375 168.433594 98.269531 C 168.484375 98.339844 168.523438 98.394531 168.5625 98.445312 C 168.578125 98.46875 168.59375 98.488281 168.609375 98.511719 C 168.640625 98.550781 168.667969 98.59375 168.699219 98.636719 C 168.71875 98.664062 168.742188 98.695312 168.761719 98.726562 C 168.785156 98.757812 168.808594 98.792969 168.828125 98.824219 C 168.855469 98.863281 168.882812 98.90625 168.910156 98.949219 C 168.929688 98.972656 168.945312 98.996094 168.960938 99.023438 C 169 99.078125 169.035156 99.136719 169.070312 99.191406 C 169.832031 100.402344 170.441406 101.769531 170.886719 103.300781 C 170.914062 103.390625 170.941406 103.480469 170.964844 103.570312 C 170.992188 103.667969 171.015625 103.753906 171.035156 103.839844 C 171.066406 103.949219 171.085938 104.03125 171.105469 104.113281 C 171.136719 104.230469 171.152344 104.308594 171.171875 104.390625 C 171.203125 104.519531 171.21875 104.597656 171.238281 104.675781 C 171.265625 104.800781 171.28125 104.878906 171.296875 104.957031 C 171.324219 105.09375 171.339844 105.171875 171.355469 105.25 C 171.378906 105.386719 171.394531 105.460938 171.40625 105.535156 C 171.410156 105.5625 171.414062 105.585938 171.417969 105.609375 C 171.429688 105.683594 171.445312 105.757812 171.457031 105.832031 C 171.460938 105.859375 171.464844 105.886719 171.46875 105.910156 C 171.480469 105.980469 171.488281 106.050781 171.5 106.121094 C 171.503906 106.152344 171.511719 106.183594 171.515625 106.21875 C 171.523438 106.285156 171.535156 106.355469 171.542969 106.425781 C 171.546875 106.457031 171.554688 106.492188 171.558594 106.523438 C 171.566406 106.589844 171.574219 106.652344 171.582031 106.71875 C 171.585938 106.757812 171.59375 106.796875 171.597656 106.835938 C 171.605469 106.898438 171.609375 106.960938 171.617188 107.023438 C 171.625 107.066406 171.628906 107.105469 171.632812 107.148438 C 171.640625 107.207031 171.644531 107.269531 171.652344 107.332031 C 171.65625 107.375 171.660156 107.417969 171.664062 107.460938 C 171.667969 107.527344 171.675781 107.589844 171.679688 107.65625 C 171.683594 107.695312 171.6875 107.734375 171.691406 107.777344 C 171.695312 107.84375 171.703125 107.910156 171.707031 107.972656 C 171.710938 108.015625 171.714844 108.054688 171.714844 108.097656 C 171.71875 108.160156 171.726562 108.222656 171.726562 108.28125 C 171.730469 108.328125 171.734375 108.378906 171.738281 108.425781 C 171.742188 108.484375 171.746094 108.542969 171.746094 108.601562 C 171.75 108.648438 171.753906 108.699219 171.753906 108.746094 C 171.757812 108.8125 171.761719 108.878906 171.765625 108.945312 C 171.765625 108.988281 171.765625 109.035156 171.769531 109.078125 C 171.773438 109.144531 171.773438 109.214844 171.777344 109.28125 C 171.777344 109.324219 171.777344 109.367188 171.78125 109.410156 C 171.78125 109.492188 171.78125 109.574219 171.785156 109.660156 C 171.785156 109.6875 171.785156 109.714844 171.785156 109.742188 C 171.789062 109.855469 171.789062 109.96875 171.789062 110.082031 L 148.585938 123.464844 Z M 165.300781 95.398438 " fill-opacity="1" fill-rule="nonzero"/><path fill="#72747a" d="M 159.34375 93.664062 C 159.195312 93.65625 159.042969 93.65625 158.894531 93.65625 C 159.042969 93.65625 159.195312 93.65625 159.34375 93.664062 Z M 159.34375 93.664062 " fill-opacity="1" fill-rule="nonzero"/><path fill="#72747a" d="M 160.359375 93.730469 C 160.03125 93.695312 159.699219 93.671875 159.363281 93.664062 C 159.699219 93.671875 160.03125 93.695312 160.359375 93.730469 Z M 160.359375 93.730469 " fill-opacity="1" fill-rule="nonzero"/><path fill="#f9bb4a" d="M 171.789062 110.082031 C 171.8125 118.125 168.71875 127.148438 163.820312 134.851562 L 148.585938 123.460938 Z M 171.789062 110.082031 " fill-opacity="1" fill-rule="nonzero"/><path fill="#9ad898" d="M 148.511719 96.832031 C 148.613281 96.773438 148.714844 96.714844 148.816406 96.65625 C 148.964844 96.574219 149.042969 96.53125 149.121094 96.488281 C 149.152344 96.46875 149.183594 96.453125 149.214844 96.4375 C 149.28125 96.402344 149.351562 96.363281 149.417969 96.328125 C 149.46875 96.300781 149.523438 96.273438 149.574219 96.246094 C 149.625 96.21875 149.671875 96.195312 149.71875 96.171875 C 149.769531 96.140625 149.824219 96.117188 149.878906 96.089844 C 149.921875 96.066406 149.96875 96.039062 150.015625 96.015625 C 150.074219 95.988281 150.132812 95.960938 150.191406 95.929688 C 150.230469 95.910156 150.273438 95.890625 150.3125 95.871094 C 150.371094 95.839844 150.429688 95.8125 150.488281 95.785156 C 150.53125 95.765625 150.570312 95.746094 150.609375 95.726562 C 150.671875 95.699219 150.730469 95.671875 150.789062 95.644531 C 150.828125 95.625 150.867188 95.605469 150.90625 95.589844 C 150.964844 95.5625 151.019531 95.539062 151.078125 95.511719 C 151.121094 95.492188 151.164062 95.472656 151.203125 95.457031 C 151.261719 95.429688 151.320312 95.40625 151.378906 95.378906 C 151.417969 95.363281 151.457031 95.34375 151.496094 95.328125 C 151.554688 95.300781 151.617188 95.277344 151.675781 95.253906 C 151.710938 95.238281 151.75 95.222656 151.785156 95.207031 C 151.851562 95.179688 151.914062 95.152344 151.980469 95.125 C 152.011719 95.113281 152.042969 95.101562 152.074219 95.089844 C 152.140625 95.0625 152.207031 95.035156 152.273438 95.011719 C 152.300781 95 152.332031 94.988281 152.359375 94.976562 C 152.429688 94.949219 152.5 94.925781 152.570312 94.898438 C 152.59375 94.886719 152.621094 94.878906 152.644531 94.867188 C 152.71875 94.84375 152.789062 94.816406 152.859375 94.789062 C 153.003906 94.738281 153.078125 94.714844 153.15625 94.6875 C 153.285156 94.644531 153.359375 94.617188 153.429688 94.59375 C 153.574219 94.546875 153.648438 94.523438 153.722656 94.503906 C 153.851562 94.460938 153.929688 94.4375 154.003906 94.414062 C 154.136719 94.378906 154.210938 94.355469 154.289062 94.332031 C 154.410156 94.300781 154.492188 94.277344 154.570312 94.257812 C 154.6875 94.226562 154.769531 94.203125 154.851562 94.183594 C 154.957031 94.15625 155.039062 94.136719 155.121094 94.117188 C 155.242188 94.089844 155.320312 94.070312 155.398438 94.054688 C 155.511719 94.03125 155.589844 94.015625 155.664062 94 C 155.796875 93.972656 155.867188 93.957031 155.941406 93.945312 C 156.058594 93.921875 156.132812 93.910156 156.210938 93.894531 C 156.328125 93.875 156.40625 93.863281 156.480469 93.851562 C 156.597656 93.832031 156.671875 93.820312 156.742188 93.8125 C 156.765625 93.808594 156.792969 93.804688 156.816406 93.800781 C 156.882812 93.792969 156.945312 93.785156 157.011719 93.777344 C 157.140625 93.761719 157.207031 93.753906 157.269531 93.746094 C 157.304688 93.742188 157.339844 93.738281 157.375 93.734375 C 157.425781 93.730469 157.480469 93.722656 157.535156 93.71875 C 157.59375 93.714844 157.65625 93.710938 157.714844 93.703125 C 157.738281 93.703125 157.765625 93.699219 157.789062 93.699219 C 160.632812 93.484375 163.179688 94.078125 165.296875 95.398438 L 148.582031 123.460938 L 171.785156 110.082031 L 148.582031 123.460938 Z M 148.511719 96.832031 " fill-opacity="1" fill-rule="nonzero"/><path fill="#e4e8f4" d="M 148.511719 96.832031 L 148.585938 123.460938 L 135.566406 153.019531 C 129.433594 151.761719 125.386719 146.003906 125.363281 136.855469 C 125.320312 122.15625 135.679688 104.230469 148.511719 96.832031 Z M 148.511719 96.832031 " fill-opacity="1" fill-rule="nonzero"/><path fill="#d4dae8" d="M 116.671875 130.136719 C 117.421875 129.703125 118.039062 130.054688 118.039062 130.929688 L 118.140625 165.613281 C 118.140625 166.488281 117.53125 167.546875 116.777344 167.980469 L 79.210938 189.644531 C 78.460938 190.078125 77.84375 189.726562 77.84375 188.851562 L 77.742188 154.167969 C 77.742188 153.292969 78.351562 152.234375 79.105469 151.800781 Z M 116.671875 130.136719 " fill-opacity="1" fill-rule="nonzero"/><path fill="#e4e8f4" d="M 116.628906 115.726562 C 117.382812 115.292969 117.996094 115.644531 118 116.519531 L 118.027344 125.570312 C 118.027344 126.445312 117.417969 127.503906 116.664062 127.9375 L 79.097656 149.601562 C 78.347656 150.035156 77.730469 149.683594 77.730469 148.808594 L 77.703125 139.757812 C 77.699219 138.882812 78.3125 137.824219 79.0625 137.390625 Z M 116.628906 115.726562 " fill-opacity="1" fill-rule="nonzero"/><path fill="#afb5bf" d="M 116.5 133.03125 L 116.5 133.734375 L 79.8125 154.894531 L 79.808594 154.191406 Z M 116.5 133.03125 " fill-opacity="1" fill-rule="nonzero"/><path fill="#afb5bf" d="M 116.507812 135.484375 L 116.507812 136.175781 L 79.816406 157.335938 L 79.816406 156.644531 Z M 116.507812 135.484375 " fill-opacity="1" fill-rule="nonzero"/><path fill="#afb5bf" d="M 116.519531 140.371094 L 116.519531 141.078125 L 79.832031 162.234375 L 79.828125 161.53125 Z M 116.519531 140.371094 " fill-opacity="1" fill-rule="nonzero"/><path fill="#afb5bf" d="M 116.582031 164.847656 L 116.585938 165.542969 L 79.894531 186.699219 L 79.890625 186.007812 Z M 116.582031 164.847656 " fill-opacity="1" fill-rule="nonzero"/><path fill="#afb5bf" d="M 116.578125 162.402344 L 116.578125 163.09375 L 79.886719 184.253906 L 79.886719 183.558594 Z M 116.578125 162.402344 " fill-opacity="1" fill-rule="nonzero"/><path fill="#afb5bf" d="M 116.570312 159.953125 L 116.574219 160.648438 L 79.882812 181.808594 L 79.878906 181.113281 Z M 116.570312 159.953125 " fill-opacity="1" fill-rule="nonzero"/><path fill="#afb5bf" d="M 116.5625 157.507812 L 116.566406 158.199219 L 79.875 179.359375 L 79.875 178.667969 Z M 116.5625 157.507812 " fill-opacity="1" fill-rule="nonzero"/><path fill="#afb5bf" d="M 116.558594 155.054688 L 116.558594 155.757812 L 79.867188 176.917969 L 79.867188 176.214844 Z M 116.558594 155.054688 " fill-opacity="1" fill-rule="nonzero"/><path fill="#afb5bf" d="M 116.550781 152.613281 L 116.554688 153.308594 L 79.863281 174.464844 L 79.859375 173.773438 Z M 116.550781 152.613281 " fill-opacity="1" fill-rule="nonzero"/><path fill="#afb5bf" d="M 116.542969 150.167969 L 116.546875 150.859375 L 79.855469 172.019531 L 79.855469 171.324219 Z M 116.542969 150.167969 " fill-opacity="1" fill-rule="nonzero"/><path fill="#afb5bf" d="M 116.539062 147.714844 L 116.539062 148.417969 L 79.847656 169.578125 L 79.847656 168.871094 Z M 116.539062 147.714844 " fill-opacity="1" fill-rule="nonzero"/><path fill="#afb5bf" d="M 116.53125 145.273438 L 116.535156 145.964844 L 79.84375 167.125 L 79.839844 166.429688 Z M 116.53125 145.273438 " fill-opacity="1" fill-rule="nonzero"/><path fill="#afb5bf" d="M 116.527344 142.824219 L 116.527344 143.519531 L 79.835938 164.675781 L 79.835938 163.984375 Z M 116.527344 142.824219 " fill-opacity="1" fill-rule="nonzero"/><path fill="#afb5bf" d="M 116.511719 137.933594 L 116.515625 138.625 L 79.824219 159.785156 L 79.820312 159.089844 Z M 116.511719 137.933594 " fill-opacity="1" fill-rule="nonzero"/><path fill="#576cfb" d="M 136.777344 269.171875 L 136.753906 277.390625 L 131.0625 281.625 L 131.085938 273.410156 Z M 136.777344 269.171875 " fill-opacity="1" fill-rule="nonzero"/><path fill="#576cfb" d="M 84.921875 274.1875 L 84.898438 282.40625 L 78.0625 277.390625 L 78.085938 269.175781 Z M 84.921875 274.1875 " fill-opacity="1" fill-rule="nonzero"/><path fill="#4562ef" d="M 122.953125 281.332031 L 122.933594 288.375 C 122.941406 286.070312 121.417969 283.761719 118.375 282.007812 C 112.324219 278.519531 102.550781 278.535156 96.539062 282.023438 C 93.546875 283.761719 92.042969 286.035156 92.039062 288.3125 L 92.058594 281.265625 C 92.0625 278.988281 93.566406 276.714844 96.558594 274.976562 C 102.570312 271.488281 112.34375 271.472656 118.394531 274.960938 C 121.441406 276.714844 122.960938 279.023438 122.953125 281.332031 Z M 122.953125 281.332031 " fill-opacity="1" fill-rule="nonzero"/><path fill="#e4e8f4" d="M 72.007812 284.703125 L 71.984375 290.34375 L 71.945312 286.046875 L 71.96875 277.832031 Z M 72.007812 284.703125 " fill-opacity="1" fill-rule="nonzero"/><path fill="#576cfb" d="M 143.058594 284.757812 L 143.035156 290.402344 L 133.183594 291.050781 L 133.207031 285.410156 Z M 143.058594 284.757812 " fill-opacity="1" fill-rule="nonzero"/><path fill="#576cfb" d="M 83.765625 285.558594 L 83.742188 291.199219 L 71.984375 290.34375 L 72.007812 284.703125 Z M 83.765625 285.558594 " fill-opacity="1" fill-rule="nonzero"/><path fill="#4562ef" d="M 85.578125 287.972656 L 85.554688 296.1875 C 84.808594 295.425781 84.164062 294.609375 83.742188 293.773438 L 83.765625 285.558594 C 84.1875 286.394531 84.832031 287.210938 85.578125 287.972656 Z M 85.578125 287.972656 " fill-opacity="1" fill-rule="nonzero"/><path fill="#4562ef" d="M 133.207031 285.410156 L 133.183594 293.625 C 132.582031 294.792969 131.6875 295.871094 130.570312 296.929688 L 130.59375 288.714844 C 131.710938 287.65625 132.601562 286.578125 133.207031 285.410156 Z M 133.207031 285.410156 " fill-opacity="1" fill-rule="nonzero"/><path fill="#4562ef" d="M 100.222656 295.050781 L 100.199219 300.691406 C 98.753906 300.449219 97.339844 300.078125 96.023438 299.652344 L 96.042969 294.007812 C 97.363281 294.4375 98.777344 294.808594 100.222656 295.050781 Z M 100.222656 295.050781 " fill-opacity="1" fill-rule="nonzero"/><path fill="#4562ef" d="M 119.871094 294.34375 L 119.847656 299.984375 C 118.210938 300.449219 116.574219 300.804688 114.875 301.007812 L 114.898438 295.367188 C 116.597656 295.160156 118.234375 294.808594 119.871094 294.34375 Z M 119.871094 294.34375 " fill-opacity="1" fill-rule="nonzero"/><path fill="#4562ef" d="M 136.910156 293.398438 L 136.886719 299.039062 L 128.503906 303.90625 L 128.527344 298.261719 Z M 136.910156 293.398438 " fill-opacity="1" fill-rule="nonzero"/><path fill="#576cfb" d="M 128.527344 298.261719 L 128.503906 303.90625 L 119.847656 299.984375 L 119.867188 294.34375 Z M 128.527344 298.261719 " fill-opacity="1" fill-rule="nonzero"/><path fill="#4562ef" d="M 86.660156 298.261719 L 86.636719 303.90625 L 78.199219 299.039062 L 78.222656 293.398438 Z M 86.660156 298.261719 " fill-opacity="1" fill-rule="nonzero"/><path fill="#576cfb" d="M 96.042969 294.007812 L 96.023438 299.652344 L 86.636719 303.90625 L 86.660156 298.261719 Z M 96.042969 294.007812 " fill-opacity="1" fill-rule="nonzero"/><g clip-path="url(#d47ec7725f)"><path fill="#576cfb" d="M 114.898438 295.367188 L 114.875 301.007812 L 113.597656 307.492188 L 113.617188 301.847656 Z M 114.898438 295.367188 " fill-opacity="1" fill-rule="nonzero"/></g><g clip-path="url(#cc901ea24a)"><path fill="#576cfb" d="M 101.707031 301.828125 L 101.683594 307.472656 L 100.199219 300.691406 L 100.222656 295.050781 Z M 101.707031 301.828125 " fill-opacity="1" fill-rule="nonzero"/></g><path fill="#748bfd" d="M 128.527344 298.261719 L 119.871094 294.34375 C 118.234375 294.808594 116.597656 295.160156 114.898438 295.367188 L 113.617188 301.847656 L 101.707031 301.832031 L 100.222656 295.050781 C 98.777344 294.808594 97.363281 294.4375 96.042969 294.007812 L 86.660156 298.261719 L 78.222656 293.398438 L 85.578125 287.972656 C 84.832031 287.210938 84.1875 286.394531 83.765625 285.558594 L 72.007812 284.703125 L 71.96875 277.832031 L 83.140625 277.050781 C 83.519531 276.082031 84.089844 275.117188 84.921875 274.1875 L 78.085938 269.171875 L 86.46875 264.308594 L 94.582031 267.949219 C 96.375 267.277344 98.265625 266.777344 100.289062 266.425781 L 101.410156 260.738281 L 113.324219 260.722656 L 114.507812 266.144531 C 116.789062 266.425781 119.039062 266.945312 121.066406 267.632812 L 128.335938 264.308594 L 136.777344 269.171875 L 131.085938 273.410156 C 132.277344 274.578125 133.1875 275.878906 133.675781 277.199219 L 143.019531 277.847656 L 143.058594 284.757812 L 133.207031 285.410156 C 132.605469 286.578125 131.710938 287.65625 130.59375 288.714844 L 136.914062 293.394531 Z M 96.601562 287.609375 C 102.652344 291.101562 112.457031 291.101562 118.464844 287.609375 C 124.476562 284.121094 124.445312 278.449219 118.394531 274.960938 C 112.34375 271.472656 102.570312 271.488281 96.558594 274.976562 C 90.546875 278.464844 90.550781 284.121094 96.601562 287.609375 " fill-opacity="1" fill-rule="nonzero"/><g clip-path="url(#aaccfbcd42)"><path fill="#4562ef" d="M 113.617188 301.847656 L 113.597656 307.488281 L 101.683594 307.472656 L 101.707031 301.828125 Z M 113.617188 301.847656 " fill-opacity="1" fill-rule="nonzero"/></g><path fill="#cad0dd" d="M 248.863281 239.5 C 249.269531 240.789062 250.335938 242.023438 252.050781 243.019531 C 256.613281 245.667969 264.03125 245.660156 268.617188 243.015625 C 273.207031 240.367188 273.234375 236.085938 268.671875 233.4375 C 266.902344 232.410156 264.71875 231.78125 262.414062 231.5625 L 262.792969 235.070312 C 263.453125 235.230469 264.066406 235.46875 264.601562 235.78125 C 266.921875 237.128906 266.910156 239.324219 264.574219 240.667969 C 262.238281 242.015625 258.4375 242.019531 256.121094 240.671875 C 255.675781 240.417969 255.316406 240.128906 255.042969 239.816406 Z M 248.863281 239.5 " fill-opacity="1" fill-rule="nonzero"/><path fill="#f9607f" d="M 252.113281 233.4375 C 249.253906 235.085938 248.167969 237.367188 248.863281 239.5 L 255.042969 239.816406 C 253.890625 238.515625 254.265625 236.871094 256.15625 235.78125 C 257.949219 234.746094 260.609375 234.507812 262.792969 235.070312 L 262.414062 231.5625 C 258.792969 231.1875 254.917969 231.820312 252.113281 233.4375 Z M 252.113281 233.4375 " fill-opacity="1" fill-rule="nonzero"/><path fill="#5b5e71" d="M 224.390625 260.449219 C 225.542969 261.753906 225.167969 263.394531 223.269531 264.488281 C 221.476562 265.523438 218.824219 265.769531 216.632812 265.199219 L 217.011719 268.710938 C 220.640625 269.078125 224.507812 268.453125 227.320312 266.832031 C 230.179688 265.183594 231.257812 262.902344 230.578125 260.769531 Z M 224.390625 260.449219 " fill-opacity="1" fill-rule="nonzero"/><path fill="#4c7891" d="M 186.902344 272.78125 C 186.261719 274.878906 187.332031 277.113281 190.125 278.734375 C 192.964844 280.382812 196.890625 281.003906 200.585938 280.601562 L 201.160156 277.019531 C 198.898438 277.695312 196.058594 277.480469 194.183594 276.390625 C 192.390625 275.351562 191.988281 273.816406 192.976562 272.542969 Z M 186.902344 272.78125 " fill-opacity="1" fill-rule="nonzero"/><path fill="#f9607f" d="M 206.679688 278.734375 C 204.949219 279.742188 202.808594 280.359375 200.582031 280.605469 L 201.160156 277.027344 C 201.695312 276.859375 202.1875 276.65625 202.640625 276.386719 C 204.992188 275.050781 204.96875 272.847656 202.664062 271.507812 C 200.335938 270.152344 196.5625 270.152344 194.214844 271.507812 C 193.679688 271.816406 193.265625 272.167969 192.976562 272.539062 L 186.898438 272.785156 C 187.292969 271.449219 188.382812 270.191406 190.175781 269.164062 C 194.769531 266.507812 202.167969 266.507812 206.722656 269.164062 C 211.273438 271.796875 211.253906 276.097656 206.679688 278.734375 Z M 206.679688 278.734375 " fill-opacity="1" fill-rule="nonzero"/><path fill="#cad0dd" d="M 210.808594 257.253906 C 206.226562 259.898438 206.210938 264.1875 210.761719 266.832031 C 212.53125 267.855469 214.722656 268.488281 217.011719 268.710938 L 216.632812 265.199219 C 215.980469 265.035156 215.367188 264.796875 214.832031 264.484375 C 212.511719 263.136719 212.515625 260.945312 214.851562 259.601562 C 217.195312 258.25 220.996094 258.246094 223.3125 259.59375 C 223.757812 259.851562 224.125 260.144531 224.390625 260.449219 L 230.578125 260.769531 C 230.171875 259.480469 229.097656 258.25 227.375 257.25 C 222.820312 254.609375 215.402344 254.609375 210.808594 257.253906 Z M 210.808594 257.253906 " fill-opacity="1" fill-rule="nonzero"/><path fill="#fed57a" d="M 247.972656 254.921875 C 246.238281 255.929688 244.097656 256.546875 241.871094 256.792969 L 242.449219 253.214844 C 242.984375 253.046875 243.480469 252.84375 243.933594 252.574219 C 246.261719 251.238281 246.28125 249.035156 243.953125 247.695312 C 241.625 246.339844 237.832031 246.339844 235.503906 247.695312 C 234.96875 248.007812 234.558594 248.355469 234.269531 248.726562 L 228.191406 248.972656 C 228.582031 247.636719 229.695312 246.359375 231.46875 245.351562 C 236.042969 242.695312 243.460938 242.695312 248.011719 245.351562 C 252.566406 247.984375 252.546875 252.289062 247.972656 254.921875 Z M 247.972656 254.921875 " fill-opacity="1" fill-rule="nonzero"/><path fill="#75ca75" d="M 228.195312 248.964844 C 227.546875 251.066406 228.617188 253.300781 231.410156 254.921875 C 234.25 256.570312 238.1875 257.1875 241.875 256.789062 L 242.449219 253.207031 C 240.195312 253.878906 237.355469 253.664062 235.480469 252.578125 C 233.6875 251.535156 233.273438 250.003906 234.265625 248.734375 Z M 228.195312 248.964844 " fill-opacity="1" fill-rule="nonzero"/></svg>