<svg xmlns="http://www.w3.org/2000/svg" xmlns:xlink="http://www.w3.org/1999/xlink" width="500" zoomAndPan="magnify" viewBox="0 0 375 374.999991" height="500" preserveAspectRatio="xMidYMid meet" version="1.0"><defs><clipPath id="0f82360678"><path d="M 40.785156 40.785156 L 330.28125 40.785156 L 330.28125 330.28125 L 40.785156 330.28125 Z M 40.785156 40.785156 " clip-rule="nonzero"/></clipPath><clipPath id="56bcedd43e"><path d="M 185.53125 330.28125 C 265.253906 330.28125 330.28125 265.253906 330.28125 185.53125 C 330.28125 105.808594 265.253906 40.78125 185.53125 40.78125 C 105.808594 40.78125 40.78125 105.808594 40.78125 185.53125 C 40.78125 265.253906 105.808594 330.28125 185.53125 330.28125 " clip-rule="nonzero"/></clipPath><linearGradient x1="0.00000799142" gradientTransform="matrix(289.497983, 0, 0, 289.497983, 40.78236, 185.531296)" y1="0" x2="1.000001" gradientUnits="userSpaceOnUse" y2="0" id="b4a54491c2"><stop stop-opacity="1" stop-color="rgb(19.599915%, 37.599182%, 67.799377%)" offset="0"/><stop stop-opacity="1" stop-color="rgb(19.790649%, 37.789917%, 67.799377%)" offset="0.015625"/><stop stop-opacity="1" stop-color="rgb(19.99054%, 38.200378%, 67.999268%)" offset="0.0195312"/><stop stop-opacity="1" stop-color="rgb(19.999695%, 38.421631%, 68.199158%)" offset="0.0234375"/><stop stop-opacity="1" stop-color="rgb(20.005798%, 38.616943%, 68.205261%)" offset="0.03125"/><stop stop-opacity="1" stop-color="rgb(20.205688%, 39.006042%, 68.405151%)" offset="0.046875"/><stop stop-opacity="1" stop-color="rgb(20.399475%, 39.39209%, 68.598938%)" offset="0.0546875"/><stop stop-opacity="1" stop-color="rgb(20.587158%, 39.779663%, 68.786621%)" offset="0.0625"/><stop stop-opacity="1" stop-color="rgb(20.787048%, 40.194702%, 68.986511%)" offset="0.0664062"/><stop stop-opacity="1" stop-color="rgb(20.799255%, 40.415955%, 68.998718%)" offset="0.0703125"/><stop stop-opacity="1" stop-color="rgb(20.802307%, 40.611267%, 69.00177%)" offset="0.078125"/><stop stop-opacity="1" stop-color="rgb(21.000671%, 41.001892%, 69.20166%)" offset="0.0859375"/><stop stop-opacity="1" stop-color="rgb(21.19751%, 41.197205%, 69.396973%)" offset="0.09375"/><stop stop-opacity="1" stop-color="rgb(21.199036%, 41.387939%, 69.398499%)" offset="0.101562"/><stop stop-opacity="1" stop-color="rgb(21.398926%, 41.796875%, 69.598389%)" offset="0.105469"/><stop stop-opacity="1" stop-color="rgb(21.598816%, 42.018127%, 69.799805%)" offset="0.109375"/><stop stop-opacity="1" stop-color="rgb(21.598816%, 42.211914%, 69.799805%)" offset="0.117187"/><stop stop-opacity="1" stop-color="rgb(21.598816%, 42.552185%, 69.799805%)" offset="0.125"/><stop stop-opacity="1" stop-color="rgb(21.795654%, 42.698669%, 69.995117%)" offset="0.132812"/><stop stop-opacity="1" stop-color="rgb(21.994019%, 42.889404%, 70.195007%)" offset="0.140625"/><stop stop-opacity="1" stop-color="rgb(22.009277%, 43.299866%, 70.210266%)" offset="0.144531"/><stop stop-opacity="1" stop-color="rgb(22.021484%, 43.521118%, 70.220947%)" offset="0.148437"/><stop stop-opacity="1" stop-color="rgb(22.210693%, 43.716431%, 70.410156%)" offset="0.15625"/><stop stop-opacity="1" stop-color="rgb(22.399902%, 44.10553%, 70.599365%)" offset="0.171875"/><stop stop-opacity="1" stop-color="rgb(22.543335%, 44.491577%, 70.791626%)" offset="0.179687"/><stop stop-opacity="1" stop-color="rgb(22.692871%, 44.87915%, 70.991516%)" offset="0.1875"/><stop stop-opacity="1" stop-color="rgb(22.706604%, 45.294189%, 71.006775%)" offset="0.191406"/><stop stop-opacity="1" stop-color="rgb(22.715759%, 45.515442%, 71.01593%)" offset="0.195312"/><stop stop-opacity="1" stop-color="rgb(22.906494%, 45.710754%, 71.206665%)" offset="0.203125"/><stop stop-opacity="1" stop-color="rgb(23.098755%, 46.101379%, 71.398926%)" offset="0.210937"/><stop stop-opacity="1" stop-color="rgb(23.098755%, 46.298218%, 71.398926%)" offset="0.21875"/><stop stop-opacity="1" stop-color="rgb(23.287964%, 46.488953%, 71.588135%)" offset="0.226562"/><stop stop-opacity="1" stop-color="rgb(23.487854%, 46.897888%, 71.788025%)" offset="0.230469"/><stop stop-opacity="1" stop-color="rgb(23.498535%, 47.117615%, 71.798706%)" offset="0.234375"/><stop stop-opacity="1" stop-color="rgb(23.503113%, 47.311401%, 71.803284%)" offset="0.242187"/><stop stop-opacity="1" stop-color="rgb(23.704529%, 47.653198%, 72.003174%)" offset="0.25"/><stop stop-opacity="1" stop-color="rgb(24.090576%, 47.990417%, 72.198486%)" offset="0.265625"/><stop stop-opacity="1" stop-color="rgb(24.290466%, 48.400879%, 72.348022%)" offset="0.269531"/><stop stop-opacity="1" stop-color="rgb(24.299622%, 48.622131%, 72.499084%)" offset="0.273437"/><stop stop-opacity="1" stop-color="rgb(24.305725%, 48.817444%, 72.499084%)" offset="0.28125"/><stop stop-opacity="1" stop-color="rgb(24.505615%, 49.205017%, 72.50061%)" offset="0.289062"/><stop stop-opacity="1" stop-color="rgb(24.699402%, 49.398804%, 72.697449%)" offset="0.296875"/><stop stop-opacity="1" stop-color="rgb(24.699402%, 49.591064%, 72.895813%)" offset="0.304687"/><stop stop-opacity="1" stop-color="rgb(24.887085%, 49.978638%, 72.898865%)" offset="0.3125"/><stop stop-opacity="1" stop-color="rgb(25.086975%, 50.393677%, 73.098755%)" offset="0.316406"/><stop stop-opacity="1" stop-color="rgb(25.099182%, 50.614929%, 73.298645%)" offset="0.320312"/><stop stop-opacity="1" stop-color="rgb(25.102234%, 50.810242%, 73.298645%)" offset="0.328125"/><stop stop-opacity="1" stop-color="rgb(25.300598%, 51.200867%, 73.298645%)" offset="0.335938"/><stop stop-opacity="1" stop-color="rgb(25.497437%, 51.397705%, 73.492432%)" offset="0.34375"/><stop stop-opacity="1" stop-color="rgb(25.498962%, 51.58844%, 73.693848%)" offset="0.351562"/><stop stop-opacity="1" stop-color="rgb(25.698853%, 51.99585%, 73.709106%)" offset="0.355469"/><stop stop-opacity="1" stop-color="rgb(25.898743%, 52.21405%, 73.718262%)" offset="0.359375"/><stop stop-opacity="1" stop-color="rgb(25.898743%, 52.360535%, 73.908997%)" offset="0.367187"/><stop stop-opacity="1" stop-color="rgb(25.898743%, 52.703857%, 74.099731%)" offset="0.375"/><stop stop-opacity="1" stop-color="rgb(26.094055%, 52.89917%, 74.099731%)" offset="0.382812"/><stop stop-opacity="1" stop-color="rgb(26.293945%, 53.089905%, 74.290466%)" offset="0.390625"/><stop stop-opacity="1" stop-color="rgb(26.309204%, 53.500366%, 74.490356%)" offset="0.394531"/><stop stop-opacity="1" stop-color="rgb(26.321411%, 53.721619%, 74.499512%)" offset="0.398437"/><stop stop-opacity="1" stop-color="rgb(26.51062%, 53.916931%, 74.505615%)" offset="0.40625"/><stop stop-opacity="1" stop-color="rgb(26.699829%, 54.30603%, 74.705505%)" offset="0.421875"/><stop stop-opacity="1" stop-color="rgb(26.89209%, 54.692078%, 74.899292%)" offset="0.429687"/><stop stop-opacity="1" stop-color="rgb(27.09198%, 55.079651%, 75.086975%)" offset="0.4375"/><stop stop-opacity="1" stop-color="rgb(27.107239%, 55.49469%, 75.286865%)" offset="0.441406"/><stop stop-opacity="1" stop-color="rgb(27.114868%, 55.714417%, 75.299072%)" offset="0.445312"/><stop stop-opacity="1" stop-color="rgb(27.307129%, 55.909729%, 75.302124%)" offset="0.453125"/><stop stop-opacity="1" stop-color="rgb(27.49939%, 56.300354%, 75.500488%)" offset="0.460937"/><stop stop-opacity="1" stop-color="rgb(27.49939%, 56.497192%, 75.697327%)" offset="0.46875"/><stop stop-opacity="1" stop-color="rgb(27.641296%, 56.687927%, 75.698853%)" offset="0.476562"/><stop stop-opacity="1" stop-color="rgb(27.790833%, 57.095337%, 75.898743%)" offset="0.480469"/><stop stop-opacity="1" stop-color="rgb(27.799988%, 57.313538%, 76.098633%)" offset="0.484375"/><stop stop-opacity="1" stop-color="rgb(27.804565%, 57.461548%, 76.098633%)" offset="0.492187"/><stop stop-opacity="1" stop-color="rgb(28.004456%, 57.803345%, 76.098633%)" offset="0.5"/><stop stop-opacity="1" stop-color="rgb(28.199768%, 57.998657%, 76.295471%)" offset="0.507812"/><stop stop-opacity="1" stop-color="rgb(28.390503%, 58.189392%, 76.495361%)" offset="0.515625"/><stop stop-opacity="1" stop-color="rgb(28.590393%, 58.599854%, 76.51062%)" offset="0.519531"/><stop stop-opacity="1" stop-color="rgb(28.599548%, 58.821106%, 76.521301%)" offset="0.523437"/><stop stop-opacity="1" stop-color="rgb(28.605652%, 59.016418%, 76.71051%)" offset="0.53125"/><stop stop-opacity="1" stop-color="rgb(28.805542%, 59.405518%, 76.899719%)" offset="0.546875"/><stop stop-opacity="1" stop-color="rgb(28.999329%, 59.791565%, 77.09198%)" offset="0.554688"/><stop stop-opacity="1" stop-color="rgb(29.187012%, 60.179138%, 77.29187%)" offset="0.5625"/><stop stop-opacity="1" stop-color="rgb(29.386902%, 60.594177%, 77.305603%)" offset="0.566406"/><stop stop-opacity="1" stop-color="rgb(29.399109%, 60.81543%, 77.311707%)" offset="0.570312"/><stop stop-opacity="1" stop-color="rgb(29.402161%, 61.010742%, 77.455139%)" offset="0.578125"/><stop stop-opacity="1" stop-color="rgb(29.600525%, 61.401367%, 77.598572%)" offset="0.585938"/><stop stop-opacity="1" stop-color="rgb(29.797363%, 61.598206%, 77.598572%)" offset="0.59375"/><stop stop-opacity="1" stop-color="rgb(29.798889%, 61.78894%, 77.787781%)" offset="0.601562"/><stop stop-opacity="1" stop-color="rgb(29.998779%, 62.194824%, 77.987671%)" offset="0.605469"/><stop stop-opacity="1" stop-color="rgb(30.198669%, 62.413025%, 77.999878%)" offset="0.609375"/><stop stop-opacity="1" stop-color="rgb(30.198669%, 62.561035%, 78.004456%)" offset="0.617187"/><stop stop-opacity="1" stop-color="rgb(30.198669%, 62.904358%, 78.204346%)" offset="0.625"/><stop stop-opacity="1" stop-color="rgb(30.393982%, 63.09967%, 78.399658%)" offset="0.632812"/><stop stop-opacity="1" stop-color="rgb(30.593872%, 63.290405%, 78.399658%)" offset="0.640625"/><stop stop-opacity="1" stop-color="rgb(30.610657%, 63.700867%, 78.599548%)" offset="0.644531"/><stop stop-opacity="1" stop-color="rgb(30.621338%, 63.920593%, 78.799438%)" offset="0.648438"/><stop stop-opacity="1" stop-color="rgb(30.810547%, 64.115906%, 78.799438%)" offset="0.65625"/><stop stop-opacity="1" stop-color="rgb(30.999756%, 64.505005%, 78.800964%)" offset="0.664062"/><stop stop-opacity="1" stop-color="rgb(30.999756%, 64.698792%, 78.997803%)" offset="0.671875"/><stop stop-opacity="1" stop-color="rgb(31.192017%, 64.891052%, 79.196167%)" offset="0.679688"/><stop stop-opacity="1" stop-color="rgb(31.391907%, 65.278625%, 79.199219%)" offset="0.6875"/><stop stop-opacity="1" stop-color="rgb(31.407166%, 65.693665%, 79.399109%)" offset="0.691406"/><stop stop-opacity="1" stop-color="rgb(31.414795%, 65.914917%, 79.598999%)" offset="0.695312"/><stop stop-opacity="1" stop-color="rgb(31.607056%, 66.110229%, 79.598999%)" offset="0.703125"/><stop stop-opacity="1" stop-color="rgb(31.799316%, 66.500854%, 79.598999%)" offset="0.710937"/><stop stop-opacity="1" stop-color="rgb(31.799316%, 66.697693%, 79.792786%)" offset="0.71875"/><stop stop-opacity="1" stop-color="rgb(31.988525%, 66.888428%, 79.992676%)" offset="0.726562"/><stop stop-opacity="1" stop-color="rgb(32.188416%, 67.295837%, 80.007935%)" offset="0.730469"/><stop stop-opacity="1" stop-color="rgb(32.199097%, 67.514038%, 80.018616%)" offset="0.734375"/><stop stop-opacity="1" stop-color="rgb(32.202148%, 67.660522%, 80.207825%)" offset="0.742187"/><stop stop-opacity="1" stop-color="rgb(32.35321%, 68.003845%, 80.39856%)" offset="0.75"/><stop stop-opacity="1" stop-color="rgb(32.69043%, 68.389893%, 80.589294%)" offset="0.765625"/><stop stop-opacity="1" stop-color="rgb(32.89032%, 68.800354%, 80.789185%)" offset="0.769531"/><stop stop-opacity="1" stop-color="rgb(32.899475%, 69.021606%, 80.799866%)" offset="0.773438"/><stop stop-opacity="1" stop-color="rgb(32.905579%, 69.216919%, 80.805969%)" offset="0.78125"/><stop stop-opacity="1" stop-color="rgb(33.105469%, 69.606018%, 81.005859%)" offset="0.796875"/><stop stop-opacity="1" stop-color="rgb(33.299255%, 69.992065%, 81.199646%)" offset="0.804688"/><stop stop-opacity="1" stop-color="rgb(33.486938%, 70.379639%, 81.387329%)" offset="0.8125"/><stop stop-opacity="1" stop-color="rgb(33.686829%, 70.794678%, 81.587219%)" offset="0.816406"/><stop stop-opacity="1" stop-color="rgb(33.699036%, 71.014404%, 81.599426%)" offset="0.820312"/><stop stop-opacity="1" stop-color="rgb(33.702087%, 71.209717%, 81.602478%)" offset="0.828125"/><stop stop-opacity="1" stop-color="rgb(33.900452%, 71.600342%, 81.800842%)" offset="0.835938"/><stop stop-opacity="1" stop-color="rgb(34.09729%, 71.79718%, 81.997681%)" offset="0.84375"/><stop stop-opacity="1" stop-color="rgb(34.098816%, 71.987915%, 81.999207%)" offset="0.851562"/><stop stop-opacity="1" stop-color="rgb(34.298706%, 72.346497%, 82.199097%)" offset="0.855469"/><stop stop-opacity="1" stop-color="rgb(34.498596%, 72.517395%, 82.398987%)" offset="0.859375"/><stop stop-opacity="1" stop-color="rgb(34.498596%, 72.712708%, 82.398987%)" offset="0.867188"/><stop stop-opacity="1" stop-color="rgb(34.498596%, 73.103333%, 82.398987%)" offset="0.875"/><stop stop-opacity="1" stop-color="rgb(34.693909%, 73.298645%, 82.545471%)" offset="0.882812"/><stop stop-opacity="1" stop-color="rgb(34.893799%, 73.48938%, 82.695007%)" offset="0.890625"/><stop stop-opacity="1" stop-color="rgb(34.910583%, 73.899841%, 82.710266%)" offset="0.894531"/><stop stop-opacity="1" stop-color="rgb(34.921265%, 74.121094%, 82.720947%)" offset="0.898438"/><stop stop-opacity="1" stop-color="rgb(35.110474%, 74.316406%, 82.910156%)" offset="0.90625"/><stop stop-opacity="1" stop-color="rgb(35.299683%, 74.705505%, 83.099365%)" offset="0.921875"/><stop stop-opacity="1" stop-color="rgb(35.491943%, 75.091553%, 83.291626%)" offset="0.929688"/><stop stop-opacity="1" stop-color="rgb(35.691833%, 75.479126%, 83.491516%)" offset="0.9375"/><stop stop-opacity="1" stop-color="rgb(35.707092%, 75.894165%, 83.506775%)" offset="0.941406"/><stop stop-opacity="1" stop-color="rgb(35.714722%, 76.115417%, 83.514404%)" offset="0.945312"/><stop stop-opacity="1" stop-color="rgb(35.906982%, 76.31073%, 83.706665%)" offset="0.953125"/><stop stop-opacity="1" stop-color="rgb(36.099243%, 76.701355%, 83.898926%)" offset="0.960937"/><stop stop-opacity="1" stop-color="rgb(36.099243%, 76.898193%, 83.898926%)" offset="0.96875"/><stop stop-opacity="1" stop-color="rgb(36.288452%, 77.088928%, 84.088135%)" offset="0.976562"/><stop stop-opacity="1" stop-color="rgb(36.488342%, 77.44751%, 84.288025%)" offset="0.984375"/><stop stop-opacity="1" stop-color="rgb(36.503601%, 77.813721%, 84.303284%)" offset="0.992188"/><stop stop-opacity="1" stop-color="rgb(36.703491%, 78.204346%, 84.503174%)" offset="1"/></linearGradient></defs><g clip-path="url(#0f82360678)"><g clip-path="url(#56bcedd43e)"><path fill="url(#b4a54491c2)" d="M 40.785156 40.785156 L 40.785156 330.28125 L 330.28125 330.28125 L 330.28125 40.785156 Z M 40.785156 40.785156 " fill-rule="nonzero"/></g></g><path fill="#fffffd" d="M 198.089844 230.957031 L 198.167969 230.9375 L 198.101562 230.976562 L 198.089844 230.957031 " fill-opacity="1" fill-rule="nonzero"/><path fill="#fffffd" d="M 191.800781 236.0625 C 183.273438 237.414062 173.789062 238.171875 163.800781 238.171875 C 145.304688 238.171875 128.53125 235.582031 116.359375 231.390625 C 103.566406 226.992188 95.65625 220.660156 95.65625 213.445312 L 99.539062 213.445312 C 99.539062 218.8125 106.449219 223.875 117.617188 227.71875 C 129.40625 231.777344 145.734375 234.285156 163.800781 234.285156 C 173.015625 234.285156 181.78125 233.632812 189.71875 232.453125 L 191.800781 236.0625 " fill-opacity="1" fill-rule="nonzero"/><path fill="#fffffd" d="M 184.273438 211.699219 C 177.816406 212.414062 170.9375 212.800781 163.800781 212.800781 C 145.304688 212.800781 128.527344 210.210938 116.359375 206.019531 C 103.566406 201.621094 95.65625 195.289062 95.65625 188.078125 L 99.539062 188.078125 C 99.539062 193.445312 106.449219 198.503906 117.617188 202.347656 C 129.40625 206.40625 145.734375 208.917969 163.800781 208.917969 C 170.957031 208.917969 177.839844 208.523438 184.273438 207.792969 L 184.273438 211.699219 " fill-opacity="1" fill-rule="nonzero"/><path fill="#fffffd" d="M 95.65625 213.445312 L 95.65625 142.15625 L 99.539062 139.777344 L 99.539062 219.890625 C 98.097656 218.21875 99.871094 218.785156 95.65625 213.445312 " fill-opacity="1" fill-rule="nonzero"/><path fill="#fffffd" d="M 231.945312 142.121094 L 231.945312 162.792969 L 228.058594 162.792969 L 228.058594 139.777344 L 231.4375 139.777344 L 231.945312 142.121094 " fill-opacity="1" fill-rule="nonzero"/><path fill="#fffffd" d="M 209.980469 127.589844 C 198.191406 123.53125 181.867188 121.023438 163.800781 121.023438 C 145.734375 121.023438 129.40625 123.53125 117.617188 127.589844 C 106.449219 131.433594 99.539062 136.496094 99.539062 141.863281 C 99.539062 147.230469 106.449219 152.292969 117.617188 156.136719 C 129.40625 160.195312 145.734375 162.703125 163.800781 162.703125 C 181.867188 162.703125 198.191406 160.195312 209.980469 156.136719 C 221.152344 152.292969 228.058594 147.230469 228.058594 141.863281 C 228.058594 136.496094 221.152344 131.433594 209.980469 127.589844 Z M 163.800781 117.140625 C 182.292969 117.140625 199.070312 119.730469 211.242188 123.917969 C 224.03125 128.320312 231.945312 134.648438 231.945312 141.863281 C 231.945312 149.078125 224.03125 155.40625 211.242188 159.808594 C 199.070312 164 182.292969 166.589844 163.800781 166.589844 C 145.304688 166.589844 128.527344 164 116.359375 159.808594 C 103.566406 155.40625 95.65625 149.078125 95.65625 141.863281 C 95.65625 134.648438 103.566406 128.320312 116.359375 123.917969 C 128.527344 119.730469 145.304688 117.140625 163.800781 117.140625 " fill-opacity="1" fill-rule="nonzero"/><path fill="#fffffd" d="M 249.433594 192.648438 C 244.917969 188.132812 238.675781 185.335938 231.78125 185.335938 C 224.890625 185.335938 218.648438 188.132812 214.132812 192.648438 C 209.613281 197.167969 206.820312 203.40625 206.820312 210.300781 C 206.820312 217.195312 209.613281 223.433594 214.132812 227.953125 C 218.648438 232.46875 224.890625 235.261719 231.78125 235.261719 C 238.675781 235.261719 244.917969 232.46875 249.433594 227.953125 C 253.949219 223.433594 256.746094 217.195312 256.746094 210.300781 C 256.746094 203.40625 253.949219 197.167969 249.433594 192.648438 Z M 231.78125 181.214844 C 239.8125 181.214844 247.082031 184.472656 252.347656 189.734375 C 257.613281 195 260.867188 202.269531 260.867188 210.300781 C 260.867188 218.332031 257.613281 225.601562 252.347656 230.867188 C 247.082031 236.128906 239.8125 239.386719 231.78125 239.386719 C 223.75 239.386719 216.480469 236.128906 211.214844 230.867188 C 205.953125 225.601562 202.695312 218.332031 202.695312 210.300781 C 202.695312 202.269531 205.953125 195 211.214844 189.734375 C 216.480469 184.472656 223.75 181.214844 231.78125 181.214844 " fill-opacity="1" fill-rule="nonzero"/><path fill="#fffffd" d="M 234.902344 185.339844 L 226.597656 185.339844 L 226.597656 166.675781 L 236.964844 166.675781 L 236.964844 185.339844 Z M 230.722656 181.214844 L 232.84375 181.214844 L 232.84375 170.800781 L 230.722656 170.800781 L 230.722656 181.214844 " fill-opacity="1" fill-rule="nonzero"/><path fill="#fffffd" d="M 232.84375 239.386719 L 230.722656 239.386719 L 230.722656 249.800781 L 232.84375 249.800781 Z M 228.660156 235.261719 L 236.964844 235.261719 L 236.964844 253.925781 L 226.597656 253.925781 L 226.597656 235.261719 L 228.660156 235.261719 " fill-opacity="1" fill-rule="nonzero"/><path fill="#fffffd" d="M 221.996094 187.113281 L 216.589844 190.238281 L 214.8125 191.261719 L 213.789062 189.488281 L 206.519531 176.898438 L 205.492188 175.117188 L 207.277344 174.085938 L 212.683594 170.964844 L 214.457031 169.9375 L 215.484375 171.714844 L 222.753906 184.304688 L 223.78125 186.085938 Z M 216.320312 185.652344 L 218.167969 184.585938 L 212.949219 175.550781 L 211.105469 176.617188 L 216.320312 185.652344 " fill-opacity="1" fill-rule="nonzero"/><path fill="#fffffd" d="M 247.246094 234.953125 L 245.398438 236.015625 L 250.613281 245.050781 L 252.460938 243.984375 Z M 241.5625 233.484375 L 246.96875 230.363281 L 248.75 229.332031 L 249.777344 231.113281 L 257.046875 243.703125 L 258.074219 245.484375 L 256.289062 246.511719 L 250.882812 249.632812 L 249.105469 250.660156 L 248.082031 248.886719 L 240.8125 236.292969 L 239.78125 234.511719 L 241.5625 233.484375 " fill-opacity="1" fill-rule="nonzero"/><path fill="#fffffd" d="M 211.71875 195.117188 L 208.597656 200.523438 L 207.570312 202.300781 L 205.789062 201.269531 L 193.195312 194 L 191.421875 192.976562 L 192.449219 191.199219 L 195.570312 185.792969 L 196.601562 184.007812 L 198.378906 185.035156 L 210.96875 192.304688 L 212.75 193.332031 Z M 206.066406 196.683594 L 207.132812 194.835938 L 198.097656 189.621094 L 197.03125 191.46875 L 206.066406 196.683594 " fill-opacity="1" fill-rule="nonzero"/><path fill="#fffffd" d="M 257.496094 223.910156 L 256.429688 225.765625 L 265.460938 230.980469 L 266.53125 229.128906 Z M 251.84375 225.492188 L 254.96875 220.085938 L 255.996094 218.304688 L 257.769531 219.328125 L 270.359375 226.597656 L 272.144531 227.628906 L 271.117188 229.410156 L 267.996094 234.816406 L 266.972656 236.589844 L 265.191406 235.5625 L 252.601562 228.292969 L 250.824219 227.265625 L 251.84375 225.492188 " fill-opacity="1" fill-rule="nonzero"/><path fill="#fffffd" d="M 206.820312 207.179688 L 206.820312 215.484375 L 188.15625 215.484375 L 188.15625 205.117188 L 206.820312 205.117188 Z M 202.695312 211.359375 L 202.695312 209.238281 L 192.28125 209.238281 L 192.28125 211.359375 L 202.695312 211.359375 " fill-opacity="1" fill-rule="nonzero"/><path fill="#fffffd" d="M 260.867188 209.238281 L 260.867188 211.359375 L 271.285156 211.359375 L 271.285156 209.238281 Z M 256.746094 213.421875 L 256.746094 205.117188 L 275.40625 205.117188 L 275.40625 215.484375 L 256.746094 215.484375 L 256.746094 213.421875 " fill-opacity="1" fill-rule="nonzero"/><path fill="#fffffd" d="M 208.597656 220.078125 L 211.71875 225.484375 L 212.75 227.269531 L 210.96875 228.292969 L 198.378906 235.5625 L 196.597656 236.59375 L 195.570312 234.816406 L 192.449219 229.410156 L 191.417969 227.625 L 193.195312 226.597656 L 205.789062 219.328125 L 207.570312 218.300781 Z M 207.132812 225.761719 L 206.066406 223.917969 L 197.035156 229.128906 L 198.101562 230.976562 L 207.132812 225.761719 " fill-opacity="1" fill-rule="nonzero"/><path fill="#fffffd" d="M 256.433594 194.839844 L 257.5 196.683594 L 266.527344 191.46875 L 265.460938 189.625 Z M 254.964844 200.523438 L 251.84375 195.117188 L 250.816406 193.332031 L 252.59375 192.304688 L 265.183594 185.035156 L 266.96875 184.007812 L 267.996094 185.785156 L 271.117188 191.191406 L 272.144531 192.976562 L 270.367188 194 L 257.777344 201.273438 L 255.992188 202.300781 L 254.964844 200.523438 " fill-opacity="1" fill-rule="nonzero"/><path fill="#fffffd" d="M 216.589844 230.363281 L 221.996094 233.484375 L 223.777344 234.511719 L 222.753906 236.285156 L 215.484375 248.878906 L 214.457031 250.660156 L 212.679688 249.632812 L 207.273438 246.511719 L 205.496094 245.484375 L 206.519531 243.710938 L 213.789062 231.121094 L 214.816406 229.339844 Z M 218.171875 236.015625 L 216.320312 234.945312 L 211.101562 243.984375 L 212.953125 245.050781 L 218.171875 236.015625 " fill-opacity="1" fill-rule="nonzero"/><path fill="#fffffd" d="M 245.394531 184.582031 L 247.25 185.652344 L 252.464844 176.617188 L 250.613281 175.546875 Z M 246.96875 190.238281 L 241.558594 187.117188 L 239.785156 186.089844 L 240.8125 184.3125 L 248.082031 171.722656 L 249.109375 169.941406 L 250.882812 170.964844 L 256.289062 174.085938 L 258.070312 175.117188 L 257.046875 176.890625 L 249.777344 189.480469 L 248.746094 191.265625 L 246.96875 190.238281 " fill-opacity="1" fill-rule="nonzero"/><path fill="#fffffd" d="M 244.847656 197.234375 C 241.507812 193.890625 236.886719 191.820312 231.78125 191.820312 C 226.679688 191.820312 222.058594 193.890625 218.714844 197.234375 C 215.371094 200.574219 213.304688 205.199219 213.304688 210.300781 C 213.304688 215.402344 215.371094 220.023438 218.714844 223.367188 C 222.058594 226.710938 226.679688 228.78125 231.78125 228.78125 C 236.886719 228.78125 241.507812 226.710938 244.847656 223.367188 C 248.195312 220.023438 250.261719 215.402344 250.261719 210.300781 C 250.261719 205.199219 248.195312 200.574219 244.847656 197.234375 Z M 231.78125 187.699219 C 238.023438 187.699219 243.675781 190.226562 247.765625 194.320312 C 251.855469 198.410156 254.382812 204.058594 254.382812 210.300781 C 254.382812 216.542969 251.855469 222.191406 247.765625 226.28125 C 243.675781 230.371094 238.023438 232.902344 231.78125 232.902344 C 225.542969 232.902344 219.894531 230.371094 215.800781 226.28125 C 211.710938 222.191406 209.179688 216.542969 209.179688 210.300781 C 209.179688 204.058594 211.710938 198.410156 215.800781 194.320312 C 219.890625 190.226562 225.542969 187.699219 231.78125 187.699219 " fill-opacity="1" fill-rule="nonzero"/></svg>