<svg xmlns="http://www.w3.org/2000/svg" xmlns:xlink="http://www.w3.org/1999/xlink" width="500" zoomAndPan="magnify" viewBox="0 0 375 374.999991" height="500" preserveAspectRatio="xMidYMid meet" version="1.0"><defs><clipPath id="b832886ae0"><path d="M 137 137 L 307.949219 137 L 307.949219 307.949219 L 137 307.949219 Z M 137 137 " clip-rule="nonzero"/></clipPath><clipPath id="dd5cf2ce95"><path d="M 67.199219 67.199219 L 238 67.199219 L 238 238 L 67.199219 238 Z M 67.199219 67.199219 " clip-rule="nonzero"/></clipPath><clipPath id="64332326f1"><path d="M 67.199219 185 L 138 185 L 138 238 L 67.199219 238 Z M 67.199219 185 " clip-rule="nonzero"/></clipPath><clipPath id="ba297ee9fe"><path d="M 187 185 L 307.949219 185 L 307.949219 243 L 187 243 Z M 187 185 " clip-rule="nonzero"/></clipPath></defs><g clip-path="url(#b832886ae0)"><path fill="#fab400" d="M 307.949219 187.574219 C 307.949219 210.59375 301.980469 223.484375 296.613281 230.40625 C 292.953125 235.171875 287.132812 237.730469 281.164062 237.730469 L 192.589844 237.730469 C 189.832031 237.730469 187.574219 239.988281 187.574219 242.746094 C 187.574219 245.503906 189.832031 247.761719 192.589844 247.761719 L 232.714844 247.761719 C 235.472656 247.761719 237.730469 250.019531 237.730469 252.777344 L 237.730469 280.863281 C 237.730469 286.78125 235.222656 292.550781 230.609375 296.210938 C 223.738281 301.730469 210.847656 307.949219 187.574219 307.949219 C 164.550781 307.949219 151.660156 301.980469 144.742188 296.613281 C 139.976562 292.953125 137.417969 287.132812 137.417969 281.164062 L 137.417969 207.636719 C 137.417969 196.550781 146.394531 187.574219 157.480469 187.574219 L 217.667969 187.574219 C 228.753906 187.574219 237.730469 178.597656 237.730469 167.511719 L 237.730469 137.417969 L 280.863281 137.417969 C 286.78125 137.417969 292.550781 139.925781 296.210938 144.539062 C 301.527344 151.160156 307.496094 163.347656 307.898438 185.066406 C 307.949219 185.867188 307.949219 186.722656 307.949219 187.574219 Z M 307.949219 187.574219 " fill-opacity="1" fill-rule="nonzero"/></g><path fill="#fab400" d="M 237.730469 162.496094 L 237.730469 167.511719 C 237.730469 178.597656 228.753906 187.574219 217.667969 187.574219 L 157.480469 187.574219 C 146.394531 187.574219 137.417969 196.550781 137.417969 207.636719 L 137.417969 202.621094 C 137.417969 191.535156 146.394531 182.558594 157.480469 182.558594 L 217.667969 182.558594 C 228.753906 182.558594 237.730469 173.582031 237.730469 162.496094 Z M 237.730469 162.496094 " fill-opacity="1" fill-rule="nonzero"/><g clip-path="url(#dd5cf2ce95)"><path fill="#00a0c8" d="M 237.730469 93.980469 L 237.730469 167.511719 C 237.730469 178.597656 228.753906 187.574219 217.667969 187.574219 L 157.480469 187.574219 C 146.394531 187.574219 137.417969 196.550781 137.417969 207.636719 L 137.417969 237.730469 L 94.285156 237.730469 C 88.363281 237.730469 82.597656 235.222656 78.933594 230.609375 C 73.417969 223.738281 67.199219 210.847656 67.199219 187.574219 C 67.199219 164.550781 73.167969 151.660156 78.535156 144.742188 C 82.195312 139.976562 88.015625 137.417969 93.980469 137.417969 L 182.558594 137.417969 C 185.316406 137.417969 187.574219 135.160156 187.574219 132.402344 C 187.574219 129.644531 185.316406 127.386719 182.558594 127.386719 L 142.433594 127.386719 C 139.675781 127.386719 137.417969 125.128906 137.417969 122.371094 L 137.417969 94.285156 C 137.417969 88.363281 139.925781 82.597656 144.539062 78.933594 C 151.410156 73.417969 164.300781 67.199219 187.574219 67.199219 C 210.59375 67.199219 223.484375 73.167969 230.40625 78.535156 C 235.171875 82.195312 237.730469 88.015625 237.730469 93.980469 Z M 237.730469 93.980469 " fill-opacity="1" fill-rule="nonzero"/></g><g clip-path="url(#64332326f1)"><path fill="#0082aa" d="M 94.285156 232.714844 L 137.417969 232.714844 L 137.417969 237.730469 L 94.285156 237.730469 C 88.363281 237.730469 82.597656 235.222656 78.933594 230.609375 C 73.417969 223.738281 67.199219 210.847656 67.199219 187.574219 C 67.199219 186.722656 67.199219 185.867188 67.25 185.066406 C 67.648438 206.785156 73.617188 218.972656 78.933594 225.59375 C 82.597656 230.207031 88.363281 232.714844 94.285156 232.714844 Z M 94.285156 232.714844 " fill-opacity="1" fill-rule="nonzero"/></g><path fill="#0082aa" d="M 237.730469 162.496094 L 237.730469 167.511719 C 237.730469 178.597656 228.753906 187.574219 217.667969 187.574219 L 157.480469 187.574219 C 146.394531 187.574219 137.417969 196.550781 137.417969 207.636719 L 137.417969 202.621094 C 137.417969 191.535156 146.394531 182.558594 157.480469 182.558594 L 217.667969 182.558594 C 228.753906 182.558594 237.730469 173.582031 237.730469 162.496094 Z M 237.730469 162.496094 " fill-opacity="1" fill-rule="nonzero"/><path fill="#dc9600" d="M 237.730469 167.511719 L 237.730469 172.527344 C 237.730469 183.613281 228.753906 192.589844 217.667969 192.589844 L 157.480469 192.589844 C 146.394531 192.589844 137.417969 201.566406 137.417969 212.652344 L 137.417969 207.636719 C 137.417969 196.550781 146.394531 187.574219 157.480469 187.574219 L 217.667969 187.574219 C 228.753906 187.574219 237.730469 178.597656 237.730469 167.511719 Z M 237.730469 167.511719 " fill-opacity="1" fill-rule="nonzero"/><path fill="#f0f0f0" d="M 167.511719 102.308594 C 167.511719 102.96875 167.445312 103.621094 167.320312 104.265625 C 167.191406 104.910156 167 105.539062 166.746094 106.148438 C 166.496094 106.753906 166.1875 107.332031 165.820312 107.882812 C 165.453125 108.429688 165.039062 108.9375 164.574219 109.402344 C 164.109375 109.867188 163.601562 110.28125 163.054688 110.648438 C 162.503906 111.015625 161.925781 111.324219 161.320312 111.574219 C 160.710938 111.828125 160.082031 112.019531 159.4375 112.148438 C 158.792969 112.273438 158.140625 112.339844 157.480469 112.339844 C 156.820312 112.339844 156.167969 112.273438 155.523438 112.148438 C 154.878906 112.019531 154.25 111.828125 153.640625 111.574219 C 153.03125 111.324219 152.453125 111.015625 151.90625 110.648438 C 151.359375 110.28125 150.851562 109.867188 150.386719 109.402344 C 149.921875 108.9375 149.503906 108.429688 149.140625 107.882812 C 148.773438 107.332031 148.464844 106.753906 148.210938 106.148438 C 147.960938 105.539062 147.769531 104.910156 147.640625 104.265625 C 147.511719 103.621094 147.449219 102.96875 147.449219 102.308594 C 147.449219 101.648438 147.511719 100.996094 147.640625 100.351562 C 147.769531 99.707031 147.960938 99.078125 148.210938 98.46875 C 148.464844 97.859375 148.773438 97.28125 149.140625 96.734375 C 149.503906 96.1875 149.921875 95.679688 150.386719 95.214844 C 150.851562 94.75 151.359375 94.332031 151.90625 93.96875 C 152.453125 93.601562 153.03125 93.292969 153.640625 93.039062 C 154.25 92.789062 154.878906 92.597656 155.523438 92.46875 C 156.167969 92.339844 156.820312 92.277344 157.480469 92.277344 C 158.140625 92.277344 158.792969 92.339844 159.4375 92.46875 C 160.082031 92.597656 160.710938 92.789062 161.320312 93.039062 C 161.925781 93.292969 162.503906 93.601562 163.054688 93.96875 C 163.601562 94.332031 164.109375 94.75 164.574219 95.214844 C 165.039062 95.679688 165.453125 96.1875 165.820312 96.734375 C 166.1875 97.28125 166.496094 97.859375 166.746094 98.46875 C 167 99.078125 167.191406 99.707031 167.320312 100.351562 C 167.445312 100.996094 167.511719 101.648438 167.511719 102.308594 Z M 167.511719 102.308594 " fill-opacity="1" fill-rule="nonzero"/><path fill="#d2d2d2" d="M 167.511719 102.308594 C 167.511719 103.160156 167.410156 104.011719 167.160156 104.816406 C 166.058594 100.503906 162.144531 97.292969 157.480469 97.292969 C 152.816406 97.292969 148.902344 100.503906 147.800781 104.816406 C 147.550781 104.011719 147.449219 103.160156 147.449219 102.308594 C 147.449219 96.792969 151.964844 92.277344 157.480469 92.277344 C 162.996094 92.277344 167.511719 96.792969 167.511719 102.308594 Z M 167.511719 102.308594 " fill-opacity="1" fill-rule="nonzero"/><path fill="#f0f0f0" d="M 227.699219 272.839844 C 227.699219 273.5 227.632812 274.152344 227.507812 274.796875 C 227.378906 275.441406 227.1875 276.070312 226.933594 276.679688 C 226.683594 277.285156 226.375 277.863281 226.007812 278.414062 C 225.640625 278.960938 225.226562 279.46875 224.761719 279.933594 C 224.296875 280.398438 223.789062 280.8125 223.242188 281.179688 C 222.691406 281.546875 222.113281 281.855469 221.507812 282.105469 C 220.898438 282.359375 220.269531 282.550781 219.625 282.679688 C 218.980469 282.804688 218.328125 282.871094 217.667969 282.871094 C 217.007812 282.871094 216.355469 282.804688 215.710938 282.679688 C 215.066406 282.550781 214.4375 282.359375 213.828125 282.105469 C 213.21875 281.855469 212.640625 281.546875 212.09375 281.179688 C 211.546875 280.8125 211.039062 280.398438 210.574219 279.933594 C 210.109375 279.46875 209.691406 278.960938 209.328125 278.414062 C 208.960938 277.863281 208.652344 277.285156 208.398438 276.679688 C 208.148438 276.070312 207.957031 275.441406 207.828125 274.796875 C 207.699219 274.152344 207.636719 273.5 207.636719 272.839844 C 207.636719 272.179688 207.699219 271.527344 207.828125 270.882812 C 207.957031 270.238281 208.148438 269.609375 208.398438 269 C 208.652344 268.390625 208.960938 267.8125 209.328125 267.265625 C 209.691406 266.71875 210.109375 266.210938 210.574219 265.746094 C 211.039062 265.28125 211.546875 264.863281 212.09375 264.5 C 212.640625 264.132812 213.21875 263.824219 213.828125 263.570312 C 214.4375 263.320312 215.066406 263.128906 215.710938 263 C 216.355469 262.871094 217.007812 262.808594 217.667969 262.808594 C 218.328125 262.808594 218.980469 262.871094 219.625 263 C 220.269531 263.128906 220.898438 263.320312 221.507812 263.570312 C 222.113281 263.824219 222.691406 264.132812 223.242188 264.5 C 223.789062 264.863281 224.296875 265.28125 224.761719 265.746094 C 225.226562 266.210938 225.640625 266.71875 226.007812 267.265625 C 226.375 267.8125 226.683594 268.390625 226.933594 269 C 227.1875 269.609375 227.378906 270.238281 227.507812 270.882812 C 227.632812 271.527344 227.699219 272.179688 227.699219 272.839844 Z M 227.699219 272.839844 " fill-opacity="1" fill-rule="nonzero"/><path fill="#0082aa" d="M 187.574219 127.386719 L 187.574219 132.402344 C 187.574219 129.644531 185.316406 127.386719 182.558594 127.386719 L 142.433594 127.386719 C 139.675781 127.386719 137.417969 125.128906 137.417969 122.371094 L 137.417969 117.355469 C 137.417969 120.113281 139.675781 122.371094 142.433594 122.371094 L 182.558594 122.371094 C 185.316406 122.371094 187.574219 124.628906 187.574219 127.386719 Z M 187.574219 127.386719 " fill-opacity="1" fill-rule="nonzero"/><g clip-path="url(#ba297ee9fe)"><path fill="#dc9600" d="M 307.949219 187.574219 C 307.949219 210.59375 301.980469 223.484375 296.613281 230.40625 C 292.953125 235.171875 287.132812 237.730469 281.164062 237.730469 L 192.589844 237.730469 C 189.832031 237.730469 187.574219 239.988281 187.574219 242.746094 L 187.574219 237.730469 C 187.574219 234.972656 189.832031 232.714844 192.589844 232.714844 L 281.164062 232.714844 C 287.132812 232.714844 292.953125 230.15625 296.613281 225.390625 C 301.78125 218.722656 307.496094 206.53125 307.898438 185.066406 C 307.949219 185.867188 307.949219 186.722656 307.949219 187.574219 Z M 307.949219 187.574219 " fill-opacity="1" fill-rule="nonzero"/></g><path fill="#d2d2d2" d="M 227.699219 272.839844 C 227.699219 273.691406 227.597656 274.542969 227.347656 275.347656 C 226.246094 271.035156 222.332031 267.824219 217.667969 267.824219 C 213.003906 267.824219 209.089844 271.035156 207.988281 275.347656 C 207.738281 274.542969 207.636719 273.691406 207.636719 272.839844 C 207.636719 267.324219 212.152344 262.808594 217.667969 262.808594 C 223.183594 262.808594 227.699219 267.324219 227.699219 272.839844 Z M 227.699219 272.839844 " fill-opacity="1" fill-rule="nonzero"/></svg>