<svg xmlns="http://www.w3.org/2000/svg" xmlns:xlink="http://www.w3.org/1999/xlink" width="500" zoomAndPan="magnify" viewBox="0 0 375 374.999991" height="500" preserveAspectRatio="xMidYMid meet" version="1.0"><defs><clipPath id="066edc8702"><path d="M 54.746094 54.746094 L 320.246094 54.746094 L 320.246094 320.246094 L 54.746094 320.246094 Z M 54.746094 54.746094 " clip-rule="nonzero"/></clipPath><clipPath id="3f8b707e51"><path d="M 268.089844 320.246094 L 106.890625 320.246094 C 78.09375 320.246094 54.746094 296.894531 54.746094 268.089844 L 54.746094 106.890625 C 54.746094 78.09375 78.09375 54.746094 106.890625 54.746094 L 268.082031 54.746094 C 296.894531 54.746094 320.246094 78.09375 320.246094 106.890625 L 320.246094 268.082031 C 320.246094 296.894531 296.894531 320.246094 268.089844 320.246094 Z M 268.089844 320.246094 " clip-rule="evenodd"/></clipPath><linearGradient x1="-0.00179388" gradientTransform="matrix(0.0685515, 0, 0, -0.0685515, 54.744525, 286.653086)" y1="3382.980798" x2="3872.998065" gradientUnits="userSpaceOnUse" y2="-490.018959" id="d8b5f288f3"><stop stop-opacity="1" stop-color="rgb(49.398804%, 74.099731%, 25.898743%)" offset="0"/><stop stop-opacity="1" stop-color="rgb(49.362183%, 74.108887%, 26.054382%)" offset="0.0625"/><stop stop-opacity="1" stop-color="rgb(49.269104%, 74.134827%, 26.457214%)" offset="0.0664062"/><stop stop-opacity="1" stop-color="rgb(49.212646%, 74.150085%, 26.702881%)" offset="0.0703125"/><stop stop-opacity="1" stop-color="rgb(49.156189%, 74.165344%, 26.948547%)" offset="0.0742188"/><stop stop-opacity="1" stop-color="rgb(49.099731%, 74.180603%, 27.19574%)" offset="0.078125"/><stop stop-opacity="1" stop-color="rgb(49.041748%, 74.195862%, 27.441406%)" offset="0.0820312"/><stop stop-opacity="1" stop-color="rgb(48.985291%, 74.211121%, 27.687073%)" offset="0.0859375"/><stop stop-opacity="1" stop-color="rgb(48.927307%, 74.226379%, 27.932739%)" offset="0.0898438"/><stop stop-opacity="1" stop-color="rgb(48.87085%, 74.243164%, 28.178406%)" offset="0.09375"/><stop stop-opacity="1" stop-color="rgb(48.814392%, 74.258423%, 28.424072%)" offset="0.0976562"/><stop stop-opacity="1" stop-color="rgb(48.757935%, 74.273682%, 28.671265%)" offset="0.101562"/><stop stop-opacity="1" stop-color="rgb(48.699951%, 74.28894%, 28.916931%)" offset="0.105469"/><stop stop-opacity="1" stop-color="rgb(48.643494%, 74.304199%, 29.162598%)" offset="0.109375"/><stop stop-opacity="1" stop-color="rgb(48.58551%, 74.319458%, 29.408264%)" offset="0.113281"/><stop stop-opacity="1" stop-color="rgb(48.529053%, 74.334717%, 29.653931%)" offset="0.117187"/><stop stop-opacity="1" stop-color="rgb(48.472595%, 74.349976%, 29.899597%)" offset="0.121094"/><stop stop-opacity="1" stop-color="rgb(48.416138%, 74.36676%, 30.145264%)" offset="0.125"/><stop stop-opacity="1" stop-color="rgb(48.358154%, 74.382019%, 30.39093%)" offset="0.128906"/><stop stop-opacity="1" stop-color="rgb(48.301697%, 74.397278%, 30.638123%)" offset="0.132812"/><stop stop-opacity="1" stop-color="rgb(48.243713%, 74.412537%, 30.883789%)" offset="0.136719"/><stop stop-opacity="1" stop-color="rgb(48.187256%, 74.427795%, 31.129456%)" offset="0.140625"/><stop stop-opacity="1" stop-color="rgb(48.130798%, 74.443054%, 31.375122%)" offset="0.144531"/><stop stop-opacity="1" stop-color="rgb(48.074341%, 74.458313%, 31.620789%)" offset="0.148437"/><stop stop-opacity="1" stop-color="rgb(48.016357%, 74.473572%, 31.866455%)" offset="0.152344"/><stop stop-opacity="1" stop-color="rgb(47.9599%, 74.490356%, 32.112122%)" offset="0.15625"/><stop stop-opacity="1" stop-color="rgb(47.903442%, 74.505615%, 32.357788%)" offset="0.160156"/><stop stop-opacity="1" stop-color="rgb(47.846985%, 74.520874%, 32.60498%)" offset="0.164062"/><stop stop-opacity="1" stop-color="rgb(47.789001%, 74.536133%, 32.850647%)" offset="0.167969"/><stop stop-opacity="1" stop-color="rgb(47.732544%, 74.551392%, 33.096313%)" offset="0.171875"/><stop stop-opacity="1" stop-color="rgb(47.674561%, 74.56665%, 33.34198%)" offset="0.175781"/><stop stop-opacity="1" stop-color="rgb(47.618103%, 74.581909%, 33.587646%)" offset="0.179688"/><stop stop-opacity="1" stop-color="rgb(47.561646%, 74.597168%, 33.833313%)" offset="0.183594"/><stop stop-opacity="1" stop-color="rgb(47.505188%, 74.613953%, 34.080505%)" offset="0.1875"/><stop stop-opacity="1" stop-color="rgb(47.447205%, 74.629211%, 34.326172%)" offset="0.191406"/><stop stop-opacity="1" stop-color="rgb(47.390747%, 74.64447%, 34.571838%)" offset="0.195312"/><stop stop-opacity="1" stop-color="rgb(47.332764%, 74.659729%, 34.817505%)" offset="0.199219"/><stop stop-opacity="1" stop-color="rgb(47.276306%, 74.674988%, 35.063171%)" offset="0.203125"/><stop stop-opacity="1" stop-color="rgb(47.219849%, 74.690247%, 35.308838%)" offset="0.207031"/><stop stop-opacity="1" stop-color="rgb(47.163391%, 74.705505%, 35.554504%)" offset="0.210937"/><stop stop-opacity="1" stop-color="rgb(47.105408%, 74.720764%, 35.800171%)" offset="0.214844"/><stop stop-opacity="1" stop-color="rgb(47.04895%, 74.737549%, 36.047363%)" offset="0.21875"/><stop stop-opacity="1" stop-color="rgb(46.990967%, 74.752808%, 36.29303%)" offset="0.222656"/><stop stop-opacity="1" stop-color="rgb(46.934509%, 74.768066%, 36.538696%)" offset="0.226562"/><stop stop-opacity="1" stop-color="rgb(46.878052%, 74.783325%, 36.784363%)" offset="0.230469"/><stop stop-opacity="1" stop-color="rgb(46.821594%, 74.798584%, 37.030029%)" offset="0.234375"/><stop stop-opacity="1" stop-color="rgb(46.763611%, 74.813843%, 37.275696%)" offset="0.238281"/><stop stop-opacity="1" stop-color="rgb(46.707153%, 74.829102%, 37.521362%)" offset="0.242187"/><stop stop-opacity="1" stop-color="rgb(46.650696%, 74.84436%, 37.767029%)" offset="0.246094"/><stop stop-opacity="1" stop-color="rgb(46.594238%, 74.861145%, 38.014221%)" offset="0.25"/><stop stop-opacity="1" stop-color="rgb(46.536255%, 74.876404%, 38.259888%)" offset="0.253906"/><stop stop-opacity="1" stop-color="rgb(46.479797%, 74.891663%, 38.505554%)" offset="0.257812"/><stop stop-opacity="1" stop-color="rgb(46.421814%, 74.906921%, 38.751221%)" offset="0.261719"/><stop stop-opacity="1" stop-color="rgb(46.365356%, 74.92218%, 38.996887%)" offset="0.265625"/><stop stop-opacity="1" stop-color="rgb(46.308899%, 74.937439%, 39.242554%)" offset="0.269531"/><stop stop-opacity="1" stop-color="rgb(46.252441%, 74.952698%, 39.48822%)" offset="0.273438"/><stop stop-opacity="1" stop-color="rgb(46.194458%, 74.967957%, 39.733887%)" offset="0.277344"/><stop stop-opacity="1" stop-color="rgb(46.138%, 74.984741%, 39.981079%)" offset="0.28125"/><stop stop-opacity="1" stop-color="rgb(46.080017%, 75%, 40.226746%)" offset="0.285156"/><stop stop-opacity="1" stop-color="rgb(46.02356%, 75.015259%, 40.472412%)" offset="0.289062"/><stop stop-opacity="1" stop-color="rgb(45.967102%, 75.030518%, 40.718079%)" offset="0.292969"/><stop stop-opacity="1" stop-color="rgb(45.910645%, 75.045776%, 40.963745%)" offset="0.296875"/><stop stop-opacity="1" stop-color="rgb(45.852661%, 75.061035%, 41.209412%)" offset="0.300781"/><stop stop-opacity="1" stop-color="rgb(45.796204%, 75.076294%, 41.456604%)" offset="0.304687"/><stop stop-opacity="1" stop-color="rgb(45.73822%, 75.091553%, 41.702271%)" offset="0.308594"/><stop stop-opacity="1" stop-color="rgb(45.681763%, 75.108337%, 41.947937%)" offset="0.3125"/><stop stop-opacity="1" stop-color="rgb(45.625305%, 75.123596%, 42.193604%)" offset="0.316406"/><stop stop-opacity="1" stop-color="rgb(45.568848%, 75.138855%, 42.43927%)" offset="0.320312"/><stop stop-opacity="1" stop-color="rgb(45.510864%, 75.154114%, 42.684937%)" offset="0.324219"/><stop stop-opacity="1" stop-color="rgb(45.454407%, 75.169373%, 42.930603%)" offset="0.328125"/><stop stop-opacity="1" stop-color="rgb(45.397949%, 75.184631%, 43.17627%)" offset="0.332031"/><stop stop-opacity="1" stop-color="rgb(45.341492%, 75.19989%, 43.423462%)" offset="0.335937"/><stop stop-opacity="1" stop-color="rgb(45.283508%, 75.215149%, 43.669128%)" offset="0.339844"/><stop stop-opacity="1" stop-color="rgb(45.227051%, 75.231934%, 43.914795%)" offset="0.34375"/><stop stop-opacity="1" stop-color="rgb(45.169067%, 75.247192%, 44.160461%)" offset="0.347656"/><stop stop-opacity="1" stop-color="rgb(45.11261%, 75.262451%, 44.406128%)" offset="0.351562"/><stop stop-opacity="1" stop-color="rgb(45.056152%, 75.27771%, 44.651794%)" offset="0.355469"/><stop stop-opacity="1" stop-color="rgb(44.999695%, 75.292969%, 44.897461%)" offset="0.359375"/><stop stop-opacity="1" stop-color="rgb(44.941711%, 75.308228%, 45.143127%)" offset="0.363281"/><stop stop-opacity="1" stop-color="rgb(44.885254%, 75.323486%, 45.39032%)" offset="0.367187"/><stop stop-opacity="1" stop-color="rgb(44.827271%, 75.338745%, 45.635986%)" offset="0.371094"/><stop stop-opacity="1" stop-color="rgb(44.770813%, 75.35553%, 45.881653%)" offset="0.375"/><stop stop-opacity="1" stop-color="rgb(44.714355%, 75.370789%, 46.127319%)" offset="0.378906"/><stop stop-opacity="1" stop-color="rgb(44.657898%, 75.386047%, 46.372986%)" offset="0.382812"/><stop stop-opacity="1" stop-color="rgb(44.599915%, 75.401306%, 46.618652%)" offset="0.386719"/><stop stop-opacity="1" stop-color="rgb(44.543457%, 75.416565%, 46.864319%)" offset="0.390625"/><stop stop-opacity="1" stop-color="rgb(44.485474%, 75.431824%, 47.109985%)" offset="0.394531"/><stop stop-opacity="1" stop-color="rgb(44.429016%, 75.447083%, 47.357178%)" offset="0.398438"/><stop stop-opacity="1" stop-color="rgb(44.372559%, 75.462341%, 47.602844%)" offset="0.402344"/><stop stop-opacity="1" stop-color="rgb(44.316101%, 75.479126%, 47.848511%)" offset="0.40625"/><stop stop-opacity="1" stop-color="rgb(44.258118%, 75.494385%, 48.094177%)" offset="0.410156"/><stop stop-opacity="1" stop-color="rgb(44.20166%, 75.509644%, 48.339844%)" offset="0.414062"/><stop stop-opacity="1" stop-color="rgb(44.145203%, 75.524902%, 48.58551%)" offset="0.417969"/><stop stop-opacity="1" stop-color="rgb(44.088745%, 75.540161%, 48.832703%)" offset="0.421875"/><stop stop-opacity="1" stop-color="rgb(44.030762%, 75.55542%, 49.078369%)" offset="0.425781"/><stop stop-opacity="1" stop-color="rgb(43.974304%, 75.570679%, 49.324036%)" offset="0.429688"/><stop stop-opacity="1" stop-color="rgb(43.916321%, 75.585938%, 49.569702%)" offset="0.433594"/><stop stop-opacity="1" stop-color="rgb(43.859863%, 75.602722%, 49.815369%)" offset="0.4375"/><stop stop-opacity="1" stop-color="rgb(43.803406%, 75.617981%, 50.061035%)" offset="0.441406"/><stop stop-opacity="1" stop-color="rgb(43.746948%, 75.63324%, 50.306702%)" offset="0.445312"/><stop stop-opacity="1" stop-color="rgb(43.688965%, 75.648499%, 50.552368%)" offset="0.449219"/><stop stop-opacity="1" stop-color="rgb(43.632507%, 75.663757%, 50.799561%)" offset="0.453125"/><stop stop-opacity="1" stop-color="rgb(43.574524%, 75.679016%, 51.045227%)" offset="0.457031"/><stop stop-opacity="1" stop-color="rgb(43.518066%, 75.694275%, 51.290894%)" offset="0.460937"/><stop stop-opacity="1" stop-color="rgb(43.461609%, 75.709534%, 51.53656%)" offset="0.464844"/><stop stop-opacity="1" stop-color="rgb(43.405151%, 75.726318%, 51.782227%)" offset="0.46875"/><stop stop-opacity="1" stop-color="rgb(43.347168%, 75.741577%, 52.027893%)" offset="0.472656"/><stop stop-opacity="1" stop-color="rgb(43.29071%, 75.756836%, 52.27356%)" offset="0.476562"/><stop stop-opacity="1" stop-color="rgb(43.232727%, 75.772095%, 52.519226%)" offset="0.480469"/><stop stop-opacity="1" stop-color="rgb(43.17627%, 75.787354%, 52.766418%)" offset="0.484375"/><stop stop-opacity="1" stop-color="rgb(43.119812%, 75.802612%, 53.012085%)" offset="0.488281"/><stop stop-opacity="1" stop-color="rgb(43.063354%, 75.817871%, 53.257751%)" offset="0.492187"/><stop stop-opacity="1" stop-color="rgb(43.005371%, 75.83313%, 53.503418%)" offset="0.496094"/><stop stop-opacity="1" stop-color="rgb(42.948914%, 75.849915%, 53.749084%)" offset="0.5"/><stop stop-opacity="1" stop-color="rgb(42.892456%, 75.865173%, 53.994751%)" offset="0.503906"/><stop stop-opacity="1" stop-color="rgb(42.835999%, 75.880432%, 54.240417%)" offset="0.507812"/><stop stop-opacity="1" stop-color="rgb(42.778015%, 75.895691%, 54.486084%)" offset="0.511719"/><stop stop-opacity="1" stop-color="rgb(42.721558%, 75.91095%, 54.733276%)" offset="0.515625"/><stop stop-opacity="1" stop-color="rgb(42.663574%, 75.926208%, 54.978943%)" offset="0.519531"/><stop stop-opacity="1" stop-color="rgb(42.607117%, 75.941467%, 55.224609%)" offset="0.523438"/><stop stop-opacity="1" stop-color="rgb(42.550659%, 75.956726%, 55.470276%)" offset="0.527344"/><stop stop-opacity="1" stop-color="rgb(42.494202%, 75.973511%, 55.715942%)" offset="0.53125"/><stop stop-opacity="1" stop-color="rgb(42.436218%, 75.98877%, 55.961609%)" offset="0.535156"/><stop stop-opacity="1" stop-color="rgb(42.379761%, 76.004028%, 56.208801%)" offset="0.539062"/><stop stop-opacity="1" stop-color="rgb(42.321777%, 76.019287%, 56.454468%)" offset="0.542969"/><stop stop-opacity="1" stop-color="rgb(42.26532%, 76.034546%, 56.700134%)" offset="0.546875"/><stop stop-opacity="1" stop-color="rgb(42.208862%, 76.049805%, 56.945801%)" offset="0.550781"/><stop stop-opacity="1" stop-color="rgb(42.152405%, 76.065063%, 57.191467%)" offset="0.554688"/><stop stop-opacity="1" stop-color="rgb(42.094421%, 76.080322%, 57.437134%)" offset="0.558594"/><stop stop-opacity="1" stop-color="rgb(42.037964%, 76.097107%, 57.6828%)" offset="0.5625"/><stop stop-opacity="1" stop-color="rgb(41.97998%, 76.112366%, 57.928467%)" offset="0.566406"/><stop stop-opacity="1" stop-color="rgb(41.923523%, 76.127625%, 58.175659%)" offset="0.570312"/><stop stop-opacity="1" stop-color="rgb(41.867065%, 76.142883%, 58.421326%)" offset="0.574219"/><stop stop-opacity="1" stop-color="rgb(41.810608%, 76.158142%, 58.666992%)" offset="0.578125"/><stop stop-opacity="1" stop-color="rgb(41.752625%, 76.173401%, 58.912659%)" offset="0.582031"/><stop stop-opacity="1" stop-color="rgb(41.696167%, 76.18866%, 59.158325%)" offset="0.585938"/><stop stop-opacity="1" stop-color="rgb(41.639709%, 76.203918%, 59.403992%)" offset="0.589844"/><stop stop-opacity="1" stop-color="rgb(41.583252%, 76.220703%, 59.649658%)" offset="0.59375"/><stop stop-opacity="1" stop-color="rgb(41.525269%, 76.235962%, 59.895325%)" offset="0.597656"/><stop stop-opacity="1" stop-color="rgb(41.468811%, 76.251221%, 60.142517%)" offset="0.601562"/><stop stop-opacity="1" stop-color="rgb(41.410828%, 76.266479%, 60.388184%)" offset="0.605469"/><stop stop-opacity="1" stop-color="rgb(41.35437%, 76.281738%, 60.63385%)" offset="0.609375"/><stop stop-opacity="1" stop-color="rgb(41.297913%, 76.296997%, 60.879517%)" offset="0.613281"/><stop stop-opacity="1" stop-color="rgb(41.241455%, 76.312256%, 61.125183%)" offset="0.617187"/><stop stop-opacity="1" stop-color="rgb(41.183472%, 76.327515%, 61.37085%)" offset="0.621094"/><stop stop-opacity="1" stop-color="rgb(41.127014%, 76.344299%, 61.618042%)" offset="0.625"/><stop stop-opacity="1" stop-color="rgb(41.069031%, 76.359558%, 61.863708%)" offset="0.628906"/><stop stop-opacity="1" stop-color="rgb(41.012573%, 76.374817%, 62.109375%)" offset="0.632812"/><stop stop-opacity="1" stop-color="rgb(40.956116%, 76.390076%, 62.355042%)" offset="0.636719"/><stop stop-opacity="1" stop-color="rgb(40.899658%, 76.405334%, 62.600708%)" offset="0.640625"/><stop stop-opacity="1" stop-color="rgb(40.841675%, 76.420593%, 62.846375%)" offset="0.644531"/><stop stop-opacity="1" stop-color="rgb(40.785217%, 76.435852%, 63.092041%)" offset="0.648437"/><stop stop-opacity="1" stop-color="rgb(40.727234%, 76.451111%, 63.337708%)" offset="0.652344"/><stop stop-opacity="1" stop-color="rgb(40.670776%, 76.467896%, 63.5849%)" offset="0.65625"/><stop stop-opacity="1" stop-color="rgb(40.614319%, 76.483154%, 63.830566%)" offset="0.660156"/><stop stop-opacity="1" stop-color="rgb(40.557861%, 76.498413%, 64.076233%)" offset="0.664062"/><stop stop-opacity="1" stop-color="rgb(40.499878%, 76.513672%, 64.321899%)" offset="0.667969"/><stop stop-opacity="1" stop-color="rgb(40.44342%, 76.528931%, 64.567566%)" offset="0.671875"/><stop stop-opacity="1" stop-color="rgb(40.386963%, 76.544189%, 64.813232%)" offset="0.675781"/><stop stop-opacity="1" stop-color="rgb(40.330505%, 76.559448%, 65.058899%)" offset="0.679687"/><stop stop-opacity="1" stop-color="rgb(40.272522%, 76.574707%, 65.304565%)" offset="0.683594"/><stop stop-opacity="1" stop-color="rgb(40.216064%, 76.591492%, 65.551758%)" offset="0.6875"/><stop stop-opacity="1" stop-color="rgb(40.158081%, 76.60675%, 65.797424%)" offset="0.691406"/><stop stop-opacity="1" stop-color="rgb(40.101624%, 76.622009%, 66.043091%)" offset="0.695312"/><stop stop-opacity="1" stop-color="rgb(40.045166%, 76.637268%, 66.288757%)" offset="0.699219"/><stop stop-opacity="1" stop-color="rgb(39.988708%, 76.652527%, 66.534424%)" offset="0.703125"/><stop stop-opacity="1" stop-color="rgb(39.930725%, 76.667786%, 66.78009%)" offset="0.707031"/><stop stop-opacity="1" stop-color="rgb(39.874268%, 76.683044%, 67.025757%)" offset="0.710937"/><stop stop-opacity="1" stop-color="rgb(39.816284%, 76.698303%, 67.271423%)" offset="0.714844"/><stop stop-opacity="1" stop-color="rgb(39.759827%, 76.715088%, 67.518616%)" offset="0.71875"/><stop stop-opacity="1" stop-color="rgb(39.703369%, 76.730347%, 67.764282%)" offset="0.722656"/><stop stop-opacity="1" stop-color="rgb(39.646912%, 76.745605%, 68.009949%)" offset="0.726562"/><stop stop-opacity="1" stop-color="rgb(39.588928%, 76.760864%, 68.255615%)" offset="0.730469"/><stop stop-opacity="1" stop-color="rgb(39.532471%, 76.776123%, 68.501282%)" offset="0.734375"/><stop stop-opacity="1" stop-color="rgb(39.474487%, 76.791382%, 68.746948%)" offset="0.738281"/><stop stop-opacity="1" stop-color="rgb(39.41803%, 76.806641%, 68.994141%)" offset="0.742187"/><stop stop-opacity="1" stop-color="rgb(39.361572%, 76.821899%, 69.239807%)" offset="0.746094"/><stop stop-opacity="1" stop-color="rgb(39.305115%, 76.838684%, 69.485474%)" offset="0.75"/><stop stop-opacity="1" stop-color="rgb(39.247131%, 76.853943%, 69.73114%)" offset="0.753906"/><stop stop-opacity="1" stop-color="rgb(39.190674%, 76.869202%, 69.976807%)" offset="0.757812"/><stop stop-opacity="1" stop-color="rgb(39.134216%, 76.88446%, 70.222473%)" offset="0.761719"/><stop stop-opacity="1" stop-color="rgb(39.077759%, 76.899719%, 70.46814%)" offset="0.765625"/><stop stop-opacity="1" stop-color="rgb(39.019775%, 76.914978%, 70.713806%)" offset="0.769531"/><stop stop-opacity="1" stop-color="rgb(38.963318%, 76.930237%, 70.960999%)" offset="0.773437"/><stop stop-opacity="1" stop-color="rgb(38.905334%, 76.945496%, 71.206665%)" offset="0.777344"/><stop stop-opacity="1" stop-color="rgb(38.848877%, 76.96228%, 71.452332%)" offset="0.78125"/><stop stop-opacity="1" stop-color="rgb(38.792419%, 76.977539%, 71.697998%)" offset="0.785156"/><stop stop-opacity="1" stop-color="rgb(38.735962%, 76.992798%, 71.943665%)" offset="0.789062"/><stop stop-opacity="1" stop-color="rgb(38.677979%, 77.008057%, 72.189331%)" offset="0.792969"/><stop stop-opacity="1" stop-color="rgb(38.621521%, 77.023315%, 72.434998%)" offset="0.796875"/><stop stop-opacity="1" stop-color="rgb(38.563538%, 77.038574%, 72.680664%)" offset="0.800781"/><stop stop-opacity="1" stop-color="rgb(38.50708%, 77.053833%, 72.927856%)" offset="0.804687"/><stop stop-opacity="1" stop-color="rgb(38.450623%, 77.069092%, 73.173523%)" offset="0.808594"/><stop stop-opacity="1" stop-color="rgb(38.394165%, 77.085876%, 73.419189%)" offset="0.8125"/><stop stop-opacity="1" stop-color="rgb(38.336182%, 77.101135%, 73.664856%)" offset="0.816406"/><stop stop-opacity="1" stop-color="rgb(38.279724%, 77.116394%, 73.910522%)" offset="0.820312"/><stop stop-opacity="1" stop-color="rgb(38.221741%, 77.131653%, 74.156189%)" offset="0.824219"/><stop stop-opacity="1" stop-color="rgb(38.165283%, 77.146912%, 74.401855%)" offset="0.828125"/><stop stop-opacity="1" stop-color="rgb(38.108826%, 77.16217%, 74.647522%)" offset="0.832031"/><stop stop-opacity="1" stop-color="rgb(38.052368%, 77.177429%, 74.894714%)" offset="0.835937"/><stop stop-opacity="1" stop-color="rgb(37.994385%, 77.192688%, 75.140381%)" offset="0.839844"/><stop stop-opacity="1" stop-color="rgb(37.937927%, 77.209473%, 75.386047%)" offset="0.84375"/><stop stop-opacity="1" stop-color="rgb(37.88147%, 77.224731%, 75.631714%)" offset="0.847656"/><stop stop-opacity="1" stop-color="rgb(37.825012%, 77.23999%, 75.87738%)" offset="0.851562"/><stop stop-opacity="1" stop-color="rgb(37.767029%, 77.255249%, 76.123047%)" offset="0.855469"/><stop stop-opacity="1" stop-color="rgb(37.710571%, 77.270508%, 76.370239%)" offset="0.859375"/><stop stop-opacity="1" stop-color="rgb(37.652588%, 77.285767%, 76.615906%)" offset="0.863281"/><stop stop-opacity="1" stop-color="rgb(37.59613%, 77.301025%, 76.861572%)" offset="0.867187"/><stop stop-opacity="1" stop-color="rgb(37.539673%, 77.316284%, 77.107239%)" offset="0.871094"/><stop stop-opacity="1" stop-color="rgb(37.483215%, 77.333069%, 77.352905%)" offset="0.875"/><stop stop-opacity="1" stop-color="rgb(37.425232%, 77.348328%, 77.598572%)" offset="0.878906"/><stop stop-opacity="1" stop-color="rgb(37.368774%, 77.363586%, 77.844238%)" offset="0.882812"/><stop stop-opacity="1" stop-color="rgb(37.310791%, 77.378845%, 78.089905%)" offset="0.886719"/><stop stop-opacity="1" stop-color="rgb(37.254333%, 77.394104%, 78.337097%)" offset="0.890625"/><stop stop-opacity="1" stop-color="rgb(37.197876%, 77.409363%, 78.582764%)" offset="0.894531"/><stop stop-opacity="1" stop-color="rgb(37.141418%, 77.424622%, 78.82843%)" offset="0.898438"/><stop stop-opacity="1" stop-color="rgb(37.083435%, 77.43988%, 79.074097%)" offset="0.902344"/><stop stop-opacity="1" stop-color="rgb(37.026978%, 77.456665%, 79.319763%)" offset="0.90625"/><stop stop-opacity="1" stop-color="rgb(36.968994%, 77.471924%, 79.56543%)" offset="0.910156"/><stop stop-opacity="1" stop-color="rgb(36.912537%, 77.487183%, 79.811096%)" offset="0.914062"/><stop stop-opacity="1" stop-color="rgb(36.856079%, 77.502441%, 80.056763%)" offset="0.917969"/><stop stop-opacity="1" stop-color="rgb(36.799622%, 77.5177%, 80.303955%)" offset="0.921875"/><stop stop-opacity="1" stop-color="rgb(36.741638%, 77.532959%, 80.549622%)" offset="0.925781"/><stop stop-opacity="1" stop-color="rgb(36.685181%, 77.548218%, 80.795288%)" offset="0.929688"/><stop stop-opacity="1" stop-color="rgb(36.628723%, 77.563477%, 81.040955%)" offset="0.933594"/><stop stop-opacity="1" stop-color="rgb(36.572266%, 77.580261%, 81.286621%)" offset="0.9375"/><stop stop-opacity="1" stop-color="rgb(36.535645%, 77.589417%, 81.442261%)" offset="1"/></linearGradient></defs><g clip-path="url(#066edc8702)"><g clip-path="url(#3f8b707e51)"><path fill="url(#d8b5f288f3)" d="M 54.746094 320.246094 L 54.746094 54.746094 L 320.246094 54.746094 L 320.246094 320.246094 Z M 54.746094 320.246094 " fill-rule="nonzero"/></g></g><path fill="#ffffff" d="M 131.605469 121.960938 C 126.167969 121.960938 121.746094 126.378906 121.746094 131.816406 L 121.746094 243.832031 C 121.746094 249.265625 126.167969 253.6875 131.605469 253.6875 L 243.617188 253.6875 C 249.054688 253.6875 253.476562 249.265625 253.476562 243.832031 L 253.476562 131.816406 C 253.476562 126.378906 249.054688 121.960938 243.617188 121.960938 Z M 243.617188 258.066406 L 131.605469 258.066406 C 123.753906 258.066406 117.367188 251.679688 117.367188 243.832031 L 117.367188 131.816406 C 117.367188 123.96875 123.753906 117.578125 131.605469 117.578125 L 243.617188 117.578125 C 251.464844 117.578125 257.855469 123.96875 257.855469 131.816406 L 257.855469 243.832031 C 257.855469 251.679688 251.460938 258.066406 243.617188 258.066406 Z M 243.617188 258.066406 " fill-opacity="1" fill-rule="evenodd"/><path fill="#ffffff" d="M 135.3125 240.121094 L 239.910156 240.121094 L 239.910156 135.527344 L 135.3125 135.527344 Z M 242.101562 244.503906 L 133.121094 244.503906 C 131.914062 244.503906 130.925781 243.527344 130.925781 242.308594 L 130.925781 133.339844 C 130.925781 132.132812 131.90625 131.144531 133.121094 131.144531 L 242.097656 131.144531 C 243.300781 131.144531 244.289062 132.125 244.289062 133.339844 L 244.289062 242.316406 C 244.289062 243.523438 243.308594 244.503906 242.101562 244.503906 Z M 242.101562 244.503906 " fill-opacity="1" fill-rule="evenodd"/><path fill="#ffffff" d="M 187.605469 147.644531 C 176.964844 147.644531 167.976562 166.042969 167.976562 187.816406 C 167.976562 209.589844 176.964844 227.988281 187.605469 227.988281 C 198.242188 227.988281 207.230469 209.589844 207.230469 187.816406 C 207.230469 166.042969 198.25 147.644531 187.605469 147.644531 Z M 187.605469 232.375 C 174.148438 232.375 163.597656 212.804688 163.597656 187.824219 C 163.597656 162.835938 174.140625 143.265625 187.605469 143.265625 C 201.066406 143.265625 211.617188 162.835938 211.617188 187.824219 C 211.617188 212.8125 201.066406 232.375 187.605469 232.375 Z M 187.605469 232.375 " fill-opacity="1" fill-rule="evenodd"/><path fill="#ffffff" d="M 207.828125 161.644531 C 199.246094 161.644531 188.277344 164.769531 177.789062 170.824219 C 158.929688 181.714844 147.496094 198.695312 152.808594 207.910156 C 158.128906 217.121094 178.554688 215.710938 197.414062 204.824219 C 216.265625 193.929688 227.707031 176.953125 222.394531 167.738281 C 220.035156 163.644531 214.6875 161.644531 207.828125 161.644531 Z M 167.53125 218.433594 C 158.992188 218.433594 152.238281 215.675781 149.023438 210.101562 C 142.292969 198.441406 153.964844 179.523438 175.601562 167.03125 C 197.242188 154.542969 219.460938 153.882812 226.191406 165.550781 C 232.921875 177.210938 221.25 196.132812 199.613281 208.621094 C 188.316406 215.140625 176.863281 218.433594 167.53125 218.433594 Z M 167.53125 218.433594 " fill-opacity="1" fill-rule="evenodd"/><path fill="#ffffff" d="M 152.8125 167.738281 C 150.332031 172.035156 151.386719 178.179688 155.796875 185.019531 C 160.476562 192.300781 168.285156 199.332031 177.792969 204.816406 C 187.296875 210.308594 197.289062 213.550781 205.941406 213.96875 C 214.070312 214.359375 219.917969 212.207031 222.402344 207.902344 C 227.71875 198.6875 216.28125 181.707031 197.421875 170.816406 C 178.5625 159.921875 158.140625 158.519531 152.8125 167.738281 Z M 207.765625 218.398438 C 207.101562 218.398438 206.429688 218.382812 205.734375 218.347656 C 196.40625 217.902344 185.707031 214.441406 175.609375 208.617188 C 165.511719 202.789062 157.167969 195.246094 152.113281 187.390625 C 146.78125 179.097656 145.683594 171.335938 149.03125 165.542969 C 155.761719 153.882812 177.980469 154.535156 199.621094 167.023438 C 221.261719 179.515625 232.929688 198.433594 226.199219 210.097656 C 223.085938 215.492188 216.582031 218.398438 207.765625 218.398438 Z M 207.765625 218.398438 " fill-opacity="1" fill-rule="evenodd"/><path fill="#ffffff" d="M 187.605469 181.597656 C 184.175781 181.597656 181.378906 184.390625 181.378906 187.824219 C 181.378906 191.257812 184.175781 194.046875 187.605469 194.046875 C 191.039062 194.046875 193.828125 191.257812 193.828125 187.824219 C 193.828125 184.390625 191.039062 181.597656 187.605469 181.597656 Z M 187.605469 198.429688 C 181.757812 198.429688 177 193.671875 177 187.824219 C 177 181.976562 181.757812 177.21875 187.605469 177.21875 C 193.453125 177.21875 198.214844 181.976562 198.214844 187.824219 C 198.214844 193.664062 193.457031 198.429688 187.605469 198.429688 Z M 187.605469 198.429688 " fill-opacity="1" fill-rule="evenodd"/><path fill="#ffffff" d="M 142.03125 121.960938 C 140.824219 121.960938 139.835938 120.980469 139.835938 119.765625 L 139.835938 99.527344 C 139.835938 97.863281 138.480469 96.507812 136.8125 96.507812 C 135.148438 96.507812 133.785156 97.863281 133.785156 99.527344 L 133.785156 119.773438 C 133.785156 120.980469 132.8125 121.964844 131.589844 121.964844 C 130.382812 121.964844 129.398438 120.984375 129.398438 119.773438 L 129.398438 99.527344 C 129.398438 95.445312 132.722656 92.125 136.808594 92.125 C 140.894531 92.125 144.210938 95.449219 144.210938 99.527344 L 144.210938 119.773438 C 144.21875 120.980469 143.238281 121.960938 142.03125 121.960938 Z M 142.03125 121.960938 " fill-opacity="1" fill-rule="evenodd"/><path fill="#ffffff" d="M 167.421875 121.960938 C 166.214844 121.960938 165.230469 120.980469 165.230469 119.765625 L 165.230469 99.527344 C 165.230469 97.863281 163.871094 96.507812 162.207031 96.507812 C 160.539062 96.507812 159.175781 97.863281 159.175781 99.527344 L 159.175781 119.773438 C 159.175781 120.980469 158.195312 121.964844 156.980469 121.964844 C 155.777344 121.964844 154.789062 120.984375 154.789062 119.773438 L 154.789062 99.527344 C 154.789062 95.445312 158.105469 92.125 162.199219 92.125 C 166.285156 92.125 169.601562 95.449219 169.601562 99.527344 L 169.601562 119.773438 C 169.617188 120.980469 168.636719 121.960938 167.421875 121.960938 Z M 167.421875 121.960938 " fill-opacity="1" fill-rule="evenodd"/><path fill="#ffffff" d="M 192.828125 121.960938 C 191.621094 121.960938 190.632812 120.980469 190.632812 119.765625 L 190.632812 99.527344 C 190.632812 97.863281 189.277344 96.507812 187.605469 96.507812 C 185.9375 96.507812 184.582031 97.863281 184.582031 99.527344 L 184.582031 119.773438 C 184.582031 120.980469 183.601562 121.964844 182.386719 121.964844 C 181.175781 121.964844 180.195312 120.984375 180.195312 119.773438 L 180.195312 99.527344 C 180.195312 95.445312 183.511719 92.125 187.597656 92.125 C 191.683594 92.125 195.007812 95.449219 195.007812 99.527344 L 195.007812 119.773438 C 195.015625 120.980469 194.035156 121.960938 192.828125 121.960938 Z M 192.828125 121.960938 " fill-opacity="1" fill-rule="evenodd"/><path fill="#ffffff" d="M 218.21875 121.960938 C 217.011719 121.960938 216.027344 120.980469 216.027344 119.765625 L 216.027344 99.527344 C 216.027344 97.863281 214.667969 96.507812 212.996094 96.507812 C 211.324219 96.507812 209.972656 97.863281 209.972656 99.527344 L 209.972656 119.773438 C 209.972656 120.980469 208.992188 121.964844 207.777344 121.964844 C 206.566406 121.964844 205.585938 120.984375 205.585938 119.773438 L 205.585938 99.527344 C 205.585938 95.445312 208.902344 92.125 212.988281 92.125 C 217.074219 92.125 220.398438 95.449219 220.398438 99.527344 L 220.398438 119.773438 C 220.414062 120.980469 219.433594 121.960938 218.21875 121.960938 Z M 218.21875 121.960938 " fill-opacity="1" fill-rule="evenodd"/><path fill="#ffffff" d="M 243.617188 121.960938 C 242.402344 121.960938 241.425781 120.980469 241.425781 119.765625 L 241.425781 99.527344 C 241.425781 97.863281 240.066406 96.507812 238.394531 96.507812 C 236.722656 96.507812 235.378906 97.863281 235.378906 99.527344 L 235.378906 119.773438 C 235.378906 120.980469 234.398438 121.964844 233.183594 121.964844 C 231.972656 121.964844 230.992188 120.984375 230.992188 119.773438 L 230.992188 99.527344 C 230.992188 95.445312 234.308594 92.125 238.394531 92.125 C 242.480469 92.125 245.804688 95.449219 245.804688 99.527344 L 245.804688 119.773438 C 245.804688 120.980469 244.824219 121.960938 243.617188 121.960938 Z M 243.617188 121.960938 " fill-opacity="1" fill-rule="evenodd"/><path fill="#ffffff" d="M 119.554688 246.015625 L 99.316406 246.015625 C 95.230469 246.015625 91.90625 242.699219 91.90625 238.613281 C 91.90625 234.527344 95.230469 231.210938 99.316406 231.210938 L 119.554688 231.210938 C 120.757812 231.210938 121.746094 232.191406 121.746094 233.402344 C 121.746094 234.617188 120.765625 235.597656 119.554688 235.597656 L 99.316406 235.597656 C 97.652344 235.597656 96.285156 236.953125 96.285156 238.621094 C 96.285156 240.285156 97.644531 241.644531 99.316406 241.644531 L 119.554688 241.644531 C 120.757812 241.644531 121.746094 242.625 121.746094 243.835938 C 121.746094 245.035156 120.765625 246.015625 119.554688 246.015625 Z M 119.554688 246.015625 " fill-opacity="1" fill-rule="evenodd"/><path fill="#ffffff" d="M 119.554688 220.617188 L 99.316406 220.617188 C 95.230469 220.617188 91.90625 217.292969 91.90625 213.214844 C 91.90625 209.128906 95.230469 205.8125 99.316406 205.8125 L 119.554688 205.8125 C 120.757812 205.8125 121.746094 206.792969 121.746094 208.003906 C 121.746094 209.21875 120.765625 210.199219 119.554688 210.199219 L 99.316406 210.199219 C 97.652344 210.199219 96.285156 211.554688 96.285156 213.222656 C 96.285156 214.886719 97.644531 216.246094 99.316406 216.246094 L 119.554688 216.246094 C 120.757812 216.246094 121.746094 217.226562 121.746094 218.4375 C 121.746094 219.636719 120.765625 220.617188 119.554688 220.617188 Z M 119.554688 220.617188 " fill-opacity="1" fill-rule="evenodd"/><path fill="#ffffff" d="M 119.554688 195.226562 L 99.316406 195.226562 C 95.230469 195.226562 91.90625 191.902344 91.90625 187.824219 C 91.90625 183.738281 95.230469 180.421875 99.316406 180.421875 L 119.554688 180.421875 C 120.757812 180.421875 121.746094 181.398438 121.746094 182.613281 C 121.746094 183.828125 120.765625 184.808594 119.554688 184.808594 L 99.316406 184.808594 C 97.652344 184.808594 96.285156 186.164062 96.285156 187.832031 C 96.285156 189.496094 97.644531 190.855469 99.316406 190.855469 L 119.554688 190.855469 C 120.757812 190.855469 121.746094 191.832031 121.746094 193.046875 C 121.746094 194.246094 120.765625 195.226562 119.554688 195.226562 Z M 119.554688 195.226562 " fill-opacity="1" fill-rule="evenodd"/><path fill="#ffffff" d="M 119.554688 169.828125 L 99.316406 169.828125 C 95.230469 169.828125 91.90625 166.503906 91.90625 162.425781 C 91.90625 158.339844 95.230469 155.023438 99.316406 155.023438 L 119.554688 155.023438 C 120.757812 155.023438 121.746094 156.003906 121.746094 157.214844 C 121.746094 158.421875 120.765625 159.410156 119.554688 159.410156 L 99.316406 159.410156 C 97.652344 159.410156 96.285156 160.765625 96.285156 162.433594 C 96.285156 164.097656 97.644531 165.457031 99.316406 165.457031 L 119.554688 165.457031 C 120.757812 165.457031 121.746094 166.433594 121.746094 167.648438 C 121.746094 168.847656 120.765625 169.828125 119.554688 169.828125 Z M 119.554688 169.828125 " fill-opacity="1" fill-rule="evenodd"/><path fill="#ffffff" d="M 119.554688 144.4375 L 99.316406 144.4375 C 95.230469 144.4375 91.90625 141.113281 91.90625 137.035156 C 91.90625 132.949219 95.230469 129.628906 99.316406 129.628906 L 119.554688 129.628906 C 120.757812 129.628906 121.746094 130.609375 121.746094 131.824219 C 121.746094 133.03125 120.765625 134.015625 119.554688 134.015625 L 99.316406 134.015625 C 97.652344 134.015625 96.285156 135.375 96.285156 137.039062 C 96.285156 138.707031 97.644531 140.0625 99.316406 140.0625 L 119.554688 140.0625 C 120.757812 140.0625 121.746094 141.042969 121.746094 142.257812 C 121.746094 143.457031 120.765625 144.4375 119.554688 144.4375 Z M 119.554688 144.4375 " fill-opacity="1" fill-rule="evenodd"/><path fill="#ffffff" d="M 238.394531 283.519531 C 234.308594 283.519531 230.992188 280.203125 230.992188 276.117188 L 230.992188 255.875 C 230.992188 254.667969 231.972656 253.679688 233.183594 253.679688 C 234.398438 253.679688 235.378906 254.660156 235.378906 255.875 L 235.378906 276.117188 C 235.378906 277.785156 236.734375 279.140625 238.402344 279.140625 C 240.066406 279.140625 241.429688 277.785156 241.429688 276.117188 L 241.429688 255.875 C 241.429688 254.667969 242.402344 253.679688 243.625 253.679688 C 244.832031 253.679688 245.816406 254.660156 245.816406 255.875 L 245.816406 276.117188 C 245.804688 280.195312 242.480469 283.519531 238.394531 283.519531 Z M 238.394531 283.519531 " fill-opacity="1" fill-rule="evenodd"/><path fill="#ffffff" d="M 213.003906 283.519531 C 208.917969 283.519531 205.597656 280.203125 205.597656 276.117188 L 205.597656 255.875 C 205.597656 254.667969 206.578125 253.679688 207.792969 253.679688 C 209.007812 253.679688 209.984375 254.660156 209.984375 255.875 L 209.984375 276.117188 C 209.984375 277.785156 211.34375 279.140625 213.007812 279.140625 C 214.675781 279.140625 216.039062 277.785156 216.039062 276.117188 L 216.039062 255.875 C 216.039062 254.667969 217.019531 253.679688 218.234375 253.679688 C 219.445312 253.679688 220.425781 254.660156 220.425781 255.875 L 220.425781 276.117188 C 220.414062 280.195312 217.089844 283.519531 213.003906 283.519531 Z M 213.003906 283.519531 " fill-opacity="1" fill-rule="evenodd"/><path fill="#ffffff" d="M 187.605469 283.519531 C 183.519531 283.519531 180.199219 280.203125 180.199219 276.117188 L 180.199219 255.875 C 180.199219 254.667969 181.179688 253.679688 182.394531 253.679688 C 183.601562 253.679688 184.589844 254.660156 184.589844 255.875 L 184.589844 276.117188 C 184.589844 277.785156 185.945312 279.140625 187.609375 279.140625 C 189.277344 279.140625 190.640625 277.785156 190.640625 276.117188 L 190.640625 255.875 C 190.640625 254.667969 191.621094 253.679688 192.835938 253.679688 C 194.046875 253.679688 195.027344 254.660156 195.027344 255.875 L 195.027344 276.117188 C 195.015625 280.195312 191.691406 283.519531 187.605469 283.519531 Z M 187.605469 283.519531 " fill-opacity="1" fill-rule="evenodd"/><path fill="#ffffff" d="M 162.21875 283.519531 C 158.132812 283.519531 154.808594 280.203125 154.808594 276.117188 L 154.808594 255.875 C 154.808594 254.667969 155.789062 253.679688 157.003906 253.679688 C 158.210938 253.679688 159.195312 254.660156 159.195312 255.875 L 159.195312 276.117188 C 159.195312 277.785156 160.554688 279.140625 162.21875 279.140625 C 163.886719 279.140625 165.242188 277.785156 165.242188 276.117188 L 165.242188 255.875 C 165.242188 254.667969 166.222656 253.679688 167.4375 253.679688 C 168.644531 253.679688 169.628906 254.660156 169.628906 255.875 L 169.628906 276.117188 C 169.617188 280.195312 166.296875 283.519531 162.21875 283.519531 Z M 162.21875 283.519531 " fill-opacity="1" fill-rule="evenodd"/><path fill="#ffffff" d="M 136.8125 283.519531 C 132.730469 283.519531 129.402344 280.203125 129.402344 276.117188 L 129.402344 255.875 C 129.402344 254.667969 130.382812 253.679688 131.597656 253.679688 C 132.8125 253.679688 133.792969 254.660156 133.792969 255.875 L 133.792969 276.117188 C 133.792969 277.785156 135.148438 279.140625 136.820312 279.140625 C 138.492188 279.140625 139.84375 277.785156 139.84375 276.117188 L 139.84375 255.875 C 139.84375 254.667969 140.824219 253.679688 142.039062 253.679688 C 143.246094 253.679688 144.230469 254.660156 144.230469 255.875 L 144.230469 276.117188 C 144.21875 280.195312 140.898438 283.519531 136.8125 283.519531 Z M 136.8125 283.519531 " fill-opacity="1" fill-rule="evenodd"/><path fill="#ffffff" d="M 275.898438 144.4375 L 255.667969 144.4375 C 254.457031 144.4375 253.476562 143.457031 253.476562 142.242188 C 253.476562 141.039062 254.449219 140.050781 255.667969 140.050781 L 275.90625 140.050781 C 277.570312 140.050781 278.929688 138.691406 278.929688 137.027344 C 278.929688 135.359375 277.570312 134.003906 275.898438 134.003906 L 255.664062 134.003906 C 254.449219 134.003906 253.46875 133.023438 253.46875 131.808594 C 253.46875 130.597656 254.441406 129.617188 255.664062 129.617188 L 275.898438 129.617188 C 279.984375 129.617188 283.308594 132.941406 283.308594 137.019531 C 283.308594 141.113281 279.984375 144.4375 275.898438 144.4375 Z M 275.898438 144.4375 " fill-opacity="1" fill-rule="evenodd"/><path fill="#ffffff" d="M 275.898438 169.828125 L 255.667969 169.828125 C 254.457031 169.828125 253.476562 168.847656 253.476562 167.636719 C 253.476562 166.429688 254.449219 165.441406 255.667969 165.441406 L 275.90625 165.441406 C 277.570312 165.441406 278.929688 164.085938 278.929688 162.417969 C 278.929688 160.753906 277.570312 159.394531 275.898438 159.394531 L 255.664062 159.394531 C 254.449219 159.394531 253.46875 158.414062 253.46875 157.203125 C 253.46875 155.988281 254.441406 155.007812 255.664062 155.007812 L 275.898438 155.007812 C 279.984375 155.007812 283.308594 158.332031 283.308594 162.410156 C 283.308594 166.511719 279.984375 169.828125 275.898438 169.828125 Z M 275.898438 169.828125 " fill-opacity="1" fill-rule="evenodd"/><path fill="#ffffff" d="M 275.898438 195.226562 L 255.667969 195.226562 C 254.457031 195.226562 253.476562 194.246094 253.476562 193.035156 C 253.476562 191.828125 254.449219 190.839844 255.667969 190.839844 L 275.90625 190.839844 C 277.570312 190.839844 278.929688 189.484375 278.929688 187.816406 C 278.929688 186.152344 277.570312 184.792969 275.898438 184.792969 L 255.664062 184.792969 C 254.449219 184.792969 253.46875 183.8125 253.46875 182.601562 C 253.46875 181.394531 254.441406 180.40625 255.664062 180.40625 L 275.898438 180.40625 C 279.984375 180.40625 283.308594 183.730469 283.308594 187.808594 C 283.308594 191.902344 279.984375 195.226562 275.898438 195.226562 Z M 275.898438 195.226562 " fill-opacity="1" fill-rule="evenodd"/><path fill="#ffffff" d="M 275.898438 220.617188 L 255.667969 220.617188 C 254.457031 220.617188 253.476562 219.636719 253.476562 218.425781 C 253.476562 217.210938 254.449219 216.230469 255.667969 216.230469 L 275.90625 216.230469 C 277.570312 216.230469 278.929688 214.875 278.929688 213.207031 C 278.929688 211.542969 277.570312 210.183594 275.898438 210.183594 L 255.664062 210.183594 C 254.449219 210.183594 253.46875 209.203125 253.46875 207.992188 C 253.46875 206.777344 254.441406 205.796875 255.664062 205.796875 L 275.898438 205.796875 C 279.984375 205.796875 283.308594 209.121094 283.308594 213.203125 C 283.308594 217.300781 279.984375 220.617188 275.898438 220.617188 Z M 275.898438 220.617188 " fill-opacity="1" fill-rule="evenodd"/><path fill="#ffffff" d="M 275.898438 246.015625 L 255.667969 246.015625 C 254.457031 246.015625 253.476562 245.035156 253.476562 243.824219 C 253.476562 242.609375 254.449219 241.628906 255.667969 241.628906 L 275.90625 241.628906 C 277.570312 241.628906 278.929688 240.273438 278.929688 238.605469 C 278.929688 236.941406 277.570312 235.582031 275.898438 235.582031 L 255.664062 235.582031 C 254.449219 235.582031 253.46875 234.601562 253.46875 233.390625 C 253.46875 232.175781 254.441406 231.195312 255.664062 231.195312 L 275.898438 231.195312 C 279.984375 231.195312 283.308594 234.519531 283.308594 238.601562 C 283.308594 242.699219 279.984375 246.015625 275.898438 246.015625 Z M 275.898438 246.015625 " fill-opacity="1" fill-rule="evenodd"/></svg>