<svg xmlns="http://www.w3.org/2000/svg" xmlns:xlink="http://www.w3.org/1999/xlink" width="500" zoomAndPan="magnify" viewBox="0 0 375 374.999991" height="500" preserveAspectRatio="xMidYMid meet" version="1.0"><defs><clipPath id="8be01749b3"><path d="M 137 29.386719 L 230 29.386719 L 230 55 L 137 55 Z M 137 29.386719 " clip-rule="nonzero"/></clipPath><clipPath id="cff4ac3437"><path d="M 61 29.386719 L 306.195312 29.386719 L 306.195312 345.886719 L 61 345.886719 Z M 61 29.386719 " clip-rule="nonzero"/></clipPath><clipPath id="3977eb8f1e"><path d="M 229 29.386719 L 245 29.386719 L 245 45 L 229 45 Z M 229 29.386719 " clip-rule="nonzero"/></clipPath><clipPath id="e150c6b959"><path d="M 122 29.386719 L 138 29.386719 L 138 45 L 122 45 Z M 122 29.386719 " clip-rule="nonzero"/></clipPath></defs><g clip-path="url(#8be01749b3)"><path fill="#9e7059" d="M 137.632812 29.386719 L 229.503906 29.386719 L 229.503906 54.910156 L 137.632812 54.910156 Z M 137.632812 29.386719 " fill-opacity="1" fill-rule="nonzero"/></g><g clip-path="url(#cff4ac3437)"><path fill="#9e7059" d="M 249.921875 54.910156 L 244.816406 54.910156 L 244.816406 29.386719 L 306.0625 29.386719 L 306.0625 345.886719 L 61.074219 345.886719 L 61.074219 29.386719 L 122.320312 29.386719 L 122.320312 54.910156 L 81.488281 54.910156 L 81.488281 320.359375 L 285.648438 320.359375 L 285.648438 54.910156 Z M 249.921875 54.910156 " fill-opacity="1" fill-rule="nonzero"/><path fill="#995b3f" d="M 306.0625 29.386719 L 306.0625 345.886719 L 61.074219 345.886719 L 61.074219 320.359375 L 285.648438 320.359375 L 285.648438 54.910156 L 260.128906 54.910156 L 260.128906 29.386719 Z M 306.0625 29.386719 " fill-opacity="1" fill-rule="nonzero"/></g><g clip-path="url(#3977eb8f1e)"><path fill="#666666" d="M 229.503906 29.386719 L 244.816406 29.386719 L 244.816406 44.699219 L 229.503906 44.699219 Z M 229.503906 29.386719 " fill-opacity="1" fill-rule="nonzero"/></g><g clip-path="url(#e150c6b959)"><path fill="#666666" d="M 122.320312 29.386719 L 137.632812 29.386719 L 137.632812 44.699219 L 122.320312 44.699219 Z M 122.320312 29.386719 " fill-opacity="1" fill-rule="nonzero"/></g><path fill="#666666" d="M 163.152344 70.222656 L 203.984375 70.222656 L 203.984375 85.539062 L 163.152344 85.539062 Z M 163.152344 70.222656 " fill-opacity="1" fill-rule="nonzero"/><path fill="#f7b801" d="M 244.816406 54.910156 L 244.816406 80.433594 C 244.816406 80.769531 244.785156 81.101562 244.71875 81.429688 C 244.652344 81.757812 244.554688 82.078125 244.429688 82.386719 C 244.300781 82.695312 244.144531 82.992188 243.957031 83.269531 C 243.769531 83.546875 243.558594 83.804688 243.320312 84.042969 C 243.085938 84.28125 242.828125 84.492188 242.546875 84.679688 C 242.269531 84.863281 241.976562 85.019531 241.667969 85.148438 C 241.355469 85.277344 241.039062 85.375 240.707031 85.441406 C 240.378906 85.503906 240.046875 85.539062 239.714844 85.539062 L 203.984375 85.539062 L 203.984375 70.222656 L 224.402344 70.222656 C 224.734375 70.222656 225.066406 70.191406 225.398438 70.125 C 225.726562 70.058594 226.042969 69.964844 226.355469 69.835938 C 226.664062 69.707031 226.957031 69.550781 227.238281 69.363281 C 227.515625 69.175781 227.773438 68.964844 228.011719 68.726562 C 228.246094 68.492188 228.457031 68.234375 228.644531 67.953125 C 228.832031 67.675781 228.988281 67.382812 229.117188 67.074219 C 229.246094 66.761719 229.339844 66.445312 229.40625 66.113281 C 229.472656 65.785156 229.503906 65.453125 229.503906 65.117188 L 229.503906 44.699219 L 244.816406 44.699219 Z M 244.816406 54.910156 " fill-opacity="1" fill-rule="nonzero"/><path fill="#f7b801" d="M 142.738281 70.222656 L 163.152344 70.222656 L 163.152344 85.539062 L 127.425781 85.539062 C 127.089844 85.539062 126.757812 85.503906 126.429688 85.441406 C 126.101562 85.375 125.78125 85.277344 125.472656 85.148438 C 125.164062 85.019531 124.867188 84.863281 124.589844 84.679688 C 124.3125 84.492188 124.054688 84.28125 123.816406 84.042969 C 123.578125 83.804688 123.367188 83.546875 123.183594 83.269531 C 122.996094 82.992188 122.839844 82.695312 122.710938 82.386719 C 122.582031 82.078125 122.484375 81.757812 122.417969 81.429688 C 122.355469 81.101562 122.320312 80.769531 122.320312 80.433594 L 122.320312 44.699219 L 137.632812 44.699219 L 137.632812 65.117188 C 137.632812 65.453125 137.667969 65.785156 137.730469 66.113281 C 137.796875 66.445312 137.894531 66.761719 138.023438 67.074219 C 138.152344 67.382812 138.308594 67.675781 138.492188 67.953125 C 138.679688 68.234375 138.890625 68.492188 139.128906 68.726562 C 139.367188 68.964844 139.625 69.175781 139.902344 69.363281 C 140.179688 69.550781 140.476562 69.707031 140.785156 69.835938 C 141.09375 69.964844 141.414062 70.058594 141.742188 70.125 C 142.070312 70.191406 142.402344 70.222656 142.738281 70.222656 Z M 142.738281 70.222656 " fill-opacity="1" fill-rule="nonzero"/><path fill="#eaeaea" d="M 224.402344 70.222656 C 224.734375 70.222656 225.066406 70.191406 225.398438 70.125 C 225.726562 70.058594 226.042969 69.964844 226.355469 69.835938 C 226.664062 69.707031 226.957031 69.550781 227.238281 69.363281 C 227.515625 69.175781 227.773438 68.964844 228.011719 68.726562 C 228.246094 68.492188 228.457031 68.234375 228.644531 67.953125 C 228.832031 67.675781 228.988281 67.382812 229.117188 67.074219 C 229.246094 66.761719 229.339844 66.445312 229.40625 66.113281 C 229.472656 65.785156 229.503906 65.453125 229.503906 65.117188 L 229.503906 54.910156 L 137.632812 54.910156 L 137.632812 65.117188 C 137.632812 65.453125 137.667969 65.785156 137.730469 66.113281 C 137.796875 66.445312 137.894531 66.761719 138.023438 67.074219 C 138.152344 67.382812 138.308594 67.675781 138.492188 67.953125 C 138.679688 68.234375 138.890625 68.492188 139.128906 68.726562 C 139.367188 68.964844 139.625 69.175781 139.902344 69.363281 C 140.179688 69.550781 140.476562 69.707031 140.785156 69.835938 C 141.09375 69.964844 141.414062 70.058594 141.742188 70.125 C 142.070312 70.191406 142.402344 70.222656 142.738281 70.222656 Z M 224.402344 70.222656 " fill-opacity="1" fill-rule="nonzero"/><path fill="#eaeaea" d="M 249.921875 54.910156 L 244.816406 54.910156 L 244.816406 80.433594 C 244.816406 80.769531 244.785156 81.101562 244.71875 81.429688 C 244.652344 81.757812 244.554688 82.078125 244.429688 82.386719 C 244.300781 82.695312 244.144531 82.992188 243.957031 83.269531 C 243.769531 83.546875 243.558594 83.804688 243.320312 84.042969 C 243.085938 84.28125 242.828125 84.492188 242.546875 84.679688 C 242.269531 84.863281 241.976562 85.019531 241.667969 85.148438 C 241.355469 85.277344 241.039062 85.375 240.707031 85.441406 C 240.378906 85.503906 240.046875 85.539062 239.714844 85.539062 L 127.425781 85.539062 C 127.089844 85.539062 126.757812 85.503906 126.429688 85.441406 C 126.101562 85.375 125.78125 85.277344 125.472656 85.148438 C 125.164062 85.019531 124.867188 84.863281 124.589844 84.679688 C 124.3125 84.492188 124.054688 84.28125 123.816406 84.042969 C 123.578125 83.804688 123.367188 83.546875 123.183594 83.269531 C 122.996094 82.992188 122.839844 82.695312 122.710938 82.386719 C 122.582031 82.078125 122.484375 81.757812 122.417969 81.429688 C 122.355469 81.101562 122.320312 80.769531 122.320312 80.433594 L 122.320312 54.910156 L 81.488281 54.910156 L 81.488281 320.359375 L 285.648438 320.359375 L 285.648438 54.910156 Z M 249.921875 54.910156 " fill-opacity="1" fill-rule="nonzero"/><path fill="#b7b7b7" d="M 285.648438 54.910156 L 285.648438 320.359375 L 81.488281 320.359375 L 81.488281 294.835938 L 239.714844 294.835938 C 240.382812 294.835938 241.046875 294.804688 241.714844 294.738281 C 242.378906 294.671875 243.039062 294.574219 243.695312 294.445312 C 244.351562 294.3125 245 294.152344 245.640625 293.957031 C 246.277344 293.761719 246.90625 293.539062 247.527344 293.28125 C 248.144531 293.027344 248.746094 292.742188 249.335938 292.425781 C 249.925781 292.109375 250.5 291.765625 251.054688 291.394531 C 251.609375 291.023438 252.148438 290.625 252.664062 290.203125 C 253.179688 289.777344 253.675781 289.328125 254.148438 288.855469 C 254.621094 288.382812 255.070312 287.886719 255.496094 287.371094 C 255.917969 286.855469 256.316406 286.316406 256.6875 285.761719 C 257.058594 285.207031 257.402344 284.632812 257.71875 284.042969 C 258.035156 283.453125 258.320312 282.847656 258.574219 282.230469 C 258.832031 281.613281 259.054688 280.984375 259.25 280.34375 C 259.445312 279.703125 259.605469 279.058594 259.738281 278.402344 C 259.867188 277.746094 259.964844 277.085938 260.03125 276.417969 C 260.097656 275.753906 260.128906 275.085938 260.128906 274.417969 L 260.128906 54.910156 Z M 285.648438 54.910156 " fill-opacity="1" fill-rule="nonzero"/><path fill="#666666" d="M 260.128906 146.796875 L 142.738281 146.796875 C 142.402344 146.796875 142.070312 146.761719 141.742188 146.699219 C 141.414062 146.632812 141.09375 146.535156 140.785156 146.40625 C 140.476562 146.28125 140.179688 146.121094 139.902344 145.9375 C 139.625 145.75 139.367188 145.539062 139.128906 145.300781 C 138.890625 145.0625 138.679688 144.804688 138.492188 144.527344 C 138.308594 144.25 138.152344 143.953125 138.023438 143.644531 C 137.894531 143.335938 137.796875 143.015625 137.730469 142.6875 C 137.667969 142.359375 137.632812 142.027344 137.632812 141.691406 C 137.632812 141.355469 137.667969 141.023438 137.730469 140.695312 C 137.796875 140.367188 137.894531 140.046875 138.023438 139.738281 C 138.152344 139.429688 138.308594 139.132812 138.492188 138.855469 C 138.679688 138.578125 138.890625 138.320312 139.128906 138.082031 C 139.367188 137.84375 139.625 137.632812 139.902344 137.445312 C 140.179688 137.261719 140.476562 137.101562 140.785156 136.976562 C 141.09375 136.847656 141.414062 136.75 141.742188 136.683594 C 142.070312 136.621094 142.402344 136.585938 142.738281 136.585938 L 260.128906 136.585938 C 260.464844 136.585938 260.796875 136.621094 261.125 136.683594 C 261.453125 136.75 261.773438 136.847656 262.082031 136.976562 C 262.390625 137.101562 262.6875 137.261719 262.964844 137.445312 C 263.242188 137.632812 263.5 137.84375 263.738281 138.082031 C 263.976562 138.320312 264.1875 138.578125 264.371094 138.855469 C 264.558594 139.132812 264.714844 139.429688 264.84375 139.738281 C 264.972656 140.046875 265.070312 140.367188 265.132812 140.695312 C 265.199219 141.023438 265.234375 141.355469 265.234375 141.691406 C 265.234375 142.027344 265.199219 142.359375 265.132812 142.6875 C 265.070312 143.015625 264.972656 143.335938 264.84375 143.644531 C 264.714844 143.953125 264.558594 144.25 264.371094 144.527344 C 264.1875 144.804688 263.976562 145.0625 263.738281 145.300781 C 263.5 145.539062 263.242188 145.75 262.964844 145.9375 C 262.6875 146.121094 262.390625 146.28125 262.082031 146.40625 C 261.773438 146.535156 261.453125 146.632812 261.125 146.699219 C 260.796875 146.761719 260.464844 146.796875 260.128906 146.796875 Z M 260.128906 146.796875 " fill-opacity="1" fill-rule="nonzero"/><path fill="#666666" d="M 209.089844 126.375 L 142.738281 126.375 C 142.402344 126.375 142.070312 126.34375 141.742188 126.277344 C 141.414062 126.214844 141.09375 126.117188 140.785156 125.988281 C 140.476562 125.859375 140.179688 125.703125 139.902344 125.515625 C 139.625 125.332031 139.367188 125.117188 139.128906 124.882812 C 138.890625 124.644531 138.679688 124.386719 138.492188 124.109375 C 138.308594 123.828125 138.152344 123.535156 138.023438 123.226562 C 137.894531 122.914062 137.796875 122.597656 137.730469 122.269531 C 137.667969 121.9375 137.632812 121.605469 137.632812 121.273438 C 137.632812 120.9375 137.667969 120.605469 137.730469 120.277344 C 137.796875 119.949219 137.894531 119.628906 138.023438 119.320312 C 138.152344 119.007812 138.308594 118.714844 138.492188 118.4375 C 138.679688 118.15625 138.890625 117.898438 139.128906 117.664062 C 139.367188 117.425781 139.625 117.214844 139.902344 117.027344 C 140.179688 116.839844 140.476562 116.683594 140.785156 116.554688 C 141.09375 116.425781 141.414062 116.332031 141.742188 116.265625 C 142.070312 116.199219 142.402344 116.167969 142.738281 116.167969 L 209.089844 116.167969 C 209.425781 116.167969 209.757812 116.199219 210.085938 116.265625 C 210.414062 116.332031 210.734375 116.425781 211.042969 116.554688 C 211.351562 116.683594 211.644531 116.839844 211.925781 117.027344 C 212.203125 117.214844 212.460938 117.425781 212.699219 117.664062 C 212.933594 117.898438 213.148438 118.15625 213.332031 118.4375 C 213.519531 118.714844 213.675781 119.007812 213.804688 119.320312 C 213.933594 119.628906 214.03125 119.949219 214.09375 120.277344 C 214.160156 120.605469 214.191406 120.9375 214.191406 121.273438 C 214.191406 121.605469 214.160156 121.9375 214.09375 122.269531 C 214.03125 122.597656 213.933594 122.914062 213.804688 123.226562 C 213.675781 123.535156 213.519531 123.828125 213.332031 124.109375 C 213.148438 124.386719 212.933594 124.644531 212.699219 124.882812 C 212.460938 125.117188 212.203125 125.332031 211.925781 125.515625 C 211.644531 125.703125 211.351562 125.859375 211.042969 125.988281 C 210.734375 126.117188 210.414062 126.214844 210.085938 126.277344 C 209.757812 126.34375 209.425781 126.375 209.089844 126.375 Z M 209.089844 126.375 " fill-opacity="1" fill-rule="nonzero"/><path fill="#666666" d="M 260.128906 192.738281 L 142.738281 192.738281 C 142.402344 192.738281 142.070312 192.707031 141.742188 192.640625 C 141.414062 192.578125 141.09375 192.480469 140.785156 192.351562 C 140.476562 192.222656 140.179688 192.066406 139.902344 191.878906 C 139.625 191.691406 139.367188 191.480469 139.128906 191.246094 C 138.890625 191.007812 138.679688 190.75 138.492188 190.472656 C 138.308594 190.191406 138.152344 189.898438 138.023438 189.589844 C 137.894531 189.277344 137.796875 188.960938 137.730469 188.628906 C 137.667969 188.300781 137.632812 187.96875 137.632812 187.636719 C 137.632812 187.300781 137.667969 186.96875 137.730469 186.640625 C 137.796875 186.308594 137.894531 185.992188 138.023438 185.679688 C 138.152344 185.371094 138.308594 185.078125 138.492188 184.800781 C 138.679688 184.519531 138.890625 184.261719 139.128906 184.023438 C 139.367188 183.789062 139.625 183.578125 139.902344 183.390625 C 140.179688 183.203125 140.476562 183.046875 140.785156 182.917969 C 141.09375 182.789062 141.414062 182.695312 141.742188 182.628906 C 142.070312 182.5625 142.402344 182.53125 142.738281 182.53125 L 260.128906 182.53125 C 260.464844 182.53125 260.796875 182.5625 261.125 182.628906 C 261.453125 182.695312 261.773438 182.789062 262.082031 182.917969 C 262.390625 183.046875 262.6875 183.203125 262.964844 183.390625 C 263.242188 183.578125 263.5 183.789062 263.738281 184.023438 C 263.976562 184.261719 264.1875 184.519531 264.371094 184.800781 C 264.558594 185.078125 264.714844 185.371094 264.84375 185.679688 C 264.972656 185.992188 265.070312 186.308594 265.132812 186.640625 C 265.199219 186.96875 265.234375 187.300781 265.234375 187.636719 C 265.234375 187.96875 265.199219 188.300781 265.132812 188.628906 C 265.070312 188.960938 264.972656 189.277344 264.84375 189.589844 C 264.714844 189.898438 264.558594 190.191406 264.371094 190.472656 C 264.1875 190.75 263.976562 191.007812 263.738281 191.246094 C 263.5 191.480469 263.242188 191.691406 262.964844 191.878906 C 262.6875 192.066406 262.390625 192.222656 262.082031 192.351562 C 261.773438 192.480469 261.453125 192.578125 261.125 192.640625 C 260.796875 192.707031 260.464844 192.738281 260.128906 192.738281 Z M 260.128906 192.738281 " fill-opacity="1" fill-rule="nonzero"/><path fill="#666666" d="M 209.089844 172.320312 L 142.738281 172.320312 C 142.402344 172.320312 142.070312 172.289062 141.742188 172.222656 C 141.414062 172.15625 141.09375 172.058594 140.785156 171.933594 C 140.476562 171.804688 140.179688 171.644531 139.902344 171.460938 C 139.625 171.273438 139.367188 171.0625 139.128906 170.824219 C 138.890625 170.589844 138.679688 170.332031 138.492188 170.050781 C 138.308594 169.773438 138.152344 169.480469 138.023438 169.167969 C 137.894531 168.859375 137.796875 168.539062 137.730469 168.210938 C 137.667969 167.882812 137.632812 167.550781 137.632812 167.214844 C 137.632812 166.878906 137.667969 166.546875 137.730469 166.21875 C 137.796875 165.890625 137.894531 165.570312 138.023438 165.261719 C 138.152344 164.953125 138.308594 164.65625 138.492188 164.378906 C 138.679688 164.101562 138.890625 163.84375 139.128906 163.605469 C 139.367188 163.367188 139.625 163.15625 139.902344 162.972656 C 140.179688 162.785156 140.476562 162.628906 140.785156 162.5 C 141.09375 162.371094 141.414062 162.273438 141.742188 162.207031 C 142.070312 162.144531 142.402344 162.109375 142.738281 162.109375 L 209.089844 162.109375 C 209.425781 162.109375 209.757812 162.144531 210.085938 162.207031 C 210.414062 162.273438 210.734375 162.371094 211.042969 162.5 C 211.351562 162.628906 211.644531 162.785156 211.925781 162.972656 C 212.203125 163.15625 212.460938 163.367188 212.699219 163.605469 C 212.933594 163.84375 213.148438 164.101562 213.332031 164.378906 C 213.519531 164.65625 213.675781 164.953125 213.804688 165.261719 C 213.933594 165.570312 214.03125 165.890625 214.09375 166.21875 C 214.160156 166.546875 214.191406 166.878906 214.191406 167.214844 C 214.191406 167.550781 214.160156 167.882812 214.09375 168.210938 C 214.03125 168.539062 213.933594 168.859375 213.804688 169.167969 C 213.675781 169.480469 213.519531 169.773438 213.332031 170.050781 C 213.148438 170.332031 212.933594 170.589844 212.699219 170.824219 C 212.460938 171.0625 212.203125 171.273438 211.925781 171.460938 C 211.644531 171.644531 211.351562 171.804688 211.042969 171.933594 C 210.734375 172.058594 210.414062 172.15625 210.085938 172.222656 C 209.757812 172.289062 209.425781 172.320312 209.089844 172.320312 Z M 209.089844 172.320312 " fill-opacity="1" fill-rule="nonzero"/><path fill="#bd1f36" d="M 107.011719 141.691406 C 106.332031 141.691406 105.683594 141.5625 105.058594 141.300781 C 104.433594 141.042969 103.878906 140.675781 103.402344 140.195312 L 93.195312 129.984375 C 92.964844 129.746094 92.757812 129.488281 92.578125 129.210938 C 92.398438 128.933594 92.246094 128.640625 92.125 128.332031 C 92 128.023438 91.910156 127.707031 91.847656 127.382812 C 91.789062 127.054688 91.757812 126.726562 91.761719 126.394531 C 91.765625 126.0625 91.796875 125.734375 91.867188 125.410156 C 91.933594 125.085938 92.03125 124.769531 92.15625 124.464844 C 92.285156 124.160156 92.441406 123.871094 92.628906 123.59375 C 92.8125 123.320312 93.019531 123.0625 93.253906 122.828125 C 93.488281 122.59375 93.746094 122.386719 94.019531 122.203125 C 94.296875 122.015625 94.585938 121.859375 94.890625 121.730469 C 95.195312 121.605469 95.511719 121.507812 95.835938 121.441406 C 96.160156 121.371094 96.488281 121.339844 96.820312 121.335938 C 97.152344 121.332031 97.480469 121.359375 97.804688 121.421875 C 98.132812 121.484375 98.449219 121.574219 98.757812 121.699219 C 99.0625 121.820312 99.355469 121.972656 99.636719 122.152344 C 99.914062 122.332031 100.171875 122.539062 100.410156 122.769531 L 106.667969 129.027344 L 128.613281 102.691406 C 128.832031 102.441406 129.070312 102.21875 129.332031 102.015625 C 129.59375 101.8125 129.871094 101.636719 130.167969 101.488281 C 130.460938 101.339844 130.765625 101.222656 131.085938 101.132812 C 131.402344 101.046875 131.726562 100.988281 132.054688 100.960938 C 132.382812 100.9375 132.710938 100.941406 133.039062 100.980469 C 133.367188 101.019531 133.6875 101.085938 134.003906 101.1875 C 134.316406 101.289062 134.621094 101.417969 134.910156 101.574219 C 135.199219 101.734375 135.46875 101.917969 135.722656 102.128906 C 135.976562 102.339844 136.207031 102.574219 136.417969 102.832031 C 136.625 103.085938 136.804688 103.359375 136.960938 103.652344 C 137.117188 103.945312 137.242188 104.246094 137.339844 104.5625 C 137.433594 104.878906 137.5 105.199219 137.535156 105.527344 C 137.566406 105.855469 137.570312 106.183594 137.539062 106.515625 C 137.507812 106.84375 137.449219 107.164062 137.355469 107.480469 C 137.261719 107.800781 137.140625 108.105469 136.988281 108.398438 C 136.839844 108.691406 136.660156 108.964844 136.453125 109.226562 L 110.933594 139.855469 C 110.476562 140.40625 109.925781 140.839844 109.28125 141.160156 C 108.640625 141.476562 107.960938 141.652344 107.246094 141.6875 Z M 107.011719 141.691406 " fill-opacity="1" fill-rule="nonzero"/><path fill="#bd1f36" d="M 107.011719 192.738281 C 106.332031 192.738281 105.683594 192.609375 105.058594 192.351562 C 104.433594 192.089844 103.878906 191.722656 103.402344 191.242188 L 93.195312 181.035156 C 92.964844 180.796875 92.757812 180.539062 92.578125 180.257812 C 92.398438 179.980469 92.246094 179.6875 92.125 179.378906 C 92 179.070312 91.910156 178.753906 91.847656 178.429688 C 91.789062 178.105469 91.757812 177.773438 91.761719 177.445312 C 91.765625 177.113281 91.796875 176.785156 91.867188 176.460938 C 91.933594 176.136719 92.03125 175.820312 92.15625 175.515625 C 92.285156 175.207031 92.441406 174.917969 92.628906 174.644531 C 92.8125 174.367188 93.019531 174.113281 93.253906 173.878906 C 93.488281 173.644531 93.746094 173.433594 94.019531 173.25 C 94.296875 173.066406 94.585938 172.910156 94.890625 172.78125 C 95.195312 172.652344 95.511719 172.554688 95.835938 172.488281 C 96.160156 172.421875 96.488281 172.386719 96.820312 172.382812 C 97.152344 172.378906 97.480469 172.410156 97.804688 172.472656 C 98.132812 172.53125 98.449219 172.625 98.757812 172.746094 C 99.0625 172.871094 99.355469 173.019531 99.636719 173.199219 C 99.914062 173.378906 100.171875 173.585938 100.410156 173.816406 L 106.667969 180.074219 L 128.613281 153.738281 C 128.832031 153.492188 129.070312 153.265625 129.332031 153.0625 C 129.59375 152.859375 129.871094 152.6875 130.167969 152.539062 C 130.460938 152.390625 130.765625 152.273438 131.085938 152.183594 C 131.402344 152.09375 131.726562 152.035156 132.054688 152.011719 C 132.382812 151.984375 132.710938 151.992188 133.039062 152.027344 C 133.367188 152.066406 133.6875 152.136719 134.003906 152.234375 C 134.316406 152.335938 134.621094 152.464844 134.910156 152.625 C 135.199219 152.78125 135.46875 152.96875 135.722656 153.179688 C 135.976562 153.390625 136.207031 153.625 136.417969 153.878906 C 136.625 154.136719 136.804688 154.410156 136.960938 154.699219 C 137.117188 154.992188 137.242188 155.296875 137.339844 155.609375 C 137.433594 155.925781 137.5 156.25 137.535156 156.578125 C 137.566406 156.90625 137.570312 157.234375 137.539062 157.5625 C 137.507812 157.890625 137.449219 158.214844 137.355469 158.53125 C 137.261719 158.847656 137.140625 159.152344 136.988281 159.445312 C 136.839844 159.738281 136.660156 160.015625 136.453125 160.273438 L 110.933594 190.902344 C 110.476562 191.453125 109.925781 191.886719 109.28125 192.207031 C 108.640625 192.527344 107.960938 192.703125 107.246094 192.734375 Z M 107.011719 192.738281 " fill-opacity="1" fill-rule="nonzero"/><path fill="#bd1f36" d="M 218.847656 256.585938 L 209.375 231.320312 C 209.191406 230.835938 208.941406 230.386719 208.621094 229.980469 C 208.300781 229.570312 207.929688 229.21875 207.503906 228.921875 C 207.074219 228.625 206.613281 228.402344 206.121094 228.246094 C 205.625 228.089844 205.117188 228.015625 204.597656 228.015625 C 204.078125 228.015625 203.570312 228.09375 203.074219 228.25 C 202.582031 228.40625 202.121094 228.632812 201.691406 228.925781 C 201.265625 229.222656 200.894531 229.578125 200.574219 229.988281 C 200.257812 230.398438 200.007812 230.847656 199.824219 231.332031 L 184.511719 272.171875 C 184.410156 272.480469 184.339844 272.800781 184.296875 273.125 C 184.253906 273.449219 184.242188 273.773438 184.265625 274.101562 C 184.285156 274.425781 184.335938 274.746094 184.417969 275.066406 C 184.5 275.382812 184.613281 275.6875 184.753906 275.980469 C 184.894531 276.277344 185.0625 276.554688 185.257812 276.820312 C 185.453125 277.082031 185.671875 277.324219 185.910156 277.542969 C 186.152344 277.765625 186.414062 277.960938 186.691406 278.132812 C 186.972656 278.304688 187.265625 278.445312 187.570312 278.558594 C 187.875 278.675781 188.191406 278.757812 188.511719 278.8125 C 188.835938 278.867188 189.160156 278.890625 189.488281 278.882812 C 189.816406 278.875 190.136719 278.835938 190.457031 278.765625 C 190.777344 278.691406 191.085938 278.59375 191.386719 278.460938 C 191.6875 278.332031 191.972656 278.175781 192.242188 277.992188 C 192.511719 277.804688 192.761719 277.597656 192.992188 277.363281 C 193.222656 277.132812 193.425781 276.878906 193.609375 276.605469 C 193.789062 276.332031 193.941406 276.046875 194.066406 275.746094 L 198.574219 263.734375 L 210.621094 263.734375 L 215.113281 275.730469 C 215.230469 276.042969 215.375 276.34375 215.550781 276.628906 C 215.730469 276.914062 215.929688 277.179688 216.160156 277.421875 C 216.386719 277.667969 216.636719 277.890625 216.910156 278.085938 C 217.183594 278.28125 217.472656 278.449219 217.777344 278.589844 C 218.082031 278.726562 218.394531 278.835938 218.722656 278.914062 C 219.050781 278.988281 219.378906 279.035156 219.714844 279.046875 C 220.050781 279.058594 220.382812 279.035156 220.714844 278.980469 C 221.042969 278.929688 221.367188 278.84375 221.679688 278.726562 C 221.996094 278.609375 222.292969 278.460938 222.578125 278.285156 C 222.863281 278.109375 223.128906 277.90625 223.375 277.679688 C 223.621094 277.449219 223.839844 277.199219 224.035156 276.925781 C 224.234375 276.65625 224.398438 276.367188 224.539062 276.0625 C 224.679688 275.757812 224.785156 275.441406 224.863281 275.113281 C 224.941406 274.789062 224.984375 274.457031 224.996094 274.121094 C 225.007812 273.789062 224.988281 273.453125 224.933594 273.125 C 224.878906 272.792969 224.792969 272.46875 224.675781 272.15625 L 218.902344 256.757812 C 218.894531 256.714844 218.878906 256.652344 218.847656 256.585938 Z M 202.402344 253.523438 L 204.613281 247.640625 L 206.8125 253.523438 Z M 202.402344 253.523438 " fill-opacity="1" fill-rule="nonzero"/><path fill="#bd1f36" d="M 225.011719 243.328125 L 227.566406 243.328125 L 227.566406 245.851562 C 227.5625 246.1875 227.59375 246.519531 227.65625 246.847656 C 227.722656 247.175781 227.816406 247.496094 227.941406 247.804688 C 228.070312 248.117188 228.222656 248.410156 228.410156 248.691406 C 228.59375 248.972656 228.804688 249.230469 229.039062 249.46875 C 229.273438 249.707031 229.53125 249.921875 229.808594 250.109375 C 230.085938 250.296875 230.378906 250.457031 230.6875 250.585938 C 230.996094 250.714844 231.316406 250.816406 231.644531 250.882812 C 231.972656 250.949219 232.304688 250.984375 232.640625 250.984375 L 232.667969 250.984375 C 233.003906 250.984375 233.332031 250.953125 233.660156 250.890625 C 233.988281 250.824219 234.304688 250.726562 234.613281 250.601562 C 234.921875 250.472656 235.214844 250.316406 235.492188 250.132812 C 235.773438 249.949219 236.027344 249.738281 236.265625 249.503906 C 236.503906 249.269531 236.714844 249.011719 236.902344 248.734375 C 237.085938 248.460938 237.246094 248.167969 237.375 247.859375 C 237.503906 247.550781 237.601562 247.234375 237.667969 246.90625 C 237.738281 246.582031 237.769531 246.25 237.773438 245.917969 L 237.773438 243.328125 L 240.324219 243.328125 C 240.660156 243.328125 240.992188 243.296875 241.320312 243.230469 C 241.648438 243.164062 241.96875 243.070312 242.277344 242.941406 C 242.589844 242.8125 242.882812 242.65625 243.160156 242.46875 C 243.441406 242.28125 243.699219 242.070312 243.933594 241.832031 C 244.171875 241.597656 244.382812 241.339844 244.570312 241.058594 C 244.753906 240.78125 244.914062 240.488281 245.039062 240.175781 C 245.167969 239.867188 245.265625 239.546875 245.332031 239.21875 C 245.398438 238.890625 245.429688 238.558594 245.429688 238.222656 C 245.429688 237.890625 245.398438 237.558594 245.332031 237.226562 C 245.265625 236.898438 245.167969 236.578125 245.039062 236.269531 C 244.914062 235.960938 244.753906 235.667969 244.570312 235.386719 C 244.382812 235.109375 244.171875 234.851562 243.933594 234.613281 C 243.699219 234.378906 243.441406 234.164062 243.160156 233.980469 C 242.882812 233.792969 242.589844 233.636719 242.277344 233.507812 C 241.96875 233.378906 241.648438 233.28125 241.320312 233.21875 C 240.992188 233.152344 240.660156 233.117188 240.324219 233.117188 L 237.8125 233.117188 L 237.8125 230.566406 C 237.8125 230.230469 237.78125 229.898438 237.714844 229.570312 C 237.652344 229.242188 237.554688 228.921875 237.425781 228.613281 C 237.296875 228.304688 237.140625 228.007812 236.953125 227.730469 C 236.769531 227.453125 236.554688 227.195312 236.320312 226.957031 C 236.082031 226.71875 235.824219 226.507812 235.546875 226.320312 C 235.265625 226.136719 234.972656 225.980469 234.664062 225.851562 C 234.355469 225.722656 234.035156 225.625 233.707031 225.558594 C 233.378906 225.496094 233.046875 225.460938 232.710938 225.460938 C 232.375 225.460938 232.042969 225.496094 231.714844 225.558594 C 231.386719 225.625 231.066406 225.722656 230.757812 225.851562 C 230.449219 225.980469 230.152344 226.136719 229.875 226.320312 C 229.597656 226.507812 229.339844 226.71875 229.101562 226.957031 C 228.863281 227.195312 228.652344 227.453125 228.464844 227.730469 C 228.28125 228.007812 228.121094 228.304688 227.996094 228.613281 C 227.867188 228.921875 227.769531 229.242188 227.703125 229.570312 C 227.640625 229.898438 227.605469 230.230469 227.605469 230.566406 L 227.605469 233.117188 L 225.011719 233.117188 C 224.679688 233.117188 224.347656 233.152344 224.019531 233.21875 C 223.6875 233.28125 223.371094 233.378906 223.058594 233.507812 C 222.75 233.636719 222.457031 233.792969 222.179688 233.980469 C 221.898438 234.164062 221.640625 234.378906 221.40625 234.613281 C 221.167969 234.851562 220.957031 235.109375 220.769531 235.386719 C 220.582031 235.667969 220.425781 235.960938 220.296875 236.269531 C 220.167969 236.578125 220.074219 236.898438 220.007812 237.226562 C 219.941406 237.558594 219.910156 237.890625 219.910156 238.222656 C 219.910156 238.558594 219.941406 238.890625 220.007812 239.21875 C 220.074219 239.546875 220.167969 239.867188 220.296875 240.175781 C 220.425781 240.488281 220.582031 240.78125 220.769531 241.058594 C 220.957031 241.339844 221.167969 241.597656 221.40625 241.832031 C 221.640625 242.070312 221.898438 242.28125 222.179688 242.46875 C 222.457031 242.65625 222.75 242.8125 223.058594 242.941406 C 223.371094 243.070312 223.6875 243.164062 224.019531 243.230469 C 224.347656 243.296875 224.679688 243.328125 225.011719 243.328125 Z M 225.011719 243.328125 " fill-opacity="1" fill-rule="nonzero"/><path fill="#bd1f36" d="M 242.550781 211.566406 C 242.273438 211.378906 241.976562 211.222656 241.667969 211.09375 C 241.359375 210.96875 241.039062 210.871094 240.710938 210.804688 C 240.382812 210.742188 240.050781 210.707031 239.714844 210.707031 C 239.378906 210.707031 239.046875 210.742188 238.71875 210.808594 C 238.390625 210.871094 238.070312 210.96875 237.761719 211.097656 C 237.453125 211.226562 237.15625 211.382812 236.878906 211.570312 C 236.601562 211.757812 236.34375 211.96875 236.105469 212.203125 C 235.867188 212.441406 235.65625 212.699219 235.472656 212.976562 C 235.285156 213.257812 235.128906 213.550781 235 213.859375 C 234.871094 214.171875 234.773438 214.488281 234.707031 214.820312 C 234.644531 215.148438 234.609375 215.480469 234.609375 215.8125 C 234.609375 216.148438 234.640625 216.480469 234.707031 216.808594 C 234.773438 217.140625 234.871094 217.457031 234.996094 217.769531 C 235.125 218.078125 235.28125 218.371094 235.46875 218.652344 C 235.65625 218.929688 235.867188 219.1875 236.101562 219.425781 C 236.339844 219.664062 236.597656 219.875 236.875 220.0625 C 237.546875 220.511719 238.203125 220.980469 238.847656 221.46875 C 239.488281 221.957031 240.117188 222.460938 240.730469 222.988281 C 241.34375 223.511719 241.941406 224.058594 242.523438 224.617188 C 243.101562 225.179688 243.667969 225.757812 244.214844 226.351562 C 244.761719 226.945312 245.289062 227.554688 245.800781 228.179688 C 246.308594 228.808594 246.800781 229.449219 247.273438 230.101562 C 247.746094 230.757812 248.199219 231.425781 248.632812 232.109375 C 249.066406 232.789062 249.476562 233.484375 249.867188 234.191406 C 250.261719 234.894531 250.628906 235.613281 250.980469 236.339844 C 251.328125 237.070312 251.65625 237.808594 251.960938 238.554688 C 252.265625 239.304688 252.550781 240.058594 252.808594 240.824219 C 253.070312 241.589844 253.308594 242.359375 253.523438 243.136719 C 253.738281 243.917969 253.929688 244.703125 254.097656 245.492188 C 254.265625 246.28125 254.410156 247.074219 254.53125 247.875 C 254.652344 248.671875 254.75 249.472656 254.824219 250.277344 C 254.898438 251.082031 254.945312 251.886719 254.972656 252.695312 C 255 253.503906 255 254.308594 254.976562 255.117188 C 254.957031 255.925781 254.910156 256.730469 254.839844 257.535156 C 254.769531 258.339844 254.675781 259.140625 254.558594 259.941406 C 254.441406 260.738281 254.300781 261.535156 254.136719 262.324219 C 253.96875 263.117188 253.78125 263.902344 253.570312 264.679688 C 253.359375 265.460938 253.125 266.234375 252.867188 267 C 252.613281 267.765625 252.332031 268.523438 252.03125 269.269531 C 251.726562 270.019531 251.40625 270.757812 251.058594 271.488281 C 250.710938 272.21875 250.34375 272.9375 249.957031 273.644531 C 249.570312 274.355469 249.160156 275.050781 248.730469 275.734375 C 248.300781 276.417969 247.851562 277.085938 247.378906 277.746094 C 246.910156 278.402344 246.421875 279.042969 245.914062 279.671875 C 245.40625 280.300781 244.882812 280.914062 244.335938 281.511719 C 243.792969 282.105469 243.230469 282.6875 242.652344 283.25 C 242.074219 283.8125 241.480469 284.359375 240.871094 284.886719 C 240.257812 285.417969 239.632812 285.925781 238.992188 286.417969 C 238.351562 286.910156 237.695312 287.378906 237.027344 287.832031 C 236.359375 288.285156 235.675781 288.71875 234.980469 289.128906 C 234.285156 289.539062 233.578125 289.933594 232.863281 290.300781 C 232.144531 290.671875 231.417969 291.019531 230.675781 291.347656 C 229.9375 291.671875 229.191406 291.976562 228.433594 292.261719 C 227.679688 292.542969 226.914062 292.800781 226.140625 293.039062 C 225.371094 293.277344 224.59375 293.488281 223.808594 293.679688 C 223.023438 293.871094 222.234375 294.039062 221.4375 294.183594 C 220.644531 294.328125 219.84375 294.445312 219.042969 294.542969 C 218.242188 294.640625 217.4375 294.710938 216.632812 294.761719 C 215.828125 294.8125 215.019531 294.835938 214.210938 294.835938 C 213.40625 294.835938 212.597656 294.816406 211.792969 294.769531 C 210.984375 294.722656 210.179688 294.648438 209.378906 294.554688 C 208.578125 294.460938 207.777344 294.34375 206.984375 294.199219 C 206.1875 294.058594 205.398438 293.894531 204.613281 293.703125 C 203.828125 293.515625 203.050781 293.304688 202.277344 293.070312 C 201.503906 292.832031 200.738281 292.574219 199.980469 292.296875 C 199.226562 292.015625 198.476562 291.710938 197.738281 291.386719 C 197 291.0625 196.269531 290.714844 195.550781 290.347656 C 194.832031 289.980469 194.125 289.589844 193.429688 289.179688 C 192.734375 288.769531 192.050781 288.339844 191.378906 287.890625 C 190.710938 287.4375 190.054688 286.96875 189.410156 286.480469 C 188.769531 285.988281 188.140625 285.480469 187.53125 284.953125 C 186.917969 284.425781 186.320312 283.882812 185.742188 283.320312 C 185.160156 282.757812 184.597656 282.179688 184.054688 281.585938 C 183.507812 280.988281 182.980469 280.378906 182.472656 279.75 C 181.960938 279.125 181.472656 278.484375 181 277.828125 C 180.53125 277.171875 180.078125 276.5 179.648438 275.820312 C 179.214844 275.136719 178.804688 274.441406 178.414062 273.734375 C 178.023438 273.027344 177.65625 272.308594 177.308594 271.582031 C 176.960938 270.851562 176.632812 270.113281 176.332031 269.363281 C 176.027344 268.617188 175.746094 267.859375 175.488281 267.09375 C 175.226562 266.328125 174.992188 265.558594 174.777344 264.777344 C 174.566406 264 174.375 263.214844 174.207031 262.425781 C 174.042969 261.632812 173.898438 260.839844 173.78125 260.039062 C 173.660156 259.242188 173.5625 258.441406 173.492188 257.636719 C 173.421875 256.832031 173.371094 256.027344 173.347656 255.21875 C 173.324219 254.410156 173.324219 253.605469 173.347656 252.796875 C 173.371094 251.988281 173.417969 251.183594 173.492188 250.378906 C 173.5625 249.574219 173.65625 248.773438 173.777344 247.972656 C 173.894531 247.175781 174.039062 246.378906 174.203125 245.589844 C 174.371094 244.800781 174.558594 244.015625 174.773438 243.234375 C 174.984375 242.457031 175.222656 241.683594 175.480469 240.917969 C 175.738281 240.152344 176.019531 239.398438 176.324219 238.648438 C 176.628906 237.902344 176.953125 237.160156 177.300781 236.433594 C 177.648438 235.703125 178.015625 234.984375 178.40625 234.277344 C 178.796875 233.570312 179.207031 232.875 179.636719 232.191406 C 180.070312 231.511719 180.519531 230.839844 180.992188 230.183594 C 181.460938 229.527344 181.949219 228.886719 182.460938 228.257812 C 182.96875 227.632812 183.496094 227.019531 184.042969 226.425781 C 184.585938 225.828125 185.148438 225.25 185.726562 224.6875 C 186.308594 224.125 186.902344 223.582031 187.515625 223.054688 C 188.128906 222.527344 188.753906 222.019531 189.394531 221.527344 C 190.039062 221.039062 190.695312 220.566406 191.363281 220.117188 C 192.035156 219.667969 192.71875 219.234375 193.414062 218.824219 C 194.109375 218.414062 194.816406 218.023438 195.535156 217.65625 C 196.253906 217.289062 196.980469 216.941406 197.71875 216.617188 C 198.460938 216.289062 199.207031 215.988281 199.964844 215.707031 C 200.722656 215.425781 201.488281 215.167969 202.257812 214.933594 C 203.03125 214.699219 203.808594 214.484375 204.59375 214.296875 C 205.378906 214.105469 206.171875 213.941406 206.964844 213.796875 C 207.761719 213.65625 208.558594 213.539062 209.359375 213.441406 C 210.164062 213.347656 210.964844 213.277344 211.773438 213.230469 C 212.578125 213.183594 213.386719 213.160156 214.191406 213.160156 C 214.527344 213.160156 214.859375 213.125 215.1875 213.0625 C 215.515625 212.996094 215.835938 212.898438 216.144531 212.769531 C 216.457031 212.640625 216.75 212.484375 217.027344 212.296875 C 217.308594 212.113281 217.566406 211.902344 217.800781 211.664062 C 218.039062 211.425781 218.25 211.167969 218.4375 210.890625 C 218.625 210.613281 218.78125 210.316406 218.910156 210.007812 C 219.035156 209.699219 219.132812 209.378906 219.199219 209.050781 C 219.265625 208.722656 219.296875 208.390625 219.296875 208.054688 C 219.296875 207.71875 219.265625 207.386719 219.199219 207.058594 C 219.132812 206.730469 219.035156 206.410156 218.910156 206.101562 C 218.78125 205.792969 218.625 205.496094 218.4375 205.21875 C 218.25 204.941406 218.039062 204.679688 217.800781 204.445312 C 217.566406 204.207031 217.308594 203.996094 217.027344 203.808594 C 216.75 203.625 216.457031 203.464844 216.144531 203.339844 C 215.835938 203.210938 215.515625 203.113281 215.1875 203.046875 C 214.859375 202.980469 214.527344 202.949219 214.191406 202.949219 C 213.183594 202.949219 212.175781 202.976562 211.164062 203.039062 C 210.15625 203.097656 209.152344 203.1875 208.148438 203.304688 C 207.144531 203.425781 206.148438 203.574219 205.152344 203.75 C 204.160156 203.929688 203.171875 204.136719 202.191406 204.375 C 201.207031 204.609375 200.234375 204.875 199.269531 205.171875 C 198.300781 205.464844 197.34375 205.789062 196.398438 206.140625 C 195.453125 206.492188 194.515625 206.871094 193.59375 207.277344 C 192.667969 207.683594 191.757812 208.121094 190.859375 208.582031 C 189.957031 209.042969 189.074219 209.527344 188.207031 210.042969 C 187.335938 210.554688 186.480469 211.09375 185.644531 211.660156 C 184.804688 212.222656 183.984375 212.8125 183.183594 213.425781 C 182.378906 214.039062 181.597656 214.671875 180.832031 215.332031 C 180.066406 215.992188 179.320312 216.675781 178.597656 217.378906 C 177.871094 218.082031 177.167969 218.804688 176.488281 219.550781 C 175.804688 220.296875 175.148438 221.0625 174.511719 221.84375 C 173.875 222.628906 173.261719 223.433594 172.671875 224.253906 C 172.085938 225.074219 171.519531 225.910156 170.980469 226.765625 C 170.441406 227.621094 169.929688 228.488281 169.441406 229.375 C 168.953125 230.257812 168.492188 231.15625 168.058594 232.070312 C 167.625 232.980469 167.21875 233.90625 166.839844 234.84375 C 166.460938 235.777344 166.109375 236.726562 165.785156 237.683594 C 165.460938 238.640625 165.167969 239.605469 164.902344 240.578125 C 164.636719 241.554688 164.398438 242.535156 164.191406 243.523438 C 163.984375 244.511719 163.804688 245.507812 163.65625 246.503906 C 163.507812 247.503906 163.390625 248.507812 163.300781 249.511719 C 163.210938 250.519531 163.152344 251.527344 163.121094 252.535156 C 163.09375 253.546875 163.09375 254.554688 163.125 255.566406 C 163.15625 256.574219 163.214844 257.582031 163.304688 258.589844 C 163.394531 259.59375 163.515625 260.597656 163.664062 261.597656 C 163.816406 262.597656 163.996094 263.589844 164.203125 264.578125 C 164.414062 265.566406 164.648438 266.546875 164.917969 267.523438 C 165.183594 268.496094 165.480469 269.460938 165.804688 270.417969 C 166.128906 271.375 166.480469 272.320312 166.859375 273.257812 C 167.242188 274.191406 167.648438 275.117188 168.082031 276.027344 C 168.519531 276.941406 168.980469 277.835938 169.46875 278.722656 C 169.957031 279.605469 170.472656 280.472656 171.011719 281.328125 C 171.550781 282.183594 172.117188 283.019531 172.707031 283.839844 C 173.296875 284.660156 173.910156 285.460938 174.546875 286.246094 C 175.183594 287.027344 175.84375 287.792969 176.523438 288.539062 C 177.207031 289.28125 177.910156 290.003906 178.636719 290.707031 C 179.363281 291.410156 180.109375 292.09375 180.875 292.75 C 181.640625 293.410156 182.425781 294.042969 183.226562 294.65625 C 184.03125 295.269531 184.851562 295.855469 185.691406 296.417969 C 186.527344 296.980469 187.382812 297.519531 188.253906 298.03125 C 189.125 298.546875 190.007812 299.03125 190.90625 299.492188 C 191.808594 299.953125 192.71875 300.386719 193.644531 300.789062 C 194.566406 301.195312 195.503906 301.574219 196.453125 301.925781 C 197.398438 302.277344 198.355469 302.597656 199.320312 302.890625 C 200.289062 303.183594 201.261719 303.449219 202.246094 303.6875 C 203.226562 303.921875 204.214844 304.128906 205.207031 304.304688 C 206.203125 304.484375 207.203125 304.628906 208.203125 304.746094 C 209.207031 304.867188 210.214844 304.953125 211.222656 305.011719 C 212.230469 305.070312 213.238281 305.097656 214.25 305.097656 C 215.257812 305.09375 216.269531 305.0625 217.277344 305.003906 C 218.285156 304.941406 219.289062 304.851562 220.292969 304.726562 C 221.296875 304.605469 222.292969 304.457031 223.285156 304.277344 C 224.28125 304.09375 225.269531 303.886719 226.25 303.648438 C 227.230469 303.40625 228.203125 303.140625 229.167969 302.84375 C 230.136719 302.546875 231.089844 302.222656 232.035156 301.867188 C 232.984375 301.515625 233.917969 301.132812 234.839844 300.722656 C 235.765625 300.316406 236.675781 299.878906 237.574219 299.417969 C 238.46875 298.953125 239.351562 298.464844 240.222656 297.949219 C 241.089844 297.433594 241.941406 296.890625 242.78125 296.328125 C 243.617188 295.761719 244.433594 295.171875 245.238281 294.554688 C 246.039062 293.941406 246.820312 293.304688 247.585938 292.640625 C 248.347656 291.980469 249.089844 291.296875 249.816406 290.59375 C 250.539062 289.886719 251.238281 289.160156 251.917969 288.414062 C 252.597656 287.667969 253.257812 286.902344 253.890625 286.117188 C 254.527344 285.328125 255.136719 284.527344 255.722656 283.703125 C 256.3125 282.882812 256.871094 282.042969 257.410156 281.1875 C 257.945312 280.332031 258.457031 279.460938 258.945312 278.574219 C 259.429688 277.691406 259.886719 276.789062 260.320312 275.878906 C 260.753906 274.964844 261.15625 274.039062 261.535156 273.101562 C 261.910156 272.164062 262.261719 271.21875 262.582031 270.261719 C 262.902344 269.304688 263.195312 268.335938 263.460938 267.363281 C 263.722656 266.386719 263.957031 265.40625 264.164062 264.414062 C 264.367188 263.425781 264.542969 262.433594 264.691406 261.433594 C 264.835938 260.433594 264.953125 259.429688 265.042969 258.425781 C 265.128906 257.417969 265.1875 256.410156 265.210938 255.398438 C 265.238281 254.390625 265.238281 253.378906 265.203125 252.371094 C 265.171875 251.363281 265.109375 250.355469 265.015625 249.347656 C 264.925781 248.34375 264.800781 247.339844 264.652344 246.339844 C 264.5 245.34375 264.316406 244.347656 264.105469 243.359375 C 263.894531 242.375 263.65625 241.390625 263.386719 240.417969 C 263.117188 239.445312 262.820312 238.480469 262.492188 237.523438 C 262.167969 236.570312 261.8125 235.625 261.429688 234.6875 C 261.046875 233.753906 260.636719 232.832031 260.203125 231.917969 C 259.765625 231.007812 259.300781 230.113281 258.808594 229.230469 C 258.320312 228.347656 257.804688 227.476562 257.261719 226.625 C 256.71875 225.773438 256.152344 224.9375 255.5625 224.117188 C 254.972656 223.300781 254.355469 222.5 253.71875 221.71875 C 253.078125 220.933594 252.417969 220.171875 251.734375 219.429688 C 251.050781 218.683594 250.34375 217.964844 249.617188 217.261719 C 248.890625 216.5625 248.140625 215.882812 247.375 215.226562 C 246.609375 214.566406 245.820312 213.933594 245.015625 213.324219 C 244.210938 212.714844 243.390625 212.128906 242.550781 211.566406 Z M 242.550781 211.566406 " fill-opacity="1" fill-rule="nonzero"/></svg>