<svg xmlns="http://www.w3.org/2000/svg" xmlns:xlink="http://www.w3.org/1999/xlink" width="500" zoomAndPan="magnify" viewBox="0 0 375 374.999991" height="500" preserveAspectRatio="xMidYMid meet" version="1.0"><defs><clipPath id="d657c3683c"><path d="M 24.429688 23.921875 L 351.429688 23.921875 L 351.429688 350.921875 L 24.429688 350.921875 Z M 24.429688 23.921875 " clip-rule="nonzero"/></clipPath></defs><path fill="#ffffff" d="M 166.707031 336.058594 C 166.117188 336.0625 165.53125 336.011719 164.949219 335.910156 C 164.371094 335.808594 163.800781 335.65625 163.246094 335.453125 C 162.695312 335.25 162.160156 335.003906 161.652344 334.707031 C 161.140625 334.410156 160.660156 334.070312 160.210938 333.6875 C 159.761719 333.308594 159.347656 332.890625 158.972656 332.433594 C 158.597656 331.980469 158.261719 331.496094 157.972656 330.984375 C 157.683594 330.46875 157.4375 329.933594 157.242188 329.378906 C 157.046875 328.820312 156.902344 328.25 156.808594 327.667969 L 152.175781 300.023438 L 133.613281 292.300781 L 110.785156 308.582031 C 109.042969 309.859375 107.09375 310.496094 104.933594 310.5 C 103.59375 310.496094 102.304688 310.238281 101.066406 309.71875 C 99.832031 309.199219 98.742188 308.464844 97.800781 307.507812 L 67.828125 277.519531 C 67.410156 277.105469 67.027344 276.65625 66.6875 276.171875 C 66.347656 275.6875 66.050781 275.179688 65.800781 274.644531 C 65.550781 274.109375 65.351562 273.554688 65.199219 272.984375 C 65.046875 272.414062 64.945312 271.832031 64.898438 271.242188 C 64.847656 270.65625 64.851562 270.066406 64.910156 269.476562 C 64.964844 268.890625 65.070312 268.3125 65.230469 267.742188 C 65.386719 267.171875 65.597656 266.621094 65.851562 266.089844 C 66.109375 265.554688 66.410156 265.050781 66.757812 264.570312 L 83.105469 241.695312 L 75.378906 223.160156 L 47.667969 218.550781 C 47.085938 218.457031 46.515625 218.3125 45.960938 218.117188 C 45.402344 217.921875 44.867188 217.679688 44.355469 217.386719 C 43.839844 217.097656 43.355469 216.761719 42.902344 216.386719 C 42.449219 216.011719 42.03125 215.597656 41.648438 215.144531 C 41.269531 214.695312 40.929688 214.214844 40.636719 213.703125 C 40.339844 213.191406 40.089844 212.660156 39.890625 212.105469 C 39.6875 211.550781 39.539062 210.984375 39.4375 210.402344 C 39.335938 209.820312 39.289062 209.234375 39.292969 208.644531 L 39.292969 166.203125 C 39.289062 165.613281 39.339844 165.027344 39.441406 164.445312 C 39.542969 163.863281 39.695312 163.296875 39.898438 162.742188 C 40.101562 162.1875 40.347656 161.65625 40.644531 161.148438 C 40.941406 160.636719 41.28125 160.15625 41.664062 159.707031 C 42.042969 159.257812 42.460938 158.84375 42.917969 158.46875 C 43.371094 158.089844 43.855469 157.757812 44.367188 157.46875 C 44.882812 157.175781 45.417969 156.933594 45.972656 156.738281 C 46.53125 156.542969 47.101562 156.398438 47.683594 156.304688 L 75.328125 151.671875 L 83.050781 133.105469 L 66.769531 110.28125 C 66.421875 109.800781 66.121094 109.296875 65.863281 108.761719 C 65.605469 108.230469 65.398438 107.679688 65.238281 107.109375 C 65.078125 106.539062 64.96875 105.957031 64.914062 105.367188 C 64.855469 104.78125 64.851562 104.191406 64.902344 103.601562 C 64.949219 103.011719 65.050781 102.429688 65.199219 101.859375 C 65.351562 101.285156 65.554688 100.730469 65.804688 100.195312 C 66.054688 99.65625 66.347656 99.148438 66.6875 98.664062 C 67.027344 98.179688 67.410156 97.730469 67.828125 97.3125 L 97.832031 67.324219 C 98.246094 66.902344 98.695312 66.523438 99.175781 66.179688 C 99.65625 65.839844 100.164062 65.542969 100.699219 65.289062 C 101.234375 65.039062 101.789062 64.839844 102.359375 64.6875 C 102.929688 64.535156 103.507812 64.433594 104.097656 64.382812 C 104.6875 64.335938 105.273438 64.339844 105.863281 64.394531 C 106.453125 64.449219 107.03125 64.558594 107.597656 64.71875 C 108.167969 64.878906 108.71875 65.085938 109.25 65.34375 C 109.78125 65.601562 110.285156 65.902344 110.761719 66.25 L 133.613281 82.550781 L 152.191406 74.828125 L 156.808594 47.183594 C 156.902344 46.597656 157.046875 46.027344 157.238281 45.472656 C 157.433594 44.914062 157.675781 44.378906 157.96875 43.863281 C 158.257812 43.347656 158.589844 42.863281 158.964844 42.410156 C 159.339844 41.953125 159.753906 41.535156 160.207031 41.152344 C 160.65625 40.773438 161.136719 40.433594 161.644531 40.136719 C 162.15625 39.839844 162.691406 39.589844 163.246094 39.386719 C 163.800781 39.1875 164.367188 39.035156 164.949219 38.933594 C 165.53125 38.832031 166.117188 38.785156 166.707031 38.785156 L 209.148438 38.785156 C 209.738281 38.785156 210.324219 38.835938 210.90625 38.9375 C 211.488281 39.039062 212.054688 39.191406 212.609375 39.394531 C 213.164062 39.59375 213.695312 39.84375 214.203125 40.140625 C 214.714844 40.4375 215.195312 40.777344 215.644531 41.15625 C 216.09375 41.539062 216.507812 41.957031 216.882812 42.410156 C 217.261719 42.867188 217.59375 43.351562 217.882812 43.863281 C 218.175781 44.378906 218.417969 44.914062 218.613281 45.46875 C 218.808594 46.027344 218.953125 46.59375 219.050781 47.175781 L 223.679688 74.824219 L 242.246094 82.546875 L 265.070312 66.265625 C 265.550781 65.914062 266.054688 65.609375 266.589844 65.351562 C 267.121094 65.089844 267.675781 64.878906 268.246094 64.71875 C 268.816406 64.558594 269.398438 64.449219 269.988281 64.394531 C 270.578125 64.335938 271.167969 64.332031 271.757812 64.382812 C 272.351562 64.429688 272.933594 64.53125 273.503906 64.683594 C 274.078125 64.839844 274.632812 65.039062 275.171875 65.292969 C 275.707031 65.546875 276.21875 65.84375 276.699219 66.1875 C 277.183594 66.53125 277.632812 66.914062 278.046875 67.339844 L 308.027344 97.328125 C 308.445312 97.742188 308.828125 98.191406 309.167969 98.675781 C 309.507812 99.15625 309.804688 99.667969 310.054688 100.203125 C 310.304688 100.738281 310.503906 101.292969 310.65625 101.863281 C 310.808594 102.433594 310.910156 103.015625 310.957031 103.601562 C 311.007812 104.191406 311.003906 104.78125 310.949219 105.367188 C 310.890625 105.957031 310.785156 106.535156 310.625 107.105469 C 310.46875 107.675781 310.261719 108.226562 310.003906 108.757812 C 309.746094 109.289062 309.445312 109.796875 309.097656 110.273438 L 292.800781 133.105469 L 300.523438 151.6875 L 328.167969 156.304688 C 328.753906 156.398438 329.320312 156.542969 329.878906 156.734375 C 330.4375 156.929688 330.972656 157.171875 331.484375 157.464844 C 332 157.753906 332.484375 158.085938 332.941406 158.460938 C 333.394531 158.839844 333.8125 159.25 334.195312 159.703125 C 334.578125 160.152344 334.914062 160.632812 335.210938 161.144531 C 335.507812 161.652344 335.757812 162.1875 335.960938 162.742188 C 336.160156 163.296875 336.3125 163.863281 336.414062 164.445312 C 336.515625 165.027344 336.5625 165.613281 336.558594 166.203125 L 336.558594 208.644531 C 336.5625 209.234375 336.511719 209.820312 336.410156 210.402344 C 336.308594 210.980469 336.15625 211.550781 335.953125 212.105469 C 335.75 212.65625 335.503906 213.191406 335.207031 213.699219 C 334.910156 214.210938 334.570312 214.691406 334.1875 215.140625 C 333.808594 215.589844 333.390625 216.003906 332.933594 216.378906 C 332.480469 216.753906 331.996094 217.089844 331.484375 217.378906 C 330.96875 217.667969 330.433594 217.914062 329.878906 218.109375 C 329.320312 218.304688 328.75 218.449219 328.167969 218.542969 L 300.476562 223.152344 L 292.746094 241.6875 L 309.097656 264.5625 C 309.441406 265.042969 309.742188 265.550781 310 266.082031 C 310.253906 266.617188 310.460938 267.167969 310.617188 267.738281 C 310.777344 268.308594 310.882812 268.886719 310.941406 269.476562 C 310.996094 270.066406 311 270.652344 310.949219 271.242188 C 310.902344 271.832031 310.800781 272.414062 310.648438 272.984375 C 310.496094 273.554688 310.296875 274.109375 310.046875 274.644531 C 309.796875 275.183594 309.503906 275.691406 309.164062 276.175781 C 308.824219 276.660156 308.441406 277.109375 308.023438 277.527344 L 278.023438 307.519531 C 277.09375 308.46875 276.015625 309.203125 274.789062 309.71875 C 273.5625 310.234375 272.285156 310.492188 270.953125 310.496094 C 268.792969 310.488281 266.832031 309.855469 265.078125 308.589844 L 242.199219 292.242188 L 223.664062 299.972656 L 219.058594 327.679688 C 218.960938 328.261719 218.816406 328.832031 218.621094 329.386719 C 218.425781 329.945312 218.183594 330.480469 217.890625 330.996094 C 217.601562 331.507812 217.269531 331.992188 216.890625 332.445312 C 216.515625 332.902344 216.101562 333.320312 215.652344 333.699219 C 215.199219 334.082031 214.71875 334.421875 214.210938 334.714844 C 213.699219 335.011719 213.164062 335.261719 212.609375 335.460938 C 212.054688 335.664062 211.488281 335.8125 210.90625 335.914062 C 210.324219 336.015625 209.738281 336.0625 209.148438 336.058594 Z M 166.707031 336.058594 " fill-opacity="1" fill-rule="nonzero"/><path fill="#6e96f9" d="M 247.382812 187.421875 C 247.382812 189.371094 247.289062 191.3125 247.097656 193.25 C 246.90625 195.1875 246.621094 197.113281 246.238281 199.023438 C 245.859375 200.933594 245.386719 202.820312 244.824219 204.683594 C 244.257812 206.546875 243.601562 208.375 242.855469 210.175781 C 242.113281 211.972656 241.28125 213.734375 240.363281 215.449219 C 239.445312 217.167969 238.445312 218.835938 237.363281 220.453125 C 236.28125 222.074219 235.121094 223.636719 233.886719 225.140625 C 232.652344 226.644531 231.34375 228.085938 229.96875 229.464844 C 228.59375 230.839844 227.152344 232.148438 225.644531 233.382812 C 224.140625 234.617188 222.578125 235.777344 220.960938 236.859375 C 219.339844 237.941406 217.671875 238.941406 215.953125 239.859375 C 214.238281 240.777344 212.480469 241.605469 210.679688 242.351562 C 208.882812 243.097656 207.050781 243.753906 205.1875 244.316406 C 203.324219 244.882812 201.4375 245.355469 199.527344 245.734375 C 197.617188 246.117188 195.695312 246.402344 193.753906 246.589844 C 191.816406 246.78125 189.875 246.878906 187.929688 246.878906 C 185.980469 246.878906 184.039062 246.78125 182.101562 246.589844 C 180.164062 246.402344 178.238281 246.117188 176.328125 245.734375 C 174.417969 245.355469 172.53125 244.882812 170.667969 244.316406 C 168.804688 243.753906 166.976562 243.097656 165.175781 242.351562 C 163.375 241.605469 161.617188 240.777344 159.902344 239.859375 C 158.183594 238.941406 156.515625 237.941406 154.898438 236.859375 C 153.277344 235.777344 151.714844 234.617188 150.210938 233.382812 C 148.707031 232.148438 147.265625 230.839844 145.886719 229.464844 C 144.511719 228.085938 143.203125 226.644531 141.96875 225.140625 C 140.734375 223.636719 139.574219 222.074219 138.492188 220.453125 C 137.410156 218.835938 136.410156 217.167969 135.492188 215.449219 C 134.574219 213.734375 133.746094 211.972656 133 210.175781 C 132.253906 208.375 131.597656 206.546875 131.035156 204.683594 C 130.46875 202.820312 129.996094 200.933594 129.617188 199.023438 C 129.234375 197.113281 128.949219 195.1875 128.757812 193.25 C 128.570312 191.3125 128.472656 189.371094 128.472656 187.421875 C 128.472656 185.476562 128.570312 183.535156 128.757812 181.597656 C 128.949219 179.65625 129.234375 177.734375 129.617188 175.824219 C 129.996094 173.914062 130.46875 172.027344 131.035156 170.164062 C 131.597656 168.300781 132.253906 166.46875 133 164.671875 C 133.746094 162.871094 134.574219 161.113281 135.492188 159.398438 C 136.410156 157.679688 137.410156 156.011719 138.492188 154.390625 C 139.574219 152.773438 140.734375 151.210938 141.96875 149.707031 C 143.203125 148.199219 144.511719 146.757812 145.886719 145.382812 C 147.265625 144.003906 148.707031 142.699219 150.210938 141.464844 C 151.714844 140.230469 153.277344 139.070312 154.898438 137.988281 C 156.515625 136.90625 158.183594 135.90625 159.902344 134.988281 C 161.617188 134.070312 163.375 133.238281 165.175781 132.496094 C 166.976562 131.75 168.804688 131.09375 170.667969 130.527344 C 172.53125 129.964844 174.417969 129.492188 176.328125 129.109375 C 178.238281 128.730469 180.164062 128.445312 182.101562 128.253906 C 184.039062 128.0625 185.980469 127.96875 187.929688 127.96875 C 189.875 127.96875 191.816406 128.0625 193.753906 128.253906 C 195.695312 128.445312 197.617188 128.730469 199.527344 129.109375 C 201.4375 129.492188 203.324219 129.964844 205.1875 130.527344 C 207.050781 131.09375 208.882812 131.75 210.679688 132.496094 C 212.480469 133.238281 214.238281 134.070312 215.953125 134.988281 C 217.671875 135.90625 219.339844 136.90625 220.960938 137.988281 C 222.578125 139.070312 224.140625 140.230469 225.644531 141.464844 C 227.152344 142.699219 228.59375 144.003906 229.96875 145.382812 C 231.34375 146.757812 232.652344 148.199219 233.886719 149.707031 C 235.121094 151.210938 236.28125 152.773438 237.363281 154.390625 C 238.445312 156.011719 239.445312 157.679688 240.363281 159.398438 C 241.28125 161.113281 242.113281 162.871094 242.855469 164.671875 C 243.601562 166.46875 244.257812 168.300781 244.824219 170.164062 C 245.386719 172.027344 245.859375 173.914062 246.238281 175.824219 C 246.621094 177.734375 246.90625 179.65625 247.097656 181.597656 C 247.289062 183.535156 247.382812 185.476562 247.382812 187.421875 Z M 247.382812 187.421875 " fill-opacity="1" fill-rule="nonzero"/><path fill="#274193" d="M 187.929688 113.105469 C 186.710938 113.105469 185.496094 113.136719 184.28125 113.195312 C 183.066406 113.253906 181.855469 113.34375 180.644531 113.464844 C 179.433594 113.582031 178.226562 113.730469 177.023438 113.910156 C 175.820312 114.089844 174.621094 114.296875 173.429688 114.53125 C 172.238281 114.769531 171.050781 115.035156 169.871094 115.332031 C 168.691406 115.628906 167.519531 115.953125 166.355469 116.304688 C 165.191406 116.660156 164.035156 117.039062 162.890625 117.449219 C 161.746094 117.859375 160.609375 118.296875 159.488281 118.761719 C 158.363281 119.226562 157.253906 119.71875 156.152344 120.242188 C 155.054688 120.761719 153.96875 121.308594 152.894531 121.878906 C 151.820312 122.453125 150.765625 123.054688 149.722656 123.679688 C 148.675781 124.304688 147.648438 124.953125 146.640625 125.628906 C 145.628906 126.304688 144.632812 127.003906 143.65625 127.730469 C 142.679688 128.453125 141.722656 129.203125 140.78125 129.972656 C 139.839844 130.746094 138.921875 131.539062 138.019531 132.355469 C 137.117188 133.175781 136.238281 134.011719 135.378906 134.871094 C 134.515625 135.730469 133.679688 136.613281 132.863281 137.515625 C 132.046875 138.414062 131.25 139.335938 130.480469 140.277344 C 129.707031 141.214844 128.960938 142.175781 128.234375 143.152344 C 127.511719 144.128906 126.808594 145.121094 126.132812 146.132812 C 125.457031 147.144531 124.808594 148.171875 124.183594 149.214844 C 123.558594 150.257812 122.957031 151.316406 122.386719 152.390625 C 121.8125 153.460938 121.265625 154.546875 120.746094 155.648438 C 120.226562 156.746094 119.730469 157.859375 119.265625 158.984375 C 118.800781 160.105469 118.363281 161.242188 117.953125 162.386719 C 117.542969 163.53125 117.164062 164.6875 116.808594 165.851562 C 116.457031 167.015625 116.132812 168.1875 115.835938 169.367188 C 115.542969 170.546875 115.273438 171.730469 115.039062 172.925781 C 114.800781 174.117188 114.59375 175.316406 114.414062 176.519531 C 114.234375 177.722656 114.085938 178.929688 113.96875 180.140625 C 113.847656 181.347656 113.757812 182.5625 113.699219 183.777344 C 113.640625 184.992188 113.609375 186.207031 113.609375 187.421875 C 113.609375 188.640625 113.640625 189.855469 113.699219 191.070312 C 113.757812 192.285156 113.847656 193.496094 113.96875 194.707031 C 114.085938 195.917969 114.234375 197.125 114.414062 198.328125 C 114.59375 199.53125 114.800781 200.730469 115.039062 201.921875 C 115.273438 203.113281 115.542969 204.300781 115.835938 205.480469 C 116.132812 206.660156 116.457031 207.832031 116.808594 208.996094 C 117.164062 210.160156 117.542969 211.316406 117.953125 212.460938 C 118.363281 213.605469 118.800781 214.738281 119.265625 215.863281 C 119.730469 216.988281 120.226562 218.097656 120.746094 219.199219 C 121.265625 220.296875 121.8125 221.382812 122.386719 222.457031 C 122.957031 223.527344 123.558594 224.585938 124.183594 225.628906 C 124.808594 226.671875 125.457031 227.699219 126.132812 228.710938 C 126.808594 229.722656 127.511719 230.71875 128.234375 231.695312 C 128.960938 232.671875 129.707031 233.628906 130.480469 234.570312 C 131.25 235.511719 132.046875 236.429688 132.863281 237.332031 C 133.679688 238.234375 134.515625 239.113281 135.378906 239.972656 C 136.238281 240.835938 137.117188 241.671875 138.019531 242.488281 C 138.921875 243.304688 139.839844 244.101562 140.78125 244.871094 C 141.722656 245.644531 142.679688 246.390625 143.65625 247.117188 C 144.632812 247.839844 145.628906 248.539062 146.640625 249.214844 C 147.648438 249.890625 148.675781 250.542969 149.722656 251.167969 C 150.765625 251.792969 151.820312 252.394531 152.894531 252.964844 C 153.96875 253.539062 155.054688 254.085938 156.152344 254.605469 C 157.253906 255.125 158.363281 255.617188 159.488281 256.085938 C 160.609375 256.550781 161.746094 256.988281 162.890625 257.398438 C 164.035156 257.808594 165.191406 258.1875 166.355469 258.542969 C 167.519531 258.894531 168.691406 259.21875 169.871094 259.515625 C 171.050781 259.808594 172.238281 260.074219 173.429688 260.3125 C 174.621094 260.550781 175.820312 260.757812 177.023438 260.9375 C 178.226562 261.117188 179.433594 261.265625 180.644531 261.382812 C 181.855469 261.503906 183.066406 261.59375 184.28125 261.652344 C 185.496094 261.710938 186.710938 261.742188 187.929688 261.742188 C 189.144531 261.742188 190.359375 261.710938 191.574219 261.652344 C 192.789062 261.59375 194.003906 261.503906 195.210938 261.382812 C 196.421875 261.265625 197.628906 261.117188 198.832031 260.9375 C 200.035156 260.757812 201.234375 260.550781 202.425781 260.3125 C 203.621094 260.074219 204.804688 259.808594 205.984375 259.515625 C 207.164062 259.21875 208.335938 258.894531 209.5 258.542969 C 210.664062 258.1875 211.820312 257.808594 212.964844 257.398438 C 214.109375 256.988281 215.246094 256.550781 216.367188 256.085938 C 217.492188 255.617188 218.605469 255.125 219.703125 254.605469 C 220.800781 254.085938 221.890625 253.539062 222.960938 252.964844 C 224.035156 252.394531 225.09375 251.792969 226.136719 251.167969 C 227.179688 250.542969 228.207031 249.890625 229.21875 249.214844 C 230.226562 248.539062 231.222656 247.839844 232.199219 247.117188 C 233.175781 246.390625 234.132812 245.644531 235.074219 244.871094 C 236.015625 244.101562 236.9375 243.304688 237.835938 242.488281 C 238.738281 241.671875 239.617188 240.835938 240.480469 239.972656 C 241.339844 239.113281 242.175781 238.234375 242.992188 237.332031 C 243.8125 236.429688 244.605469 235.511719 245.375 234.570312 C 246.148438 233.628906 246.894531 232.671875 247.621094 231.695312 C 248.34375 230.71875 249.046875 229.722656 249.722656 228.710938 C 250.398438 227.699219 251.046875 226.671875 251.671875 225.628906 C 252.296875 224.585938 252.898438 223.527344 253.472656 222.457031 C 254.042969 221.382812 254.589844 220.296875 255.109375 219.199219 C 255.628906 218.097656 256.125 216.988281 256.589844 215.863281 C 257.054688 214.738281 257.492188 213.605469 257.902344 212.460938 C 258.3125 211.316406 258.691406 210.160156 259.046875 208.996094 C 259.398438 207.832031 259.722656 206.660156 260.019531 205.480469 C 260.3125 204.300781 260.582031 203.113281 260.816406 201.921875 C 261.054688 200.730469 261.261719 199.53125 261.441406 198.328125 C 261.621094 197.125 261.769531 195.917969 261.886719 194.707031 C 262.007812 193.496094 262.097656 192.285156 262.15625 191.070312 C 262.214844 189.855469 262.246094 188.640625 262.246094 187.421875 C 262.246094 186.207031 262.214844 184.992188 262.152344 183.777344 C 262.089844 182.5625 262 181.351562 261.878906 180.140625 C 261.761719 178.933594 261.609375 177.726562 261.429688 176.523438 C 261.25 175.320312 261.042969 174.121094 260.804688 172.929688 C 260.566406 171.738281 260.296875 170.550781 260 169.375 C 259.707031 168.195312 259.378906 167.023438 259.027344 165.859375 C 258.671875 164.695312 258.289062 163.542969 257.878906 162.398438 C 257.46875 161.253906 257.03125 160.121094 256.566406 158.996094 C 256.101562 157.875 255.605469 156.761719 255.085938 155.664062 C 254.566406 154.566406 254.019531 153.480469 253.445312 152.40625 C 252.871094 151.335938 252.273438 150.277344 251.644531 149.234375 C 251.019531 148.191406 250.371094 147.164062 249.695312 146.15625 C 249.019531 145.144531 248.320312 144.152344 247.59375 143.175781 C 246.871094 142.199219 246.121094 141.238281 245.351562 140.300781 C 244.578125 139.359375 243.785156 138.441406 242.96875 137.539062 C 242.152344 136.636719 241.3125 135.757812 240.453125 134.898438 C 239.59375 134.039062 238.714844 133.199219 237.8125 132.382812 C 236.910156 131.566406 235.992188 130.773438 235.050781 130 C 234.113281 129.230469 233.152344 128.480469 232.175781 127.757812 C 231.199219 127.03125 230.207031 126.332031 229.195312 125.65625 C 228.183594 124.980469 227.160156 124.332031 226.117188 123.703125 C 225.074219 123.078125 224.015625 122.480469 222.945312 121.90625 C 221.871094 121.332031 220.785156 120.785156 219.6875 120.265625 C 218.589844 119.746094 217.476562 119.25 216.355469 118.785156 C 215.230469 118.320312 214.097656 117.882812 212.953125 117.472656 C 211.808594 117.0625 210.65625 116.679688 209.492188 116.324219 C 208.328125 115.972656 207.15625 115.644531 205.976562 115.347656 C 204.796875 115.054688 203.613281 114.785156 202.421875 114.546875 C 201.226562 114.308594 200.03125 114.101562 198.828125 113.921875 C 197.625 113.742188 196.417969 113.589844 195.210938 113.472656 C 194 113.351562 192.789062 113.257812 191.574219 113.199219 C 190.359375 113.136719 189.144531 113.105469 187.929688 113.105469 Z M 187.929688 232.015625 C 186.46875 232.015625 185.011719 231.941406 183.558594 231.800781 C 182.105469 231.65625 180.660156 231.441406 179.230469 231.15625 C 177.796875 230.871094 176.382812 230.519531 174.984375 230.09375 C 173.585938 229.671875 172.214844 229.179688 170.863281 228.621094 C 169.515625 228.0625 168.195312 227.4375 166.90625 226.75 C 165.621094 226.058594 164.367188 225.3125 163.15625 224.5 C 161.941406 223.6875 160.769531 222.820312 159.640625 221.890625 C 158.511719 220.964844 157.429688 219.988281 156.398438 218.953125 C 155.363281 217.921875 154.386719 216.839844 153.457031 215.710938 C 152.53125 214.582031 151.664062 213.410156 150.851562 212.195312 C 150.039062 210.980469 149.289062 209.730469 148.601562 208.441406 C 147.914062 207.15625 147.289062 205.835938 146.730469 204.488281 C 146.171875 203.136719 145.679688 201.765625 145.257812 200.367188 C 144.832031 198.96875 144.480469 197.554688 144.195312 196.121094 C 143.910156 194.691406 143.695312 193.246094 143.550781 191.792969 C 143.410156 190.339844 143.335938 188.882812 143.335938 187.421875 C 143.335938 185.960938 143.410156 184.507812 143.550781 183.050781 C 143.695312 181.597656 143.910156 180.15625 144.195312 178.722656 C 144.480469 177.292969 144.832031 175.875 145.257812 174.480469 C 145.679688 173.082031 146.171875 171.707031 146.730469 170.359375 C 147.289062 169.011719 147.914062 167.691406 148.601562 166.402344 C 149.289062 165.117188 150.039062 163.863281 150.851562 162.648438 C 151.664062 161.4375 152.53125 160.265625 153.457031 159.136719 C 154.386719 158.007812 155.363281 156.925781 156.398438 155.894531 C 157.429688 154.859375 158.511719 153.878906 159.640625 152.953125 C 160.769531 152.027344 161.941406 151.160156 163.15625 150.347656 C 164.367188 149.535156 165.621094 148.785156 166.90625 148.097656 C 168.195312 147.410156 169.515625 146.785156 170.863281 146.226562 C 172.214844 145.667969 173.585938 145.175781 174.984375 144.753906 C 176.382812 144.328125 177.796875 143.972656 179.230469 143.6875 C 180.660156 143.402344 182.105469 143.191406 183.558594 143.046875 C 185.011719 142.902344 186.46875 142.832031 187.929688 142.832031 C 189.386719 142.832031 190.84375 142.902344 192.296875 143.046875 C 193.753906 143.191406 195.195312 143.402344 196.628906 143.6875 C 198.058594 143.972656 199.472656 144.328125 200.871094 144.753906 C 202.269531 145.175781 203.644531 145.667969 204.992188 146.226562 C 206.339844 146.785156 207.660156 147.410156 208.949219 148.097656 C 210.234375 148.785156 211.488281 149.535156 212.703125 150.347656 C 213.914062 151.160156 215.085938 152.027344 216.214844 152.953125 C 217.34375 153.878906 218.425781 154.859375 219.457031 155.894531 C 220.492188 156.925781 221.472656 158.007812 222.398438 159.136719 C 223.324219 160.265625 224.191406 161.4375 225.003906 162.648438 C 225.816406 163.863281 226.566406 165.117188 227.253906 166.402344 C 227.941406 167.691406 228.566406 169.011719 229.125 170.359375 C 229.683594 171.707031 230.175781 173.082031 230.597656 174.480469 C 231.023438 175.875 231.378906 177.292969 231.660156 178.722656 C 231.945312 180.15625 232.160156 181.597656 232.304688 183.050781 C 232.449219 184.507812 232.519531 185.960938 232.519531 187.421875 C 232.515625 188.882812 232.445312 190.339844 232.300781 191.792969 C 232.15625 193.246094 231.941406 194.6875 231.652344 196.117188 C 231.367188 197.550781 231.011719 198.964844 230.585938 200.363281 C 230.164062 201.757812 229.671875 203.132812 229.113281 204.480469 C 228.550781 205.828125 227.929688 207.144531 227.238281 208.433594 C 226.550781 209.722656 225.800781 210.972656 224.988281 212.183594 C 224.175781 213.398438 223.308594 214.570312 222.382812 215.699219 C 221.457031 216.828125 220.476562 217.90625 219.445312 218.941406 C 218.410156 219.972656 217.332031 220.949219 216.203125 221.878906 C 215.074219 222.804688 213.902344 223.671875 212.691406 224.484375 C 211.476562 225.296875 210.226562 226.046875 208.9375 226.734375 C 207.652344 227.421875 206.332031 228.046875 204.984375 228.605469 C 203.636719 229.167969 202.261719 229.660156 200.867188 230.082031 C 199.46875 230.507812 198.054688 230.863281 196.625 231.148438 C 195.191406 231.433594 193.75 231.652344 192.296875 231.796875 C 190.84375 231.941406 189.386719 232.011719 187.929688 232.015625 Z M 187.929688 232.015625 " fill-opacity="1" fill-rule="nonzero"/><g clip-path="url(#d657c3683c)"><path fill="#274193" d="M 330.628906 141.644531 L 311.089844 138.375 L 309.695312 135.019531 L 321.191406 118.90625 C 322.046875 117.71875 322.792969 116.464844 323.425781 115.144531 C 324.058594 113.824219 324.570312 112.460938 324.964844 111.050781 C 325.355469 109.636719 325.621094 108.203125 325.757812 106.746094 C 325.894531 105.289062 325.902344 103.832031 325.78125 102.371094 C 325.664062 100.910156 325.414062 99.476562 325.039062 98.058594 C 324.664062 96.644531 324.167969 95.273438 323.546875 93.945312 C 322.929688 92.617188 322.199219 91.355469 321.359375 90.15625 C 320.515625 88.960938 319.574219 87.84375 318.535156 86.8125 L 288.5625 56.828125 C 287.53125 55.789062 286.414062 54.847656 285.214844 54.007812 C 284.015625 53.164062 282.753906 52.433594 281.425781 51.8125 C 280.097656 51.195312 278.726562 50.699219 277.308594 50.320312 C 275.894531 49.945312 274.453125 49.695312 272.996094 49.574219 C 271.535156 49.453125 270.074219 49.460938 268.617188 49.597656 C 267.15625 49.734375 265.722656 49.996094 264.308594 50.386719 C 262.898438 50.777344 261.53125 51.289062 260.207031 51.921875 C 258.886719 52.554688 257.628906 53.300781 256.441406 54.15625 L 240.328125 65.648438 L 236.976562 64.261719 L 233.707031 44.753906 C 233.472656 43.308594 233.113281 41.894531 232.628906 40.511719 C 232.144531 39.132812 231.542969 37.804688 230.820312 36.53125 C 230.101562 35.253906 229.273438 34.054688 228.339844 32.925781 C 227.410156 31.796875 226.382812 30.757812 225.269531 29.8125 C 224.152344 28.863281 222.960938 28.023438 221.695312 27.285156 C 220.429688 26.550781 219.109375 25.929688 217.734375 25.429688 C 216.359375 24.925781 214.949219 24.550781 213.507812 24.296875 C 212.066406 24.042969 210.613281 23.917969 209.148438 23.921875 L 166.707031 23.921875 C 165.246094 23.917969 163.792969 24.042969 162.351562 24.296875 C 160.910156 24.546875 159.503906 24.925781 158.128906 25.425781 C 156.753906 25.925781 155.433594 26.546875 154.167969 27.28125 C 152.902344 28.015625 151.714844 28.855469 150.597656 29.800781 C 149.480469 30.746094 148.457031 31.78125 147.523438 32.910156 C 146.589844 34.035156 145.761719 35.234375 145.042969 36.507812 C 144.320312 37.78125 143.71875 39.109375 143.230469 40.488281 C 142.746094 41.867188 142.382812 43.28125 142.148438 44.722656 L 138.878906 64.261719 L 135.523438 65.65625 L 119.414062 54.160156 C 118.222656 53.304688 116.96875 52.558594 115.648438 51.925781 C 114.332031 51.292969 112.964844 50.78125 111.554688 50.386719 C 110.144531 49.996094 108.707031 49.730469 107.25 49.59375 C 105.792969 49.457031 104.335938 49.449219 102.875 49.570312 C 101.417969 49.691406 99.980469 49.9375 98.5625 50.3125 C 97.148438 50.6875 95.777344 51.183594 94.449219 51.804688 C 93.125 52.421875 91.859375 53.152344 90.664062 53.992188 C 89.464844 54.835938 88.351562 55.777344 87.320312 56.816406 L 57.335938 86.796875 C 56.292969 87.828125 55.351562 88.945312 54.507812 90.140625 C 53.664062 91.339844 52.933594 92.605469 52.316406 93.933594 C 51.695312 95.261719 51.195312 96.632812 50.820312 98.050781 C 50.445312 99.464844 50.195312 100.902344 50.074219 102.363281 C 49.953125 103.824219 49.960938 105.285156 50.097656 106.742188 C 50.234375 108.203125 50.496094 109.636719 50.890625 111.050781 C 51.28125 112.460938 51.792969 113.828125 52.425781 115.152344 C 53.058594 116.472656 53.804688 117.730469 54.660156 118.917969 L 66.15625 135.03125 L 64.765625 138.375 L 45.257812 141.644531 C 43.8125 141.878906 42.398438 142.238281 41.019531 142.722656 C 39.636719 143.207031 38.308594 143.808594 37.035156 144.53125 C 35.757812 145.25 34.558594 146.078125 33.429688 147.007812 C 32.300781 147.941406 31.261719 148.96875 30.316406 150.082031 C 29.371094 151.199219 28.527344 152.390625 27.792969 153.65625 C 27.054688 154.921875 26.4375 156.242188 25.933594 157.617188 C 25.429688 158.992188 25.054688 160.402344 24.800781 161.84375 C 24.546875 163.285156 24.421875 164.738281 24.429688 166.203125 L 24.429688 208.644531 C 24.421875 210.105469 24.546875 211.558594 24.800781 213 C 25.050781 214.441406 25.429688 215.847656 25.929688 217.222656 C 26.433594 218.597656 27.050781 219.917969 27.785156 221.183594 C 28.519531 222.445312 29.359375 223.636719 30.304688 224.753906 C 31.25 225.871094 32.285156 226.894531 33.414062 227.828125 C 34.539062 228.761719 35.742188 229.589844 37.011719 230.308594 C 38.285156 231.03125 39.613281 231.632812 40.992188 232.121094 C 42.371094 232.605469 43.785156 232.96875 45.226562 233.203125 L 64.824219 236.472656 L 66.203125 239.785156 L 54.664062 255.9375 C 53.808594 257.125 53.0625 258.382812 52.429688 259.699219 C 51.796875 261.019531 51.285156 262.386719 50.890625 263.796875 C 50.5 265.207031 50.234375 266.640625 50.097656 268.101562 C 49.960938 269.558594 49.953125 271.015625 50.074219 272.476562 C 50.195312 273.933594 50.441406 275.371094 50.816406 276.785156 C 51.191406 278.203125 51.6875 279.574219 52.308594 280.902344 C 52.925781 282.226562 53.65625 283.492188 54.496094 284.6875 C 55.339844 285.886719 56.28125 287 57.320312 288.03125 L 87.300781 318.015625 C 88.332031 319.054688 89.449219 319.996094 90.648438 320.839844 C 91.847656 321.683594 93.109375 322.414062 94.4375 323.03125 C 95.765625 323.652344 97.136719 324.148438 98.554688 324.523438 C 99.972656 324.902344 101.410156 325.148438 102.871094 325.273438 C 104.328125 325.394531 105.789062 325.386719 107.246094 325.25 C 108.707031 325.113281 110.140625 324.847656 111.554688 324.457031 C 112.964844 324.066406 114.332031 323.554688 115.65625 322.921875 C 116.976562 322.289062 118.234375 321.546875 119.421875 320.691406 L 135.535156 309.195312 L 138.886719 310.589844 L 142.160156 330.097656 C 142.394531 331.542969 142.753906 332.953125 143.238281 334.335938 C 143.722656 335.714844 144.324219 337.042969 145.046875 338.316406 C 145.765625 339.59375 146.589844 340.792969 147.523438 341.921875 C 148.457031 343.050781 149.480469 344.085938 150.597656 345.035156 C 151.710938 345.980469 152.902344 346.820312 154.167969 347.558594 C 155.433594 348.292969 156.75 348.914062 158.125 349.414062 C 159.5 349.917969 160.910156 350.296875 162.351562 350.550781 C 163.792969 350.800781 165.242188 350.925781 166.707031 350.921875 L 209.148438 350.921875 C 210.613281 350.929688 212.0625 350.804688 213.503906 350.550781 C 214.945312 350.300781 216.351562 349.921875 217.726562 349.421875 C 219.101562 348.917969 220.421875 348.300781 221.6875 347.566406 C 222.953125 346.832031 224.140625 345.992188 225.257812 345.046875 C 226.375 344.101562 227.398438 343.0625 228.332031 341.9375 C 229.265625 340.8125 230.09375 339.609375 230.8125 338.335938 C 231.535156 337.066406 232.136719 335.738281 232.625 334.359375 C 233.109375 332.980469 233.472656 331.566406 233.707031 330.125 L 236.976562 310.527344 L 240.289062 309.148438 L 256.445312 320.6875 C 257.632812 321.542969 258.886719 322.289062 260.203125 322.921875 C 261.523438 323.558594 262.890625 324.070312 264.300781 324.464844 C 265.710938 324.855469 267.148438 325.121094 268.605469 325.257812 C 270.0625 325.394531 271.519531 325.402344 272.980469 325.285156 C 274.441406 325.164062 275.878906 324.914062 277.292969 324.539062 C 278.707031 324.164062 280.078125 323.667969 281.40625 323.046875 C 282.734375 322.429688 283.996094 321.699219 285.195312 320.855469 C 286.390625 320.011719 287.507812 319.070312 288.535156 318.03125 L 318.523438 288.058594 C 319.566406 287.027344 320.507812 285.910156 321.351562 284.710938 C 322.195312 283.511719 322.925781 282.25 323.542969 280.921875 C 324.164062 279.59375 324.660156 278.222656 325.039062 276.804688 C 325.414062 275.390625 325.664062 273.949219 325.785156 272.488281 C 325.90625 271.03125 325.898438 269.570312 325.761719 268.109375 C 325.625 266.652344 325.363281 265.214844 324.96875 263.804688 C 324.578125 262.390625 324.066406 261.023438 323.433594 259.703125 C 322.800781 258.382812 322.054688 257.125 321.199219 255.9375 L 309.660156 239.78125 L 311.039062 236.46875 L 330.605469 233.199219 C 332.050781 232.964844 333.464844 232.605469 334.84375 232.121094 C 336.226562 231.632812 337.550781 231.03125 338.828125 230.3125 C 340.101562 229.589844 341.300781 228.765625 342.429688 227.832031 C 343.558594 226.898438 344.59375 225.875 345.542969 224.757812 C 346.488281 223.644531 347.328125 222.453125 348.066406 221.1875 C 348.800781 219.921875 349.421875 218.601562 349.921875 217.226562 C 350.425781 215.851562 350.800781 214.445312 351.054688 213.003906 C 351.308594 211.558594 351.433594 210.109375 351.429688 208.644531 L 351.429688 166.203125 C 351.433594 164.738281 351.308594 163.289062 351.054688 161.847656 C 350.804688 160.40625 350.425781 158.996094 349.925781 157.625 C 349.425781 156.25 348.804688 154.929688 348.070312 153.664062 C 347.335938 152.398438 346.496094 151.207031 345.550781 150.09375 C 344.605469 148.976562 343.570312 147.953125 342.441406 147.019531 C 341.316406 146.085938 340.117188 145.257812 338.84375 144.539062 C 337.570312 143.816406 336.242188 143.214844 334.863281 142.726562 C 333.484375 142.242188 332.070312 141.878906 330.628906 141.644531 Z M 321.699219 204.550781 L 297.996094 208.511719 C 296.753906 208.722656 295.558594 209.082031 294.40625 209.59375 C 293.253906 210.105469 292.183594 210.757812 291.199219 211.539062 C 290.210938 212.324219 289.339844 213.222656 288.582031 214.226562 C 287.820312 215.234375 287.203125 216.320312 286.71875 217.484375 L 279.042969 236.027344 C 278.558594 237.191406 278.230469 238.398438 278.054688 239.648438 C 277.875 240.898438 277.859375 242.148438 278.003906 243.402344 C 278.148438 244.65625 278.445312 245.871094 278.898438 247.050781 C 279.351562 248.226562 279.945312 249.328125 280.675781 250.355469 L 294.625 269.894531 L 270.386719 294.132812 L 250.851562 280.171875 C 249.824219 279.441406 248.722656 278.851562 247.542969 278.402344 C 246.367188 277.949219 245.152344 277.652344 243.898438 277.511719 C 242.644531 277.367188 241.394531 277.382812 240.148438 277.558594 C 238.898438 277.730469 237.691406 278.058594 236.523438 278.539062 L 217.988281 286.214844 C 216.824219 286.699219 215.738281 287.320312 214.734375 288.078125 C 213.726562 288.835938 212.832031 289.707031 212.046875 290.695312 C 211.261719 291.679688 210.613281 292.75 210.097656 293.902344 C 209.585938 295.054688 209.226562 296.25 209.019531 297.496094 L 205.054688 321.195312 L 170.800781 321.195312 L 166.851562 297.550781 C 166.644531 296.308594 166.28125 295.109375 165.769531 293.957031 C 165.257812 292.804688 164.605469 291.734375 163.820312 290.746094 C 163.035156 289.761719 162.136719 288.886719 161.128906 288.128906 C 160.121094 287.371094 159.03125 286.753906 157.867188 286.273438 L 139.300781 278.5625 C 138.136719 278.082031 136.925781 277.753906 135.675781 277.578125 C 134.425781 277.40625 133.175781 277.390625 131.921875 277.53125 C 130.667969 277.675781 129.449219 277.972656 128.273438 278.421875 C 127.09375 278.875 125.988281 279.46875 124.960938 280.199219 L 105.464844 294.117188 L 81.226562 269.886719 L 95.179688 250.347656 C 95.914062 249.320312 96.507812 248.21875 96.957031 247.042969 C 97.410156 245.863281 97.710938 244.648438 97.851562 243.394531 C 97.996094 242.140625 97.980469 240.890625 97.804688 239.640625 C 97.628906 238.390625 97.296875 237.183594 96.8125 236.019531 L 89.136719 217.484375 C 88.652344 216.320312 88.03125 215.234375 87.273438 214.226562 C 86.515625 213.222656 85.644531 212.324219 84.65625 211.539062 C 83.667969 210.757812 82.601562 210.105469 81.449219 209.59375 C 80.296875 209.082031 79.101562 208.722656 77.855469 208.511719 L 54.15625 204.550781 L 54.15625 170.296875 L 77.800781 166.347656 C 79.046875 166.140625 80.242188 165.777344 81.398438 165.265625 C 82.550781 164.753906 83.621094 164.101562 84.605469 163.316406 C 85.59375 162.53125 86.46875 161.632812 87.226562 160.625 C 87.984375 159.617188 88.605469 158.527344 89.085938 157.363281 L 96.792969 138.796875 C 97.277344 137.628906 97.605469 136.421875 97.78125 135.171875 C 97.957031 133.921875 97.972656 132.667969 97.832031 131.414062 C 97.6875 130.160156 97.390625 128.945312 96.9375 127.765625 C 96.484375 126.585938 95.890625 125.484375 95.15625 124.457031 L 81.226562 104.960938 L 105.464844 80.722656 L 124.960938 94.640625 C 125.988281 95.375 127.09375 95.96875 128.269531 96.421875 C 129.449219 96.875 130.664062 97.171875 131.917969 97.3125 C 133.175781 97.457031 134.425781 97.441406 135.675781 97.265625 C 136.925781 97.089844 138.136719 96.761719 139.300781 96.277344 L 157.867188 88.582031 C 159.03125 88.097656 160.121094 87.480469 161.128906 86.722656 C 162.136719 85.964844 163.035156 85.089844 163.820312 84.105469 C 164.605469 83.117188 165.257812 82.046875 165.769531 80.894531 C 166.28125 79.746094 166.644531 78.546875 166.851562 77.300781 L 170.800781 53.652344 L 205.054688 53.652344 L 209.003906 77.296875 C 209.210938 78.539062 209.574219 79.738281 210.085938 80.890625 C 210.601562 82.042969 211.25 83.113281 212.035156 84.097656 C 212.820312 85.085938 213.71875 85.957031 214.726562 86.714844 C 215.734375 87.472656 216.824219 88.09375 217.988281 88.574219 L 236.554688 96.28125 C 237.722656 96.765625 238.929688 97.09375 240.179688 97.269531 C 241.429688 97.445312 242.683594 97.460938 243.9375 97.320312 C 245.191406 97.175781 246.40625 96.878906 247.585938 96.425781 C 248.765625 95.972656 249.867188 95.378906 250.894531 94.648438 L 270.390625 80.726562 L 294.628906 104.96875 L 280.710938 124.460938 C 279.976562 125.488281 279.382812 126.59375 278.929688 127.773438 C 278.476562 128.949219 278.179688 130.167969 278.035156 131.421875 C 277.894531 132.675781 277.910156 133.929688 278.085938 135.179688 C 278.261719 136.429688 278.589844 137.636719 279.074219 138.804688 L 286.78125 157.367188 C 287.265625 158.535156 287.882812 159.621094 288.640625 160.628906 C 289.398438 161.636719 290.269531 162.535156 291.257812 163.320312 C 292.246094 164.109375 293.3125 164.757812 294.464844 165.269531 C 295.617188 165.785156 296.816406 166.144531 298.0625 166.351562 L 321.699219 170.296875 Z M 321.699219 204.550781 " fill-opacity="1" fill-rule="nonzero"/></g></svg>